<svg width="161" height="161" viewBox="0 0 161 161" fill="none" xmlns="http://www.w3.org/2000/svg">
<g clip-path="url(#clip0_4351_6604)">
<path d="M35.078 34.771C35.8109 35.0187 36.2565 35.6765 36.6098 36.3261C36.7935 36.6621 36.9579 37.0082 37.1487 37.3412C37.3315 37.6599 37.5862 38.1349 37.9791 38.2192C37.8816 38.1979 37.9841 37.3493 37.9963 37.266C38.0552 36.8641 38.1587 36.4702 38.2836 36.0845C38.5424 35.2867 38.8997 34.4797 39.4306 33.824C39.6123 33.5987 39.8214 33.3835 40.0761 33.2414C40.2558 33.1409 40.5502 33.3804 40.7319 33.2373C41.147 32.9094 40.8872 31.6 40.4791 31.328C40.0376 31.0347 39.4945 31.6437 39.2397 31.936C38.7982 32.4435 38.4003 33.0414 38.1333 33.6616C37.9963 33.9438 37.5812 35.6064 37.5812 35.6064C37.3 35.1862 37.0229 34.7721 36.7448 34.3579C35.9165 33.3865 34.939 32.407 33.9696 31.8497C30.219 30.6073 35.0791 38.2405 35.0791 34.771" fill="#26428F"/>
<path d="M83.6431 74.4554C82.8098 75.1457 83.0858 77.5097 83.9233 78.4761C84.2024 78.7582 84.4754 78.8963 84.7576 78.8963C84.7576 78.4761 84.8947 78.0619 84.8947 77.5097C86.0051 78.2 86.8375 81.8125 87.6728 81.9506C87.6728 81.3862 87.8058 80.8401 87.8058 80.4189C87.951 79.5906 88.0931 78.7572 88.6483 77.5087C90.0318 75.979 90.1729 77.9229 90.7231 75.2776C90.1729 73.3389 88.5062 75.979 87.8068 77.0956C87.8068 77.2336 87.6739 77.3656 87.6739 77.3656C87.1166 79.3165 87.5328 79.5916 86.5624 77.5097C86.1381 76.6774 85.0368 74.7265 83.9253 74.4554H83.6451H83.6431Z" fill="#26428F"/>
<path d="M89.3375 67.6465C89.3375 66.4474 89.2925 65.5233 89.2025 64.8744C88.7853 62.9306 88.3641 62.2352 87.8058 62.0972C86.9796 61.816 86.4213 63.6269 87.2557 64.1781C87.5318 64.3161 87.6718 64.5922 87.8058 64.8744C89.0574 66.8182 88.7853 69.0381 88.226 71.1261C88.5032 72.7887 89.3375 67.7977 89.3375 67.6465" fill="#26428F"/>
<path d="M71.5467 45.5986C70.0323 44.5349 69.268 42.6793 67.8702 41.4653C67.6327 41.2603 67.3657 41.0685 67.0572 41.0208C66.8978 40.9964 66.7181 41.0197 66.6065 41.1355C66.5263 41.2177 66.4938 41.3354 66.4695 41.4471C66.2482 42.4804 66.5365 43.6101 67.2257 44.411C67.317 44.5166 67.4246 44.6221 67.5606 44.6465C67.7586 44.6831 67.9514 44.5318 68.0316 44.3481C68.1128 44.1644 68.1077 43.9563 68.1017 43.7563C68.7127 44.3562 69.2588 45.019 69.8039 45.6798C70.3764 46.3751 70.9235 47.0918 71.4909 47.7911C71.8046 48.1779 72.103 47.3201 72.172 47.1253C72.3862 46.5101 72.4735 45.8625 72.6471 45.2373C72.8176 44.6221 72.9942 43.9938 73.3454 43.4609C73.6976 42.928 74.26 42.4926 74.8984 42.4601C75.0091 42.455 75.1309 42.457 75.2182 42.3901C75.2821 42.3393 75.3156 42.2601 75.342 42.182C75.4801 41.776 75.5044 41.3303 75.412 40.9121C75.3593 40.6716 75.2405 40.4117 75.0081 40.3315C74.8649 40.2828 74.7066 40.3133 74.5624 40.36C74.0367 40.5305 73.6012 40.9091 73.248 41.3334C72.2613 42.5169 71.8137 44.0761 71.564 45.5712" fill="#26428F"/>
<path d="M57.3391 84.7968C58.2689 85.287 59.3956 85.0454 60.3254 84.6882C61.6744 84.1684 62.8914 83.3584 64.0618 82.5099C65.5681 81.4166 67.0176 80.2453 68.4315 79.0353C67.9616 78.8536 67.4591 79.1683 67.0501 79.4627C65.2149 80.7873 63.2893 82.0409 61.1344 82.7342C60.4979 82.9382 59.8219 83.0945 59.1631 82.9758C58.8373 82.9169 58.4861 82.7555 58.3846 82.4398C58.3064 82.2013 58.3947 81.9414 58.5023 81.7151C58.9581 80.7589 59.7783 80.0088 60.2025 79.0384C60.3497 78.7034 60.4431 78.3055 60.2787 77.9777C60.1071 77.6366 59.7062 77.4762 59.3276 77.4265C58.95 77.3768 58.5602 77.4082 58.1897 77.3158C58.1258 77.2996 58.0577 77.2763 58.0222 77.2225C57.9522 77.1139 58.0486 76.9778 58.141 76.8885C58.8109 76.2419 59.6047 75.6928 60.0645 74.8828C60.1284 74.7701 60.1822 74.6229 60.1 74.5224C60.0026 74.4016 59.8087 74.4636 59.6747 74.5427C58.7277 75.097 57.9938 75.9486 57.3482 76.8347C57.0194 77.2864 56.7027 77.7635 56.5656 78.3045C56.4905 78.5999 56.4875 78.9541 56.7118 79.1622C56.9118 79.348 57.2142 79.3459 57.4863 79.3662C57.8101 79.3916 58.1308 79.4637 58.4353 79.5794C58.5419 79.621 58.6515 79.6697 58.7256 79.7581C58.9185 79.9864 58.7845 80.3346 58.6241 80.5863C58.2932 81.104 57.874 81.5598 57.537 82.0724C56.997 82.8946 56.7453 83.9269 57.3391 84.7947" fill="#26428F"/>
<path d="M112.952 29.7232L111.825 33.6301C112.375 34.3772 116.696 54.6944 115.577 55.7125C114.454 56.7275 107.234 61.1054 107.234 61.1054C105.643 62.6767 105.573 64.8723 105.573 64.8723L114.183 65.0113C105.999 68.4341 103.211 75.98 103.211 75.98C99.6606 66.875 94.0321 26.1847 94.0321 26.1847C92.2741 28.2595 92.8739 30.049 92.9562 31.0975C93.0374 32.1501 98.6242 68.6016 99.1114 72.5075C99.5986 76.4144 102.379 79.4494 102.379 79.4494C101.211 97.8472 119.406 99.0236 125.333 90.4596C128.566 85.7863 129.317 82.2012 129.328 79.9052C133.85 76.2276 136.147 71.4072 136.239 66.1157C136.568 47.3383 112.952 29.7232 112.952 29.7232M121.151 90.8575C117.077 92.9049 112.192 92.3304 108.734 89.6273C104.726 86.4949 104.319 81.8185 104.264 81.04C104.264 81.04 109.247 82.4803 113.711 80.2655C118.178 78.0507 125.402 76.3626 126.661 78.9804C126.719 79.1002 126.777 79.2159 126.83 79.3367C121.132 83.6456 114.674 86.0492 114.349 86.17C119.766 85.2068 124.167 83.4832 127.566 81.2105C127.54 81.5536 126.928 87.9535 121.151 90.8575ZM129.034 77.5289C128.93 77.1645 128.837 76.9788 128.837 76.9788C128.837 76.9788 127.149 71.2762 117.218 75.2948C107.284 79.3093 104.875 76.9473 104.875 76.9473C109.401 66.7653 126.95 65.2864 126.95 65.2864L128.894 61.2607C128.894 61.2607 112.463 61.5825 111.627 61.6322C112.053 61.5581 116.792 60.27 117.504 55.3095C118.247 50.1175 115.076 36.3463 115.076 36.3463C118.541 38.8089 138.286 57.3497 135.045 68.7589C134.09 72.1309 131.778 75.0735 129.033 77.5279" fill="#26428F"/>
<path d="M102.577 45.6626C102.577 45.6626 108.185 41.0725 110.053 39.0495C110.053 39.0495 110.616 39.3459 110.204 39.7509C110.204 39.7509 107.63 43.8233 101.21 48.862C101.21 48.862 100.113 49.2041 101.936 45.7448C103.758 42.2855 101.468 37.6396 99.2525 35.0157C97.6761 33.148 99.4058 32.0893 100.292 33.5896C101.177 35.0898 104.485 37.2843 102.577 45.6626Z" fill="#26428F"/>
<path d="M86.3015 26C86.3015 26 85.7067 27.1551 85.7057 27.1592C85.7026 27.1653 84.988 28.5559 84.985 28.561C85.9939 33.6525 86.9735 38.8221 87.8992 44.0669C89.5974 53.6845 91.7777 67.0323 93.7053 81.9515L95.442 76.2571C95.442 76.2571 89.368 38.1907 89.1426 36.7463C88.9173 35.2999 89.0076 34.2696 89.9049 34.9091C90.8022 35.5476 91.5767 36.5271 91.124 34.7944C90.6723 33.0627 86.7847 26.2771 86.3015 26" fill="#26428F"/>
<path d="M79.2388 34.9589C79.185 32.4801 81.3988 35.1791 81.5967 36.0805C81.8008 36.9819 82.5326 36.2713 82.5326 36.2713C82.5326 36.2713 78.0055 27.1937 76.4251 26.2822C76.4251 26.2822 75.0547 27.4069 75.5491 31.2763C76.0434 35.1436 82.6098 62.9468 82.8107 65.5717C83.0117 68.1936 71.6878 72.7278 67.2592 66.5442C67.2592 66.5442 70.7956 64.1415 76.1134 62.7712C76.1134 62.7712 78.3567 59.2094 76.7123 58.4857C75.0659 57.766 66.5649 53.5343 55.4613 58.308C55.4613 58.308 54.1965 61.472 55.1841 62.0678C56.1687 62.6626 56.7737 59.923 61.5719 65.4702C61.5719 65.4702 49.6115 71.5676 46.8232 76.519C45.7087 78.5014 44.0196 80.1966 42.2829 81.6359C41.6931 82.1241 41.0719 82.6022 40.4253 83.0468C40.0244 83.3239 39.6102 83.5889 39.186 83.8315C38.2206 84.3928 37.2015 84.8516 36.1378 85.1409C34.6304 85.552 32.1709 85.5337 31.498 83.7513C31.1924 82.9453 31.4218 81.8714 31.4756 81.033C31.5396 80.0169 31.6634 79.01 31.8258 78.0091C32.2593 75.3355 33.0043 72.5928 34.5248 70.3151C34.6903 70.0694 34.8659 69.8268 35.0496 69.5954C34.47 70.3283 33.8772 71.0286 33.3606 71.8092C32.1019 73.7114 31.1112 75.7953 30.4291 77.9706C29.7379 80.1752 29.4354 82.5342 29.3745 84.8556C29.3552 85.6108 29.339 86.363 29.68 87.0603C30.4606 88.6479 32.6054 89.2234 34.2396 89.1473C36.1956 89.0488 38.0379 88.1474 39.6346 87.0664C39.7077 87.0187 39.7818 86.968 39.8508 86.9172C40.3035 86.6056 40.743 86.2726 41.1704 85.9255C42.6351 84.7338 43.9618 83.3676 45.1971 81.9496C55.5871 70.0522 62.9472 68.3601 64.0435 68.2373C65.1367 68.1154 71.1712 77.4519 79.7544 71.7382C80.6436 71.1484 84.7728 68.6605 84.7566 62.5144C84.7474 59.9311 79.2895 37.4325 79.2388 34.9568M60.7304 60.2864C60.7304 60.2864 65.8056 58.6268 72.3984 60.8447C72.3984 60.8447 67.2815 62.1916 65.7843 63.6929C65.7843 63.6929 63.6172 62.1094 60.7314 60.2874" fill="#26428F"/>
<path d="M54.025 56.7509C54.025 56.7509 57.264 51.9822 52.5339 50.6971C51.73 50.4789 50.9311 50.2241 51.666 48.7736C52.4009 47.3231 53.7712 43.2254 51.4478 39.4149C51.0377 38.7419 49.6704 36.2053 49.8704 35.2511C49.8704 35.2511 50.7088 36.3545 52.071 36.3301C52.071 36.3301 48.2006 30.7484 47.28 30.2683C46.3593 29.7892 44.5028 31.8862 46.5075 35.7942C48.5112 39.7021 51.0763 43.9866 51.3635 45.696C51.6508 47.4043 49.1213 48.2702 49.1213 48.2702C49.1213 48.2702 42.8848 50.6169 43.8471 53.8174C43.8471 53.8174 50.5363 53.5687 52.5562 54.6558C54.5752 55.7419 38.8541 66.0518 31.7112 63.6644C31.0747 63.4522 23.0477 61.7957 27.25 47.3079C27.25 47.3079 21.6896 57.2056 27.8296 64.6277C33.9696 72.0517 49.5588 64.0349 54.024 56.7519" fill="#26428F"/>
<path d="M73.5058 27.957L56.1099 39.2078L55.8622 41.6287L73.2592 29.7709L73.5058 27.957Z" fill="#26428F"/>
<path d="M57.4931 99.1586L54.4927 102.16L57.4942 105.16L60.4945 102.159L57.4931 99.1586Z" fill="#26428F"/>
<path d="M40.0317 67.7595L37.6997 70.0914L40.0317 72.4234L42.3636 70.0914L40.0317 67.7595Z" fill="#26428F"/>
<path d="M44.696 67.7593L42.364 70.0913L44.696 72.4233L47.0279 70.0913L44.696 67.7593Z" fill="#26428F"/>
<path d="M58.0582 43.4287L55.0579 46.4302L58.0593 49.4306L61.0597 46.4291L58.0582 43.4287Z" fill="#26428F"/>
<path d="M92.606 97.7143C92.7309 98.5202 92.9349 98.6532 93.6738 98.5141V97.4432C94.1773 97.964 94.2879 98.7049 93.9225 99.1648C93.4241 99.7931 92.8821 99.385 92.3441 99.1434C92.2264 99.3322 92.1188 99.5078 92.0081 99.6814C91.6133 100.3 91.2986 100.419 90.6561 100.057C89.91 99.6357 89.2878 99.8103 88.7163 100.336C88.0393 100.959 87.3937 101.613 86.7279 102.247C85.2093 103.694 83.4259 104.518 81.14 104.793C81.3511 104.668 81.4527 104.591 81.5663 104.544C83.9791 103.526 86.1564 102.165 87.9632 100.243C88.3195 99.8631 88.7143 99.5139 89.1274 99.1972C89.5659 98.8613 90.04 98.7547 90.583 99.0501C91.4945 99.5444 91.928 99.3556 92.2934 98.3842C92.3715 98.1791 92.4781 97.9863 92.606 97.7163" fill="#26428F"/>
<path d="M26.9668 67.408C26.6186 68.6149 26.2573 69.8177 25.9284 71.0307C25.8198 71.4316 25.6878 71.8782 25.765 72.265C25.8604 72.741 26.0573 73.3551 26.4126 73.5683C26.6704 73.7216 27.2733 73.344 27.6966 73.1491C27.8722 73.0679 27.9819 72.8456 28.1463 72.6608C28.7025 74.1174 28.5178 75.1853 27.6418 75.8197C26.7851 76.4409 25.9162 76.3099 25.4229 75.3822C25.1448 74.8584 24.9428 74.2382 24.9093 73.6515C24.7763 71.3321 25.5133 69.2553 26.9668 67.41" fill="#26428F"/>
<path d="M124.704 51.0078C124.415 52.0097 124.115 53.0075 123.843 54.0124C123.754 54.3453 123.643 54.7168 123.708 55.0365C123.788 55.4314 123.951 55.942 124.246 56.1166C124.46 56.2445 124.96 55.9308 125.311 55.7694C125.456 55.7014 125.547 55.5187 125.683 55.3654C126.145 56.5723 125.992 57.4584 125.265 57.9853C124.554 58.4999 123.833 58.3913 123.425 57.6209C123.195 57.1864 123.027 56.6728 122.999 56.1856C122.888 54.261 123.499 52.5385 124.705 51.0078" fill="#26428F"/>
<path d="M107.466 46.0807C107.052 47.516 106.623 48.9462 106.233 50.3875C106.104 50.8646 105.946 51.3965 106.038 51.8553C106.152 52.4217 106.384 53.1525 106.81 53.4053C107.116 53.588 107.832 53.1383 108.335 52.9069C108.543 52.8105 108.675 52.5466 108.87 52.3263C109.532 54.0569 109.312 55.3268 108.27 56.083C107.251 56.8209 106.217 56.6656 105.631 55.5612C105.301 54.938 105.061 54.2021 105.021 53.5037C104.863 50.7448 105.738 48.2752 107.466 46.0807" fill="#26428F"/>
<path d="M32.3111 56.5195C31.7355 53.0906 31.0707 49.3563 30.4962 45.6067C30.1774 43.5299 31.2118 42.2012 33.249 41.5688C33.1637 41.4003 33.0774 41.2328 32.9922 41.0643C32.3567 41.2887 31.7203 41.512 30.958 41.781C31.1356 41.0928 31.226 40.3639 31.5102 39.7214C31.9487 38.7297 32.7262 38.413 33.7037 39.0403C34.2681 39.4027 34.8436 39.7783 35.3197 40.2432C36.49 41.3891 36.1277 42.8244 34.5777 43.3634C32.2965 44.1572 31.4202 45.7237 31.9487 48.0631C32.7709 51.699 32.8602 54.7584 32.3131 56.5195" fill="#26428F"/>
<path d="M100.498 89.2772C97.3574 95.1411 94.7751 89.6355 94.7751 89.6355C88.6564 98.3355 86.3015 90.6769 86.3015 90.6769C76.1906 100.607 73.6865 89.7157 73.6865 89.7157C62.0794 97.5732 49.8511 98.8379 43.571 93.379C42.2869 92.2625 40.672 90.3613 39.6356 87.0684C40.2832 86.5751 40.9308 86.0818 41.5794 85.5885C42.2392 87.0218 43.4451 89.0975 45.6224 90.749C52.0243 95.606 61.244 92.5578 64.6363 91.4362C66.9719 90.6648 70.4637 89.2021 74.2082 86.299C74.4995 86.9426 75.0811 88.2307 75.0811 88.2307C75.9571 92.5964 82.6534 90.4415 84.3282 88.6052C86.0031 86.77 87.0506 86.563 87.0506 86.563C86.9359 88.4601 87.889 89.2366 87.889 89.2366C90.719 91.2271 92.9308 87.78 93.8514 86.5061C94.769 85.2322 95.4136 84.9977 95.4136 84.9977C95.6663 90.3511 100.042 87.44 100.024 86.6908C100.01 85.9407 98.5602 84.1167 98.5602 84.1167L99.4301 80.6625C99.8301 81.0746 101.508 82.8905 101.513 85.6514C101.516 87.3851 100.857 88.6783 100.498 89.2782" fill="#26428F"/>
<path d="M130.713 93.5952C130.651 93.313 130.589 93.1628 130.516 93.0664C130.419 92.9344 130.319 92.8918 129.878 92.8918H129.483V95.6497C129.483 96.0983 129.533 96.1633 130.083 96.1988V96.3612H128.369V96.1988C128.899 96.1633 128.949 96.1014 128.949 95.6497V92.8918H128.613C128.11 92.8918 127.99 92.9466 127.912 93.0664C127.838 93.1638 127.789 93.3293 127.716 93.5952H127.542C127.569 93.2278 127.596 92.8532 127.607 92.5396H127.731C127.816 92.6827 127.889 92.6827 128.06 92.6827H130.403C130.562 92.6827 130.616 92.6471 130.705 92.5396H130.829C130.829 92.7984 130.859 93.2359 130.887 93.5759L130.713 93.5942V93.5952Z" fill="#26428F"/>
<path d="M134.47 96.3601V96.1977C134.938 96.151 134.961 96.1124 134.953 95.5166L134.934 93.248H134.91L133.494 96.3256H133.379L132.075 93.3251H132.06L131.975 94.9137C131.951 95.3816 131.951 95.6211 131.963 95.8465C131.975 96.1124 132.11 96.152 132.492 96.1896V96.3601H131.135V96.1896C131.468 96.1591 131.58 96.0779 131.627 95.8536C131.657 95.6567 131.691 95.4131 131.738 94.8061L131.823 93.6692C131.873 92.9343 131.839 92.9039 131.32 92.8541V92.6836H132.307L133.618 95.4638L134.948 92.6836H135.961V92.8541C135.454 92.8957 135.419 92.916 135.439 93.4763L135.493 95.5176C135.512 96.1134 135.528 96.152 136.031 96.1987V96.3611H134.469L134.47 96.3601Z" fill="#26428F"/>
<path d="M40.6558 77.0256C40.4791 76.9748 39.3585 79.3632 39.0307 82.4347C38.9637 83.0661 38.9434 83.6031 38.9383 84C39.3301 83.7675 39.731 83.5148 40.1401 83.2407C40.338 83.1087 40.5309 82.9748 40.7177 82.8418C40.5908 82.3525 40.4477 81.6765 40.3837 80.8624C40.2 78.5583 40.7938 77.0641 40.6558 77.0245" fill="#26428F"/>
<path d="M3.22887 121.441C2.73657 121.441 2.293 121.362 1.89611 121.204C1.49923 121.045 1.16122 120.839 0.882078 120.589C0.602939 120.34 0.385719 120.059 0.231431 119.746C0.0771437 119.433 0 119.123 0 118.813C0 118.43 0.0284214 118.088 0.0872942 117.793C0.145152 117.497 0.220266 117.236 0.312635 117.01C0.40399 116.785 0.504479 116.587 0.61309 116.416C0.7217 116.245 0.82625 116.088 0.925725 115.946H1.67686C1.49314 116.289 1.33073 116.653 1.18862 117.041C1.04652 117.429 0.976477 117.81 0.976477 118.186C0.976477 118.987 1.17847 119.571 1.58348 119.938C1.98747 120.304 2.54067 120.488 3.24207 120.488C3.94347 120.488 4.53524 120.425 4.91994 120.301C5.30363 120.175 5.57668 120.017 5.7401 119.825C5.90251 119.632 5.98981 119.423 6.003 119.193C6.01518 118.963 6.02127 118.744 6.02127 118.536C6.02127 118.435 5.95428 118.386 5.82029 118.386H4.91893C4.5931 118.386 4.32411 118.374 4.11095 118.347C3.8988 118.323 3.72929 118.279 3.60444 118.216C3.47857 118.154 3.39229 118.066 3.34154 117.954C3.2918 117.842 3.26643 117.698 3.26643 117.522C3.26643 117.196 3.33038 116.845 3.4603 116.465C3.59023 116.086 3.78613 115.734 4.04903 115.414C4.31193 115.093 4.6469 114.826 5.05596 114.613C5.46503 114.401 5.95326 114.294 6.52068 114.294C6.89523 114.294 7.22106 114.364 7.49614 114.506C7.77122 114.648 8.00772 114.836 8.20363 115.07C8.39852 115.303 8.55991 115.573 8.68476 115.878C8.81063 116.182 8.91213 116.495 8.99131 116.815C9.07048 117.137 9.13037 117.459 9.173 117.78C9.21462 118.101 9.24405 118.392 9.26029 118.65H10.4865V119.551H8.27164C8.27164 118.867 8.24017 118.28 8.17724 117.793C8.11532 117.304 8.03208 116.898 7.92753 116.573C7.82298 116.247 7.70422 115.989 7.57024 115.796C7.43625 115.606 7.30125 115.458 7.16422 115.358C7.02719 115.257 6.89015 115.195 6.75718 115.171C6.62421 115.146 6.50748 115.134 6.40699 115.134C6.16439 115.134 5.91977 115.177 5.67413 115.265C5.42747 115.353 5.20416 115.48 5.00521 115.647C4.80423 115.814 4.64182 116.017 4.51697 116.254C4.39212 116.493 4.3302 116.762 4.3302 117.061C4.3302 117.144 4.34949 117.237 4.38704 117.336C4.4246 117.437 4.50986 117.487 4.64385 117.487H6.07101C6.19586 117.487 6.31259 117.496 6.4212 117.513C6.5288 117.529 6.6232 117.571 6.70237 117.638C6.78154 117.705 6.84346 117.811 6.88914 117.957C6.93482 118.103 6.95816 118.301 6.95816 118.551C6.95816 119.119 6.88508 119.59 6.73891 119.96C6.59274 120.332 6.36943 120.626 6.06999 120.842C5.76954 121.06 5.38382 121.214 4.91182 121.306C4.44084 121.397 3.87952 121.443 3.22887 121.443M1.87784 123.096C1.87784 122.896 1.94382 122.728 2.07781 122.595C2.21179 122.461 2.3742 122.394 2.56706 122.394C2.75992 122.394 2.91928 122.461 3.04819 122.595C3.17812 122.728 3.24207 122.896 3.24207 123.096C3.24207 123.296 3.17812 123.446 3.04819 123.572C2.91827 123.696 2.75789 123.758 2.56706 123.758C2.37623 123.758 2.21179 123.696 2.07781 123.572C1.94483 123.446 1.87784 123.287 1.87784 123.096ZM3.93027 123.096C3.93027 122.896 3.99625 122.728 4.13125 122.595C4.26422 122.461 4.42663 122.394 4.61847 122.394C4.81032 122.394 4.9707 122.461 5.10062 122.595C5.23055 122.728 5.2945 122.896 5.2945 123.096C5.2945 123.296 5.23055 123.446 5.10062 123.572C4.9707 123.696 4.81032 123.758 4.61847 123.758C4.42663 123.758 4.26422 123.696 4.13125 123.572C3.99726 123.446 3.93027 123.287 3.93027 123.096Z" fill="#26428F"/>
<path d="M12.7541 118.65V114.52L13.7174 114.245V119.552H9.92517V118.651H12.7541V118.65ZM11.4894 121.316C11.4894 121.115 11.5564 120.949 11.6903 120.816C11.8233 120.683 11.9857 120.616 12.1786 120.616C12.3714 120.616 12.5308 120.682 12.6597 120.816C12.7896 120.949 12.8536 121.116 12.8536 121.316C12.8536 121.516 12.7896 121.666 12.6597 121.791C12.5298 121.916 12.3704 121.979 12.1786 121.979C11.9867 121.979 11.8243 121.916 11.6903 121.791C11.5574 121.665 11.4894 121.508 11.4894 121.316Z" fill="#26428F"/>
<path d="M17.134 114.181C17.1929 114.541 17.2467 114.918 17.2964 115.314C17.3472 115.711 17.3857 116.107 17.4152 116.503C17.4446 116.9 17.47 117.281 17.4903 117.649C17.5106 118.015 17.5258 118.349 17.5339 118.65H18.9103V119.551H17.5339C17.5177 119.768 17.4609 120.034 17.3654 120.346C17.269 120.659 17.1025 120.966 16.865 121.265C16.6275 121.566 16.2996 121.825 15.8825 122.042C15.4653 122.258 14.9273 122.379 14.2685 122.404L14.031 121.691C14.4979 121.615 14.9192 121.477 15.2958 121.278C15.4541 121.194 15.6084 121.091 15.7586 120.971C15.9088 120.85 16.0418 120.706 16.1585 120.539C16.2753 120.372 16.3707 120.18 16.4468 119.963C16.5209 119.746 16.5595 119.499 16.5595 119.225C16.5595 118.474 16.5392 117.685 16.4976 116.859C16.456 116.033 16.3392 115.241 16.1474 114.481L17.136 114.18L17.134 114.181Z" fill="#26428F"/>
<path d="M23.2284 119.551C22.9614 119.551 22.7605 119.53 22.6285 119.488C22.4945 119.445 22.395 119.33 22.3281 119.138C22.2194 119.33 22.0966 119.445 21.9586 119.488C21.8215 119.53 21.6185 119.551 21.3516 119.551H18.5358V118.65H21.1638L19.1743 116.147C19.424 115.821 19.6666 115.542 19.9001 115.308C20.1335 115.075 20.3751 114.883 20.6258 114.732C20.8765 114.581 21.1394 114.472 21.4145 114.401C21.6896 114.329 21.9941 114.294 22.3281 114.294C22.662 114.294 22.9645 114.327 23.2355 114.394C23.5065 114.461 23.7674 114.567 24.0181 114.712C24.2688 114.858 24.5145 115.046 24.756 115.276C24.9976 115.505 25.2524 115.783 25.5194 116.108L23.5289 118.649H26.2695V119.55H23.2284V119.551ZM24.418 116.109C24.3267 116 24.213 115.892 24.08 115.784C23.9471 115.676 23.7897 115.577 23.6101 115.49C23.4304 115.403 23.2345 115.329 23.0213 115.271C22.8092 115.212 22.5767 115.182 22.327 115.182C22.0773 115.182 21.8347 115.214 21.6267 115.278C21.4186 115.34 21.2298 115.417 21.0633 115.509C20.8958 115.6 20.7517 115.702 20.6309 115.816C20.5101 115.928 20.4116 116.035 20.3365 116.135L22.327 118.651L24.417 116.11L24.418 116.109Z" fill="#26428F"/>
<path d="M27.5596 118.651V111.516L28.5229 111.241V119.551H25.8949V118.651H27.5596Z" fill="#26428F"/>
<path d="M29.9876 111.516L30.9509 111.241V119.551H29.9876V111.516Z" fill="#26428F"/>
<path d="M38.8226 121.441C38.3303 121.441 37.8867 121.362 37.4898 121.204C37.0929 121.045 36.7549 120.839 36.4758 120.589C36.1966 120.34 35.9794 120.059 35.8251 119.746C35.6708 119.433 35.5937 119.123 35.5937 118.813C35.5937 118.43 35.6231 118.088 35.681 117.793C35.7399 117.497 35.814 117.236 35.9063 117.01C35.9977 116.785 36.0982 116.587 36.2068 116.416C36.3154 116.245 36.4189 116.088 36.5194 115.946H37.2705C37.0868 116.289 36.9244 116.653 36.7823 117.041C36.6402 117.429 36.5702 117.81 36.5702 118.186C36.5702 118.987 36.7722 119.571 37.1772 119.938C37.5812 120.304 38.1344 120.488 38.8358 120.488C39.5372 120.488 40.1289 120.425 40.5136 120.301C40.8973 120.175 41.1704 120.017 41.3338 119.825C41.4962 119.632 41.5835 119.423 41.5967 119.193C41.6089 118.963 41.615 118.744 41.615 118.536C41.615 118.435 41.548 118.386 41.414 118.386H40.5126C40.1868 118.386 39.9178 118.374 39.7046 118.347C39.4925 118.323 39.323 118.279 39.1981 118.216C39.0723 118.154 38.985 118.066 38.9352 117.954C38.8855 117.842 38.8601 117.698 38.8601 117.522C38.8601 117.196 38.9241 116.845 39.054 116.465C39.1839 116.086 39.3798 115.734 39.6427 115.414C39.9056 115.093 40.2406 114.826 40.6496 114.613C41.0587 114.401 41.547 114.294 42.1144 114.294C42.4899 114.294 42.8147 114.364 43.0908 114.506C43.3659 114.648 43.6014 114.836 43.7983 115.07C43.9932 115.303 44.1546 115.573 44.2795 115.878C44.4053 116.182 44.5068 116.495 44.586 116.815C44.6652 117.137 44.7251 117.459 44.7677 117.78C44.8093 118.101 44.8388 118.392 44.855 118.65H46.0812V119.551H43.8663C43.8663 118.867 43.8349 118.28 43.7719 117.793C43.71 117.304 43.6268 116.898 43.5222 116.573C43.4177 116.247 43.2989 115.989 43.1649 115.796C43.031 115.606 42.897 115.458 42.7589 115.358C42.6219 115.257 42.4849 115.195 42.3519 115.171C42.2189 115.146 42.1022 115.134 42.0017 115.134C41.7591 115.134 41.5155 115.177 41.2688 115.265C41.0222 115.353 40.7989 115.48 40.5999 115.647C40.3989 115.814 40.2365 116.017 40.1117 116.254C39.9868 116.493 39.9249 116.762 39.9249 117.061C39.9249 117.144 39.9432 117.237 39.9817 117.336C40.0193 117.437 40.1046 117.487 40.2386 117.487H41.6657C41.7906 117.487 41.9073 117.496 42.0159 117.513C42.1235 117.529 42.2179 117.571 42.2971 117.638C42.3762 117.705 42.4382 117.811 42.4849 117.957C42.5295 118.103 42.5529 118.301 42.5529 118.551C42.5529 119.119 42.4798 119.59 42.3336 119.96C42.1874 120.332 41.9641 120.626 41.6647 120.842C41.3642 121.06 40.9785 121.214 40.5065 121.306C40.0355 121.397 39.4742 121.443 38.8236 121.443M37.4725 123.096C37.4725 122.896 37.5385 122.728 37.6725 122.595C37.8065 122.461 37.9689 122.394 38.1618 122.394C38.3546 122.394 38.514 122.461 38.6429 122.595C38.7718 122.728 38.8368 122.896 38.8368 123.096C38.8368 123.296 38.7718 123.446 38.6429 123.572C38.513 123.696 38.3526 123.758 38.1618 123.758C37.9709 123.758 37.8065 123.696 37.6725 123.572C37.5395 123.446 37.4725 123.287 37.4725 123.096ZM39.525 123.096C39.525 122.896 39.592 122.728 39.726 122.595C39.8589 122.461 40.0213 122.394 40.2132 122.394C40.405 122.394 40.5654 122.461 40.6953 122.595C40.8253 122.728 40.8892 122.896 40.8892 123.096C40.8892 123.296 40.8253 123.446 40.6953 123.572C40.5654 123.696 40.405 123.758 40.2132 123.758C40.0213 123.758 39.8589 123.696 39.726 123.572C39.593 123.446 39.525 123.287 39.525 123.096Z" fill="#26428F"/>
<path d="M47.1835 118.651V111.516L48.1468 111.241V119.551H45.5189V118.651H47.1835Z" fill="#26428F"/>
<path d="M49.4867 111.354C49.6948 111.545 49.9475 111.758 50.2439 111.992C50.5403 112.225 50.8448 112.478 51.1574 112.749C51.4701 113.021 51.7827 113.306 52.0964 113.607C52.409 113.907 52.6902 114.22 52.9409 114.545C52.9571 114.529 52.9866 114.486 53.0282 114.414C53.0698 114.344 53.1134 114.258 53.1601 114.157C53.2058 114.058 53.2454 113.949 53.2789 113.831C53.3124 113.715 53.3286 113.606 53.3286 113.505V111.516L54.2929 111.241V113.544C54.2929 114.211 54.0422 114.833 53.5418 115.409C54.2341 116.477 54.5802 117.428 54.5802 118.263V119.551H49.2857V118.062C49.5943 117.862 49.9008 117.639 50.2053 117.393C50.5098 117.146 50.7961 116.903 51.063 116.66C51.33 116.419 51.5736 116.187 51.7949 115.966C52.0162 115.745 52.1969 115.564 52.339 115.422C52.1055 115.096 51.8406 114.785 51.5442 114.489C51.2478 114.194 50.9463 113.913 50.6367 113.651C50.3282 113.389 50.0277 113.146 49.7354 112.925C49.443 112.705 49.1893 112.506 48.972 112.33L49.4857 111.354H49.4867ZM53.6798 118.65C53.6798 118.466 53.6595 118.266 53.6179 118.05C53.5763 117.833 53.5174 117.616 53.4423 117.404C53.3672 117.192 53.2779 116.985 53.1723 116.785C53.0678 116.586 52.9541 116.41 52.8282 116.259C52.6526 116.435 52.4628 116.631 52.2588 116.848C52.0537 117.064 51.8375 117.281 51.6071 117.499C51.3777 117.716 51.1422 117.924 50.8996 118.124C50.658 118.325 50.4165 118.499 50.1739 118.65H53.6788H53.6798Z" fill="#26428F"/>
<path d="M55.8571 111.516L56.8204 111.241V119.551H55.8571V111.516Z" fill="#26428F"/>
<path d="M71.7274 118.65V119.551H63.942C63.5918 119.551 63.267 119.523 62.9655 119.464C62.6651 119.405 62.4022 119.31 62.1768 119.175C61.9515 119.042 61.7769 118.867 61.651 118.651C61.5252 118.433 61.4633 118.172 61.4633 117.862C61.4633 117.394 61.5069 116.991 61.5952 116.654C61.6825 116.317 61.7871 116.026 61.9078 115.785C62.0286 115.543 62.1565 115.332 62.2895 115.153C62.4225 114.973 62.5362 114.805 62.6275 114.646H63.5045C63.2122 115.114 62.9726 115.584 62.7848 116.06C62.5971 116.535 62.4986 116.966 62.4905 117.349C62.4814 117.734 62.5839 118.046 62.797 118.288C63.0092 118.531 63.3787 118.651 63.9044 118.651H69.5989V114.521L70.5622 114.246V118.652H71.7264L71.7274 118.65ZM65.6199 121.316C65.6199 121.115 65.6859 120.949 65.8209 120.816C65.9538 120.683 66.1162 120.616 66.3081 120.616C66.4999 120.616 66.6603 120.682 66.7902 120.816C66.9202 120.949 66.9841 121.116 66.9841 121.316C66.9841 121.516 66.9202 121.666 66.7902 121.791C66.6603 121.916 66.4999 121.979 66.3081 121.979C66.1162 121.979 65.9538 121.916 65.8209 121.791C65.6869 121.665 65.6199 121.508 65.6199 121.316Z" fill="#26428F"/>
<path d="M73.3535 118.651V114.519L74.3168 114.244V118.651H76.1957V114.519L77.1589 114.244V118.651H79.049V114.519L80.0122 114.244V119.551H71.3508V118.651H73.3535Z" fill="#26428F"/>
<path d="M81.6394 111.516L82.6017 111.241V118.65H84.0045V119.551H81.6394V111.516Z" fill="#26428F"/>
<path d="M92.2142 119.551H83.6411L83.6289 118.651H89.911C89.6695 118.157 89.436 117.706 89.2107 117.293C88.9853 116.879 88.7661 116.522 88.5539 116.222C88.3408 115.922 88.1286 115.687 87.9155 115.515C87.7033 115.345 87.4841 115.258 87.2587 115.258C87.0334 115.258 86.8202 115.347 86.5949 115.522C86.3695 115.697 86.1483 115.918 85.931 116.186L85.2926 115.611C85.4509 115.435 85.6154 115.265 85.7869 115.103C85.9574 114.941 86.1391 114.795 86.331 114.666C86.5228 114.536 86.7258 114.434 86.938 114.359C87.1511 114.283 87.3826 114.245 87.6323 114.245C87.9073 114.245 88.1631 114.332 88.3956 114.502C88.629 114.673 88.8635 114.921 89.097 115.246C89.3304 115.572 89.5832 115.972 89.8542 116.447C90.1252 116.922 90.4358 117.465 90.786 118.074C90.9027 118.274 91.0408 118.42 91.1991 118.513C91.3575 118.604 91.529 118.65 91.7117 118.65H92.2132V119.55L92.2142 119.551Z" fill="#26428F"/>
<path d="M93.5033 118.651V111.516L94.4666 111.241V119.551H91.8386V118.651H93.5033Z" fill="#26428F"/>
<path d="M95.9313 111.516L96.8946 111.241V119.551H95.9313V111.516Z" fill="#26428F"/>
<path d="M101.901 117.272C101.901 116.939 101.993 116.613 102.176 116.297C102.36 115.98 102.647 115.69 103.039 115.427C103.431 115.165 103.932 114.937 104.541 114.745C105.15 114.554 105.876 114.412 106.719 114.319V118.651H108.521V119.551H106.268C106.176 119.493 106.099 119.428 106.036 119.357C105.973 119.287 105.921 119.222 105.88 119.163C105.838 119.096 105.805 119.03 105.779 118.963C105.738 119.072 105.654 119.171 105.529 119.264C105.42 119.34 105.264 119.406 105.06 119.464C104.856 119.523 104.577 119.551 104.227 119.551C103.426 119.551 102.838 119.349 102.463 118.945C102.088 118.54 101.9 117.984 101.9 117.273M102.939 112.718C102.939 112.518 103.005 112.351 103.139 112.217C103.272 112.083 103.436 112.016 103.627 112.016C103.819 112.016 103.98 112.083 104.11 112.217C104.238 112.35 104.303 112.518 104.303 112.718C104.303 112.918 104.238 113.068 104.11 113.194C103.98 113.319 103.819 113.38 103.627 113.38C103.436 113.38 103.273 113.319 103.139 113.194C103.005 113.068 102.939 112.91 102.939 112.718M102.977 117.286C102.977 117.579 103.012 117.814 103.083 117.994C103.153 118.174 103.244 118.312 103.351 118.407C103.46 118.502 103.583 118.568 103.721 118.601C103.858 118.634 103.994 118.652 104.128 118.652H105.755V115.41C105.245 115.501 104.814 115.614 104.459 115.748C104.104 115.881 103.818 116.029 103.602 116.191C103.384 116.356 103.226 116.527 103.127 116.711C103.026 116.895 102.977 117.086 102.977 117.286ZM104.992 112.718C104.992 112.518 105.058 112.351 105.192 112.217C105.325 112.083 105.488 112.016 105.68 112.016C105.872 112.016 106.033 112.083 106.162 112.217C106.292 112.35 106.356 112.518 106.356 112.718C106.356 112.918 106.292 113.068 106.162 113.194C106.033 113.319 105.872 113.38 105.68 113.38C105.488 113.38 105.326 113.319 105.192 113.194C105.058 113.068 104.992 112.91 104.992 112.718Z" fill="#26428F"/>
<path d="M113.653 119.551C113.536 119.768 113.438 119.903 113.36 119.958C113.279 120.012 113.178 120.039 113.053 120.039C112.945 120.039 112.828 120.01 112.703 119.952C112.452 119.851 112.116 119.707 111.696 119.52C111.275 119.333 110.759 119.084 110.15 118.775C110.008 119.092 109.837 119.3 109.636 119.401C109.437 119.501 109.161 119.551 108.811 119.551H108.147V118.65H109.135C109.386 118.074 109.661 117.534 109.961 117.029C110.262 116.524 110.551 116.084 110.83 115.708C111.109 115.332 111.369 115.037 111.607 114.82C111.844 114.603 112.034 114.494 112.176 114.494C112.376 114.494 112.56 114.575 112.726 114.739C112.894 114.901 113.046 115.107 113.184 115.358C113.321 115.609 113.441 115.889 113.54 116.196C113.641 116.506 113.724 116.805 113.791 117.098C113.857 117.39 113.906 117.659 113.935 117.906C113.965 118.151 113.975 118.337 113.967 118.463C113.967 118.487 113.965 118.517 113.96 118.55C113.956 118.584 113.953 118.616 113.953 118.65H115.243V119.551H113.653V119.551ZM113.028 118.938C112.994 118.562 112.95 118.185 112.896 117.805C112.841 117.425 112.777 117.083 112.702 116.779C112.627 116.474 112.54 116.226 112.439 116.034C112.339 115.842 112.227 115.747 112.101 115.747C111.984 115.747 111.844 115.834 111.682 116.008C111.519 116.184 111.358 116.386 111.2 116.616C111.041 116.846 110.899 117.07 110.774 117.291C110.649 117.513 110.566 117.665 110.524 117.748C110.699 117.881 110.895 118.01 111.112 118.13C111.33 118.252 111.551 118.363 111.776 118.468C112.002 118.572 112.223 118.665 112.44 118.743C112.657 118.822 112.853 118.886 113.029 118.937" fill="#26428F"/>
<path d="M116.044 118.651V111.516L117.008 111.203V117.236C117.826 116.376 118.599 115.743 119.329 115.333C120.06 114.924 120.75 114.72 121.401 114.72C121.876 114.72 122.259 114.831 122.546 115.051C122.833 115.273 123.058 115.554 123.221 115.896C123.383 116.239 123.495 116.611 123.553 117.016C123.611 117.421 123.644 117.811 123.652 118.187V118.651H124.742V119.551H114.867V118.651H116.043H116.044ZM122.69 118.651V117.511C122.69 117.277 122.672 117.048 122.633 116.823C122.596 116.597 122.516 116.395 122.396 116.216C122.275 116.036 122.108 115.892 121.895 115.784C121.683 115.676 121.401 115.621 121.052 115.621C120.809 115.621 120.519 115.696 120.181 115.846C119.843 115.995 119.491 116.207 119.123 116.478C118.757 116.749 118.386 117.071 118.016 117.442C117.644 117.813 117.304 118.216 116.997 118.651H122.691H122.69ZM119.161 112.718C119.161 112.518 119.228 112.351 119.362 112.217C119.495 112.083 119.657 112.016 119.85 112.016C120.043 112.016 120.202 112.083 120.331 112.217C120.461 112.35 120.525 112.518 120.525 112.718C120.525 112.918 120.461 113.068 120.331 113.194C120.201 113.319 120.042 113.381 119.85 113.381C119.658 113.381 119.496 113.319 119.362 113.194C119.229 113.068 119.161 112.911 119.161 112.718Z" fill="#26428F"/>
<path d="M127.195 118.651V114.52L128.159 114.245V119.552H124.367V118.652H127.195V118.651ZM125.743 112.718C125.743 112.518 125.81 112.351 125.944 112.217C126.077 112.083 126.241 112.016 126.433 112.016C126.624 112.016 126.785 112.083 126.914 112.217C127.044 112.35 127.108 112.518 127.108 112.718C127.108 112.918 127.044 113.068 126.914 113.194C126.784 113.319 126.624 113.38 126.433 113.38C126.241 113.38 126.078 113.319 125.944 113.194C125.811 113.068 125.743 112.91 125.743 112.718Z" fill="#26428F"/>
<path d="M128.535 110.366L129.386 110.102C129.203 110.06 129.06 109.948 128.96 109.763C128.861 109.58 128.811 109.409 128.811 109.251C128.811 109.026 128.856 108.819 128.948 108.631C129.039 108.443 129.16 108.283 129.311 108.15C129.461 108.017 129.63 107.91 129.818 107.83C130.006 107.751 130.195 107.707 130.387 107.698C130.58 107.69 130.763 107.715 130.937 107.773C131.113 107.832 131.263 107.936 131.388 108.087L130.863 108.562C130.755 108.479 130.625 108.425 130.474 108.4C130.324 108.374 130.181 108.38 130.043 108.418C129.906 108.456 129.788 108.525 129.693 108.624C129.595 108.723 129.548 108.849 129.548 109C129.548 109.124 129.575 109.235 129.629 109.332C129.684 109.427 129.75 109.509 129.829 109.576C129.909 109.642 129.992 109.694 130.08 109.731C130.167 109.77 130.248 109.792 130.323 109.8L131.438 109.476V110.139L128.534 111.002V110.365L128.535 110.366ZM129.674 111.517L130.637 111.242V119.552H129.674V111.517Z" fill="#26428F"/>
<path d="M135.643 117.272C135.643 116.939 135.735 116.613 135.918 116.297C136.102 115.98 136.389 115.69 136.781 115.427C137.174 115.165 137.674 114.937 138.283 114.745C138.892 114.554 139.618 114.412 140.46 114.319V118.651H142.263V119.551H140.01C139.918 119.493 139.841 119.428 139.778 119.357C139.715 119.287 139.664 119.222 139.622 119.163C139.58 119.096 139.547 119.03 139.522 118.963C139.48 119.072 139.397 119.171 139.271 119.264C139.162 119.34 139.006 119.406 138.802 119.464C138.598 119.523 138.32 119.551 137.97 119.551C137.169 119.551 136.58 119.349 136.205 118.945C135.83 118.54 135.642 117.984 135.642 117.273M136.681 112.718C136.681 112.518 136.747 112.351 136.881 112.217C137.014 112.083 137.178 112.016 137.37 112.016C137.561 112.016 137.722 112.083 137.852 112.217C137.981 112.35 138.046 112.518 138.046 112.718C138.046 112.918 137.981 113.068 137.852 113.194C137.722 113.319 137.561 113.38 137.37 113.38C137.178 113.38 137.015 113.319 136.881 113.194C136.747 113.068 136.681 112.91 136.681 112.718ZM136.719 117.286C136.719 117.579 136.755 117.814 136.826 117.994C136.896 118.174 136.986 118.312 137.094 118.407C137.202 118.502 137.325 118.568 137.463 118.601C137.6 118.634 137.736 118.652 137.869 118.652H139.496V115.41C138.987 115.501 138.555 115.614 138.2 115.748C137.846 115.881 137.559 116.029 137.343 116.191C137.125 116.356 136.968 116.527 136.868 116.711C136.768 116.895 136.718 117.086 136.718 117.286M138.733 112.718C138.733 112.518 138.799 112.351 138.933 112.217C139.066 112.083 139.229 112.016 139.421 112.016C139.613 112.016 139.773 112.083 139.903 112.217C140.033 112.35 140.097 112.518 140.097 112.718C140.097 112.918 140.033 113.068 139.903 113.194C139.773 113.319 139.613 113.38 139.421 113.38C139.229 113.38 139.067 113.319 138.933 113.194C138.799 113.068 138.733 112.91 138.733 112.718Z" fill="#26428F"/>
<path d="M147.246 119.551H141.89V118.651H146.307V117.812C146.307 117.57 146.23 117.286 146.076 116.961C145.921 116.635 145.71 116.31 145.443 115.984C145.175 115.658 144.866 115.35 144.512 115.057C144.156 114.766 143.779 114.532 143.379 114.357L143.441 112.816L147.897 111.202L147.608 112.403L144.242 113.518C144.417 113.642 144.599 113.782 144.786 113.937C144.972 114.091 145.159 114.257 145.343 114.431C145.527 114.607 145.699 114.785 145.863 114.97C146.025 115.154 146.169 115.328 146.294 115.495C146.562 115.87 146.786 116.252 146.97 116.64C147.154 117.028 147.245 117.418 147.245 117.81V119.549L147.246 119.551Z" fill="#26428F"/>
<path d="M150.938 114.181C150.996 114.541 151.05 114.918 151.1 115.314C151.151 115.711 151.191 116.107 151.22 116.503C151.249 116.9 151.274 117.281 151.295 117.649C151.315 118.015 151.331 118.349 151.339 118.65H152.715V119.551H151.339C151.323 119.768 151.265 120.034 151.169 120.346C151.074 120.659 150.907 120.966 150.669 121.265C150.43 121.566 150.103 121.825 149.686 122.042C149.269 122.258 148.731 122.379 148.071 122.404L147.834 121.691C148.302 121.615 148.723 121.477 149.099 121.278C149.257 121.194 149.411 121.091 149.562 120.971C149.712 120.85 149.846 120.706 149.962 120.539C150.079 120.372 150.174 120.18 150.25 119.963C150.325 119.746 150.362 119.499 150.362 119.225C150.362 118.474 150.341 117.685 150.299 116.859C150.258 116.033 150.141 115.241 149.949 114.481L150.939 114.18L150.938 114.181Z" fill="#26428F"/>
<path d="M154.341 118.651V114.52L155.306 114.245V118.652H157.182V114.521L158.147 114.246V118.653H160.037V114.522L161 114.247V119.554H152.339V118.654H154.34L154.341 118.651ZM155.968 112.718C155.968 112.518 156.034 112.351 156.169 112.217C156.302 112.083 156.465 112.016 156.658 112.016C156.851 112.016 157.01 112.083 157.14 112.217C157.269 112.35 157.333 112.518 157.333 112.718C157.333 112.918 157.269 113.068 157.14 113.194C157.01 113.319 156.849 113.381 156.658 113.381C156.466 113.381 156.303 113.319 156.169 113.194C156.035 113.068 155.968 112.911 155.968 112.718ZM156.97 111.015C156.97 110.816 157.036 110.648 157.171 110.515C157.304 110.381 157.467 110.314 157.66 110.314C157.852 110.314 158.012 110.38 158.142 110.515C158.271 110.648 158.335 110.816 158.335 111.015C158.335 111.215 158.271 111.366 158.142 111.491C158.012 111.616 157.851 111.679 157.66 111.679C157.468 111.679 157.305 111.616 157.171 111.491C157.037 111.366 156.97 111.207 156.97 111.015ZM158.022 112.718C158.022 112.518 158.089 112.351 158.223 112.217C158.356 112.083 158.518 112.016 158.711 112.016C158.904 112.016 159.063 112.083 159.192 112.217C159.322 112.35 159.386 112.518 159.386 112.718C159.386 112.918 159.322 113.068 159.192 113.194C159.062 113.319 158.903 113.381 158.711 113.381C158.519 113.381 158.357 113.319 158.223 113.194C158.09 113.068 158.022 112.911 158.022 112.718Z" fill="#26428F"/>
<path d="M6.70541 133.827H5.72893L4.9311 131.713H1.73776L0.987633 133.827H0.00506592L2.89288 126.289H3.80744L6.70642 133.827H6.70541ZM4.64181 130.921L3.46029 127.709C3.42172 127.604 3.38416 127.436 3.34559 127.205H3.32428C3.28875 127.419 3.24815 127.586 3.20349 127.709L2.03212 130.921H4.64283H4.64181Z" fill="#26428F"/>
<path d="M13.2129 133.827H12.1633L10.9026 131.714C10.7879 131.518 10.6753 131.35 10.5677 131.212C10.459 131.073 10.3474 130.96 10.2347 130.873C10.12 130.786 9.9972 130.722 9.86727 130.681C9.73531 130.641 9.58813 130.62 9.42268 130.62H8.69793V133.826H7.81586V126.289H10.0632C10.3921 126.289 10.6956 126.33 10.9747 126.413C11.2518 126.494 11.4944 126.621 11.6994 126.788C11.9045 126.957 12.0649 127.166 12.1796 127.417C12.2953 127.667 12.3531 127.961 12.3531 128.297C12.3531 128.561 12.3135 128.801 12.2354 129.019C12.1572 129.24 12.0446 129.435 11.8994 129.606C11.7542 129.778 11.5797 129.924 11.3746 130.045C11.1706 130.165 10.9402 130.259 10.6844 130.326V130.347C10.8103 130.403 10.9199 130.467 11.0133 130.538C11.1056 130.61 11.195 130.695 11.2792 130.794C11.3624 130.891 11.4457 131.003 11.5279 131.127C11.6101 131.252 11.7015 131.396 11.803 131.56L13.2149 133.825L13.2129 133.827ZM8.69692 127.089V129.822H9.89468C10.1149 129.822 10.32 129.789 10.5068 129.723C10.6935 129.656 10.8549 129.56 10.9919 129.436C11.128 129.312 11.2356 129.158 11.3127 128.979C11.3888 128.798 11.4284 128.596 11.4284 128.372C11.4284 127.969 11.2975 127.654 11.0366 127.428C10.7768 127.201 10.3992 127.089 9.90483 127.089H8.69692V127.089Z" fill="#26428F"/>
<path d="M20.0767 133.827H19.1002L18.3024 131.713H15.109L14.3589 133.827H13.3763L16.2642 126.289H17.1777L20.0767 133.827V133.827ZM18.0131 130.921L16.8316 127.709C16.792 127.604 16.7544 127.436 16.7159 127.205H16.6945C16.659 127.419 16.6184 127.586 16.5737 127.709L15.4024 130.921H18.0131V130.921Z" fill="#26428F"/>
<path d="M21.1851 133.827V126.29H23.3269C23.9775 126.29 24.4952 126.449 24.8758 126.768C25.2575 127.087 25.4483 127.503 25.4483 128.013C25.4483 128.442 25.3326 128.813 25.1022 129.128C24.8708 129.444 24.552 129.667 24.147 129.801V129.822C24.6546 129.881 25.0606 130.074 25.3651 130.398C25.6696 130.722 25.8219 131.144 25.8219 131.663C25.8219 132.307 25.5904 132.829 25.1286 133.229C24.6667 133.628 24.0831 133.828 23.3797 133.828H21.1851V133.827ZM22.0672 127.089V129.523H22.9706C23.4538 129.523 23.8334 129.406 24.1105 129.173C24.3876 128.941 24.5267 128.612 24.5267 128.188C24.5267 127.454 24.0445 127.089 23.0822 127.089H22.0682H22.0672ZM22.0672 130.316V133.028H23.265C23.7836 133.028 24.1846 132.905 24.4698 132.659C24.755 132.415 24.8982 132.078 24.8982 131.65C24.8982 130.76 24.2922 130.316 23.0812 130.316H22.0672V130.316Z" fill="#26428F"/>
<path d="M28.9674 126.289V127.047H28.2326V133.069H28.9674V133.827H26.6146V133.069H27.3495V127.047H26.6146V126.289H28.9674Z" fill="#26428F"/>
<path d="M35.3379 133.511C34.7817 133.805 34.0884 133.953 33.2581 133.953C32.1872 133.953 31.3295 133.607 30.685 132.916C30.0404 132.226 29.7186 131.32 29.7186 130.2C29.7186 128.994 30.081 128.02 30.8057 127.277C31.5305 126.535 32.4501 126.163 33.5626 126.163C34.2762 126.163 34.869 126.266 35.3379 126.473V127.413C34.799 127.112 34.2041 126.961 33.5525 126.961C32.6876 126.961 31.9862 127.25 31.4493 127.828C30.9113 128.406 30.6433 129.179 30.6433 130.146C30.6433 131.064 30.8941 131.795 31.3975 132.34C31.9 132.884 32.5587 133.157 33.3748 133.157C34.131 133.157 34.7858 132.988 35.339 132.652V133.509L35.3379 133.511Z" fill="#26428F"/>
<path d="M44.9433 133.511C44.3871 133.805 43.6938 133.953 42.8635 133.953C41.7926 133.953 40.9349 133.607 40.2904 132.916C39.6458 132.226 39.324 131.32 39.324 130.2C39.324 128.994 39.6864 128.02 40.4112 127.277C41.1359 126.535 42.0555 126.163 43.168 126.163C43.8816 126.163 44.4744 126.266 44.9433 126.473V127.413C44.4044 127.112 43.8095 126.961 43.1579 126.961C42.2931 126.961 41.5917 127.25 41.0547 127.828C40.5167 128.406 40.2487 129.179 40.2487 130.146C40.2487 131.064 40.4995 131.795 41.0029 132.34C41.5054 132.884 42.1641 133.157 42.9802 133.157C43.7354 133.157 44.3912 132.988 44.9433 132.652V133.509V133.511Z" fill="#26428F"/>
<path d="M49.37 133.953C48.3021 133.953 47.4475 133.6 46.8049 132.897C46.1624 132.191 45.8406 131.275 45.8406 130.147C45.8406 128.935 46.1685 127.969 46.8232 127.246C47.4779 126.524 48.3691 126.164 49.4968 126.164C50.5363 126.164 51.3737 126.514 52.0101 127.216C52.6465 127.917 52.9632 128.833 52.9632 129.964C52.9632 131.195 52.6374 132.167 51.9857 132.882C51.3351 133.596 50.4632 133.955 49.371 133.955M49.4339 126.964C48.6422 126.964 48.0007 127.25 47.5073 127.822C47.013 128.393 46.7674 129.142 46.7674 130.071C46.7674 131 47.0079 131.747 47.4891 132.313C47.9702 132.879 48.5975 133.162 49.372 133.162C50.1982 133.162 50.8499 132.892 51.326 132.352C51.802 131.813 52.0406 131.058 52.0406 130.087C52.0406 129.117 51.8091 128.323 51.3473 127.78C50.8854 127.236 50.248 126.965 49.4359 126.965" fill="#26428F"/>
<path d="M62.121 133.827H61.244V128.771C61.244 128.371 61.2684 127.883 61.3171 127.305H61.2958C61.2125 127.644 61.1374 127.888 61.0704 128.035L58.4963 133.828H58.0659L55.4978 128.077C55.4247 127.909 55.3486 127.652 55.2725 127.305H55.2522C55.2796 127.605 55.2938 128.099 55.2938 128.781V133.827H54.4432V126.289H55.6085L57.9197 131.546C58.0984 131.949 58.2141 132.25 58.2669 132.45H58.2983C58.4486 132.036 58.5694 131.728 58.6607 131.525L61.0187 126.289H62.122V133.827H62.121Z" fill="#26428F"/>
<path d="M64.9835 130.977V133.827H64.1014V126.29H66.1701C66.975 126.29 67.5992 126.487 68.0418 126.879C68.4844 127.27 68.7056 127.825 68.7056 128.539C68.7056 129.254 68.46 129.841 67.9677 130.294C67.4754 130.75 66.8116 130.977 65.9752 130.977H64.9824H64.9835ZM64.9835 127.088V130.179H65.9082C66.5182 130.179 66.9821 130.04 67.3028 129.761C67.6226 129.482 67.783 129.09 67.783 128.581C67.783 127.585 67.1942 127.088 66.0188 127.088H64.9845H64.9835Z" fill="#26428F"/>
<path d="M75.6333 130.778C75.6333 132.896 74.6792 133.954 72.7709 133.954C70.8626 133.954 70.0292 132.935 70.0292 130.9V126.29H70.9113V130.842C70.9113 132.387 71.563 133.161 72.8653 133.161C74.1676 133.161 74.7512 132.414 74.7512 130.922V126.291H75.6333V130.779V130.778Z" fill="#26428F"/>
<path d="M81.9663 127.088H79.793V133.827H78.911V127.088H76.7408V126.289H81.9663V127.088Z" fill="#26428F"/>
<path d="M87.1389 133.827H83.1478V126.289H86.9715V127.089H84.0309V129.596H86.7512V130.389H84.0309V133.028H87.1389V133.827Z" fill="#26428F"/>
<path d="M93.9875 133.827H92.9369L91.6762 131.714C91.5605 131.518 91.4488 131.35 91.3402 131.212C91.2316 131.073 91.12 130.96 91.0073 130.873C90.8926 130.786 90.7708 130.722 90.6399 130.681C90.5079 130.641 90.3607 130.62 90.1953 130.62H89.4705V133.826H88.5884V126.289H90.8358C91.1646 126.289 91.4681 126.33 91.7473 126.413C92.0264 126.494 92.267 126.621 92.472 126.788C92.676 126.957 92.8364 127.166 92.9521 127.417C93.0679 127.667 93.1257 127.961 93.1257 128.297C93.1257 128.561 93.0861 128.801 93.008 129.019C92.9298 129.24 92.8171 129.435 92.672 129.606C92.5268 129.778 92.3512 129.924 92.1472 130.045C91.9432 130.165 91.7128 130.259 91.457 130.326V130.347C91.5828 130.403 91.6925 130.467 91.7848 130.538C91.8782 130.61 91.9665 130.695 92.0498 130.794C92.134 130.891 92.2172 131.003 92.3005 131.127C92.3817 131.252 92.4741 131.396 92.5756 131.56L93.9885 133.825L93.9875 133.827ZM89.4715 127.089V129.822H90.6683C90.8896 129.822 91.0936 129.789 91.2804 129.723C91.4671 129.656 91.6295 129.56 91.7666 129.436C91.9026 129.312 92.0102 129.158 92.0863 128.979C92.1634 128.798 92.202 128.596 92.202 128.372C92.202 127.969 92.0711 127.654 91.8112 127.428C91.5504 127.201 91.1728 127.089 90.6794 127.089H89.4715V127.089Z" fill="#26428F"/>
<path d="M97.6163 133.522V132.482C97.7351 132.586 97.8782 132.681 98.0446 132.765C98.2111 132.849 98.3857 132.919 98.5694 132.978C98.7531 133.036 98.9369 133.081 99.1236 133.111C99.3094 133.143 99.4809 133.159 99.6383 133.159C100.18 133.159 100.586 133.058 100.854 132.856C101.122 132.654 101.255 132.365 101.255 131.985C101.255 131.782 101.211 131.606 101.122 131.455C101.033 131.303 100.909 131.166 100.753 131.042C100.594 130.918 100.408 130.799 100.194 130.684C99.9773 130.571 99.7459 130.451 99.4972 130.325C99.2353 130.192 98.9896 130.057 98.7623 129.92C98.5339 129.783 98.337 129.633 98.1685 129.467C98 129.303 97.868 129.116 97.7716 128.908C97.6752 128.699 97.6264 128.454 97.6264 128.174C97.6264 127.831 97.7026 127.531 97.8518 127.278C98.002 127.023 98.1999 126.814 98.4456 126.648C98.6902 126.484 98.9693 126.361 99.283 126.281C99.5966 126.2 99.9154 126.16 100.242 126.16C100.984 126.16 101.525 126.249 101.864 126.428V127.422C101.42 127.113 100.849 126.959 100.152 126.959C99.959 126.959 99.7672 126.979 99.5743 127.02C99.3815 127.059 99.2099 127.126 99.0597 127.217C98.9095 127.308 98.7866 127.425 98.6922 127.569C98.5968 127.712 98.5501 127.889 98.5501 128.095C98.5501 128.288 98.5857 128.453 98.6577 128.593C98.7298 128.733 98.8354 128.861 98.9754 128.977C99.1155 129.093 99.285 129.204 99.487 129.314C99.688 129.422 99.9204 129.541 100.183 129.671C100.453 129.804 100.708 129.944 100.95 130.091C101.191 130.238 101.403 130.402 101.585 130.581C101.768 130.759 101.912 130.958 102.019 131.174C102.125 131.392 102.179 131.64 102.179 131.92C102.179 132.292 102.106 132.606 101.961 132.864C101.815 133.121 101.619 133.331 101.372 133.493C101.125 133.653 100.84 133.77 100.518 133.842C100.196 133.914 99.8565 133.95 99.4992 133.95C99.3804 133.95 99.2333 133.939 99.0587 133.92C98.8831 133.901 98.7044 133.873 98.5227 133.837C98.341 133.8 98.1685 133.754 98.0051 133.7C97.8426 133.645 97.7127 133.585 97.6143 133.518" fill="#26428F"/>
<path d="M108.577 126.289L106.093 131.04V133.827H105.211V131.062L102.79 126.289H103.794L105.479 129.694C105.499 129.736 105.56 129.891 105.663 130.157H105.678C105.713 130.038 105.779 129.883 105.878 129.694L107.642 126.289H108.577Z" fill="#26428F"/>
<path d="M109.133 133.522V132.482C109.253 132.586 109.395 132.681 109.561 132.765C109.728 132.849 109.902 132.919 110.086 132.978C110.27 133.036 110.455 133.081 110.64 133.111C110.826 133.143 110.998 133.159 111.155 133.159C111.698 133.159 112.103 133.058 112.371 132.856C112.639 132.654 112.773 132.365 112.773 131.985C112.773 131.782 112.728 131.606 112.639 131.455C112.55 131.303 112.426 131.166 112.27 131.042C112.112 130.918 111.924 130.799 111.71 130.684C111.494 130.571 111.263 130.451 111.014 130.325C110.752 130.192 110.506 130.057 110.279 129.92C110.051 129.783 109.854 129.633 109.685 129.467C109.517 129.303 109.385 129.116 109.288 128.908C109.192 128.699 109.143 128.454 109.143 128.174C109.143 127.831 109.219 127.531 109.369 127.278C109.519 127.023 109.717 126.814 109.962 126.648C110.207 126.484 110.486 126.361 110.8 126.281C111.113 126.2 111.432 126.16 111.759 126.16C112.501 126.16 113.042 126.249 113.381 126.428V127.422C112.936 127.113 112.366 126.959 111.669 126.959C111.476 126.959 111.284 126.979 111.091 127.02C110.898 127.059 110.727 127.126 110.576 127.217C110.426 127.308 110.303 127.425 110.209 127.569C110.114 127.712 110.067 127.889 110.067 128.095C110.067 128.288 110.102 128.453 110.174 128.593C110.247 128.733 110.352 128.861 110.492 128.977C110.632 129.093 110.802 129.204 111.004 129.314C111.205 129.422 111.437 129.541 111.7 129.671C111.97 129.804 112.225 129.944 112.466 130.091C112.708 130.238 112.92 130.402 113.102 130.581C113.285 130.759 113.429 130.958 113.535 131.174C113.642 131.392 113.696 131.64 113.696 131.92C113.696 132.292 113.623 132.606 113.477 132.864C113.332 133.121 113.135 133.331 112.889 133.493C112.642 133.653 112.358 133.77 112.035 133.842C111.712 133.914 111.373 133.95 111.016 133.95C110.897 133.95 110.75 133.939 110.575 133.92C110.4 133.901 110.221 133.873 110.04 133.837C109.858 133.8 109.685 133.754 109.523 133.7C109.36 133.645 109.23 133.585 109.132 133.518" fill="#26428F"/>
<path d="M119.652 127.088H117.478V133.827H116.596V127.088H114.427V126.289H119.652V127.088Z" fill="#26428F"/>
<path d="M124.826 133.827H120.833V126.289H124.657V127.089H121.717V129.596H124.437V130.389H121.717V133.028H124.826V133.827Z" fill="#26428F"/>
<path d="M133.952 133.827H133.075V128.771C133.075 128.371 133.099 127.883 133.148 127.305H133.128C133.044 127.644 132.968 127.888 132.902 128.035L130.328 133.828H129.897L127.33 128.077C127.256 127.909 127.181 127.652 127.103 127.305H127.083C127.111 127.605 127.125 128.099 127.125 128.781V133.827H126.274V126.289H127.439L129.751 131.546C129.93 131.949 130.045 132.25 130.098 132.45H130.129C130.28 132.036 130.4 131.728 130.492 131.525L132.85 126.289H133.953V133.827H133.952Z" fill="#26428F"/>
<path d="M135.58 133.522V132.482C135.7 132.586 135.842 132.681 136.008 132.765C136.175 132.849 136.35 132.919 136.533 132.978C136.717 133.036 136.902 133.081 137.087 133.111C137.273 133.143 137.445 133.159 137.602 133.159C138.145 133.159 138.55 133.058 138.818 132.856C139.086 132.654 139.22 132.365 139.22 131.985C139.22 131.782 139.175 131.606 139.086 131.455C138.997 131.303 138.873 131.166 138.717 131.042C138.559 130.918 138.372 130.799 138.157 130.684C137.941 130.571 137.71 130.451 137.461 130.325C137.199 130.192 136.954 130.057 136.726 129.92C136.498 129.783 136.301 129.633 136.132 129.467C135.964 129.303 135.832 129.116 135.735 128.908C135.639 128.699 135.59 128.454 135.59 128.174C135.59 127.831 135.666 127.531 135.816 127.278C135.966 127.023 136.164 126.814 136.409 126.648C136.654 126.484 136.933 126.361 137.247 126.281C137.561 126.2 137.879 126.16 138.206 126.16C138.948 126.16 139.489 126.249 139.828 126.428V127.422C139.384 127.113 138.813 126.959 138.116 126.959C137.923 126.959 137.731 126.979 137.538 127.02C137.345 127.059 137.174 127.126 137.024 127.217C136.873 127.308 136.751 127.425 136.656 127.569C136.562 127.712 136.515 127.889 136.515 128.095C136.515 128.288 136.551 128.453 136.623 128.593C136.695 128.733 136.8 128.861 136.94 128.977C137.079 129.093 137.25 129.204 137.452 129.314C137.653 129.422 137.885 129.541 138.148 129.671C138.418 129.804 138.673 129.944 138.915 130.091C139.156 130.238 139.368 130.402 139.55 130.581C139.733 130.759 139.877 130.958 139.983 131.174C140.09 131.392 140.144 131.64 140.144 131.92C140.144 132.292 140.071 132.606 139.926 132.864C139.78 133.121 139.583 133.331 139.337 133.493C139.09 133.653 138.806 133.77 138.483 133.842C138.16 133.914 137.821 133.95 137.464 133.95C137.345 133.95 137.198 133.939 137.024 133.92C136.848 133.901 136.669 133.873 136.489 133.837C136.306 133.8 136.133 133.754 135.971 133.7C135.809 133.645 135.679 133.585 135.58 133.518" fill="#26428F"/>
<path d="M148.5 133.827H144.592V126.289H145.474V133.028H148.5V133.827Z" fill="#26428F"/>
<path d="M153.514 127.088H151.341V133.827H150.458V127.088H148.289V126.289H153.514V127.088Z" fill="#26428F"/>
<path d="M154.696 133.827V126.29H156.774C159.429 126.29 160.755 127.515 160.755 129.963C160.755 131.128 160.387 132.061 159.65 132.768C158.913 133.473 157.926 133.827 156.69 133.827H154.695H154.696ZM155.578 127.089V133.028H156.701C157.689 133.028 158.457 132.764 159.006 132.234C159.557 131.705 159.832 130.955 159.832 129.985C159.832 128.054 158.805 127.089 156.754 127.089H155.578V127.089Z" fill="#26428F"/>
<path d="M48.83 110.316C48.9426 110.377 49.1142 110.419 49.3426 110.44C49.5699 110.462 49.8217 110.449 50.0967 110.4C50.1708 110.387 50.249 110.374 50.3322 110.357C50.4144 110.343 50.4926 110.328 50.5677 110.315C50.9504 110.246 51.264 110.245 51.5077 110.312C51.7513 110.38 51.9421 110.52 52.0822 110.733C51.9736 110.672 51.8101 110.629 51.5929 110.603C51.3747 110.577 51.129 110.587 50.855 110.636C50.7677 110.653 50.6794 110.672 50.587 110.695C50.4957 110.717 50.4063 110.734 50.319 110.747C49.9577 110.808 49.6521 110.803 49.4024 110.734C49.1517 110.664 48.9619 110.525 48.831 110.317" fill="#26428F"/>
</g>
<defs>
<clipPath id="clip0_4351_6604">
<rect width="161" height="161" fill="white"/>
</clipPath>
</defs>
</svg>
