<svg width="161" height="161" viewBox="0 0 161 161" fill="none" xmlns="http://www.w3.org/2000/svg">
<path d="M1.51985 94.6489C1.05198 94.6489 0.680012 94.5094 0.409751 94.2275C0.136584 93.9456 0 93.562 0 93.0738C0 92.8937 0.0203422 92.6873 0.0581206 92.4519C0.0958991 92.2166 0.145302 92.016 0.203422 91.8533H0.854373C0.773005 92.2456 0.73232 92.6321 0.73232 93.0157C0.73232 93.3121 0.802065 93.5533 0.941554 93.7393C1.08104 93.9253 1.26703 94.0183 1.49661 94.0183H4.41426V90.7112H5.1059V94.6518H1.51985V94.6489ZM1.84533 90.7025C1.71747 90.7025 1.60994 90.6647 1.52276 90.5863C1.43267 90.5107 1.38908 90.3858 1.38908 90.2143C1.38908 90.0428 1.43267 89.9179 1.52276 89.8423C1.60994 89.7668 1.72037 89.7261 1.84533 89.7261C1.98191 89.7261 2.09234 89.7668 2.17371 89.851C2.25508 89.9353 2.29577 90.0545 2.29577 90.2143C2.29577 90.3741 2.25508 90.4904 2.17371 90.5746C2.09234 90.6589 1.98191 90.7025 1.84242 90.7025H1.84533ZM3.25185 90.7025C3.11236 90.7025 2.99903 90.6589 2.91766 90.5746C2.83629 90.4904 2.7956 90.3683 2.7956 90.2143C2.7956 90.0603 2.83629 89.9382 2.91766 89.854C2.99903 89.7697 3.10945 89.7261 3.25185 89.7261C3.39425 89.7261 3.51049 89.7697 3.58895 89.8598C3.66741 89.9498 3.7081 90.0661 3.7081 90.2143C3.7081 90.3625 3.66741 90.4817 3.58895 90.5688C3.51049 90.6589 3.39715 90.7025 3.25185 90.7025ZM6.61122 88.4707H7.33483V94.0125H8.40715C8.43621 94.0125 8.45074 94.0241 8.45074 94.0444V94.6082C8.45074 94.6344 8.43621 94.6489 8.40715 94.6489H6.61413V88.4736L6.61122 88.4707ZM8.32578 94.646C8.29963 94.646 8.2851 94.6315 8.2851 94.6053V94.0415C8.2851 94.0212 8.29963 94.0096 8.32578 94.0096H9.33418C9.13366 93.4865 9.03195 93.0215 9.03195 92.6205C9.03195 92.1352 9.13075 91.7051 9.32546 91.3273C9.52307 91.1617 9.75264 91.028 10.0084 90.9292C10.2641 90.8304 10.5315 90.781 10.8104 90.781C11.1504 90.781 11.4469 90.8565 11.7026 91.0047C11.9583 91.1529 12.1559 91.368 12.2954 91.6412C12.432 91.9172 12.5018 92.2282 12.5018 92.5769C12.5018 93.0041 12.4233 93.3702 12.2693 93.6812C12.1152 93.9921 11.8973 94.2275 11.6154 94.3932C11.3335 94.5588 11.011 94.6402 10.6477 94.6402H8.32578V94.646ZM9.76136 92.4839C9.76136 92.7367 9.78461 92.9808 9.8282 93.2249C9.87179 93.4661 9.95316 93.7306 10.0694 94.0125H10.6448C11.0081 94.0125 11.2841 93.8904 11.4788 93.6434C11.6706 93.3964 11.7694 93.0419 11.7694 92.5769C11.7694 92.2369 11.6764 91.955 11.4905 91.74C11.3045 91.522 11.0778 91.4145 10.8104 91.4145C10.639 91.4145 10.4704 91.4436 10.3048 91.5046C10.1391 91.5656 9.99094 91.647 9.86307 91.7458C9.81948 91.8591 9.79042 91.9754 9.7788 92.0945C9.76717 92.2136 9.76427 92.3415 9.76427 92.4868L9.76136 92.4839ZM16.9015 94.8407C16.9015 95.3928 16.7387 95.8258 16.4104 96.1339C16.0849 96.4448 15.6199 96.5989 15.0242 96.5989C14.472 96.5989 13.9838 96.4594 13.5595 96.1833L13.885 95.6399C14.0594 95.7329 14.2396 95.8113 14.4255 95.8723C14.6115 95.9334 14.815 95.9653 15.0416 95.9653C15.4107 95.9653 15.6984 95.8665 15.9076 95.6689C16.1169 95.4713 16.2215 95.2098 16.2215 94.8814V94.646H15.4223C14.844 94.646 14.3994 94.4862 14.0826 94.1694C13.7659 93.8527 13.6089 93.3935 13.6089 92.792C13.6089 92.1555 13.8124 91.647 14.2163 91.2692C14.6202 90.8914 15.1637 90.7025 15.8408 90.7025H16.9044V94.0096H17.5699C17.596 94.0096 17.6106 94.0212 17.6106 94.0415V94.6053C17.6106 94.6315 17.596 94.646 17.5699 94.646H16.9044V94.8407H16.9015ZM16.2098 94.0125V91.336H15.8611C15.3787 91.336 15.0038 91.4639 14.7365 91.7167C14.4691 91.9695 14.3326 92.327 14.3326 92.7832C14.3326 93.2075 14.4255 93.5156 14.6086 93.7132C14.7917 93.9108 15.0707 94.0096 15.4456 94.0096H16.2128L16.2098 94.0125ZM17.4856 94.6489C17.4594 94.6489 17.4449 94.6344 17.4449 94.6082V94.0444C17.4449 94.0241 17.4594 94.0125 17.4856 94.0125H18.5579V88.4707H19.2815V94.0125H20.3422C20.3684 94.0125 20.3829 94.0241 20.3829 94.0444V94.6082C20.3829 94.6344 20.3684 94.6489 20.3422 94.6489H17.4885H17.4856ZM24.216 94.6489C23.9893 94.6489 23.7423 94.614 23.4807 94.5472C23.2192 94.4804 22.9635 94.3786 22.7106 94.245C22.2341 94.5152 21.7313 94.6489 21.1995 94.6489H20.258C20.2318 94.6489 20.2173 94.6344 20.2173 94.6082V94.0444C20.2173 94.0241 20.2318 94.0125 20.258 94.0125H21.1908C21.5802 94.0125 21.9028 93.9573 22.1585 93.8497C21.9493 93.6986 21.7371 93.4807 21.5163 93.1959C21.2983 92.9111 21.1123 92.6031 20.9612 92.2747C20.8101 91.9463 20.7084 91.6324 20.6619 91.336C20.9583 91.057 21.2925 90.8391 21.6645 90.6822C22.0364 90.5223 22.4142 90.4439 22.8007 90.4439C23.1407 90.4439 23.4866 90.4991 23.8324 90.6066C24.1782 90.7141 24.4833 90.8594 24.742 91.0396C24.742 91.6005 24.6112 92.1294 24.3526 92.6263C24.0939 93.1232 23.7365 93.5301 23.2802 93.841C23.5825 93.9544 23.8818 94.0125 24.1811 94.0125H25.1662C25.1924 94.0125 25.2069 94.0241 25.2069 94.0444V94.6082C25.2069 94.6344 25.1924 94.6489 25.1662 94.6489H24.2131H24.216ZM22.7194 93.4865C23.1378 93.2046 23.4488 92.8937 23.6522 92.5537C23.8556 92.2137 23.9719 91.8242 23.998 91.3825C23.6202 91.182 23.2279 91.0803 22.8269 91.0803C22.3677 91.0803 21.9057 91.2372 21.4465 91.554C21.5279 91.926 21.6819 92.2805 21.9057 92.6176C22.1294 92.9576 22.4026 93.2453 22.7194 93.4865V93.4865ZM25.0878 94.6489C25.0616 94.6489 25.0471 94.6344 25.0471 94.6082V94.0444C25.0471 94.0241 25.0616 94.0125 25.0878 94.0125H26.0962C25.8957 93.4894 25.7939 93.0244 25.7939 92.6234C25.7939 92.1381 25.8927 91.708 26.0875 91.3302C26.2851 91.1646 26.5146 91.0309 26.7704 90.9321C27.0261 90.8333 27.2935 90.7839 27.5724 90.7839C27.9124 90.7839 28.2089 90.8594 28.4646 91.0076C28.7203 91.1559 28.9179 91.3709 29.0574 91.6441C29.194 91.9201 29.2637 92.2311 29.2637 92.5798C29.2637 92.9285 29.2056 93.2453 29.0923 93.5359C29.2085 93.7132 29.3393 93.8352 29.4846 93.905C29.6299 93.9747 29.8188 94.0096 30.0542 94.0096H30.0949C30.1239 94.0096 30.1385 94.0212 30.1385 94.0415V94.6053C30.1385 94.6315 30.1239 94.646 30.0949 94.646H30.0542C29.7665 94.646 29.5195 94.6053 29.3161 94.5269C29.1126 94.4484 28.915 94.3118 28.729 94.1171C28.5576 94.2973 28.3571 94.431 28.1275 94.5152C27.8979 94.6024 27.6596 94.6431 27.4097 94.6431H25.0878V94.6489ZM26.5234 92.4868C26.5234 92.7396 26.5466 92.9837 26.5902 93.2279C26.6338 93.4691 26.7152 93.7335 26.8314 94.0154H27.4068C27.77 94.0154 28.0461 93.8933 28.2408 93.6463C28.4326 93.3993 28.5314 93.0448 28.5314 92.5798C28.5314 92.2398 28.4384 91.9579 28.2524 91.7429C28.0665 91.5249 27.8398 91.4174 27.5724 91.4174C27.401 91.4174 27.2324 91.4465 27.0668 91.5075C26.9011 91.5685 26.7529 91.6499 26.6251 91.7487C26.5815 91.862 26.5524 91.9783 26.5408 92.0974C26.5292 92.2166 26.5263 92.3444 26.5263 92.4897L26.5234 92.4868ZM30.0135 94.6489C29.9873 94.6489 29.9728 94.6344 29.9728 94.6082V94.0444C29.9728 94.0241 29.9873 94.0125 30.0135 94.0125H31.0858V88.4707H31.8094V94.646H30.0164L30.0135 94.6489ZM33.4368 88.4736H34.1604V94.6489H33.4368V88.4736ZM40.3299 94.6489C39.679 94.6489 39.1733 94.4833 38.8101 94.1549C38.4468 93.8265 38.2666 93.3644 38.2666 92.7716C38.2666 92.1323 38.4671 91.6266 38.8711 91.2605C39.2721 90.8914 39.8155 90.7083 40.4956 90.7083H41.0303V90.1969H41.7248V94.0154H42.6489C42.6751 94.0154 42.6896 94.027 42.6896 94.0474V94.6111C42.6896 94.6373 42.6751 94.6518 42.6489 94.6518H40.3299V94.6489ZM41.0274 94.0125V91.336H40.5159C40.0277 91.336 39.6528 91.461 39.3855 91.7109C39.1181 91.9608 38.9873 92.3095 38.9873 92.76C38.9873 93.1639 39.1036 93.4749 39.3331 93.6899C39.5627 93.905 39.8911 94.0125 40.3125 94.0125H41.0274V94.0125ZM39.9085 89.4442C39.7807 89.4442 39.6732 89.4064 39.586 89.328C39.4959 89.2524 39.4523 89.1274 39.4523 88.956C39.4523 88.7845 39.4959 88.6596 39.586 88.584C39.6732 88.5085 39.7836 88.4678 39.9085 88.4678C40.0451 88.4678 40.1556 88.5085 40.2369 88.5927C40.3183 88.677 40.359 88.7962 40.359 88.956C40.359 89.1158 40.3183 89.2321 40.2369 89.3163C40.1556 89.4006 40.0451 89.4442 39.9056 89.4442H39.9085ZM41.3151 89.4442C41.1756 89.4442 41.0622 89.4006 40.9809 89.3163C40.8995 89.2321 40.8588 89.11 40.8588 88.956C40.8588 88.802 40.8995 88.6799 40.9809 88.5956C41.0622 88.5114 41.1727 88.4678 41.3151 88.4678C41.4575 88.4678 41.5737 88.5114 41.6522 88.6015C41.7306 88.6915 41.7713 88.8078 41.7713 88.956C41.7713 89.1042 41.7306 89.2233 41.6522 89.3105C41.5737 89.4006 41.4604 89.4442 41.3151 89.4442ZM42.5676 94.6489C42.5414 94.6489 42.5269 94.6344 42.5269 94.6082V94.0444C42.5269 94.0241 42.5414 94.0125 42.5676 94.0125H43.8869V90.7054H44.6105V94.0125H45.8281C45.8543 94.0125 45.8688 94.0241 45.8688 94.0444V94.6082C45.8688 94.6344 45.8543 94.6489 45.8281 94.6489H42.5705H42.5676ZM43.5672 96.2763C43.4394 96.2763 43.3318 96.2385 43.2447 96.16C43.1546 96.0845 43.111 95.9595 43.111 95.7881C43.111 95.6166 43.1546 95.4917 43.2447 95.4161C43.3318 95.3405 43.4423 95.2999 43.5672 95.2999C43.7038 95.2999 43.8142 95.3405 43.8956 95.4248C43.977 95.5091 44.0177 95.6282 44.0177 95.7881C44.0177 95.9479 43.977 96.0641 43.8956 96.1484C43.8142 96.2327 43.7038 96.2763 43.5643 96.2763H43.5672ZM44.9738 96.2763C44.8343 96.2763 44.7209 96.2327 44.6396 96.1484C44.5582 96.0641 44.5175 95.9421 44.5175 95.7881C44.5175 95.634 44.5582 95.512 44.6396 95.4277C44.7209 95.3434 44.8314 95.2999 44.9738 95.2999C45.1161 95.2999 45.2324 95.3434 45.3109 95.4335C45.3893 95.5207 45.43 95.6399 45.43 95.7881C45.43 95.9363 45.3893 96.0554 45.3109 96.1426C45.2324 96.2298 45.1191 96.2763 44.9738 96.2763ZM45.7468 94.6489C45.7206 94.6489 45.7061 94.6344 45.7061 94.6082V94.0444C45.7061 94.0241 45.7206 94.0125 45.7468 94.0125H46.8191V90.7054H47.5427V94.0125H48.6034C48.6295 94.0125 48.6441 94.0241 48.6441 94.0444V94.6082C48.6441 94.6344 48.6295 94.6489 48.6034 94.6489H45.7497H45.7468ZM47.1533 89.9324C47.0138 89.9324 46.9005 89.8888 46.8191 89.8045C46.7377 89.7203 46.697 89.5982 46.697 89.4442C46.697 89.2902 46.7377 89.1681 46.8191 89.0839C46.9005 88.9996 47.0109 88.956 47.1533 88.956C47.2957 88.956 47.4119 88.9996 47.4904 89.0897C47.5688 89.1798 47.6095 89.296 47.6095 89.4442C47.6095 89.5924 47.5688 89.7116 47.4904 89.7987C47.4119 89.8888 47.2986 89.9324 47.1533 89.9324ZM48.5191 94.6489C48.493 94.6489 48.4784 94.6344 48.4784 94.6082V94.0444C48.4784 94.0241 48.493 94.0125 48.5191 94.0125H49.7542C49.6176 93.8556 49.513 93.6667 49.4403 93.4458C49.3677 93.2249 49.3328 93.0041 49.3328 92.7861C49.3328 92.141 49.5333 91.6324 49.9344 91.2605C50.3354 90.8914 50.8759 90.7054 51.5588 90.7054H52.6224V94.0125H53.4826C53.4971 94.0125 53.5117 94.0183 53.5175 94.0328V94.0532L53.5204 94.6169C53.5204 94.6373 53.5059 94.6489 53.4797 94.6489H48.5133H48.5191ZM51.9337 94.0125V91.336H51.585C51.0997 91.336 50.7248 91.4639 50.4574 91.7196C50.1901 91.9754 50.0564 92.3299 50.0564 92.7861C50.0564 93.6027 50.4255 94.0125 51.1665 94.0125H51.9337ZM50.5853 89.9324C50.4574 89.9324 50.3499 89.8946 50.2627 89.8162C50.1726 89.7406 50.1291 89.6157 50.1291 89.4442C50.1291 89.2727 50.1726 89.1478 50.2627 89.0722C50.3499 88.9967 50.4603 88.956 50.5853 88.956C50.7219 88.956 50.8323 88.9967 50.9137 89.0809C50.9951 89.1652 51.0357 89.2844 51.0357 89.4442C51.0357 89.604 50.9951 89.7203 50.9137 89.8045C50.8323 89.8888 50.7219 89.9324 50.5824 89.9324H50.5853ZM51.9918 89.9324C51.8523 89.9324 51.739 89.8888 51.6576 89.8045C51.5763 89.7203 51.5356 89.5982 51.5356 89.4442C51.5356 89.2902 51.5763 89.1681 51.6576 89.0839C51.739 88.9996 51.8494 88.956 51.9918 88.956C52.1342 88.956 52.2505 88.9996 52.3289 89.0897C52.4074 89.1798 52.4481 89.296 52.4481 89.4442C52.4481 89.5924 52.4074 89.7116 52.3289 89.7987C52.2505 89.8888 52.1371 89.9324 51.9918 89.9324ZM53.4071 94.6489C53.3809 94.6489 53.3664 94.6344 53.3664 94.6082V94.0444C53.3664 94.0241 53.3809 94.0125 53.4071 94.0125H54.9676V90.7054H55.6912V94.646H53.41L53.4071 94.6489ZM54.5782 89.9324C54.4503 89.9324 54.3428 89.8946 54.2556 89.8162C54.1655 89.7406 54.1219 89.6157 54.1219 89.4442C54.1219 89.2727 54.1655 89.1478 54.2556 89.0722C54.3428 88.9967 54.4532 88.956 54.5782 88.956C54.7148 88.956 54.8252 88.9967 54.9066 89.0809C54.9879 89.1652 55.0286 89.2844 55.0286 89.4442C55.0286 89.604 54.9879 89.7203 54.9066 89.8045C54.8252 89.8888 54.7148 89.9324 54.5753 89.9324H54.5782ZM55.9847 89.9324C55.8452 89.9324 55.7319 89.8888 55.6505 89.8045C55.5691 89.7203 55.5285 89.5982 55.5285 89.4442C55.5285 89.2902 55.5691 89.1681 55.6505 89.0839C55.7319 88.9996 55.8423 88.956 55.9847 88.956C56.1271 88.956 56.2433 88.9996 56.3218 89.0897C56.4003 89.1798 56.441 89.296 56.441 89.4442C56.441 89.5924 56.4003 89.7116 56.3218 89.7987C56.2433 89.8888 56.13 89.9324 55.9847 89.9324ZM58.481 96.6018C57.9288 96.6018 57.4406 96.4623 57.0164 96.1862L57.3418 95.6428C57.5162 95.7358 57.6964 95.8142 57.8823 95.8753C58.0683 95.9363 58.2718 95.9682 58.4984 95.9682C58.8675 95.9682 59.1552 95.8694 59.3644 95.6718C59.5737 95.4742 59.6783 95.2127 59.6783 94.8843V94.6489H58.8791C58.3008 94.6489 57.8562 94.4891 57.5394 94.1723C57.2227 93.8556 57.0658 93.3964 57.0658 92.7949C57.0658 92.1584 57.2692 91.6499 57.6731 91.2721C58.0771 90.8943 58.6205 90.7054 59.2976 90.7054H60.3612V94.8407C60.3612 95.3928 60.1985 95.8258 59.8701 96.1339C59.5446 96.4448 59.0796 96.5989 58.4839 96.5989L58.481 96.6018ZM59.6667 94.0125V91.336H59.3179C58.8355 91.336 58.4606 91.4639 58.1933 91.7167C57.9259 91.9695 57.7894 92.327 57.7894 92.7832C57.7894 93.2075 57.8823 93.5156 58.0654 93.7132C58.2485 93.9108 58.5275 94.0096 58.9024 94.0096H59.6696L59.6667 94.0125ZM65.8594 94.6489C65.3915 94.6489 65.0196 94.5094 64.7493 94.2275C64.4761 93.9456 64.3396 93.562 64.3396 93.0738C64.3396 92.8937 64.3599 92.6873 64.3977 92.4519C64.4355 92.2166 64.4849 92.016 64.543 91.8533H65.1939C65.1126 92.2456 65.0719 92.6321 65.0719 93.0157C65.0719 93.3121 65.1416 93.5533 65.2811 93.7393C65.4206 93.9253 65.6066 94.0183 65.8362 94.0183H68.7538V90.7112H69.4455V94.6518H65.8623L65.8594 94.6489ZM66.1849 90.7025C66.057 90.7025 65.9495 90.6647 65.8623 90.5863C65.7722 90.5107 65.7286 90.3858 65.7286 90.2143C65.7286 90.0428 65.7722 89.9179 65.8623 89.8423C65.9495 89.7668 66.0599 89.7261 66.1849 89.7261C66.3215 89.7261 66.4319 89.7668 66.5133 89.851C66.5946 89.9353 66.6353 90.0545 66.6353 90.2143C66.6353 90.3741 66.5946 90.4904 66.5133 90.5746C66.4319 90.6589 66.3215 90.7025 66.182 90.7025H66.1849ZM67.5914 90.7025C67.4519 90.7025 67.3386 90.6589 67.2572 90.5746C67.1758 90.4904 67.1352 90.3683 67.1352 90.2143C67.1352 90.0603 67.1758 89.9382 67.2572 89.854C67.3386 89.7697 67.449 89.7261 67.5914 89.7261C67.7338 89.7261 67.85 89.7697 67.9285 89.8598C68.007 89.9498 68.0477 90.0661 68.0477 90.2143C68.0477 90.3625 68.007 90.4817 67.9285 90.5688C67.85 90.6589 67.7367 90.7025 67.5914 90.7025ZM70.5032 94.0125H72.3253L71.2763 89.5663H72.0318L73.0809 94.0125H73.3018C73.8772 94.0125 74.1619 93.6986 74.1619 93.0709V88.4707H74.8855V93.1668C74.8855 93.6173 74.749 93.9747 74.4758 94.245C74.2026 94.5123 73.8394 94.6489 73.3802 94.6489H70.5032V94.0125V94.0125ZM76.4316 88.4707H77.1552V94.0125H78.2275C78.2565 94.0125 78.2711 94.0241 78.2711 94.0444V94.6082C78.2711 94.6344 78.2565 94.6489 78.2275 94.6489H76.4345V88.4736L76.4316 88.4707ZM78.1461 94.646C78.12 94.646 78.1054 94.6315 78.1054 94.6053V94.0415C78.1054 94.0212 78.12 94.0096 78.1461 94.0096H79.1371V90.9437H79.8287V92.449C80.0815 91.8417 80.4012 91.3854 80.7848 91.0803C81.1684 90.7723 81.5985 90.6211 82.078 90.6211C82.6911 90.6211 83.1561 90.7868 83.47 91.121C83.7838 91.4552 83.9407 91.9754 83.9407 92.6844V94.0096H85.0131C85.0421 94.0096 85.0567 94.0212 85.0567 94.0415V94.6053C85.0567 94.6315 85.0421 94.646 85.0131 94.646H78.1461V94.646ZM83.252 94.0096V92.7193C83.252 92.2195 83.1416 91.8504 82.9236 91.615C82.7057 91.3796 82.3744 91.2605 81.9327 91.2605C81.0986 91.2605 80.3983 91.955 79.8287 93.3412V94.0067H83.2491L83.252 94.0096ZM84.9346 94.646C84.9084 94.646 84.8939 94.6315 84.8939 94.6053V94.0415C84.8939 94.0212 84.9084 94.0096 84.9346 94.0096H86.4951V90.7025H87.2187V94.6431H84.9375L84.9346 94.646ZM86.1057 89.9295C85.9779 89.9295 85.8703 89.8917 85.7832 89.8133C85.6931 89.7377 85.6495 89.6128 85.6495 89.4413C85.6495 89.2698 85.6931 89.1449 85.7832 89.0693C85.8703 88.9938 85.9808 88.9531 86.1057 88.9531C86.2423 88.9531 86.3527 88.9938 86.4341 89.078C86.5155 89.1623 86.5562 89.2815 86.5562 89.4413C86.5562 89.6011 86.5155 89.7174 86.4341 89.8016C86.3527 89.8859 86.2423 89.9295 86.1028 89.9295H86.1057ZM87.5123 89.9295C87.3728 89.9295 87.2594 89.8859 87.1781 89.8016C87.0967 89.7174 87.056 89.5953 87.056 89.4413C87.056 89.2873 87.0967 89.1652 87.1781 89.0809C87.2594 88.9967 87.3699 88.9531 87.5123 88.9531C87.6547 88.9531 87.7709 88.9967 87.8493 89.0868C87.9278 89.1768 87.9685 89.2931 87.9685 89.4413C87.9685 89.5895 87.9278 89.7086 87.8493 89.7958C87.7709 89.8859 87.6576 89.9295 87.5123 89.9295ZM88.3812 94.0096H90.2032L89.1542 89.5633H89.9097L90.9588 94.0096H92.0428V88.4678H92.7664V94.0096H93.8213C93.8503 94.0096 93.8648 94.0212 93.8648 94.0415V94.6053C93.8648 94.6315 93.8503 94.646 93.8213 94.646H88.3841V94.0096H88.3812ZM93.7399 94.646C93.7137 94.646 93.6992 94.6315 93.6992 94.6053V94.0415C93.6992 94.0212 93.7137 94.0096 93.7399 94.0096H94.8122V88.4678H95.5358V94.6431H93.7428L93.7399 94.646ZM101.275 96.5989C100.767 96.5989 100.369 96.4216 100.075 96.07C99.7844 95.7183 99.6391 95.2417 99.6391 94.6373C99.6391 94.3554 99.6624 94.0997 99.7089 93.8701C99.7554 93.6434 99.828 93.4109 99.9239 93.1726H100.598C100.537 93.3238 100.491 93.4691 100.459 93.6085C100.427 93.748 100.403 93.8817 100.389 94.0125C100.374 94.1433 100.369 94.3351 100.369 94.5908C100.369 95.0296 100.459 95.3696 100.642 95.6079C100.825 95.8462 101.086 95.9653 101.426 95.9653H102.937C103.324 95.9653 103.644 95.8927 103.899 95.7503C104.152 95.605 104.28 95.4335 104.28 95.233C104.28 95.1226 104.231 95.0267 104.129 94.9482C104.027 94.8698 103.876 94.8 103.673 94.7419C103.263 94.6257 102.981 94.5239 102.83 94.4368C102.679 94.3496 102.563 94.2421 102.481 94.1113C102.4 93.9805 102.359 93.8294 102.359 93.6521C102.359 93.3412 102.452 93.039 102.638 92.7484C102.824 92.4578 103.065 92.2224 103.362 92.0393C103.658 91.8591 103.955 91.7661 104.251 91.7661C104.434 91.7661 104.597 91.7981 104.736 91.8649C104.879 91.9318 105.009 92.0277 105.134 92.1526C105.259 92.2776 105.413 92.4868 105.599 92.7774C105.832 93.1523 106.006 93.4051 106.117 93.5359C106.23 93.6667 106.326 93.7626 106.404 93.8236C106.483 93.8846 106.567 93.934 106.654 93.966C106.741 93.998 106.837 94.0154 106.939 94.0154H106.983C107.009 94.0154 107.023 94.027 107.023 94.0474V94.6111C107.023 94.6373 107.009 94.6518 106.983 94.6518H106.939C106.712 94.6518 106.492 94.5995 106.282 94.4978C106.073 94.3961 105.855 94.2275 105.634 93.9921C105.57 93.9253 105.431 93.7393 105.219 93.4313C104.957 93.0622 104.748 92.8123 104.597 92.6844C104.443 92.5566 104.3 92.4926 104.164 92.4926C104.016 92.4926 103.856 92.5507 103.687 92.6641C103.519 92.7774 103.376 92.9198 103.263 93.0913C103.15 93.2627 103.091 93.4167 103.091 93.5533C103.091 93.6434 103.141 93.7248 103.237 93.7945C103.333 93.8672 103.49 93.934 103.705 93.998C104.094 94.1113 104.37 94.2101 104.533 94.2944C104.696 94.3786 104.818 94.4804 104.902 94.5937C104.986 94.7099 105.027 94.8407 105.027 94.9889C105.027 96.0641 104.329 96.6018 102.937 96.6018H101.269L101.275 96.5989ZM101.525 98.2233C101.397 98.2233 101.29 98.1855 101.203 98.1071C101.112 98.0315 101.069 97.9066 101.069 97.7351C101.069 97.5637 101.112 97.4387 101.203 97.3631C101.29 97.2876 101.4 97.2469 101.525 97.2469C101.662 97.2469 101.772 97.2876 101.854 97.3719C101.935 97.4561 101.976 97.5753 101.976 97.7351C101.976 97.8949 101.935 98.0112 101.854 98.0955C101.772 98.1797 101.662 98.2233 101.522 98.2233H101.525ZM102.932 98.2233C102.792 98.2233 102.679 98.1797 102.597 98.0955C102.516 98.0112 102.475 97.8891 102.475 97.7351C102.475 97.5811 102.516 97.459 102.597 97.3748C102.679 97.2905 102.789 97.2469 102.932 97.2469C103.074 97.2469 103.19 97.2905 103.269 97.3806C103.347 97.4678 103.388 97.5869 103.388 97.7351C103.388 97.8833 103.347 98.0025 103.269 98.0896C103.19 98.1768 103.077 98.2233 102.932 98.2233ZM106.91 94.646C106.884 94.646 106.869 94.6315 106.869 94.6053V94.0415C106.869 94.0212 106.884 94.0096 106.91 94.0096H107.918C107.718 93.4865 107.616 93.0215 107.616 92.6205C107.616 92.1352 107.715 91.7051 107.91 91.3273C108.107 91.1617 108.337 91.028 108.593 90.9292C108.848 90.8304 109.116 90.781 109.395 90.781C109.735 90.781 110.031 90.8565 110.287 91.0047C110.543 91.1529 110.74 91.368 110.88 91.6412C111.016 91.9172 111.086 92.2282 111.086 92.5769C111.086 92.9256 111.028 93.2424 110.915 93.533C111.031 93.7103 111.162 93.8323 111.307 93.9021C111.452 93.9718 111.641 94.0067 111.876 94.0067H111.917C111.946 94.0067 111.961 94.0183 111.961 94.0386V94.6024C111.961 94.6286 111.946 94.6431 111.917 94.6431H111.876C111.589 94.6431 111.342 94.6024 111.138 94.5239C110.935 94.4455 110.737 94.3089 110.551 94.1142C110.38 94.2944 110.179 94.428 109.95 94.5123C109.72 94.5995 109.482 94.6402 109.232 94.6402H106.91V94.646ZM108.346 92.4839C108.346 92.7367 108.369 92.9808 108.412 93.2249C108.456 93.4661 108.537 93.7306 108.654 94.0125H109.229C109.592 94.0125 109.868 93.8904 110.063 93.6434C110.255 93.3964 110.354 93.0419 110.354 92.5769C110.354 92.2369 110.261 91.955 110.075 91.74C109.889 91.522 109.662 91.4145 109.395 91.4145C109.223 91.4145 109.055 91.4436 108.889 91.5046C108.723 91.5656 108.575 91.647 108.447 91.7458C108.404 91.8591 108.375 91.9754 108.363 92.0945C108.351 92.2136 108.349 92.3415 108.349 92.4868L108.346 92.4839ZM111.836 94.646C111.81 94.646 111.795 94.6315 111.795 94.6053V94.0415C111.795 94.0212 111.81 94.0096 111.836 94.0096H113.071C112.934 93.8527 112.83 93.6638 112.757 93.4429C112.684 93.222 112.649 93.0012 112.649 92.7832C112.649 92.1468 112.85 91.6441 113.248 91.2663C113.646 90.8914 114.19 90.7025 114.878 90.7025H115.942V94.6431H111.839L111.836 94.646ZM115.25 94.0096V91.3331H114.902C114.419 91.3331 114.044 91.4581 113.777 91.7109C113.51 91.9637 113.373 92.3183 113.373 92.7745C113.373 93.5969 113.742 94.0096 114.483 94.0096H115.25V94.0096ZM113.902 89.9295C113.774 89.9295 113.667 89.8917 113.579 89.8133C113.489 89.7377 113.446 89.6128 113.446 89.4413C113.446 89.2698 113.489 89.1449 113.579 89.0693C113.667 88.9938 113.777 88.9531 113.902 88.9531C114.039 88.9531 114.149 88.9938 114.23 89.078C114.312 89.1623 114.352 89.2815 114.352 89.4413C114.352 89.6011 114.312 89.7174 114.23 89.8016C114.149 89.8859 114.039 89.9295 113.899 89.9295H113.902ZM115.308 89.9295C115.169 89.9295 115.056 89.8859 114.974 89.8016C114.893 89.7174 114.852 89.5953 114.852 89.4413C114.852 89.2873 114.893 89.1652 114.974 89.0809C115.056 88.9967 115.166 88.9531 115.308 88.9531C115.451 88.9531 115.567 88.9967 115.646 89.0868C115.724 89.1768 115.765 89.2931 115.765 89.4413C115.765 89.5895 115.724 89.7086 115.646 89.7958C115.567 89.8859 115.454 89.9295 115.308 89.9295ZM118.586 94.646V94.8407C118.586 95.3899 118.461 95.8171 118.214 96.131C117.965 96.4419 117.607 96.5989 117.139 96.5989C116.881 96.5989 116.605 96.5233 116.311 96.3693L116.52 95.8258C116.654 95.884 116.761 95.9217 116.846 95.9392C116.93 95.9566 117.023 95.9653 117.125 95.9653C117.369 95.9653 117.558 95.8665 117.697 95.6689C117.834 95.4713 117.904 95.2098 117.904 94.8843V90.7083H118.589V94.0154H119.595C119.624 94.0154 119.638 94.027 119.638 94.0474V94.6111C119.638 94.6373 119.624 94.6518 119.595 94.6518H118.589L118.586 94.646ZM119.513 94.646C119.487 94.646 119.473 94.6315 119.473 94.6053V94.0415C119.473 94.0212 119.487 94.0096 119.513 94.0096H120.586V88.4678H121.309V94.6431H119.516L119.513 94.646ZM122.937 88.4707H123.66V94.646H122.937V88.4707ZM132.009 94.646C132.001 95.2882 131.835 95.7764 131.51 96.1048C131.184 96.4332 130.676 96.5989 129.984 96.5989H129.4C128.897 96.5989 128.499 96.4129 128.205 96.0438C127.912 95.6718 127.764 95.1633 127.764 94.5152C127.764 94.181 127.793 93.8439 127.851 93.501C127.909 93.1581 127.99 92.8559 128.098 92.5972H128.772C128.586 93.0651 128.493 93.7044 128.493 94.5152C128.493 94.9773 128.586 95.3347 128.772 95.5876C128.958 95.8404 129.217 95.9653 129.554 95.9653H129.952C130.423 95.9653 130.769 95.8578 130.989 95.6428C131.21 95.4277 131.318 95.1052 131.318 94.6692V88.4678H132.009V94.0096H132.902C132.931 94.0096 132.945 94.0212 132.945 94.0415V94.6053C132.945 94.6315 132.931 94.646 132.902 94.646H132.009V94.646ZM132.823 94.646C132.797 94.646 132.782 94.6315 132.782 94.6053V94.0415C132.782 94.0212 132.797 94.0096 132.823 94.0096H133.895V90.7025H134.619V94.0096H135.68C135.706 94.0096 135.72 94.0212 135.72 94.0415V94.6053C135.72 94.6315 135.706 94.646 135.68 94.646H132.826H132.823ZM134.212 96.2734C134.073 96.2734 133.959 96.2298 133.878 96.1455C133.797 96.0612 133.756 95.9392 133.756 95.7852C133.756 95.6311 133.797 95.5091 133.878 95.4248C133.959 95.3405 134.07 95.2969 134.212 95.2969C134.355 95.2969 134.471 95.3405 134.549 95.4306C134.628 95.5178 134.668 95.637 134.668 95.7852C134.668 95.9334 134.628 96.0525 134.549 96.1397C134.471 96.2269 134.357 96.2734 134.212 96.2734ZM135.595 94.646C135.569 94.646 135.555 94.6315 135.555 94.6053V94.0415C135.555 94.0212 135.569 94.0096 135.595 94.0096H136.831C136.694 93.8527 136.589 93.6638 136.517 93.4429C136.444 93.222 136.409 93.0012 136.409 92.7832C136.409 92.1381 136.61 91.6295 137.011 91.2576C137.412 90.8885 137.952 90.7025 138.635 90.7025H139.699V94.0096H140.559C140.573 94.0096 140.588 94.0154 140.594 94.0299V94.0503L140.597 94.614C140.597 94.6344 140.582 94.646 140.556 94.646H135.59H135.595ZM139.01 94.0096V91.3331H138.661C138.176 91.3331 137.801 91.461 137.534 91.7167C137.266 91.9724 137.133 92.327 137.133 92.7832C137.133 93.5998 137.502 94.0096 138.243 94.0096H139.01ZM137.662 89.9295C137.534 89.9295 137.426 89.8917 137.339 89.8133C137.249 89.7377 137.205 89.6128 137.205 89.4413C137.205 89.2698 137.249 89.1449 137.339 89.0693C137.426 88.9938 137.537 88.9531 137.662 88.9531C137.798 88.9531 137.909 88.9938 137.99 89.078C138.071 89.1623 138.112 89.2815 138.112 89.4413C138.112 89.6011 138.071 89.7174 137.99 89.8016C137.909 89.8859 137.798 89.9295 137.659 89.9295H137.662ZM139.068 89.9295C138.929 89.9295 138.815 89.8859 138.734 89.8016C138.653 89.7174 138.612 89.5953 138.612 89.4413C138.612 89.2873 138.653 89.1652 138.734 89.0809C138.815 88.9967 138.926 88.9531 139.068 88.9531C139.211 88.9531 139.327 88.9967 139.405 89.0868C139.484 89.1768 139.524 89.2931 139.524 89.4413C139.524 89.5895 139.484 89.7086 139.405 89.7958C139.327 89.8859 139.213 89.9295 139.068 89.9295ZM140.483 94.646C140.457 94.646 140.443 94.6315 140.443 94.6053V94.0415C140.443 94.0212 140.457 94.0096 140.483 94.0096H141.803V90.7025H142.526V94.0096H143.744C143.77 94.0096 143.785 94.0212 143.785 94.0415V94.6053C143.785 94.6315 143.77 94.646 143.744 94.646H140.486H140.483ZM141.451 89.9295C141.323 89.9295 141.216 89.8917 141.129 89.8133C141.038 89.7377 140.995 89.6128 140.995 89.4413C140.995 89.2698 141.038 89.1449 141.129 89.0693C141.216 88.9938 141.326 88.9531 141.451 88.9531C141.588 88.9531 141.698 88.9938 141.78 89.078C141.861 89.1623 141.902 89.2815 141.902 89.4413C141.902 89.6011 141.861 89.7174 141.78 89.8016C141.698 89.8859 141.588 89.9295 141.448 89.9295H141.451ZM142.858 89.9295C142.718 89.9295 142.605 89.8859 142.523 89.8016C142.442 89.7174 142.401 89.5953 142.401 89.4413C142.401 89.2873 142.442 89.1652 142.523 89.0809C142.605 88.9967 142.715 88.9531 142.858 88.9531C143 88.9531 143.116 88.9967 143.195 89.0868C143.273 89.1768 143.314 89.2931 143.314 89.4413C143.314 89.5895 143.273 89.7086 143.195 89.7958C143.116 89.8859 143.003 89.9295 142.858 89.9295ZM148.963 94.646C148.719 94.646 148.495 94.6053 148.289 94.5239C148.083 94.4426 147.871 94.2944 147.653 94.0764C147.533 94.2421 147.374 94.3786 147.176 94.4862C146.978 94.5908 146.74 94.646 146.464 94.646H143.663C143.636 94.646 143.622 94.6315 143.622 94.6053V94.0415C143.622 94.0212 143.636 94.0096 143.663 94.0096H144.825V91.3331H145.517V94.0096H146.394C146.656 94.0096 146.859 93.9224 147.005 93.7509C147.15 93.5766 147.222 93.3499 147.222 93.0709V91.336H147.914V93.2889L147.905 93.379C148.039 93.6115 148.187 93.7742 148.347 93.8701C148.507 93.9631 148.71 94.0096 148.96 94.0096H149.457V90.7025H150.149V94.0096H151.236C151.265 94.0096 151.279 94.0212 151.279 94.0415V94.6053C151.279 94.6315 151.265 94.646 151.236 94.646H148.96H148.963ZM151.16 94.646C151.134 94.646 151.119 94.6315 151.119 94.6053V94.0415C151.119 94.0212 151.134 94.0096 151.16 94.0096H152.169C151.968 93.4865 151.866 93.0215 151.866 92.6205C151.866 92.1352 151.965 91.7051 152.16 91.3273C152.357 91.1617 152.587 91.028 152.843 90.9292C153.098 90.8304 153.366 90.781 153.645 90.781C153.985 90.781 154.281 90.8565 154.537 91.0047C154.793 91.1529 154.99 91.368 155.13 91.6412C155.266 91.9172 155.336 92.2282 155.336 92.5769C155.336 92.9256 155.278 93.2424 155.165 93.533C155.281 93.7103 155.412 93.8323 155.557 93.9021C155.702 93.9718 155.891 94.0067 156.127 94.0067H156.167C156.196 94.0067 156.211 94.0183 156.211 94.0386V94.6024C156.211 94.6286 156.196 94.6431 156.167 94.6431H156.127C155.839 94.6431 155.592 94.6024 155.388 94.5239C155.185 94.4455 154.987 94.3089 154.801 94.1142C154.63 94.2944 154.429 94.428 154.2 94.5123C153.97 94.5995 153.732 94.6402 153.482 94.6402H151.16V94.646ZM152.596 92.4839C152.596 92.7367 152.619 92.9808 152.663 93.2249C152.706 93.4661 152.788 93.7306 152.904 94.0125H153.479C153.842 94.0125 154.119 93.8904 154.313 93.6434C154.505 93.3964 154.604 93.0419 154.604 92.5769C154.604 92.2369 154.511 91.955 154.325 91.74C154.139 91.522 153.912 91.4145 153.645 91.4145C153.473 91.4145 153.305 91.4436 153.139 91.5046C152.974 91.5656 152.825 91.647 152.697 91.7458C152.654 91.8591 152.625 91.9754 152.613 92.0945C152.602 92.2136 152.599 92.3415 152.599 92.4868L152.596 92.4839ZM156.086 94.646C156.06 94.646 156.045 94.6315 156.045 94.6053V94.0415C156.045 94.0212 156.06 94.0096 156.086 94.0096H157.158V88.4678H157.882V94.6431H156.089L156.086 94.646ZM159.509 88.4707H160.233V94.646H159.509V88.4707Z" fill="#837F7E"/>
<path d="M3.70228 79.9938C4.90248 80.6738 6.32062 81.0545 7.84047 81.0545C12.9464 81.0545 17.0875 76.9134 17.0875 71.8075C17.0875 66.7016 12.9464 62.5605 7.84047 62.5605H0V62.5693C0 64.7197 1.74362 66.4633 3.89408 66.4633H4.45785H7.86082C10.8075 66.4633 13.205 68.8608 13.205 71.8075C13.205 74.7543 10.8075 77.1517 7.86082 77.1517C7.53534 77.1517 7.21858 77.114 6.91345 77.0384C6.91345 77.0384 4.01614 76.37 3.69938 79.9938H3.70228Z" fill="url(#paint0_linear_4351_6580)"/>
<path d="M7.52371 74.6205C9.07891 74.6205 10.3397 73.3598 10.3397 71.8046C10.3397 70.2494 9.07891 68.9886 7.52371 68.9886C5.9685 68.9886 4.70776 70.2494 4.70776 71.8046C4.70776 73.3598 5.9685 74.6205 7.52371 74.6205Z" fill="url(#paint1_linear_4351_6580)"/>
<path d="M23.1844 67.5183C23.3791 67.5183 23.5389 67.6781 23.5389 67.8728V76.9309C23.5389 77.5179 24.0155 77.9974 24.6054 77.9974H24.742C25.0065 77.9974 25.2215 78.2125 25.2215 78.4769V80.1653C25.2215 80.4298 25.0065 80.6448 24.742 80.6448H20.8654C20.6707 80.6448 20.5108 80.485 20.5108 80.2903V70.898C20.5108 70.4534 20.1505 70.0901 19.703 70.0901C19.2554 70.0901 18.8951 69.7182 18.9096 69.2706L18.9474 67.8612C18.9532 67.6694 19.1101 67.5154 19.3019 67.5154H23.1815L23.1844 67.5183Z" fill="#270089"/>
<path d="M47.4003 67.5183C47.595 67.5183 47.7549 67.6781 47.7549 67.8728V76.9396C47.7549 77.5267 48.2314 78.0062 48.8214 78.0062H48.958C49.2224 78.0062 49.4374 78.2212 49.4374 78.4857V80.1741C49.4374 80.4385 49.2224 80.6536 48.958 80.6536H45.2063C44.9418 80.6536 44.7268 80.4385 44.7268 80.1741V70.898C44.7268 70.4534 44.3664 70.0901 43.9189 70.0901C43.4714 70.0901 43.111 69.7182 43.1255 69.2706L43.1633 67.8612C43.1691 67.6694 43.3261 67.5154 43.5179 67.5154H47.3974L47.4003 67.5183Z" fill="#270089"/>
<path d="M79.1313 62.5431C79.326 62.5431 79.4858 62.7029 79.4858 62.8976V76.9395C79.4858 77.5266 79.9624 78.0061 80.5523 78.0061H80.6889C80.9534 78.0061 81.1684 78.2211 81.1684 78.4856V80.2989C81.1684 80.4936 81.0086 80.6535 80.8139 80.6535H76.8152C76.6205 80.6535 76.4607 80.4936 76.4607 80.2989V65.9228C76.4607 65.4782 76.1003 65.1149 75.6528 65.1149C75.2052 65.1149 74.8449 64.7429 74.8594 64.2954L74.8972 62.886C74.903 62.6942 75.06 62.5402 75.2517 62.5402H79.1313V62.5431Z" fill="#270089"/>
<path d="M41.3878 67.7071H38.4091C38.1301 67.7071 37.8802 67.8815 37.7843 68.143L37.4733 68.9916V69.0003C36.308 67.9163 34.7766 67.2509 33.094 67.2509C29.4469 67.2509 26.4915 70.3458 26.4915 74.1614C26.4915 77.977 29.4469 81.0719 33.094 81.0719C34.6836 81.0719 36.1424 80.482 37.2845 79.5027C37.1827 81.6067 35.7646 82.801 33.588 82.801C32.6261 82.801 31.7456 82.4697 31.0452 81.9147C30.8767 81.781 30.6413 81.781 30.4872 81.935L28.9209 83.5101C28.7582 83.6728 28.7582 83.946 28.9325 84.1C30.1472 85.1694 31.7252 85.8175 33.4543 85.8175C37.2845 85.8175 40.3794 82.6354 40.3794 78.7122V71.3455C40.3794 70.9677 40.6177 70.6277 40.9722 70.4998L41.3907 70.3487C41.7888 70.2063 42.0533 69.8285 42.0533 69.4042V68.3755C42.0533 68.0064 41.7539 67.7071 41.3849 67.7071H41.3878ZM33.4194 78.0845C31.2661 78.0845 29.5195 76.338 29.5195 74.1846C29.5195 72.0313 31.2661 70.2848 33.4194 70.2848C35.5728 70.2848 37.3193 72.0313 37.3193 74.1846C37.3193 76.338 35.5728 78.0845 33.4194 78.0845Z" fill="#270089"/>
<path d="M73.3628 77.9799L72.9444 77.8288C72.5869 77.7009 72.3515 77.3609 72.3515 76.9831V68.0587C72.3515 67.864 72.1946 67.7042 71.997 67.7042L70.0645 67.6925C69.8669 67.6925 69.707 67.8495 69.707 68.0471V69.2473C68.5127 68.0122 66.8737 67.2479 65.0632 67.2479C61.4161 67.2479 58.4607 70.3428 58.4607 74.1585C58.4607 77.9741 61.4161 81.069 65.0632 81.069C66.7429 81.069 68.2773 80.4123 69.4426 79.3283L69.7535 80.1798C69.8494 80.4413 70.0994 80.6157 70.3812 80.6157H73.6709C73.8656 80.6157 74.0254 80.4558 74.0254 80.2611V78.9215C74.0254 78.5001 73.761 78.1223 73.3628 77.977V77.9799ZM65.3887 78.0845C63.2353 78.0845 61.4888 76.338 61.4888 74.1846C61.4888 72.0313 63.2353 70.2847 65.3887 70.2847C67.542 70.2847 69.2886 72.0313 69.2886 74.1846C69.2886 76.338 67.542 78.0845 65.3887 78.0845Z" fill="#270089"/>
<path d="M56.2259 78.0845C55.5692 78.0845 55.0374 77.5527 55.0374 76.896V70.0232H56.4613C56.5311 70.0232 56.5892 69.9651 56.5892 69.8953V67.6461C56.5892 67.5763 56.5311 67.5182 56.4613 67.5182H55.0374V64.5889C55.0374 64.3942 54.8775 64.2344 54.6828 64.2344H52.3522C52.1575 64.2344 51.9976 64.3942 51.9976 64.5889V67.5182H50.5766C50.5068 67.5182 50.4487 67.5763 50.4487 67.6461V69.8953C50.4487 69.9651 50.5068 70.0232 50.5766 70.0232H51.9976V76.7826C51.9976 78.9069 53.7209 80.6302 55.8452 80.6302H56.1736C56.5659 80.6302 56.8856 80.3105 56.8856 79.9182V78.7442C56.8856 78.3809 56.5921 78.0874 56.2288 78.0874L56.2259 78.0845Z" fill="#270089"/>
<path d="M96.3757 64.8563C98.9417 63.8712 98.7325 61.8573 98.7325 61.8573V61.1918C98.7325 61.0843 98.6453 61 98.5407 61H97.1603C94.109 61 91.107 63.7578 91.1012 67.1608C91.1012 67.3584 90.9501 67.5211 90.7525 67.5211H90.058C89.625 67.5211 89.3431 67.803 89.3431 68.1547V69.8547C89.3431 70.2034 89.625 70.4882 89.9766 70.4882H90.4881C90.8484 70.4882 91.1419 70.7817 91.1419 71.1421V79.7991C91.1419 81.1766 91.0896 81.2957 88.9711 82.4843C86.8526 83.6729 87.4745 85.8204 87.4745 85.8204C95.5126 85.8204 95.1028 80.1943 95.1028 80.1943V71.1421C95.1028 70.7817 95.3963 70.4882 95.7567 70.4882H96.4541C96.8029 70.4882 97.0877 70.2063 97.0877 69.8547V68.1547C97.0877 67.803 96.8029 67.5211 96.4541 67.5211H95.5852C95.2656 67.5211 95.0273 67.2567 95.0651 66.937C95.2627 65.2719 96.3757 64.8592 96.3757 64.8592V64.8563Z" fill="url(#paint2_linear_4351_6580)"/>
<path d="M112.667 74.8734V68.0674C112.667 67.8727 112.507 67.7129 112.312 67.7129H109.953C109.758 67.7129 109.598 67.8727 109.598 68.0674V75.1058C109.598 76.3758 108.816 77.5469 107.613 77.945C105.521 78.6367 103.583 77.0994 103.583 75.1058V67.8727C103.583 67.678 103.423 67.5182 103.228 67.5182H99.1829C98.9882 67.5182 98.8284 67.678 98.8284 67.8727V69.6861C98.8284 70.1423 99.1974 70.5114 99.6537 70.5114C100.127 70.5114 100.514 70.895 100.514 71.3716V74.8763C100.514 74.8763 100.258 78.0206 102.475 79.7439C104.693 81.4671 107.166 81.7345 109.685 79.9763C109.685 79.9763 109.993 79.7468 110.194 80.2466C110.284 80.4704 110.484 80.6302 110.726 80.6302H113.841C114.088 80.6302 114.288 80.4297 114.288 80.1827V78.5669C114.288 78.0526 113.873 77.637 113.359 77.637H113.236C112.728 77.637 112.629 77.1778 112.649 76.6693L112.676 74.8734H112.667Z" fill="#270089"/>
<path d="M136.679 74.8734V67.8727C136.679 67.678 136.52 67.5182 136.325 67.5182H133.965C133.77 67.5182 133.611 67.678 133.611 67.8727V75.1058C133.611 76.3758 132.829 77.5469 131.626 77.945C129.533 78.6367 127.595 77.0994 127.595 75.1058V67.8727C127.595 67.678 127.435 67.5182 127.241 67.5182H123.195C123.001 67.5182 122.841 67.678 122.841 67.8727V69.6861C122.841 70.1423 123.21 70.5114 123.666 70.5114C124.14 70.5114 124.526 70.895 124.526 71.3716V74.8763C124.526 74.8763 124.271 78.0206 126.488 79.7439C128.705 81.4671 131.178 81.7345 133.698 79.9763C133.698 79.9763 134.006 79.7468 134.206 80.2466C134.296 80.4704 134.497 80.6302 134.738 80.6302H137.943C138.138 80.6302 138.298 80.4704 138.298 80.2757V78.5698C138.298 78.0555 137.882 77.6399 137.368 77.6399H137.246C136.737 77.6399 136.639 77.1807 136.659 76.6722L136.685 74.8763L136.679 74.8734Z" fill="#270089"/>
<path d="M146.97 67.4804C147.385 67.4746 147.725 67.8205 147.725 68.236L147.847 69.3461C147.847 69.8343 147.516 70.2615 147.042 70.3836L146.502 70.5231C145.089 70.8863 143.933 72.38 143.933 73.8388V79.7962C143.933 80.2699 143.549 80.6535 143.076 80.6535H141.718C141.245 80.6535 140.861 80.2699 140.861 79.7962V71.4646C140.861 71.1479 140.687 70.8573 140.411 70.7061L139.751 70.3458C139.382 70.1453 139.15 69.7559 139.15 69.3345V67.8669C139.15 67.6722 139.309 67.5124 139.504 67.5124H142.486C142.811 67.5124 143.11 67.6868 143.273 67.9687L143.805 68.9015C143.805 68.9015 144.674 67.5095 146.97 67.4775V67.4804Z" fill="#270089"/>
<path d="M155.078 67.2422C150.928 67.2422 148.402 70.372 148.402 74.237C148.402 78.102 151.483 81.1592 155.787 81.1592C157.739 81.1592 159.158 80.4414 159.986 79.3516C160.096 79.2092 160.067 79 159.933 78.8779L158.268 77.3494C158.155 77.2447 157.989 77.2302 157.853 77.3058C156.443 78.0817 155.176 78.0701 155.176 78.0701C151.959 78.0701 151.599 74.8821 151.599 74.8821H160.439C160.753 74.8821 161.012 74.6235 160.997 74.3126C160.82 70.4069 158.562 67.2451 155.075 67.2451L155.078 67.2422ZM151.983 72.3103C152.134 71.3281 153.308 70.3691 154.406 70.2877C155.775 70.186 156.998 70.9619 157.452 72.3103H151.983Z" fill="#270089"/>
<path d="M120.879 78.0845C120.222 78.0845 119.691 77.5527 119.691 76.896V70.0232H121.115C121.184 70.0232 121.242 69.9651 121.242 69.8953V67.6461C121.242 67.5763 121.184 67.5182 121.115 67.5182H119.691V64.5889C119.691 64.3942 119.531 64.2344 119.336 64.2344H117.006C116.811 64.2344 116.651 64.3942 116.651 64.5889V67.5182H115.23C115.16 67.5182 115.102 67.5763 115.102 67.6461V69.8953C115.102 69.9651 115.16 70.0232 115.23 70.0232H116.651V76.7826C116.651 78.9069 118.374 80.6302 120.499 80.6302H120.827C121.219 80.6302 121.539 80.3105 121.539 79.9182V78.7442C121.539 78.3809 121.245 78.0874 120.882 78.0874L120.879 78.0845Z" fill="#270089"/>
<path d="M47.1417 62.9994H44.8401V65.3504C44.8401 65.67 45.0987 65.9287 45.4184 65.9287H47.1417C47.4613 65.9287 47.72 65.67 47.72 65.3504V63.5777C47.72 63.258 47.4613 62.9994 47.1417 62.9994V62.9994Z" fill="#00B2E3"/>
<path d="M22.9489 62.9994H20.6473V65.3504C20.6473 65.67 20.906 65.9287 21.2256 65.9287H22.9489C23.2686 65.9287 23.5272 65.67 23.5272 65.3504V63.5777C23.5272 63.258 23.2686 62.9994 22.9489 62.9994V62.9994Z" fill="#00B2E3"/>
<defs>
<linearGradient id="paint0_linear_4351_6580" x1="16.4423" y1="76.6722" x2="5.48368" y2="70.4097" gradientUnits="userSpaceOnUse">
<stop stop-color="#CF1581"/>
<stop offset="1" stop-color="#00B2E3"/>
</linearGradient>
<linearGradient id="paint1_linear_4351_6580" x1="1.94122" y1="71.0112" x2="18.555" y2="73.3739" gradientUnits="userSpaceOnUse">
<stop stop-color="#53A8DE"/>
<stop offset="1" stop-color="#901F76"/>
</linearGradient>
<linearGradient id="paint2_linear_4351_6580" x1="97.5178" y1="75.5999" x2="90.6217" y2="72.2318" gradientUnits="userSpaceOnUse">
<stop stop-color="#CF1581"/>
<stop offset="1" stop-color="#00B2E3"/>
</linearGradient>
</defs>
</svg>
