<svg width="161" height="161" viewBox="0 0 161 161" fill="none" xmlns="http://www.w3.org/2000/svg">
<path d="M40.0466 82.9379H47.5295C50.3934 82.9379 52.7376 80.594 52.7376 77.7305V76.5163C52.7376 73.6528 50.3934 71.3089 47.5295 71.3089H32.5547C32.5547 71.3089 23.1354 71.4085 19.8849 62.1144C21.3259 67.4939 25.9721 78.7454 40.0466 82.9349V82.9379Z" fill="url(#paint0_linear_4351_6273)"/>
<path d="M90.3242 82.9379H97.8071C100.671 82.9379 103.015 80.594 103.015 77.7305V76.5163C103.015 73.6528 100.671 71.3089 97.8071 71.3089H82.8323C82.8323 71.3089 73.413 71.4085 70.1625 62.1144C71.6035 67.4939 76.2497 78.7454 90.3242 82.9349V82.9379Z" fill="url(#paint1_linear_4351_6273)"/>
<path d="M140.991 82.9379H148.474C151.338 82.9379 153.682 80.594 153.682 77.7305V76.5163C153.682 73.6528 151.338 71.3089 148.474 71.3089H133.499C133.499 71.3089 124.08 71.4085 120.83 62.1144C122.271 67.4939 126.917 78.7454 140.991 82.9349V82.9379Z" fill="url(#paint2_linear_4351_6273)"/>
<path d="M69.2471 52.361C69.3166 51.8385 69.4042 51.3431 69.5129 50.8689C69.4072 51.3431 69.3166 51.8385 69.2471 52.361Z" fill="url(#paint3_linear_4351_6273)"/>
<path d="M69.0809 54.5872C69.093 53.9952 69.1293 53.4304 69.1836 52.8927C69.1293 53.4304 69.093 53.9952 69.0809 54.5872Z" fill="url(#paint4_linear_4351_6273)"/>
<path d="M69.2954 58.4293C69.2199 57.8826 69.1625 57.3117 69.1262 56.7167C69.1625 57.3117 69.2199 57.8826 69.2954 58.4293Z" fill="url(#paint5_linear_4351_6273)"/>
<path d="M97.8039 71.3088H82.8291C82.8291 71.3088 76.748 71.3692 72.6727 66.5726C75.2043 71.7317 80.213 77.7093 90.3211 82.9348H97.8039C100.668 82.9348 103.012 80.5909 103.012 77.7274V76.5132C103.012 73.6497 100.668 71.3058 97.8039 71.3058V71.3088Z" fill="url(#paint6_linear_4351_6273)"/>
<path d="M69.081 54.5872C69.0719 54.9828 69.0749 55.3876 69.087 55.8075C69.0961 56.1186 69.1112 56.4206 69.1293 56.7196C69.1112 56.4206 69.0961 56.1186 69.087 55.8075C69.0749 55.3876 69.0749 54.9828 69.081 54.5872Z" fill="url(#paint7_linear_4351_6273)"/>
<path d="M69.5129 50.869C69.5854 50.5548 69.664 50.2497 69.7516 49.9537C69.664 50.2467 69.5854 50.5518 69.5129 50.869Z" fill="url(#paint8_linear_4351_6273)"/>
<path d="M69.7485 49.9537C69.8361 49.6607 69.9298 49.3738 70.0295 49.1019C69.9298 49.3768 69.8331 49.6607 69.7485 49.9537Z" fill="url(#paint9_linear_4351_6273)"/>
<path d="M140.991 82.9378H148.474C151.338 82.9378 153.682 80.5939 153.682 77.7305V76.5162C153.682 73.6527 151.338 71.3088 148.474 71.3088H133.499C133.499 71.3088 127.418 71.3692 123.343 66.5726C125.875 71.7317 130.883 77.7093 140.991 82.9348V82.9378Z" fill="#2955A3"/>
<path d="M32.0986 79.3071C33.0593 79.9324 34.0894 80.5184 35.1981 81.059C34.0894 80.5184 33.0593 79.9324 32.0986 79.3071Z" fill="url(#paint10_linear_4351_6273)"/>
<path d="M50.0037 40.9978C50.8888 40.5145 51.6199 39.7836 52.1032 38.8986C51.6199 39.7836 50.8888 40.5145 50.0037 40.9978Z" fill="url(#paint11_linear_4351_6273)"/>
<path d="M52.1032 32.7337C51.6199 31.8487 50.8888 31.1177 50.0037 30.6344C50.8888 31.1177 51.6199 31.8487 52.1032 32.7337Z" fill="url(#paint12_linear_4351_6273)"/>
<path d="M20.8334 46.8939C20.9693 46.6764 21.1143 46.468 21.2593 46.2656C21.1113 46.465 20.9693 46.6734 20.8334 46.8939Z" fill="url(#paint13_linear_4351_6273)"/>
<path d="M21.2625 46.2657C21.483 45.9636 21.7156 45.6827 21.9542 45.4199C21.7156 45.6827 21.483 45.9636 21.2625 46.2657Z" fill="url(#paint14_linear_4351_6273)"/>
<path d="M20.2534 47.9329C20.3743 47.6882 20.5011 47.4526 20.631 47.2261C20.4981 47.4526 20.3712 47.6882 20.2534 47.9329Z" fill="url(#paint15_linear_4351_6273)"/>
<path d="M47.5295 30.0031C48.2455 30.0031 48.9282 30.148 49.5506 30.4138C48.9282 30.148 48.2455 30.0031 47.5295 30.0031Z" fill="url(#paint16_linear_4351_6273)"/>
<path d="M47.5296 71.3088H32.5548C32.5548 71.3088 26.4737 71.3692 22.3984 66.5726C24.93 71.7317 29.9387 77.7093 40.0468 82.9348H47.5296C50.3935 82.9348 52.7377 80.5909 52.7377 77.7274V76.5132C52.7377 73.6497 50.3935 71.3058 47.5296 71.3058V71.3088Z" fill="url(#paint17_linear_4351_6273)"/>
<path d="M24.0236 43.6709C23.4768 44.0243 22.9451 44.4351 22.4436 44.9154C22.9451 44.4351 23.4768 44.0243 24.0236 43.6709Z" fill="url(#paint18_linear_4351_6273)"/>
<path d="M52.7346 36.4217C52.7346 37.3158 52.5051 38.1615 52.1033 38.8985C52.5051 38.1615 52.7346 37.3158 52.7346 36.4217V35.2074C52.7346 34.3133 52.5051 33.4676 52.1033 32.7306C52.5051 33.4676 52.7346 34.3133 52.7346 35.2074V36.4217Z" fill="url(#paint19_linear_4351_6273)"/>
<path d="M21.6643 67.0499C22.0933 67.9893 22.5978 68.968 23.1869 69.9647C22.5978 68.968 22.0933 67.9893 21.6643 67.0499Z" fill="url(#paint20_linear_4351_6273)"/>
<path d="M23.6429 70.7107C24.2773 71.7135 24.9993 72.7254 25.8271 73.7191C25.0024 72.7224 24.2773 71.7105 23.6429 70.7107V70.7107Z" fill="url(#paint21_linear_4351_6273)"/>
<path d="M20.8184 65.0171C21.06 65.6635 21.341 66.3431 21.6642 67.0469C21.341 66.3431 21.0631 65.6635 20.8184 65.0171Z" fill="url(#paint22_linear_4351_6273)"/>
<path d="M29.422 77.3347C30.2467 78.0234 31.1349 78.6849 32.0955 79.3101C31.1349 78.6849 30.2437 78.0234 29.422 77.3347Z" fill="url(#paint23_linear_4351_6273)"/>
<path d="M28.6215 76.637C27.8421 75.9332 27.1231 75.2052 26.4675 74.4652C27.1261 75.2052 27.8421 75.9332 28.6215 76.637Z" fill="url(#paint24_linear_4351_6273)"/>
<path d="M19.885 62.1143C20.1085 62.954 20.4137 63.9387 20.8185 65.017C20.4137 63.9387 20.1085 62.954 19.885 62.1143C19.8095 61.8968 19.737 61.6703 19.6675 61.4437C19.737 61.6733 19.8095 61.8968 19.885 62.1143V62.1143Z" fill="url(#paint25_linear_4351_6273)"/>
<path d="M40.0467 82.9379C38.2885 82.4153 36.6754 81.781 35.1981 81.0591C36.6754 81.778 38.2855 82.4123 40.0467 82.9379Z" fill="url(#paint26_linear_4351_6273)"/>
<path d="M47.5295 41.6292C48.2455 41.6292 48.9282 41.4842 49.5506 41.2184C48.9282 41.4842 48.2455 41.6292 47.5295 41.6292Z" fill="url(#paint27_linear_4351_6273)"/>
<path d="M38.2582 52.3006C38.3217 52.4245 38.3881 52.5483 38.4546 52.6752C38.7265 53.1766 39.0255 53.684 39.3578 54.1945C39.524 54.4482 39.6992 54.705 39.8835 54.9587C40.249 55.4692 40.6508 55.9796 41.0888 56.4841C41.3094 56.7378 41.5359 56.9885 41.7746 57.2392C42.0132 57.4899 42.261 57.7376 42.5208 57.9822C44.0705 59.4563 45.9918 60.8487 48.3633 62.0328C50.8314 61.628 52.7346 59.4774 52.7346 56.9009V55.6866C52.7346 52.8232 50.3903 50.4792 47.5265 50.4792H37.4244C37.5664 50.8326 37.7235 51.1921 37.8927 51.5576C38.0075 51.8022 38.1283 52.0469 38.2552 52.2976L38.2582 52.3006Z" fill="url(#paint28_linear_4351_6273)"/>
<path d="M98.5563 62.0358C101.024 61.6311 102.928 59.4804 102.928 56.9039V55.6897C102.928 52.8262 100.583 50.4823 97.7195 50.4823H87.6174C89.1309 54.2459 92.2304 58.8763 98.5563 62.0358V62.0358Z" fill="url(#paint29_linear_4351_6273)"/>
<path d="M10.375 68.6567C10.1575 68.2339 9.95207 67.7959 9.75269 67.3458C9.94905 67.7959 10.1575 68.2308 10.375 68.6567Z" fill="url(#paint30_linear_4351_6273)"/>
<path d="M18.3171 77.6701C17.2114 76.9029 16.1209 76.0239 15.0817 75.0181C16.1209 76.0239 17.2114 76.9029 18.3171 77.6701Z" fill="url(#paint31_linear_4351_6273)"/>
<path d="M13.7766 73.6558C13.4956 73.3356 13.2177 73.0064 12.9458 72.665C13.2177 73.0064 13.4926 73.3356 13.7766 73.6558Z" fill="url(#paint32_linear_4351_6273)"/>
<path d="M14.6406 74.58C14.3476 74.281 14.0606 73.9729 13.7797 73.6558C14.0606 73.9759 14.3506 74.284 14.6406 74.58Z" fill="url(#paint33_linear_4351_6273)"/>
<path d="M22.1264 79.8962C21.8123 79.7422 21.4951 79.5821 21.1779 79.413C21.4951 79.5821 21.8123 79.7422 22.1264 79.8962Z" fill="url(#paint34_linear_4351_6273)"/>
<path d="M21.1779 79.4129C20.7006 79.1591 20.2233 78.8903 19.746 78.6003C20.2233 78.8903 20.7006 79.1622 21.1779 79.4129Z" fill="url(#paint35_linear_4351_6273)"/>
<path d="M29.567 82.4576C29.3525 82.4123 29.129 82.361 28.8964 82.3036C29.129 82.358 29.3525 82.4093 29.567 82.4576Z" fill="url(#paint36_linear_4351_6273)"/>
<path d="M25.7576 81.3943C25.4706 81.2947 25.1806 81.192 24.8845 81.0802C25.1806 81.192 25.4706 81.2947 25.7576 81.3943Z" fill="url(#paint37_linear_4351_6273)"/>
<path d="M28.1744 82.1254C27.9267 82.0589 27.6699 81.9895 27.4071 81.9139C27.6699 81.9895 27.9267 82.0589 28.1744 82.1254Z" fill="url(#paint38_linear_4351_6273)"/>
<path d="M11.7767 71.0521C11.5259 70.6775 11.2842 70.2879 11.0516 69.8892C11.2842 70.2879 11.5289 70.6745 11.7767 71.0521Z" fill="url(#paint39_linear_4351_6273)"/>
<path d="M24.8816 81.0802C24.5855 80.9685 24.2864 80.8506 23.9813 80.7268C24.2834 80.8506 24.5855 80.9685 24.8816 81.0802Z" fill="url(#paint40_linear_4351_6273)"/>
<path d="M11.0516 69.8921C10.819 69.4934 10.5924 69.0796 10.3749 68.6567C10.5924 69.0796 10.8159 69.4934 11.0516 69.8921Z" fill="url(#paint41_linear_4351_6273)"/>
<path d="M32.0985 79.3071C31.1379 78.6819 30.2467 78.0204 29.425 77.3317C29.1501 77.1021 28.8843 76.8695 28.6214 76.6339C27.842 75.9302 27.1231 75.2022 26.4675 74.4622C26.247 74.2145 26.0355 73.9668 25.8301 73.7191C25.0054 72.7224 24.2804 71.7105 23.646 70.7107C23.4889 70.46 23.3348 70.2093 23.1868 69.9616C22.5977 68.9648 22.0932 67.9862 21.6642 67.0468C21.341 66.343 21.0631 65.6634 20.8184 65.017C20.4135 63.9387 20.1084 62.954 19.8849 62.1143C19.8094 61.8968 19.7369 61.6703 19.6674 61.4437C19.181 59.8398 18.8729 57.9761 18.8094 55.8074C18.7158 52.4576 19.2898 49.8962 20.2534 47.9359C20.3743 47.6913 20.5012 47.4557 20.6311 47.2291C20.6975 47.1143 20.764 47.0056 20.8335 46.8969C20.9694 46.6794 21.1144 46.471 21.2594 46.2686C21.4799 45.9665 21.7126 45.6856 21.9512 45.4228C22.1113 45.2476 22.2744 45.0785 22.4436 44.9184C22.9451 44.4381 23.4768 44.0274 24.0236 43.674C23.0508 44.1603 21.9935 44.7734 20.912 45.5497C20.19 46.0662 19.4529 46.6582 18.7218 47.3288C18.3563 47.6641 17.9908 48.0205 17.6313 48.3981C17.45 48.5853 17.2718 48.7817 17.0905 48.981C16.731 49.3797 16.3776 49.8026 16.0302 50.2466C15.6828 50.6906 15.3414 51.1588 15.0061 51.6512C12.5047 55.3422 10.4626 60.4107 9.74963 67.3488C9.94599 67.7989 10.1544 68.2339 10.3719 68.6598C10.5895 69.0856 10.813 69.4964 11.0486 69.8952C11.2813 70.2939 11.5259 70.6805 11.7737 71.0581C12.1483 71.6199 12.541 72.1575 12.9458 72.671C13.2177 73.0123 13.4926 73.3416 13.7765 73.6617C14.0575 73.9819 14.3475 74.29 14.6375 74.586C14.7825 74.734 14.9305 74.882 15.0786 75.024C16.1178 76.0298 17.2083 76.9088 18.314 77.676C18.7883 78.0053 19.2656 78.3134 19.7429 78.6033C20.2202 78.8933 20.6975 79.1651 21.1748 79.4159C21.492 79.585 21.8092 79.7451 22.1234 79.8991C22.7518 80.2042 23.3741 80.4821 23.9813 80.7298C24.2834 80.8536 24.5855 80.9714 24.8815 81.0832C25.1776 81.1949 25.4676 81.2976 25.7546 81.3973C26.3285 81.5937 26.8784 81.7658 27.404 81.9168C27.6668 81.9924 27.9236 82.0618 28.1713 82.1283C28.419 82.1947 28.6607 82.2521 28.8933 82.3095C29.1259 82.3639 29.3495 82.4152 29.564 82.4636C31.3886 82.8593 32.5517 82.9438 32.5517 82.9438H40.0436C38.2854 82.4213 36.6722 81.787 35.195 81.0651C34.0863 80.5244 33.0562 79.9384 32.0955 79.3132L32.0985 79.3071Z" fill="url(#paint42_linear_4351_6273)"/>
<path d="M32.0985 79.3071C31.1379 78.6819 30.2467 78.0204 29.425 77.3317C29.1501 77.1021 28.8843 76.8695 28.6214 76.6339C27.842 75.9302 27.1231 75.2022 26.4675 74.4622C26.247 74.2145 26.0355 73.9668 25.8301 73.7191C25.0054 72.7224 24.2804 71.7105 23.646 70.7107C23.4889 70.46 23.3348 70.2093 23.1868 69.9616C22.5977 68.9648 22.0932 67.9862 21.6642 67.0468C21.341 66.343 21.0631 65.6634 20.8184 65.017C20.4135 63.9387 20.1084 62.954 19.8849 62.1143C19.8094 61.8968 19.7369 61.6703 19.6674 61.4437C19.181 59.8398 18.8729 57.9761 18.8094 55.8074C18.7158 52.4576 19.2898 49.8962 20.2534 47.9359C20.3743 47.6913 20.5012 47.4557 20.6311 47.2291C20.6975 47.1143 20.764 47.0056 20.8335 46.8969C20.9694 46.6794 21.1144 46.471 21.2594 46.2686C21.4799 45.9665 21.7126 45.6856 21.9512 45.4228C22.1113 45.2476 22.2744 45.0785 22.4436 44.9184C22.9451 44.4381 23.4768 44.0274 24.0236 43.674C23.0508 44.1603 21.9935 44.7734 20.912 45.5497C20.19 46.0662 19.4529 46.6582 18.7218 47.3288C18.3563 47.6641 17.9908 48.0205 17.6313 48.3981C17.45 48.5853 17.2718 48.7817 17.0905 48.981C16.731 49.3797 16.3776 49.8026 16.0302 50.2466C15.6828 50.6906 15.3414 51.1588 15.0061 51.6512C12.5047 55.3422 10.4626 60.4107 9.74963 67.3488C9.94599 67.7989 10.1544 68.2339 10.3719 68.6598C10.5895 69.0856 10.813 69.4964 11.0486 69.8952C11.2813 70.2939 11.5259 70.6805 11.7737 71.0581C12.1483 71.6199 12.541 72.1575 12.9458 72.671C13.2177 73.0123 13.4926 73.3416 13.7765 73.6617C14.0575 73.9819 14.3475 74.29 14.6375 74.586C14.7825 74.734 14.9305 74.882 15.0786 75.024C16.1178 76.0298 17.2083 76.9088 18.314 77.676C18.7883 78.0053 19.2656 78.3134 19.7429 78.6033C20.2202 78.8933 20.6975 79.1651 21.1748 79.4159C21.492 79.585 21.8092 79.7451 22.1234 79.8991C22.7518 80.2042 23.3741 80.4821 23.9813 80.7298C24.2834 80.8536 24.5855 80.9714 24.8815 81.0832C25.1776 81.1949 25.4676 81.2976 25.7546 81.3973C26.3285 81.5937 26.8784 81.7658 27.404 81.9168C27.6668 81.9924 27.9236 82.0618 28.1713 82.1283C28.419 82.1947 28.6607 82.2521 28.8933 82.3095C29.1259 82.3639 29.3495 82.4152 29.564 82.4636C31.3886 82.8593 32.5517 82.9438 32.5517 82.9438H40.0436C38.2854 82.4213 36.6722 81.787 35.195 81.0651C34.0863 80.5244 33.0562 79.9384 32.0955 79.3132L32.0985 79.3071Z" fill="url(#paint43_linear_4351_6273)"/>
<path d="M7.36313 53.0406C7.32386 53.7565 7.30875 54.4935 7.32083 55.2547C7.34198 56.7589 7.44469 58.1846 7.62293 59.5318C7.44469 58.1846 7.34198 56.7619 7.32083 55.2547C7.31177 54.4935 7.32688 53.7565 7.36313 53.0406V53.0406Z" fill="url(#paint44_linear_4351_6273)"/>
<path d="M14.0696 37.5364C13.5349 38.0468 13.0183 38.5936 12.5259 39.1735C13.0183 38.5905 13.5349 38.0468 14.0696 37.5364V37.5364Z" fill="url(#paint45_linear_4351_6273)"/>
<path d="M15.722 36.1076C16.287 35.6635 16.864 35.2527 17.45 34.8691C16.864 35.2497 16.287 35.6635 15.722 36.1076Z" fill="url(#paint46_linear_4351_6273)"/>
<path d="M8.36306 63.3437C8.23618 62.8664 8.12139 62.3741 8.01868 61.8727C8.12441 62.3741 8.23921 62.8664 8.36306 63.3437Z" fill="url(#paint47_linear_4351_6273)"/>
<path d="M11.1272 41.034C11.5683 40.3755 12.0365 39.7563 12.5289 39.1764C12.0365 39.7594 11.5683 40.3786 11.1272 41.034Z" fill="url(#paint48_linear_4351_6273)"/>
<path d="M8.77086 64.7453C8.62586 64.2892 8.48992 63.821 8.36304 63.3438C8.48992 63.821 8.62586 64.2892 8.77086 64.7453Z" fill="url(#paint49_linear_4351_6273)"/>
<path d="M7.44165 51.9835C7.59572 50.2497 7.89479 48.6489 8.31168 47.1779C7.89479 48.6489 7.59572 50.2497 7.44165 51.9835V51.9835Z" fill="url(#paint50_linear_4351_6273)"/>
<path d="M8.01867 61.8726C7.86158 61.1205 7.72866 60.3382 7.62292 59.5317C7.72866 60.3382 7.86158 61.1205 8.01867 61.8726Z" fill="url(#paint51_linear_4351_6273)"/>
<path d="M8.31177 47.1778C8.47792 46.5888 8.66522 46.0209 8.86762 45.4712C8.66522 46.0209 8.47792 46.5888 8.31177 47.1778Z" fill="url(#paint52_linear_4351_6273)"/>
<path d="M10.2844 42.4024C10.5503 41.9281 10.8312 41.472 11.1273 41.0341C10.8342 41.472 10.5533 41.9281 10.2844 42.4024Z" fill="url(#paint53_linear_4351_6273)"/>
<path d="M9.52905 43.8795C9.76469 43.369 10.0184 42.8767 10.2843 42.4025C10.0184 42.8767 9.76469 43.369 9.52905 43.8795Z" fill="url(#paint54_linear_4351_6273)"/>
<path d="M8.86755 45.4712C9.06996 44.9215 9.29049 44.3929 9.52914 43.8824C9.29351 44.3929 9.07298 44.9245 8.86755 45.4712V45.4712Z" fill="url(#paint55_linear_4351_6273)"/>
<path d="M25.078 42.2573C26.7335 41.7136 28.4554 41.3844 30.1955 41.2756C31.9808 41.1639 39.1163 41.6018 40.8684 41.6018C40.7567 41.6018 40.4969 41.6109 40.1525 41.629H47.5326C48.2486 41.629 48.9313 41.484 49.5536 41.2182C49.7107 41.1518 49.8618 41.0793 50.0098 40.9977C50.8949 40.5145 51.626 39.7835 52.1093 38.8985C52.5111 38.1615 52.7407 37.3157 52.7407 36.4216V35.2074C52.7407 34.3133 52.5111 33.4676 52.1093 32.7306C51.626 31.8455 50.8949 31.1146 50.0098 30.6313C49.8618 30.5497 49.7107 30.4772 49.5536 30.4108C48.9313 30.145 48.2486 30 47.5326 30H32.5578C32.5578 30 24.4708 30.2839 17.4531 34.8661C16.8671 35.2467 16.2901 35.6605 15.7251 36.1045C15.1602 36.5485 14.6074 37.0257 14.0757 37.5362C13.541 38.0467 13.0244 38.5934 12.532 39.1733C12.0396 39.7563 11.5714 40.3755 11.1303 41.031C10.8373 41.4689 10.5563 41.925 10.2875 42.3993C10.0216 42.8735 9.76786 43.3658 9.53222 43.8763C9.29659 44.3868 9.07606 44.9184 8.87064 45.4651C8.66521 46.0118 8.48094 46.5827 8.31478 47.1717C7.8979 48.6427 7.59882 50.2436 7.44475 51.9774C7.41454 52.3247 7.38736 52.6781 7.36923 53.0345C7.32996 53.7504 7.31485 54.4874 7.32694 55.2486C7.34808 56.7528 7.4508 58.1785 7.62903 59.5257C7.73476 60.3321 7.86769 61.1145 8.02477 61.8666C8.13051 62.368 8.2453 62.8603 8.36916 63.3376C8.49302 63.8148 8.63198 64.283 8.77699 64.7391C9.067 65.6513 9.39628 66.5182 9.75879 67.3398C9.89474 60.6674 11.8553 52.2855 16.4502 47.6489C18.8639 45.2144 21.8214 43.3235 25.084 42.2513L25.078 42.2573Z" fill="url(#paint56_linear_4351_6273)"/>
<path d="M25.078 42.2573C26.7335 41.7136 28.4554 41.3844 30.1955 41.2756C31.9808 41.1639 39.1163 41.6018 40.8684 41.6018C40.7567 41.6018 40.4969 41.6109 40.1525 41.629H47.5326C48.2486 41.629 48.9313 41.484 49.5536 41.2182C49.7107 41.1518 49.8618 41.0793 50.0098 40.9977C50.8949 40.5145 51.626 39.7835 52.1093 38.8985C52.5111 38.1615 52.7407 37.3157 52.7407 36.4216V35.2074C52.7407 34.3133 52.5111 33.4676 52.1093 32.7306C51.626 31.8455 50.8949 31.1146 50.0098 30.6313C49.8618 30.5497 49.7107 30.4772 49.5536 30.4108C48.9313 30.145 48.2486 30 47.5326 30H32.5578C32.5578 30 24.4708 30.2839 17.4531 34.8661C16.8671 35.2467 16.2901 35.6605 15.7251 36.1045C15.1602 36.5485 14.6074 37.0257 14.0757 37.5362C13.541 38.0467 13.0244 38.5934 12.532 39.1733C12.0396 39.7563 11.5714 40.3755 11.1303 41.031C10.8373 41.4689 10.5563 41.925 10.2875 42.3993C10.0216 42.8735 9.76786 43.3658 9.53222 43.8763C9.29659 44.3868 9.07606 44.9184 8.87064 45.4651C8.66521 46.0118 8.48094 46.5827 8.31478 47.1717C7.8979 48.6427 7.59882 50.2436 7.44475 51.9774C7.41454 52.3247 7.38736 52.6781 7.36923 53.0345C7.32996 53.7504 7.31485 54.4874 7.32694 55.2486C7.34808 56.7528 7.4508 58.1785 7.62903 59.5257C7.73476 60.3321 7.86769 61.1145 8.02477 61.8666C8.13051 62.368 8.2453 62.8603 8.36916 63.3376C8.49302 63.8148 8.63198 64.283 8.77699 64.7391C9.067 65.6513 9.39628 66.5182 9.75879 67.3398C9.89474 60.6674 11.8553 52.2855 16.4502 47.6489C18.8639 45.2144 21.8214 43.3235 25.084 42.2513L25.078 42.2573Z" fill="url(#paint57_linear_4351_6273)"/>
<path d="M61.6857 70.4811C61.444 70.0945 61.2084 69.6958 60.9849 69.282C61.2114 69.6928 61.444 70.0945 61.6857 70.4811Z" fill="url(#paint58_linear_4351_6273)"/>
<path d="M60.9818 69.282C60.7552 68.8712 60.5407 68.4453 60.3323 68.0104C60.5407 68.4484 60.7552 68.8712 60.9818 69.282Z" fill="url(#paint59_linear_4351_6273)"/>
<path d="M63.6372 73.1695C62.9454 72.3449 62.2899 71.4508 61.6857 70.4812C62.2899 71.4508 62.9454 72.3449 63.6372 73.1695Z" fill="url(#paint60_linear_4351_6273)"/>
<path d="M64.4831 74.1269C64.1961 73.8188 63.9121 73.4987 63.6372 73.1694C63.9151 73.4987 64.1961 73.8188 64.4831 74.1269Z" fill="url(#paint61_linear_4351_6273)"/>
<path d="M72.8721 80.1198C72.5609 79.9748 72.2468 79.8207 71.9296 79.6606C72.2468 79.8207 72.5609 79.9748 72.8721 80.1198Z" fill="url(#paint62_linear_4351_6273)"/>
<path d="M70.0234 78.6003C69.386 78.2137 68.7486 77.7938 68.1202 77.3347C68.7486 77.7908 69.386 78.2137 70.0234 78.6003Z" fill="url(#paint63_linear_4351_6273)"/>
<path d="M60.0303 67.3458C60.13 67.5693 60.2297 67.7929 60.3354 68.0103C60.2327 67.7929 60.13 67.5693 60.0303 67.3458Z" fill="url(#paint64_linear_4351_6273)"/>
<path d="M64.483 74.1271C64.915 74.5892 65.3561 75.0272 65.8062 75.444C65.3561 75.0272 64.912 74.5892 64.483 74.1271Z" fill="url(#paint65_linear_4351_6273)"/>
<path d="M70.1625 62.1143C69.7788 61.0209 69.4828 59.7976 69.2955 58.4293C69.22 57.8826 69.1626 57.3117 69.1263 56.7166C69.1082 56.4176 69.0931 56.1156 69.084 55.8044C69.0719 55.3846 69.0719 54.9798 69.078 54.5842C69.0901 53.9921 69.1263 53.4273 69.1807 52.8896C69.1988 52.7084 69.22 52.5332 69.2441 52.358C69.3136 51.8355 69.4012 51.3401 69.51 50.8659C69.5825 50.5518 69.661 50.2467 69.7486 49.9507C69.8362 49.6577 69.9299 49.3707 70.0296 49.0989C70.9902 46.4952 72.5702 44.7856 74.3012 43.668C70.4102 45.6102 65.184 49.6275 62.1721 57.7617C61.1692 60.4742 60.4109 63.6427 60.0303 67.3429C60.13 67.5664 60.2297 67.7899 60.3354 68.0074C60.5438 68.4454 60.7583 68.8682 60.9849 69.279C61.2115 69.6898 61.4441 70.0915 61.6857 70.4782C62.2899 71.4478 62.9455 72.3418 63.6373 73.1664C63.9152 73.4957 64.1961 73.8159 64.4831 74.1239C64.9151 74.5861 65.3562 75.0241 65.8063 75.4409C66.5585 76.1326 67.3349 76.7639 68.1203 77.3348C68.7487 77.7909 69.3861 78.2137 70.0235 78.6004C70.661 78.987 71.2984 79.3404 71.9298 79.6606C72.247 79.8207 72.5611 79.9747 72.8723 80.1197C78.1801 82.5965 82.8293 82.9378 82.8293 82.9378H90.3212C76.2467 78.7454 71.6005 67.4969 70.1595 62.1173L70.1625 62.1143Z" fill="url(#paint66_linear_4351_6273)"/>
<path d="M70.1625 62.1143C69.7788 61.0209 69.4828 59.7976 69.2955 58.4293C69.22 57.8826 69.1626 57.3117 69.1263 56.7166C69.1082 56.4176 69.0931 56.1156 69.084 55.8044C69.0719 55.3846 69.0719 54.9798 69.078 54.5842C69.0901 53.9921 69.1263 53.4273 69.1807 52.8896C69.1988 52.7084 69.22 52.5332 69.2441 52.358C69.3136 51.8355 69.4012 51.3401 69.51 50.8659C69.5825 50.5518 69.661 50.2467 69.7486 49.9507C69.8362 49.6577 69.9299 49.3707 70.0296 49.0989C70.9902 46.4952 72.5702 44.7856 74.3012 43.668C70.4102 45.6102 65.184 49.6275 62.1721 57.7617C61.1692 60.4742 60.4109 63.6427 60.0303 67.3429C60.13 67.5664 60.2297 67.7899 60.3354 68.0074C60.5438 68.4454 60.7583 68.8682 60.9849 69.279C61.2115 69.6898 61.4441 70.0915 61.6857 70.4782C62.2899 71.4478 62.9455 72.3418 63.6373 73.1664C63.9152 73.4957 64.1961 73.8159 64.4831 74.1239C64.9151 74.5861 65.3562 75.0241 65.8063 75.4409C66.5585 76.1326 67.3349 76.7639 68.1203 77.3348C68.7487 77.7909 69.3861 78.2137 70.0235 78.6004C70.661 78.987 71.2984 79.3404 71.9298 79.6606C72.247 79.8207 72.5611 79.9747 72.8723 80.1197C78.1801 82.5965 82.8293 82.9378 82.8293 82.9378H90.3212C76.2467 78.7454 71.6005 67.4969 70.1595 62.1173L70.1625 62.1143Z" fill="url(#paint67_linear_4351_6273)"/>
<path d="M58.4593 62.6158C58.3445 62.1264 58.2388 61.622 58.1451 61.1085C58.2388 61.622 58.3445 62.1234 58.4593 62.6158Z" fill="url(#paint68_linear_4351_6273)"/>
<path d="M59.5105 66.0771C59.6736 66.5091 59.8458 66.932 60.0271 67.3458C59.8458 66.935 59.6736 66.5121 59.5105 66.0771Z" fill="url(#paint69_linear_4351_6273)"/>
<path d="M59.5105 66.0773C59.3474 65.6454 59.1903 65.1983 59.0453 64.7452C59.1903 65.2013 59.3444 65.6454 59.5105 66.0773Z" fill="url(#paint70_linear_4351_6273)"/>
<path d="M60.0302 67.3459C60.1661 60.6736 62.1267 52.2916 66.7216 47.6551C69.1353 45.2206 72.0928 43.3297 75.3554 42.2574C77.0109 41.7137 78.7328 41.3845 80.4729 41.2758C82.2583 41.164 89.3937 41.602 91.1459 41.602C91.0341 41.602 90.7743 41.611 90.4299 41.6292H97.8101C100.674 41.6292 103.018 39.2852 103.018 36.4218V35.2075C103.018 32.3441 100.674 30.0001 97.8101 30.0001H82.8353C82.8353 30.0001 57.2751 30.8942 57.6014 55.2517C57.6286 57.3601 57.8219 59.3053 58.1482 61.1055C58.2418 61.619 58.3475 62.1204 58.4623 62.6128C58.6345 63.3498 58.8309 64.0566 59.0484 64.7422C59.1934 65.1983 59.3475 65.6423 59.5136 66.0743C59.6767 66.5062 59.8489 66.9291 60.0302 67.3429V67.3459Z" fill="url(#paint71_linear_4351_6273)"/>
<path d="M60.0302 67.3459C60.1661 60.6736 62.1267 52.2916 66.7216 47.6551C69.1353 45.2206 72.0928 43.3297 75.3554 42.2574C77.0109 41.7137 78.7328 41.3845 80.4729 41.2758C82.2583 41.164 89.3937 41.602 91.1459 41.602C91.0341 41.602 90.7743 41.611 90.4299 41.6292H97.8101C100.674 41.6292 103.018 39.2852 103.018 36.4218V35.2075C103.018 32.3441 100.674 30.0001 97.8101 30.0001H82.8353C82.8353 30.0001 57.2751 30.8942 57.6014 55.2517C57.6286 57.3601 57.8219 59.3053 58.1482 61.1055C58.2418 61.619 58.3475 62.1204 58.4623 62.6128C58.6345 63.3498 58.8309 64.0566 59.0484 64.7422C59.1934 65.1983 59.3475 65.6423 59.5136 66.0743C59.6767 66.5062 59.8489 66.9291 60.0302 67.3429V67.3459Z" fill="url(#paint72_linear_4351_6273)"/>
<path d="M120.833 62.1143C120.222 60.3654 119.827 58.2843 119.757 55.8044C119.567 49.1079 122.059 45.5528 124.974 43.668C119.787 46.2566 112.226 52.5393 110.7 67.3429C117.026 81.7266 133.502 82.9348 133.502 82.9348H140.994C126.92 78.7423 122.274 67.4939 120.833 62.1143Z" fill="#2955A3"/>
<path d="M120.833 62.1143C120.222 60.3654 119.827 58.2843 119.757 55.8044C119.567 49.1079 122.059 45.5528 124.974 43.668C119.787 46.2566 112.226 52.5393 110.7 67.3429C117.026 81.7266 133.502 82.9348 133.502 82.9348H140.994C126.92 78.7423 122.274 67.4939 120.833 62.1143Z" fill="url(#paint73_linear_4351_6273)"/>
<path d="M126.023 42.2574C127.678 41.7137 129.4 41.3845 131.14 41.2758C132.926 41.164 140.061 41.602 141.813 41.602C141.701 41.602 141.442 41.611 141.097 41.6292H148.477C151.341 41.6292 153.685 39.2852 153.685 36.4218V35.2075C153.685 32.3441 151.341 30.0001 148.477 30.0001H133.503C133.503 30.0001 107.942 30.8942 108.269 55.2517C108.332 60.0695 109.25 64.0505 110.7 67.3429C110.836 60.6706 112.797 52.2886 117.392 47.6521C119.806 45.2175 122.763 43.3267 126.026 42.2544L126.023 42.2574Z" fill="#2955A3"/>
<path d="M126.023 42.2574C127.678 41.7137 129.4 41.3845 131.14 41.2758C132.926 41.164 140.061 41.602 141.813 41.602C141.701 41.602 141.442 41.611 141.097 41.6292H148.477C151.341 41.6292 153.685 39.2852 153.685 36.4218V35.2075C153.685 32.3441 151.341 30.0001 148.477 30.0001H133.503C133.503 30.0001 107.942 30.8942 108.269 55.2517C108.332 60.0695 109.25 64.0505 110.7 67.3429C110.836 60.6706 112.797 52.2886 117.392 47.6521C119.806 45.2175 122.763 43.3267 126.026 42.2544L126.023 42.2574Z" fill="url(#paint74_linear_4351_6273)"/>
<path d="M31.0111 61.8758C30.5217 61.7217 30.0656 61.5012 29.6487 61.2173C30.0656 61.4982 30.5217 61.7217 31.0111 61.8758Z" fill="url(#paint75_linear_4351_6273)"/>
<path d="M27.7576 53.669C27.8905 53.3578 28.0506 53.0618 28.2379 52.7839C28.0506 53.0618 27.8875 53.3578 27.7576 53.669Z" fill="url(#paint76_linear_4351_6273)"/>
<path d="M29.6487 51.3764C30.0656 51.0955 30.5217 50.8719 31.0111 50.7179C30.5217 50.8719 30.0656 51.0924 29.6487 51.3764Z" fill="url(#paint77_linear_4351_6273)"/>
<path d="M28.2408 59.8097C28.0535 59.5318 27.8904 59.2358 27.7605 58.9247C27.8934 59.2358 28.0535 59.5318 28.2408 59.8097Z" fill="url(#paint78_linear_4351_6273)"/>
<path d="M36.6995 50.7753L36.5817 50.4823H32.5548C32.0171 50.4823 31.5005 50.5639 31.0111 50.7179C30.5217 50.8719 30.0656 51.0924 29.6487 51.3764C29.0958 51.7509 28.6155 52.2312 28.2409 52.7839C28.0536 53.0618 27.8905 53.3578 27.7606 53.669C27.4947 54.2912 27.3497 54.9738 27.3497 55.6897V56.9039C27.3497 57.6198 27.4947 58.3024 27.7606 58.9247C27.8935 59.2358 28.0536 59.5318 28.2409 59.8097C28.6155 60.3624 29.0958 60.8427 29.6487 61.2173C30.0656 61.4982 30.5217 61.7217 31.0111 61.8757C31.5005 62.0298 32.0171 62.1113 32.5548 62.1113H46.8348C40.9168 58.7827 38.062 54.1643 36.6995 50.7783V50.7753Z" fill="url(#paint79_linear_4351_6273)"/>
<path d="M36.6995 50.7753L36.5817 50.4823H32.5548C32.0171 50.4823 31.5005 50.5639 31.0111 50.7179C30.5217 50.8719 30.0656 51.0924 29.6487 51.3764C29.0958 51.7509 28.6155 52.2312 28.2409 52.7839C28.0536 53.0618 27.8905 53.3578 27.7606 53.669C27.4947 54.2912 27.3497 54.9738 27.3497 55.6897V56.9039C27.3497 57.6198 27.4947 58.3024 27.7606 58.9247C27.8935 59.2358 28.0536 59.5318 28.2409 59.8097C28.6155 60.3624 29.0958 60.8427 29.6487 61.2173C30.0656 61.4982 30.5217 61.7217 31.0111 61.8757C31.5005 62.0298 32.0171 62.1113 32.5548 62.1113H46.8348C40.9168 58.7827 38.062 54.1643 36.6995 50.7783V50.7753Z" fill="url(#paint80_linear_4351_6273)"/>
<path d="M79.8385 51.3764C80.2554 51.0955 80.7116 50.8719 81.2009 50.7179C80.7116 50.8719 80.2554 51.0924 79.8385 51.3764Z" fill="url(#paint81_linear_4351_6273)"/>
<path d="M81.2009 61.8758C80.7116 61.7217 80.2554 61.5012 79.8385 61.2173C80.2554 61.4982 80.7116 61.7217 81.2009 61.8758Z" fill="url(#paint82_linear_4351_6273)"/>
<path d="M78.4306 59.8097C78.2433 59.5318 78.0802 59.2358 77.9503 58.9247C78.0832 59.2358 78.2433 59.5318 78.4306 59.8097Z" fill="url(#paint83_linear_4351_6273)"/>
<path d="M77.9503 53.669C78.0832 53.3578 78.2433 53.0618 78.4306 52.7839C78.2433 53.0618 78.0802 53.3578 77.9503 53.669Z" fill="url(#paint84_linear_4351_6273)"/>
<path d="M86.8894 50.7753L86.7715 50.4823H82.7446C82.2069 50.4823 81.6903 50.5639 81.2009 50.7179C80.7115 50.8719 80.2554 51.0924 79.8385 51.3764C79.2857 51.7509 78.8053 52.2312 78.4307 52.7839C78.2434 53.0618 78.0803 53.3578 77.9504 53.669C77.6846 54.2912 77.5396 54.9738 77.5396 55.6897V56.9039C77.5396 57.6198 77.6846 58.3024 77.9504 58.9247C78.0833 59.2358 78.2434 59.5318 78.4307 59.8097C78.8053 60.3624 79.2857 60.8427 79.8385 61.2173C80.2554 61.4982 80.7115 61.7217 81.2009 61.8757C81.6903 62.0298 82.2069 62.1113 82.7446 62.1113H97.0246C91.1066 58.7827 88.2518 54.1643 86.8894 50.7783V50.7753Z" fill="url(#paint85_linear_4351_6273)"/>
<path d="M86.8894 50.7753L86.7715 50.4823H82.7446C82.2069 50.4823 81.6903 50.5639 81.2009 50.7179C80.7115 50.8719 80.2554 51.0924 79.8385 51.3764C79.2857 51.7509 78.8053 52.2312 78.4307 52.7839C78.2434 53.0618 78.0803 53.3578 77.9504 53.669C77.6846 54.2912 77.5396 54.9738 77.5396 55.6897V56.9039C77.5396 57.6198 77.6846 58.3024 77.9504 58.9247C78.0833 59.2358 78.2434 59.5318 78.4307 59.8097C78.8053 60.3624 79.2857 60.8427 79.8385 61.2173C80.2554 61.4982 80.7115 61.7217 81.2009 61.8757C81.6903 62.0298 82.2069 62.1113 82.7446 62.1113H97.0246C91.1066 58.7827 88.2518 54.1643 86.8894 50.7783V50.7753Z" fill="url(#paint86_linear_4351_6273)"/>
<path d="M28.0837 41.9976C28.555 41.8888 29.0081 41.8073 29.4341 41.7499C29.0081 41.8103 28.555 41.8888 28.0837 41.9976Z" fill="url(#paint87_linear_4351_6273)"/>
<g style="mix-blend-mode:overlay" opacity="0.58">
<path d="M28.0837 41.9976C28.555 41.8888 29.0081 41.8073 29.4341 41.7499C29.0081 41.8103 28.555 41.8888 28.0837 41.9976Z" fill="white"/>
</g>
<path d="M28.0837 41.9976C26.7877 42.2966 25.3618 42.8071 24.0236 43.674C25.3618 42.8101 26.7877 42.2966 28.0837 41.9976Z" fill="url(#paint88_linear_4351_6273)"/>
<g style="mix-blend-mode:overlay" opacity="0.58">
<path d="M28.0837 41.9976C26.7877 42.2966 25.3618 42.8071 24.0236 43.674C25.3618 42.8101 26.7877 42.2966 28.0837 41.9976Z" fill="white"/>
</g>
<path d="M22.3983 66.5727C21.4014 65.4007 20.5223 63.9418 19.8849 62.1144C20.1084 62.9541 20.4136 63.9388 20.8184 65.0171C21.06 65.6635 21.341 66.3431 21.6642 67.0469C22.0932 67.9863 22.5977 68.9649 23.1868 69.9617C23.3348 70.2094 23.4858 70.4601 23.646 70.7108C24.2804 71.7136 25.0024 72.7255 25.8301 73.7192C26.0355 73.9669 26.25 74.2176 26.4675 74.4623C27.1261 75.2023 27.842 75.9303 28.6214 76.6341C28.8812 76.8697 29.1501 77.1022 29.425 77.3318C30.2497 78.0205 31.1379 78.682 32.0985 79.3072C33.0592 79.9325 34.0893 80.5185 35.198 81.0591C36.6753 81.778 38.2854 82.4123 40.0466 82.9379C29.9386 77.7124 24.9299 71.7348 22.3983 66.5757V66.5727Z" fill="url(#paint89_linear_4351_6273)"/>
<g style="mix-blend-mode:overlay" opacity="0.58">
<path d="M22.3983 66.5727C21.4014 65.4007 20.5223 63.9418 19.8849 62.1144C20.1084 62.9541 20.4136 63.9388 20.8184 65.0171C21.06 65.6635 21.341 66.3431 21.6642 67.0469C22.0932 67.9863 22.5977 68.9649 23.1868 69.9617C23.3348 70.2094 23.4858 70.4601 23.646 70.7108C24.2804 71.7136 25.0024 72.7255 25.8301 73.7192C26.0355 73.9669 26.25 74.2176 26.4675 74.4623C27.1261 75.2023 27.842 75.9303 28.6214 76.6341C28.8812 76.8697 29.1501 77.1022 29.425 77.3318C30.2497 78.0205 31.1379 78.682 32.0985 79.3072C33.0592 79.9325 34.0893 80.5185 35.198 81.0591C36.6753 81.778 38.2854 82.4123 40.0466 82.9379C29.9386 77.7124 24.9299 71.7348 22.3983 66.5757V66.5727Z" fill="white"/>
</g>
<path d="M20.912 45.5497C21.9965 44.7734 23.0508 44.1572 24.0236 43.674C23.0508 44.1603 21.9935 44.7734 20.912 45.5497Z" fill="url(#paint90_linear_4351_6273)"/>
<path d="M20.912 45.5497C21.9965 44.7734 23.0508 44.1572 24.0236 43.674C23.0508 44.1603 21.9935 44.7734 20.912 45.5497Z" fill="url(#paint91_linear_4351_6273)"/>
<g style="mix-blend-mode:overlay" opacity="0.58">
<path d="M20.912 45.5497C21.9965 44.7734 23.0508 44.1572 24.0236 43.674C23.0508 44.1603 21.9935 44.7734 20.912 45.5497Z" fill="white"/>
</g>
<path d="M17.6312 48.3952C17.9937 48.0176 18.3563 47.6612 18.7218 47.3259C18.3563 47.6612 17.9907 48.0176 17.6312 48.3952Z" fill="url(#paint92_linear_4351_6273)"/>
<path d="M17.6312 48.3952C17.9937 48.0176 18.3563 47.6612 18.7218 47.3259C18.3563 47.6612 17.9907 48.0176 17.6312 48.3952Z" fill="url(#paint93_linear_4351_6273)"/>
<g style="mix-blend-mode:overlay" opacity="0.58">
<path d="M17.6312 48.3952C17.9937 48.0176 18.3563 47.6612 18.7218 47.3259C18.3563 47.6612 17.9907 48.0176 17.6312 48.3952Z" fill="white"/>
</g>
<path d="M17.0905 48.978C16.731 49.3767 16.3776 49.7996 16.0302 50.2436C16.3776 49.7996 16.731 49.3767 17.0905 48.978V48.978Z" fill="url(#paint94_linear_4351_6273)"/>
<path d="M17.0905 48.978C16.731 49.3767 16.3776 49.7996 16.0302 50.2436C16.3776 49.7996 16.731 49.3767 17.0905 48.978V48.978Z" fill="url(#paint95_linear_4351_6273)"/>
<g style="mix-blend-mode:overlay" opacity="0.58">
<path d="M17.0905 48.978C16.731 49.3767 16.3776 49.7996 16.0302 50.2436C16.3776 49.7996 16.731 49.3767 17.0905 48.978V48.978Z" fill="white"/>
</g>
<path d="M16.0302 50.2437C15.6828 50.6877 15.3414 51.1559 15.0061 51.6482C15.3384 51.1559 15.6798 50.6877 16.0302 50.2437Z" fill="url(#paint96_linear_4351_6273)"/>
<path d="M16.0302 50.2437C15.6828 50.6877 15.3414 51.1559 15.0061 51.6482C15.3384 51.1559 15.6798 50.6877 16.0302 50.2437Z" fill="url(#paint97_linear_4351_6273)"/>
<g style="mix-blend-mode:overlay" opacity="0.58">
<path d="M16.0302 50.2437C15.6828 50.6877 15.3414 51.1559 15.0061 51.6482C15.3384 51.1559 15.6798 50.6877 16.0302 50.2437Z" fill="white"/>
</g>
<path d="M32.2345 41.6079C32.3161 41.6109 32.3855 41.617 32.4369 41.62C32.3855 41.617 32.3191 41.6109 32.2345 41.6079Z" fill="url(#paint98_linear_4351_6273)"/>
<g style="mix-blend-mode:overlay" opacity="0.58">
<path d="M32.2345 41.6079C32.3161 41.6109 32.3855 41.617 32.4369 41.62C32.3855 41.617 32.3191 41.6109 32.2345 41.6079Z" fill="white"/>
</g>
<path d="M16.0302 50.2436C16.3776 49.7996 16.731 49.3768 17.0905 48.978C17.2688 48.7787 17.45 48.5854 17.6313 48.3951C17.9938 48.0175 18.3563 47.6611 18.7218 47.3258C19.4529 46.6553 20.187 46.0663 20.912 45.5467C21.9965 44.7704 23.0508 44.1543 24.0236 43.671C25.3619 42.8071 26.7877 42.2936 28.0837 41.9946C28.555 41.8858 29.0081 41.8043 29.4341 41.7469C30.7119 41.5687 31.7421 41.5838 32.2345 41.608C32.3161 41.611 32.3855 41.617 32.4369 41.62C32.5154 41.6261 32.5547 41.6291 32.5547 41.6291H40.1494C40.4968 41.611 40.7535 41.6019 40.8653 41.6019C39.1132 41.6019 31.9777 41.1639 30.1923 41.2757C28.4553 41.3844 26.7303 41.7137 25.0749 42.2574C21.8122 43.3266 18.8547 45.2205 16.441 47.6551C11.8462 52.2916 9.88558 60.6735 9.74963 67.3459C10.4626 60.4077 12.5047 55.3393 15.0061 51.6482C15.3384 51.1558 15.6797 50.6877 16.0302 50.2436V50.2436Z" fill="url(#paint99_linear_4351_6273)"/>
<path d="M16.0302 50.2436C16.3776 49.7996 16.731 49.3768 17.0905 48.978C17.2688 48.7787 17.45 48.5854 17.6313 48.3951C17.9938 48.0175 18.3563 47.6611 18.7218 47.3258C19.4529 46.6553 20.187 46.0663 20.912 45.5467C21.9965 44.7704 23.0508 44.1543 24.0236 43.671C25.3619 42.8071 26.7877 42.2936 28.0837 41.9946C28.555 41.8858 29.0081 41.8043 29.4341 41.7469C30.7119 41.5687 31.7421 41.5838 32.2345 41.608C32.3161 41.611 32.3855 41.617 32.4369 41.62C32.5154 41.6261 32.5547 41.6291 32.5547 41.6291H40.1494C40.4968 41.611 40.7535 41.6019 40.8653 41.6019C39.1132 41.6019 31.9777 41.1639 30.1923 41.2757C28.4553 41.3844 26.7303 41.7137 25.0749 42.2574C21.8122 43.3266 18.8547 45.2205 16.441 47.6551C11.8462 52.2916 9.88558 60.6735 9.74963 67.3459C10.4626 60.4077 12.5047 55.3393 15.0061 51.6482C15.3384 51.1558 15.6797 50.6877 16.0302 50.2436V50.2436Z" fill="url(#paint100_linear_4351_6273)"/>
<g style="mix-blend-mode:overlay" opacity="0.58">
<path d="M16.0302 50.2436C16.3776 49.7996 16.731 49.3768 17.0905 48.978C17.2688 48.7787 17.45 48.5854 17.6313 48.3951C17.9938 48.0175 18.3563 47.6611 18.7218 47.3258C19.4529 46.6553 20.187 46.0663 20.912 45.5467C21.9965 44.7704 23.0508 44.1543 24.0236 43.671C25.3619 42.8071 26.7877 42.2936 28.0837 41.9946C28.555 41.8858 29.0081 41.8043 29.4341 41.7469C30.7119 41.5687 31.7421 41.5838 32.2345 41.608C32.3161 41.611 32.3855 41.617 32.4369 41.62C32.5154 41.6261 32.5547 41.6291 32.5547 41.6291H40.1494C40.4968 41.611 40.7535 41.6019 40.8653 41.6019C39.1132 41.6019 31.9777 41.1639 30.1923 41.2757C28.4553 41.3844 26.7303 41.7137 25.0749 42.2574C21.8122 43.3266 18.8547 45.2205 16.441 47.6551C11.8462 52.2916 9.88558 60.6735 9.74963 67.3459C10.4626 60.4077 12.5047 55.3393 15.0061 51.6482C15.3384 51.1558 15.6797 50.6877 16.0302 50.2436V50.2436Z" fill="white"/>
</g>
<path d="M39.3609 54.1945C39.0286 53.684 38.7265 53.1766 38.4576 52.6752C38.7295 53.1766 39.0286 53.684 39.3609 54.1945Z" fill="url(#paint101_linear_4351_6273)"/>
<g style="mix-blend-mode:overlay" opacity="0.47">
<path d="M39.3609 54.1945C39.0286 53.684 38.7265 53.1766 38.4576 52.6752C38.7295 53.1766 39.0286 53.684 39.3609 54.1945Z" fill="white"/>
</g>
<path d="M41.7776 57.2423C42.0162 57.493 42.264 57.7407 42.5238 57.9854C42.264 57.7407 42.0162 57.49 41.7776 57.2423Z" fill="url(#paint102_linear_4351_6273)"/>
<g style="mix-blend-mode:overlay" opacity="0.47">
<path d="M41.7776 57.2423C42.0162 57.493 42.264 57.7407 42.5238 57.9854C42.264 57.7407 42.0162 57.49 41.7776 57.2423Z" fill="white"/>
</g>
<path d="M39.8836 54.9587C39.6993 54.7019 39.5241 54.4482 39.3579 54.1945C39.5241 54.4482 39.6993 54.7049 39.8836 54.9587Z" fill="url(#paint103_linear_4351_6273)"/>
<g style="mix-blend-mode:overlay" opacity="0.47">
<path d="M39.8836 54.9587C39.6993 54.7019 39.5241 54.4482 39.3579 54.1945C39.5241 54.4482 39.6993 54.7049 39.8836 54.9587Z" fill="white"/>
</g>
<path d="M38.2583 52.3007C38.1314 52.053 38.0105 51.8053 37.8958 51.5607C38.0105 51.8053 38.1314 52.05 38.2583 52.3007Z" fill="url(#paint104_linear_4351_6273)"/>
<g style="mix-blend-mode:overlay" opacity="0.47">
<path d="M38.2583 52.3007C38.1314 52.053 38.0105 51.8053 37.8958 51.5607C38.0105 51.8053 38.1314 52.05 38.2583 52.3007Z" fill="white"/>
</g>
<path d="M47.5295 62.1083C47.6715 62.1083 47.8135 62.1023 47.9525 62.0872C47.8135 62.0992 47.6715 62.1083 47.5295 62.1083Z" fill="url(#paint105_linear_4351_6273)"/>
<g style="mix-blend-mode:overlay" opacity="0.47">
<path d="M47.5295 62.1083C47.6715 62.1083 47.8135 62.1023 47.9525 62.0872C47.8135 62.0992 47.6715 62.1083 47.5295 62.1083Z" fill="white"/>
</g>
<path d="M41.7777 57.2422C41.539 56.9915 41.3094 56.7408 41.0919 56.4871C41.3124 56.7408 41.539 56.9915 41.7777 57.2422Z" fill="url(#paint106_linear_4351_6273)"/>
<g style="mix-blend-mode:overlay" opacity="0.47">
<path d="M41.7777 57.2422C41.539 56.9915 41.3094 56.7408 41.0919 56.4871C41.3124 56.7408 41.539 56.9915 41.7777 57.2422Z" fill="white"/>
</g>
<path d="M47.9525 62.0902C48.0915 62.0781 48.2304 62.06 48.3664 62.0358C45.9949 60.8518 44.0766 59.4593 42.5239 57.9853C42.2641 57.7407 42.0164 57.49 41.7777 57.2423C41.5391 56.9916 41.3095 56.7409 41.092 56.4871C40.6539 55.9827 40.2521 55.4722 39.8866 54.9618C39.7023 54.705 39.5271 54.4513 39.361 54.1976C39.0287 53.6871 38.7266 53.1797 38.4577 52.6783C38.3912 52.5544 38.3248 52.4276 38.2613 52.3037C38.1345 52.056 38.0136 51.8083 37.8988 51.5637C37.7266 51.1982 37.5726 50.8357 37.4306 50.4854H36.5847L36.7025 50.7783C38.065 54.1644 40.9198 58.7827 46.8378 62.1114H47.5326C47.6746 62.1114 47.8166 62.1053 47.9555 62.0902H47.9525Z" fill="url(#paint107_linear_4351_6273)"/>
<path d="M47.9525 62.0902C48.0915 62.0781 48.2304 62.06 48.3664 62.0358C45.9949 60.8518 44.0766 59.4593 42.5239 57.9853C42.2641 57.7407 42.0164 57.49 41.7777 57.2423C41.5391 56.9916 41.3095 56.7409 41.092 56.4871C40.6539 55.9827 40.2521 55.4722 39.8866 54.9618C39.7023 54.705 39.5271 54.4513 39.361 54.1976C39.0287 53.6871 38.7266 53.1797 38.4577 52.6783C38.3912 52.5544 38.3248 52.4276 38.2613 52.3037C38.1345 52.056 38.0136 51.8083 37.8988 51.5637C37.7266 51.1982 37.5726 50.8357 37.4306 50.4854H36.5847L36.7025 50.7783C38.065 54.1644 40.9198 58.7827 46.8378 62.1114H47.5326C47.6746 62.1114 47.8166 62.1053 47.9555 62.0902H47.9525Z" fill="url(#paint108_linear_4351_6273)"/>
<g style="mix-blend-mode:overlay" opacity="0.47">
<path d="M47.9525 62.0902C48.0915 62.0781 48.2304 62.06 48.3664 62.0358C45.9949 60.8518 44.0766 59.4593 42.5239 57.9853C42.2641 57.7407 42.0164 57.49 41.7777 57.2423C41.5391 56.9916 41.3095 56.7409 41.092 56.4871C40.6539 55.9827 40.2521 55.4722 39.8866 54.9618C39.7023 54.705 39.5271 54.4513 39.361 54.1976C39.0287 53.6871 38.7266 53.1797 38.4577 52.6783C38.3912 52.5544 38.3248 52.4276 38.2613 52.3037C38.1345 52.056 38.0136 51.8083 37.8988 51.5637C37.7266 51.1982 37.5726 50.8357 37.4306 50.4854H36.5847L36.7025 50.7783C38.065 54.1644 40.9198 58.7827 46.8378 62.1114H47.5326C47.6746 62.1114 47.8166 62.1053 47.9555 62.0902H47.9525Z" fill="white"/>
</g>
<path d="M98.5563 62.0358C98.2844 62.0811 98.0034 62.1113 97.7195 62.1113C98.0064 62.1113 98.2844 62.0811 98.5563 62.0358C92.2304 58.8794 89.1309 54.2459 87.6174 50.4823C89.1309 54.2459 92.2304 58.8763 98.5563 62.0358Z" fill="url(#paint109_linear_4351_6273)"/>
<g style="mix-blend-mode:overlay" opacity="0.47">
<path d="M98.5563 62.0358C98.2844 62.0811 98.0034 62.1113 97.7195 62.1113C98.0064 62.1113 98.2844 62.0811 98.5563 62.0358C92.2304 58.8794 89.1309 54.2459 87.6174 50.4823C89.1309 54.2459 92.2304 58.8763 98.5563 62.0358Z" fill="white"/>
</g>
<path d="M98.5562 62.0358C92.2303 58.8794 89.1308 54.2459 87.6173 50.4823H86.7715L86.8893 50.7753C88.2517 54.1613 91.1065 58.7797 97.0246 62.1083H97.7194C98.0064 62.1083 98.2843 62.0781 98.5562 62.0328V62.0358Z" fill="url(#paint110_linear_4351_6273)"/>
<path d="M98.5562 62.0358C92.2303 58.8794 89.1308 54.2459 87.6173 50.4823H86.7715L86.8893 50.7753C88.2517 54.1613 91.1065 58.7797 97.0246 62.1083H97.7194C98.0064 62.1083 98.2843 62.0781 98.5562 62.0328V62.0358Z" fill="url(#paint111_linear_4351_6273)"/>
<g style="mix-blend-mode:overlay" opacity="0.47">
<path d="M98.5562 62.0358C92.2303 58.8794 89.1308 54.2459 87.6173 50.4823H86.7715L86.8893 50.7753C88.2517 54.1613 91.1065 58.7797 97.0246 62.1083H97.7194C98.0064 62.1083 98.2843 62.0781 98.5562 62.0328V62.0358Z" fill="white"/>
</g>
<path d="M72.6759 66.5727C71.679 65.4007 70.7999 63.9418 70.1625 62.1144C71.6035 67.4939 76.2497 78.7454 90.3242 82.9349C80.2162 77.7094 75.2074 71.7317 72.6759 66.5727V66.5727Z" fill="url(#paint112_linear_4351_6273)"/>
<g style="mix-blend-mode:overlay" opacity="0.58">
<path d="M72.6759 66.5727C71.679 65.4007 70.7999 63.9418 70.1625 62.1144C71.6035 67.4939 76.2497 78.7454 90.3242 82.9349C80.2162 77.7094 75.2074 71.7317 72.6759 66.5727V66.5727Z" fill="white"/>
</g>
<path d="M60.0303 67.3459C60.4109 63.6457 61.1692 60.4772 62.1721 57.7648C61.1692 60.4772 60.4109 63.6457 60.0303 67.3459Z" fill="url(#paint113_linear_4351_6273)"/>
<path d="M60.0303 67.3459C60.4109 63.6457 61.1692 60.4772 62.1721 57.7648C61.1692 60.4772 60.4109 63.6457 60.0303 67.3459Z" fill="url(#paint114_linear_4351_6273)"/>
<g style="mix-blend-mode:overlay" opacity="0.58">
<path d="M60.0303 67.3459C60.4109 63.6457 61.1692 60.4772 62.1721 57.7648C61.1692 60.4772 60.4109 63.6457 60.0303 67.3459Z" fill="white"/>
</g>
<path d="M80.4698 41.2757C78.7328 41.3844 77.0078 41.7137 75.3523 42.2574C72.0897 43.3266 69.1322 45.2205 66.7185 47.6551C62.1236 52.2916 60.163 60.6735 60.0271 67.3459C60.4077 63.6457 61.166 60.4772 62.1689 57.7648C65.1808 49.6305 70.407 45.6132 74.298 43.671C78.189 41.1549 82.8292 41.6291 82.8292 41.6291H90.4238C90.7712 41.611 91.028 41.6019 91.1398 41.6019C89.3876 41.6019 82.2522 41.1639 80.4668 41.2757H80.4698Z" fill="url(#paint115_linear_4351_6273)"/>
<path d="M80.4698 41.2757C78.7328 41.3844 77.0078 41.7137 75.3523 42.2574C72.0897 43.3266 69.1322 45.2205 66.7185 47.6551C62.1236 52.2916 60.163 60.6735 60.0271 67.3459C60.4077 63.6457 61.166 60.4772 62.1689 57.7648C65.1808 49.6305 70.407 45.6132 74.298 43.671C78.189 41.1549 82.8292 41.6291 82.8292 41.6291H90.4238C90.7712 41.611 91.028 41.6019 91.1398 41.6019C89.3876 41.6019 82.2522 41.1639 80.4668 41.2757H80.4698Z" fill="url(#paint116_linear_4351_6273)"/>
<g style="mix-blend-mode:overlay" opacity="0.58">
<path d="M80.4698 41.2757C78.7328 41.3844 77.0078 41.7137 75.3523 42.2574C72.0897 43.3266 69.1322 45.2205 66.7185 47.6551C62.1236 52.2916 60.163 60.6735 60.0271 67.3459C60.4077 63.6457 61.166 60.4772 62.1689 57.7648C65.1808 49.6305 70.407 45.6132 74.298 43.671C78.189 41.1549 82.8292 41.6291 82.8292 41.6291H90.4238C90.7712 41.611 91.028 41.6019 91.1398 41.6019C89.3876 41.6019 82.2522 41.1639 80.4668 41.2757H80.4698Z" fill="white"/>
</g>
<path d="M140.991 82.9378C130.883 77.7123 125.875 71.7347 123.343 66.5756C122.346 65.4036 121.467 63.9447 120.83 62.1173C122.271 67.4969 126.917 78.7483 140.991 82.9378Z" fill="#2955A3"/>
<g style="mix-blend-mode:overlay" opacity="0.58">
<path d="M140.991 82.9378C130.883 77.7123 125.875 71.7347 123.343 66.5756C122.346 65.4036 121.467 63.9447 120.83 62.1173C122.271 67.4969 126.917 78.7483 140.991 82.9378Z" fill="white"/>
</g>
<path d="M124.971 43.671C128.862 41.1549 133.502 41.6291 133.502 41.6291H141.097C141.445 41.611 141.701 41.6019 141.813 41.6019C140.061 41.6019 132.925 41.1639 131.14 41.2757C129.403 41.3844 127.678 41.7137 126.023 42.2574C122.76 43.3266 119.802 45.2205 117.389 47.6551C112.794 52.2916 110.833 60.6735 110.697 67.3459C112.22 52.5423 119.781 46.2596 124.971 43.671V43.671Z" fill="#2955A3"/>
<path d="M124.971 43.671C128.862 41.1549 133.502 41.6291 133.502 41.6291H141.097C141.445 41.611 141.701 41.6019 141.813 41.6019C140.061 41.6019 132.925 41.1639 131.14 41.2757C129.403 41.3844 127.678 41.7137 126.023 42.2574C122.76 43.3266 119.802 45.2205 117.389 47.6551C112.794 52.2916 110.833 60.6735 110.697 67.3459C112.22 52.5423 119.781 46.2596 124.971 43.671V43.671Z" fill="url(#paint117_linear_4351_6273)"/>
<g style="mix-blend-mode:overlay" opacity="0.58">
<path d="M124.971 43.671C128.862 41.1549 133.502 41.6291 133.502 41.6291H141.097C141.445 41.611 141.701 41.6019 141.813 41.6019C140.061 41.6019 132.925 41.1639 131.14 41.2757C129.403 41.3844 127.678 41.7137 126.023 42.2574C122.76 43.3266 119.802 45.2205 117.389 47.6551C112.794 52.2916 110.833 60.6735 110.697 67.3459C112.22 52.5423 119.781 46.2596 124.971 43.671V43.671Z" fill="white"/>
</g>
<path d="M23.6852 103.263V102.399C23.6852 102.26 23.7457 102.2 23.8846 102.2H25.1685C25.3105 102.2 25.3679 102.26 25.3679 102.399V109.204C25.3679 110.008 25.67 110.268 26.3316 110.268H27.2137C27.7545 110.268 28.0173 110.527 28.0173 111.071C28.0173 111.733 27.7756 111.835 27.2137 111.835H26.0295C24.7244 111.835 24.0024 111.373 23.7608 110.228C23.22 110.709 22.4769 110.95 21.5736 110.95C19.4861 110.95 17.9001 109.787 17.9001 107.277C17.9001 104.308 19.7278 103.263 21.7156 103.263H23.6822H23.6852ZM23.6852 106.836V104.831H21.7186C20.4347 104.831 19.5919 105.432 19.5919 107.28C19.5919 108.667 20.3139 109.389 21.6008 109.389C23.1264 109.389 23.6883 108.446 23.6883 106.839L23.6852 106.836ZM19.8517 100.834C19.7097 100.834 19.6523 100.774 19.6523 100.635V99.1702C19.6523 99.0312 19.7127 98.9708 19.8517 98.9708H21.2171C21.3591 98.9708 21.4165 99.0312 21.4165 99.1702V100.635C21.4165 100.774 21.3561 100.834 21.2171 100.834H19.8517V100.834ZM22.3017 100.834C22.1597 100.834 22.1023 100.774 22.1023 100.635V99.1702C22.1023 99.0312 22.1627 98.9708 22.3017 98.9708H23.6671C23.8091 98.9708 23.8665 99.0312 23.8665 99.1702V100.635C23.8665 100.774 23.8061 100.834 23.6671 100.834H22.3017V100.834Z" fill="#2955A3"/>
<path d="M27.2379 111.832C26.6972 111.832 26.5552 111.633 26.5552 111.068C26.5552 110.407 26.676 110.265 27.2379 110.265H29.4462C29.987 110.265 30.2498 110.446 30.2498 111.008C30.2498 111.669 30.0081 111.829 29.4462 111.829H27.2379V111.832Z" fill="#2955A3"/>
<path d="M29.4432 111.832C28.9025 111.832 28.6396 111.693 28.6396 111.128C28.6396 110.467 28.8813 110.265 29.4432 110.265H30.8268C31.4884 110.265 31.7905 110.005 31.7905 109.201V103.822C31.7905 103.683 31.8509 103.622 31.9899 103.622H33.2738C33.4158 103.622 33.4732 103.683 33.4732 103.822V109.301C33.4732 111.068 32.8116 111.829 31.1259 111.829H29.4402L29.4432 111.832ZM30.3253 115.566C30.1833 115.566 30.126 115.505 30.126 115.363V113.898C30.126 113.756 30.1864 113.696 30.3253 113.696H31.6908C31.8328 113.696 31.8902 113.756 31.8902 113.898V115.363C31.8902 115.505 31.8298 115.566 31.6908 115.566H30.3253ZM32.7753 115.566C32.6333 115.566 32.5759 115.505 32.5759 115.363V113.898C32.5759 113.756 32.6363 113.696 32.7753 113.696H34.1408C34.2828 113.696 34.3402 113.756 34.3402 113.898V115.363C34.3402 115.505 34.2797 115.566 34.1408 115.566H32.7753Z" fill="#2955A3"/>
<path d="M43.8169 108.902C43.8169 109.805 44.4996 110.268 45.6234 110.268H45.844C46.3847 110.268 46.6475 110.47 46.6475 111.011C46.6475 111.714 46.4059 111.832 45.844 111.832H45.421C44.5178 111.832 43.7353 111.452 43.4332 110.669C42.971 111.551 42.2098 111.832 40.9228 111.832H36.467C36.325 111.832 36.2676 111.772 36.2676 111.633V110.47C36.2676 110.328 36.328 110.268 36.467 110.268H40.3005C41.805 110.268 42.0255 109.827 42.0255 108.461V106.854C42.0255 105.51 41.2612 104.828 39.7356 104.828H37.4065C37.2675 104.828 37.2071 104.767 37.2071 104.625V103.462C37.2071 103.323 37.2675 103.263 37.4065 103.263H40.3579C42.385 103.263 43.8109 104.368 43.8109 106.836V108.902H43.8169ZM38.5363 101.635C38.3943 101.635 38.3369 101.574 38.3369 101.436V99.9706C38.3369 99.8317 38.3973 99.7712 38.5363 99.7712H39.9018C40.0438 99.7712 40.1011 99.8317 40.1011 99.9706V101.436C40.1011 101.574 40.0407 101.635 39.9018 101.635H38.5363Z" fill="#2955A3"/>
<path d="M45.723 111.832C45.1823 111.832 45.0403 111.633 45.0403 111.068C45.0403 110.407 45.1611 110.265 45.723 110.265H47.9313C48.4721 110.265 48.7349 110.446 48.7349 111.008C48.7349 111.669 48.4932 111.829 47.9313 111.829H45.723V111.832Z" fill="#2955A3"/>
<path d="M47.9524 111.832C47.4116 111.832 47.2697 111.633 47.2697 111.068C47.2697 110.407 47.3905 110.265 47.9524 110.265H50.1607C50.7014 110.265 50.9643 110.446 50.9643 111.008C50.9643 111.669 50.7226 111.829 50.1607 111.829H47.9524V111.832Z" fill="#2955A3"/>
<path d="M50.1788 111.832C49.6381 111.832 49.4961 111.633 49.4961 111.068C49.4961 110.407 49.6169 110.265 50.1788 110.265H52.3871C52.9279 110.265 53.1907 110.446 53.1907 111.008C53.1907 111.669 52.949 111.829 52.3871 111.829H50.1788V111.832Z" fill="#2955A3"/>
<path d="M52.5292 111.832C51.9884 111.832 51.7256 111.693 51.7256 111.128C51.7256 110.467 51.9673 110.265 52.5292 110.265H53.8946C54.5562 110.265 54.8583 110.005 54.8583 109.201V103.822C54.8583 103.683 54.9187 103.622 55.0577 103.622H56.3416C56.4836 103.622 56.541 103.683 56.541 103.822V108.899C56.541 109.802 57.2237 110.265 58.3475 110.265H58.5892C59.1299 110.265 59.3927 110.467 59.3927 111.008C59.3927 111.711 59.1511 111.829 58.5892 111.829H58.1481C57.2841 111.829 56.6225 111.488 56.2812 110.784C55.9398 111.488 55.2571 111.829 54.1937 111.829H52.5261L52.5292 111.832ZM53.5744 115.566C53.4324 115.566 53.375 115.505 53.375 115.363V113.898C53.375 113.756 53.4354 113.696 53.5744 113.696H54.9399C55.0818 113.696 55.1392 113.756 55.1392 113.898V115.363C55.1392 115.505 55.0788 115.566 54.9399 115.566H53.5744ZM56.0244 115.566C55.8824 115.566 55.825 115.505 55.825 115.363V113.898C55.825 113.756 55.8854 113.696 56.0244 113.696H57.3898C57.5318 113.696 57.5892 113.756 57.5892 113.898V115.363C57.5892 115.505 57.5288 115.566 57.3898 115.566H56.0244Z" fill="#2955A3"/>
<path d="M58.6103 111.832C58.0696 111.832 57.9276 111.633 57.9276 111.068C57.9276 110.407 58.0484 110.265 58.6103 110.265H60.8187C61.3594 110.265 61.6222 110.446 61.6222 111.008C61.6222 111.669 61.3805 111.829 60.8187 111.829H58.6103V111.832Z" fill="#2955A3"/>
<path d="M69.9509 106.915C69.9509 108.28 69.2893 109.503 68.1655 110.286C68.2048 110.265 68.3075 110.265 68.4676 110.265H71.259C71.7997 110.265 72.0626 110.407 72.0626 110.968C72.0626 111.63 71.8209 111.832 71.259 111.832H68.5885C67.6248 111.832 66.782 111.832 65.9995 111.352C65.1174 111.832 64.0329 111.832 63.2505 111.832H60.8216C60.2809 111.832 60.0181 111.572 60.0181 111.029C60.0181 110.367 60.2597 110.265 60.8216 110.265H63.7731C62.6493 109.482 62.0058 108.277 62.0058 106.912C62.0058 104.764 63.2716 103.26 65.9814 103.26C68.6912 103.26 69.957 104.764 69.957 106.912L69.9509 106.915ZM63.7671 107.014C63.7671 108.458 64.7519 109.443 65.9754 109.926C67.1988 109.443 68.1837 108.461 68.1837 107.014C68.1837 105.568 67.2593 104.828 65.9754 104.828C64.6915 104.828 63.7671 105.571 63.7671 107.014V107.014ZM65.2926 101.635C65.1506 101.635 65.0932 101.574 65.0932 101.436V99.9706C65.0932 99.8317 65.1537 99.7712 65.2926 99.7712H66.6581C66.8001 99.7712 66.8575 99.8317 66.8575 99.9706V101.436C66.8575 101.574 66.7971 101.635 66.6581 101.635H65.2926Z" fill="#2955A3"/>
<path d="M71.2772 111.832C70.7365 111.832 70.5945 111.633 70.5945 111.068C70.5945 110.407 70.7153 110.265 71.2772 110.265H73.4855C74.0263 110.265 74.2891 110.446 74.2891 111.008C74.2891 111.669 74.0474 111.829 73.4855 111.829H71.2772V111.832Z" fill="#2955A3"/>
<path d="M73.6244 111.832C73.0836 111.832 72.8208 111.693 72.8208 111.128C72.8208 110.467 73.0625 110.265 73.6244 110.265H74.8901C75.5517 110.265 75.8538 110.005 75.8538 109.201V103.822C75.8538 103.683 75.9142 103.622 76.0532 103.622H77.3371C77.4791 103.622 77.5365 103.683 77.5365 103.822V108.899C77.5365 109.802 78.2192 110.265 79.343 110.265H79.5847C80.1254 110.265 80.3883 110.467 80.3883 111.008C80.3883 111.711 80.1466 111.829 79.5847 111.829H79.1436C78.2796 111.829 77.6181 111.488 77.2767 110.784C76.9353 111.488 76.2526 111.829 75.1892 111.829H73.6244V111.832ZM76.0321 101.635C75.8901 101.635 75.8327 101.574 75.8327 101.436V99.9706C75.8327 99.8317 75.8931 99.7712 76.0321 99.7712H77.3975C77.5395 99.7712 77.5969 99.8317 77.5969 99.9706V101.436C77.5969 101.574 77.5365 101.635 77.3975 101.635H76.0321Z" fill="#2955A3"/>
<path d="M79.4458 111.832C78.905 111.832 78.7631 111.633 78.7631 111.068C78.7631 110.407 78.8839 110.265 79.4458 110.265H81.6541C82.1949 110.265 82.4577 110.446 82.4577 111.008C82.4577 111.669 82.216 111.829 81.6541 111.829H79.4458V111.832Z" fill="#2955A3"/>
<path d="M81.7931 111.832C81.2523 111.832 80.9895 111.693 80.9895 111.128C80.9895 110.467 81.2312 110.265 81.7931 110.265H83.1585C83.8201 110.265 84.1222 110.005 84.1222 109.201V103.822C84.1222 103.683 84.1826 103.622 84.3216 103.622H85.6055C85.7475 103.622 85.8049 103.683 85.8049 103.822V108.899C85.8049 109.802 86.4876 110.265 87.6114 110.265H87.8531C88.3938 110.265 88.6566 110.467 88.6566 111.008C88.6566 111.711 88.415 111.829 87.8531 111.829H87.412C86.548 111.829 85.8865 111.488 85.5451 110.784C85.2037 111.488 84.521 111.829 83.4576 111.829H81.7901L81.7931 111.832ZM83.0377 101.635C82.8987 101.635 82.8383 101.574 82.8383 101.436V99.9706C82.8383 99.8317 82.8987 99.7712 83.0377 99.7712H84.4032C84.5451 99.7712 84.6025 99.8317 84.6025 99.9706V101.436C84.6025 101.574 84.5421 101.635 84.4032 101.635H83.0377ZM85.4877 101.635C85.3457 101.635 85.2883 101.574 85.2883 101.436V99.9706C85.2883 99.8317 85.3487 99.7712 85.4877 99.7712H86.8531C86.9951 99.7712 87.0525 99.8317 87.0525 99.9706V101.436C87.0525 101.574 86.9921 101.635 86.8531 101.635H85.4877Z" fill="#2955A3"/>
<path d="M87.8561 111.832C87.3153 111.832 87.0525 111.693 87.0525 111.128C87.0525 110.467 87.2942 110.265 87.8561 110.265H89.1218C89.7834 110.265 90.0855 110.005 90.0855 109.201V98.3818C90.0855 98.2399 90.1459 98.1794 90.2849 98.1794H91.5688C91.7108 98.1794 91.7682 98.2399 91.7682 98.3818V109.301C91.7682 111.068 91.1066 111.829 89.4209 111.829H87.8561V111.832Z" fill="#2955A3"/>
<path d="M96.2663 111.633C96.2663 111.772 96.2059 111.832 96.0669 111.832H94.783C94.644 111.832 94.5836 111.772 94.5836 111.633V98.3849C94.5836 98.2429 94.644 98.1825 94.783 98.1825H96.0669C96.2089 98.1825 96.2663 98.2429 96.2663 98.3849V111.633Z" fill="#2955A3"/>
<path d="M102.689 115.828C102.547 115.828 102.49 115.768 102.49 115.629V114.466C102.49 114.327 102.55 114.267 102.689 114.267H103.151C104.236 114.267 104.776 113.705 104.776 112.56V103.828C104.776 103.689 104.837 103.629 104.976 103.629H106.26C106.399 103.629 106.459 103.689 106.459 103.828V112.518C106.459 114.687 105.335 115.828 103.227 115.828H102.686H102.689Z" fill="#2955A3"/>
<path d="M109.172 98.3849C109.172 98.2429 109.232 98.1825 109.371 98.1825H110.655C110.797 98.1825 110.855 98.2429 110.855 98.3849V109.204C110.855 110.008 111.157 110.268 111.818 110.268H112.7C113.241 110.268 113.504 110.527 113.504 111.071C113.504 111.733 113.262 111.835 112.7 111.835H111.516C109.83 111.835 109.169 111.071 109.169 109.307V98.3879L109.172 98.3849Z" fill="#2955A3"/>
<path d="M112.724 111.832C112.184 111.832 112.042 111.633 112.042 111.068C112.042 110.407 112.163 110.265 112.724 110.265H114.933C115.474 110.265 115.736 110.446 115.736 111.008C115.736 111.669 115.495 111.829 114.933 111.829H112.724V111.832Z" fill="#2955A3"/>
<path d="M114.954 111.832C114.413 111.832 114.271 111.633 114.271 111.068C114.271 110.407 114.392 110.265 114.954 110.265H117.162C117.703 110.265 117.966 110.446 117.966 111.008C117.966 111.669 117.724 111.829 117.162 111.829H114.954V111.832Z" fill="#2955A3"/>
<path d="M117.18 111.832C116.64 111.832 116.498 111.633 116.498 111.068C116.498 110.407 116.619 110.265 117.18 110.265H119.389C119.929 110.265 120.192 110.446 120.192 111.008C120.192 111.669 119.951 111.829 119.389 111.829H117.18V111.832Z" fill="#2955A3"/>
<path d="M122.561 110.85C121.999 111.714 120.996 111.835 120.253 111.835H119.389C118.848 111.835 118.585 111.575 118.585 111.032C118.585 110.37 118.827 110.268 119.389 110.268H120.392C120.975 110.268 121.636 109.827 121.636 108.44C121.636 108.18 121.615 107.939 121.615 107.637C121.615 104.565 123.041 103.26 125.449 103.26C127.856 103.26 129.282 104.565 129.282 107.637C129.282 107.939 129.261 108.238 129.243 108.501C129.264 109.866 129.905 110.268 130.488 110.268H131.071C131.611 110.268 131.874 110.47 131.874 111.011C131.874 111.714 131.633 111.832 131.071 111.832H130.63C129.886 111.832 128.862 111.732 128.322 110.869C127.66 111.651 126.675 111.971 125.452 111.971C124.168 111.971 123.222 111.63 122.561 110.847V110.85ZM123.304 107.64C123.304 109.567 123.926 110.409 125.452 110.409C126.977 110.409 127.6 109.567 127.6 107.64C127.6 105.873 126.977 104.831 125.452 104.831C123.926 104.831 123.304 105.876 123.304 107.64Z" fill="#2955A3"/>
<path d="M131.071 111.832C130.53 111.832 130.388 111.633 130.388 111.068C130.388 110.407 130.509 110.265 131.071 110.265H133.279C133.82 110.265 134.082 110.446 134.082 111.008C134.082 111.669 133.841 111.829 133.279 111.829H131.071V111.832Z" fill="#2955A3"/>
<path d="M133.3 111.832C132.759 111.832 132.617 111.633 132.617 111.068C132.617 110.407 132.738 110.265 133.3 110.265H135.508C136.049 110.265 136.312 110.446 136.312 111.008C136.312 111.669 136.07 111.829 135.508 111.829H133.3V111.832Z" fill="#2955A3"/>
<path d="M144.761 110.268C144.903 110.268 144.961 110.328 144.961 110.47V111.633C144.961 111.772 144.9 111.832 144.761 111.832H135.508C134.968 111.832 134.705 111.572 134.705 111.029C134.705 110.367 134.946 110.265 135.508 110.265H137.798C137.176 109.642 136.696 108.718 136.696 107.413C136.696 105.728 137.517 103.257 140.991 103.257C142.598 103.257 143.722 103.858 144.423 104.882C144.483 104.982 144.462 105.081 144.363 105.163L143.481 105.885C143.381 105.966 143.281 105.966 143.2 105.864C142.598 105.16 141.834 104.819 140.931 104.819C139.263 104.819 138.481 105.921 138.481 107.389C138.481 109.377 139.946 110.098 140.408 110.259H144.764L144.761 110.268Z" fill="#2955A3"/>
<path d="M148.958 111.633C148.958 111.772 148.897 111.832 148.758 111.832H147.474C147.335 111.832 147.275 111.772 147.275 111.633V98.3849C147.275 98.2429 147.335 98.1825 147.474 98.1825H148.758C148.9 98.1825 148.958 98.2429 148.958 98.3849V111.633Z" fill="#2955A3"/>
<path d="M17.9032 118.834C17.9032 118.719 17.9515 118.671 18.0663 118.671H24.7758C24.8906 118.671 24.939 118.719 24.939 118.834V119.867C24.939 119.982 24.8906 120.03 24.7758 120.03H19.459C19.3925 120.03 19.3593 120.063 19.3593 120.13V123.41C19.3593 123.476 19.3925 123.51 19.459 123.51H23.9692C24.084 123.51 24.1324 123.558 24.1324 123.673V124.706C24.1324 124.82 24.084 124.869 23.9692 124.869H19.459C19.3925 124.869 19.3593 124.902 19.3593 124.968V128.364C19.3593 128.43 19.3925 128.463 19.459 128.463H24.7758C24.8906 128.463 24.939 128.512 24.939 128.626V129.659C24.939 129.774 24.8906 129.822 24.7758 129.822H18.0663C17.9515 129.822 17.9032 129.774 17.9032 129.659V118.834V118.834Z" fill="#0F1833"/>
<path d="M27.1382 118.834C27.1382 118.719 27.1865 118.671 27.3013 118.671H28.3677C28.4976 118.671 28.5822 118.719 28.6305 118.834L31.9596 126.346H32.0079L35.2736 118.834C35.3219 118.719 35.4035 118.671 35.5364 118.671H36.6028C36.7176 118.671 36.7659 118.719 36.7659 118.834V129.659C36.7659 129.774 36.7176 129.822 36.6028 129.822H35.5696C35.4548 129.822 35.4065 129.774 35.4065 129.659V121.9H35.3582L32.5849 128.034C32.5185 128.164 32.4218 128.231 32.2889 128.231H31.6333C31.4853 128.231 31.3886 128.164 31.3222 128.034L28.549 121.9H28.5006V129.659C28.5006 129.774 28.4523 129.822 28.3375 129.822H27.3043C27.1895 129.822 27.1412 129.774 27.1412 129.659V118.834H27.1382Z" fill="#0F1833"/>
<path d="M42.412 118.834C42.4452 118.719 42.5117 118.671 42.6083 118.671H43.6747C43.7895 118.671 43.856 118.719 43.8892 118.834L47.7107 129.659C47.7439 129.774 47.7107 129.822 47.5959 129.822H46.4479C46.3331 129.822 46.2667 129.774 46.2335 129.659L45.3815 127.231H40.8713L40.0194 129.659C39.971 129.774 39.9046 129.822 39.8049 129.822H38.6569C38.5421 129.822 38.5089 129.774 38.5421 129.659L42.415 118.834H42.412ZM44.9042 125.887L43.1491 120.818H43.1158L41.3456 125.887H44.9042V125.887Z" fill="#0F1833"/>
<path d="M52.369 118.834C52.4022 118.719 52.4687 118.671 52.5654 118.671H53.6317C53.7465 118.671 53.813 118.719 53.8462 118.834L57.6677 129.659C57.701 129.774 57.6677 129.822 57.5529 129.822H56.405C56.2902 129.822 56.2237 129.774 56.1905 129.659L55.3386 127.231H50.8283L49.9764 129.659C49.9281 129.774 49.8616 129.822 49.7619 129.822H48.614C48.4992 129.822 48.4659 129.774 48.4992 129.659L52.372 118.834H52.369ZM54.8613 125.887L53.1061 120.818H53.0729L51.3026 125.887H54.8613V125.887Z" fill="#0F1833"/>
<path d="M65.9059 129.825C65.8063 129.825 65.7428 129.777 65.6915 129.662L63.459 125.101H60.9969C60.9305 125.101 60.8972 125.134 60.8972 125.201V129.662C60.8972 129.777 60.8489 129.825 60.7341 129.825H59.6012C59.4864 129.825 59.4381 129.777 59.4381 129.662V118.837C59.4381 118.722 59.4864 118.674 59.6012 118.674H63.6372C65.7217 118.674 67.1324 119.954 67.1324 121.887C67.1324 123.398 66.3107 124.479 64.9332 124.923L67.3107 129.632C67.3922 129.762 67.359 129.828 67.211 129.828H65.8999L65.9059 129.825ZM63.61 123.739C64.9211 123.739 65.6763 123.065 65.6763 121.884C65.6763 120.703 64.9211 120.03 63.61 120.03H61.003C60.9365 120.03 60.9033 120.063 60.9033 120.129V123.639C60.9033 123.706 60.9365 123.739 61.003 123.739H63.61Z" fill="#0F1833"/>
<path d="M73.5005 118.834C73.5005 118.719 73.5488 118.671 73.6636 118.671H80.3731C80.4879 118.671 80.5363 118.719 80.5363 118.834V119.867C80.5363 119.982 80.4879 120.03 80.3731 120.03H75.0563C74.9898 120.03 74.9566 120.063 74.9566 120.13V123.41C74.9566 123.476 74.9898 123.51 75.0563 123.51H79.5665C79.6813 123.51 79.7297 123.558 79.7297 123.673V124.706C79.7297 124.82 79.6813 124.869 79.5665 124.869H75.0563C74.9898 124.869 74.9566 124.902 74.9566 124.968V128.364C74.9566 128.43 74.9898 128.463 75.0563 128.463H80.3731C80.4879 128.463 80.5363 128.512 80.5363 128.626V129.659C80.5363 129.774 80.4879 129.822 80.3731 129.822H73.6636C73.5488 129.822 73.5005 129.774 73.5005 129.659V118.834V118.834Z" fill="#0F1833"/>
<path d="M88.723 129.825C88.6082 129.825 88.5417 129.777 88.4934 129.677L85.9346 125.427H85.9195L83.3608 129.677C83.2943 129.777 83.2128 129.825 83.1161 129.825H81.8352C81.7053 129.825 81.6721 129.759 81.7537 129.629L85.116 124.02L82.0467 118.87C81.9651 118.74 81.9984 118.674 82.1283 118.674H83.4091C83.5239 118.674 83.6055 118.722 83.6538 118.822L85.9165 122.594H85.9316L88.2124 118.822C88.2608 118.722 88.3272 118.674 88.442 118.674H89.7229C89.8377 118.674 89.8709 118.74 89.8226 118.87L86.7382 124.02L90.1186 129.629C90.167 129.759 90.1338 129.825 90.019 129.825H88.723Z" fill="#0F1833"/>
<path d="M91.7743 118.834C91.7743 118.719 91.8226 118.671 91.9374 118.671H98.6469C98.7617 118.671 98.8101 118.719 98.8101 118.834V119.867C98.8101 119.982 98.7617 120.03 98.6469 120.03H93.3301C93.2636 120.03 93.2304 120.063 93.2304 120.13V123.41C93.2304 123.476 93.2636 123.51 93.3301 123.51H97.8403C97.9551 123.51 98.0035 123.558 98.0035 123.673V124.706C98.0035 124.82 97.9551 124.869 97.8403 124.869H93.3301C93.2636 124.869 93.2304 124.902 93.2304 124.968V128.364C93.2304 128.43 93.2636 128.463 93.3301 128.463H98.6469C98.7617 128.463 98.8101 128.512 98.8101 128.626V129.659C98.8101 129.774 98.7617 129.822 98.6469 129.822H91.9374C91.8226 129.822 91.7743 129.774 91.7743 129.659V118.834V118.834Z" fill="#0F1833"/>
<path d="M100.62 124.247C100.62 122.392 100.701 121.755 100.916 121.114C101.49 119.344 102.77 118.489 104.622 118.489C106.278 118.489 107.559 119.293 108.199 120.737C108.232 120.836 108.214 120.9 108.133 120.951L107.148 121.428C107.033 121.477 106.967 121.443 106.918 121.347C106.474 120.477 105.803 119.855 104.622 119.855C103.375 119.855 102.686 120.429 102.308 121.495C102.127 121.972 102.094 122.479 102.094 124.25C102.094 126.02 102.16 126.545 102.308 127.004C102.668 128.055 103.375 128.644 104.622 128.644C105.803 128.644 106.477 128.022 106.918 127.152C106.967 127.053 107.033 127.022 107.148 127.071L108.133 127.545C108.214 127.593 108.232 127.66 108.199 127.759C107.559 129.203 106.281 130.007 104.622 130.007C102.767 130.007 101.49 129.155 100.916 127.382C100.701 126.741 100.62 126.101 100.62 124.25V124.247Z" fill="#0F1833"/>
<path d="M110.214 125.938V118.837C110.214 118.722 110.262 118.674 110.377 118.674H111.51C111.625 118.674 111.673 118.722 111.673 118.837V125.923C111.673 127.759 112.658 128.644 114.165 128.644C115.673 128.644 116.643 127.759 116.643 125.923V118.837C116.643 118.722 116.691 118.674 116.806 118.674H117.938C118.053 118.674 118.102 118.722 118.102 118.837V125.938C118.102 128.578 116.609 130.007 114.165 130.007C111.721 130.007 110.211 128.581 110.211 125.938H110.214Z" fill="#0F1833"/>
<path d="M123.24 129.825C123.125 129.825 123.077 129.777 123.077 129.662V120.133C123.077 120.066 123.044 120.033 122.977 120.033H119.926C119.812 120.033 119.763 119.984 119.763 119.87V118.837C119.763 118.722 119.812 118.674 119.926 118.674H127.687C127.802 118.674 127.85 118.722 127.85 118.837V119.87C127.85 119.984 127.802 120.033 127.687 120.033H124.636C124.569 120.033 124.536 120.066 124.536 120.133V129.662C124.536 129.777 124.488 129.825 124.373 129.825H123.24V129.825Z" fill="#0F1833"/>
<path d="M129.59 118.834C129.59 118.719 129.639 118.671 129.753 118.671H130.886C131.001 118.671 131.049 118.719 131.049 118.834V129.659C131.049 129.774 131.001 129.822 130.886 129.822H129.753C129.639 129.822 129.59 129.774 129.59 129.659V118.834V118.834Z" fill="#0F1833"/>
<path d="M136.17 129.825C136.07 129.825 136.007 129.777 135.974 129.662L132.364 118.87C132.315 118.74 132.348 118.674 132.478 118.674H133.593C133.708 118.674 133.789 118.722 133.823 118.837L136.677 127.448H136.711L139.466 118.837C139.499 118.722 139.565 118.674 139.68 118.674H140.813C140.928 118.674 140.976 118.74 140.928 118.87L137.336 129.662C137.303 129.777 137.236 129.825 137.14 129.825H136.173H136.17Z" fill="#0F1833"/>
<path d="M142.239 118.834C142.239 118.719 142.287 118.671 142.402 118.671H149.112C149.226 118.671 149.275 118.719 149.275 118.834V119.867C149.275 119.982 149.226 120.03 149.112 120.03H143.795C143.728 120.03 143.695 120.063 143.695 120.13V123.41C143.695 123.476 143.728 123.51 143.795 123.51H148.305C148.42 123.51 148.468 123.558 148.468 123.673V124.706C148.468 124.82 148.42 124.869 148.305 124.869H143.795C143.728 124.869 143.695 124.902 143.695 124.968V128.364C143.695 128.43 143.728 128.463 143.795 128.463H149.112C149.226 128.463 149.275 128.512 149.275 128.626V129.659C149.275 129.774 149.226 129.822 149.112 129.822H142.402C142.287 129.822 142.239 129.774 142.239 129.659V118.834V118.834Z" fill="#0F1833"/>
<defs>
<linearGradient id="paint0_linear_4351_6273" x1="32.1348" y1="60.2024" x2="41.5761" y2="80.7399" gradientUnits="userSpaceOnUse">
<stop stop-color="#010101"/>
<stop offset="0.91" stop-color="#010101" stop-opacity="0.03"/>
<stop offset="1" stop-color="#010101" stop-opacity="0"/>
</linearGradient>
<linearGradient id="paint1_linear_4351_6273" x1="82.4124" y1="60.2024" x2="91.8537" y2="80.7399" gradientUnits="userSpaceOnUse">
<stop stop-color="#010101"/>
<stop offset="0.91" stop-color="#010101" stop-opacity="0.03"/>
<stop offset="1" stop-color="#010101" stop-opacity="0"/>
</linearGradient>
<linearGradient id="paint2_linear_4351_6273" x1="133.083" y1="60.2024" x2="142.521" y2="80.7399" gradientUnits="userSpaceOnUse">
<stop stop-color="#010101"/>
<stop offset="0.91" stop-color="#010101" stop-opacity="0.03"/>
<stop offset="1" stop-color="#010101" stop-opacity="0"/>
</linearGradient>
<linearGradient id="paint3_linear_4351_6273" x1="13.9998" y1="51.615" x2="120.476" y2="51.615" gradientUnits="userSpaceOnUse">
<stop stop-color="#0F1833"/>
<stop offset="0.72" stop-color="#2955A3"/>
</linearGradient>
<linearGradient id="paint4_linear_4351_6273" x1="7.31849" y1="53.7384" x2="120.476" y2="53.7384" gradientUnits="userSpaceOnUse">
<stop stop-color="#0F1833"/>
<stop offset="0.72" stop-color="#2955A3"/>
</linearGradient>
<linearGradient id="paint5_linear_4351_6273" x1="7.31806" y1="57.5745" x2="120.476" y2="57.5745" gradientUnits="userSpaceOnUse">
<stop stop-color="#0F1833"/>
<stop offset="0.72" stop-color="#2955A3"/>
</linearGradient>
<linearGradient id="paint6_linear_4351_6273" x1="7.31773" y1="74.7552" x2="120.476" y2="74.7552" gradientUnits="userSpaceOnUse">
<stop stop-color="#0F1833"/>
<stop offset="0.72" stop-color="#2955A3"/>
</linearGradient>
<linearGradient id="paint7_linear_4351_6273" x1="13.9995" y1="55.6534" x2="120.477" y2="55.6534" gradientUnits="userSpaceOnUse">
<stop stop-color="#0F1833"/>
<stop offset="0.72" stop-color="#2955A3"/>
</linearGradient>
<linearGradient id="paint8_linear_4351_6273" x1="14.0006" y1="50.4129" x2="120.473" y2="50.4129" gradientUnits="userSpaceOnUse">
<stop stop-color="#0F1833"/>
<stop offset="0.72" stop-color="#2955A3"/>
</linearGradient>
<linearGradient id="paint9_linear_4351_6273" x1="7.31829" y1="49.5278" x2="120.476" y2="49.5278" gradientUnits="userSpaceOnUse">
<stop stop-color="#0F1833"/>
<stop offset="0.72" stop-color="#2955A3"/>
</linearGradient>
<linearGradient id="paint10_linear_4351_6273" x1="14.0002" y1="80.1831" x2="120.476" y2="80.1831" gradientUnits="userSpaceOnUse">
<stop stop-color="#0F1833"/>
<stop offset="1" stop-color="#2955A3"/>
</linearGradient>
<linearGradient id="paint11_linear_4351_6273" x1="7.3178" y1="39.9497" x2="120.476" y2="39.9497" gradientUnits="userSpaceOnUse">
<stop stop-color="#0F1833"/>
<stop offset="1" stop-color="#2955A3"/>
</linearGradient>
<linearGradient id="paint12_linear_4351_6273" x1="7.3178" y1="31.6825" x2="120.476" y2="31.6825" gradientUnits="userSpaceOnUse">
<stop stop-color="#0F1833"/>
<stop offset="1" stop-color="#2955A3"/>
</linearGradient>
<linearGradient id="paint13_linear_4351_6273" x1="7.31769" y1="46.5798" x2="120.476" y2="46.5798" gradientUnits="userSpaceOnUse">
<stop stop-color="#0F1833"/>
<stop offset="1" stop-color="#2955A3"/>
</linearGradient>
<linearGradient id="paint14_linear_4351_6273" x1="7.31779" y1="45.8428" x2="120.476" y2="45.8428" gradientUnits="userSpaceOnUse">
<stop stop-color="#0F1833"/>
<stop offset="1" stop-color="#2955A3"/>
</linearGradient>
<linearGradient id="paint15_linear_4351_6273" x1="7.31775" y1="47.5795" x2="120.476" y2="47.5795" gradientUnits="userSpaceOnUse">
<stop stop-color="#0F1833"/>
<stop offset="1" stop-color="#2955A3"/>
</linearGradient>
<linearGradient id="paint16_linear_4351_6273" x1="7.3178" y1="30.2084" x2="120.476" y2="30.2084" gradientUnits="userSpaceOnUse">
<stop stop-color="#0F1833"/>
<stop offset="1" stop-color="#2955A3"/>
</linearGradient>
<linearGradient id="paint17_linear_4351_6273" x1="7.3179" y1="74.7552" x2="120.476" y2="74.7552" gradientUnits="userSpaceOnUse">
<stop stop-color="#0F1833"/>
<stop offset="1" stop-color="#2955A3"/>
</linearGradient>
<linearGradient id="paint18_linear_4351_6273" x1="7.31776" y1="44.2931" x2="120.476" y2="44.2931" gradientUnits="userSpaceOnUse">
<stop stop-color="#0F1833"/>
<stop offset="1" stop-color="#2955A3"/>
</linearGradient>
<linearGradient id="paint19_linear_4351_6273" x1="7.31792" y1="35.8176" x2="120.476" y2="35.8176" gradientUnits="userSpaceOnUse">
<stop stop-color="#0F1833"/>
<stop offset="1" stop-color="#2955A3"/>
</linearGradient>
<linearGradient id="paint20_linear_4351_6273" x1="7.31787" y1="68.5058" x2="120.476" y2="68.5058" gradientUnits="userSpaceOnUse">
<stop stop-color="#0F1833"/>
<stop offset="1" stop-color="#2955A3"/>
</linearGradient>
<linearGradient id="paint21_linear_4351_6273" x1="7.31779" y1="72.2179" x2="120.476" y2="72.2179" gradientUnits="userSpaceOnUse">
<stop stop-color="#0F1833"/>
<stop offset="1" stop-color="#2955A3"/>
</linearGradient>
<linearGradient id="paint22_linear_4351_6273" x1="7.31777" y1="66.035" x2="120.476" y2="66.035" gradientUnits="userSpaceOnUse">
<stop stop-color="#0F1833"/>
<stop offset="1" stop-color="#2955A3"/>
</linearGradient>
<linearGradient id="paint23_linear_4351_6273" x1="7.31779" y1="78.3224" x2="120.476" y2="78.3224" gradientUnits="userSpaceOnUse">
<stop stop-color="#0F1833"/>
<stop offset="1" stop-color="#2955A3"/>
</linearGradient>
<linearGradient id="paint24_linear_4351_6273" x1="7.3178" y1="75.5526" x2="120.476" y2="75.5526" gradientUnits="userSpaceOnUse">
<stop stop-color="#0F1833"/>
<stop offset="1" stop-color="#2955A3"/>
</linearGradient>
<linearGradient id="paint25_linear_4351_6273" x1="7.31789" y1="63.2319" x2="120.476" y2="63.2319" gradientUnits="userSpaceOnUse">
<stop stop-color="#0F1833"/>
<stop offset="1" stop-color="#2955A3"/>
</linearGradient>
<linearGradient id="paint26_linear_4351_6273" x1="7.31788" y1="81.9985" x2="120.476" y2="81.9985" gradientUnits="userSpaceOnUse">
<stop stop-color="#0F1833"/>
<stop offset="1" stop-color="#2955A3"/>
</linearGradient>
<linearGradient id="paint27_linear_4351_6273" x1="7.3178" y1="41.4238" x2="120.476" y2="41.4238" gradientUnits="userSpaceOnUse">
<stop stop-color="#0F1833"/>
<stop offset="1" stop-color="#2955A3"/>
</linearGradient>
<linearGradient id="paint28_linear_4351_6273" x1="14.0001" y1="56.2605" x2="120.476" y2="56.2605" gradientUnits="userSpaceOnUse">
<stop stop-color="#0F1833"/>
<stop offset="1" stop-color="#2955A3"/>
</linearGradient>
<linearGradient id="paint29_linear_4351_6273" x1="14.0002" y1="56.2606" x2="120.476" y2="56.2606" gradientUnits="userSpaceOnUse">
<stop stop-color="#0F1833"/>
<stop offset="1" stop-color="#2955A3"/>
</linearGradient>
<linearGradient id="paint30_linear_4351_6273" x1="9.75269" y1="68.0013" x2="40.0467" y2="68.0013" gradientUnits="userSpaceOnUse">
<stop stop-color="#010101"/>
<stop offset="0.91" stop-color="#010101" stop-opacity="0.03"/>
<stop offset="1" stop-color="#010101" stop-opacity="0"/>
</linearGradient>
<linearGradient id="paint31_linear_4351_6273" x1="9.75273" y1="76.3441" x2="40.0467" y2="76.3441" gradientUnits="userSpaceOnUse">
<stop stop-color="#010101"/>
<stop offset="0.91" stop-color="#010101" stop-opacity="0.03"/>
<stop offset="1" stop-color="#010101" stop-opacity="0"/>
</linearGradient>
<linearGradient id="paint32_linear_4351_6273" x1="9.75267" y1="73.1604" x2="40.0467" y2="73.1604" gradientUnits="userSpaceOnUse">
<stop stop-color="#010101"/>
<stop offset="0.91" stop-color="#010101" stop-opacity="0.03"/>
<stop offset="1" stop-color="#010101" stop-opacity="0"/>
</linearGradient>
<linearGradient id="paint33_linear_4351_6273" x1="9.75275" y1="74.1179" x2="40.0467" y2="74.1179" gradientUnits="userSpaceOnUse">
<stop stop-color="#010101"/>
<stop offset="0.91" stop-color="#010101" stop-opacity="0.03"/>
<stop offset="1" stop-color="#010101" stop-opacity="0"/>
</linearGradient>
<linearGradient id="paint34_linear_4351_6273" x1="9.75266" y1="79.6546" x2="40.0466" y2="79.6546" gradientUnits="userSpaceOnUse">
<stop stop-color="#010101"/>
<stop offset="0.91" stop-color="#010101" stop-opacity="0.03"/>
<stop offset="1" stop-color="#010101" stop-opacity="0"/>
</linearGradient>
<linearGradient id="paint35_linear_4351_6273" x1="9.7527" y1="79.0051" x2="40.0467" y2="79.0051" gradientUnits="userSpaceOnUse">
<stop stop-color="#010101"/>
<stop offset="0.91" stop-color="#010101" stop-opacity="0.03"/>
<stop offset="1" stop-color="#010101" stop-opacity="0"/>
</linearGradient>
<linearGradient id="paint36_linear_4351_6273" x1="9.75266" y1="82.3821" x2="40.0467" y2="82.3821" gradientUnits="userSpaceOnUse">
<stop stop-color="#010101"/>
<stop offset="0.91" stop-color="#010101" stop-opacity="0.03"/>
<stop offset="1" stop-color="#010101" stop-opacity="0"/>
</linearGradient>
<linearGradient id="paint37_linear_4351_6273" x1="9.75264" y1="81.2373" x2="40.0466" y2="81.2373" gradientUnits="userSpaceOnUse">
<stop stop-color="#010101"/>
<stop offset="0.91" stop-color="#010101" stop-opacity="0.03"/>
<stop offset="1" stop-color="#010101" stop-opacity="0"/>
</linearGradient>
<linearGradient id="paint38_linear_4351_6273" x1="9.75273" y1="82.0197" x2="40.0467" y2="82.0197" gradientUnits="userSpaceOnUse">
<stop stop-color="#010101"/>
<stop offset="0.91" stop-color="#010101" stop-opacity="0.03"/>
<stop offset="1" stop-color="#010101" stop-opacity="0"/>
</linearGradient>
<linearGradient id="paint39_linear_4351_6273" x1="9.75263" y1="70.4721" x2="40.0466" y2="70.4721" gradientUnits="userSpaceOnUse">
<stop stop-color="#010101"/>
<stop offset="0.91" stop-color="#010101" stop-opacity="0.03"/>
<stop offset="1" stop-color="#010101" stop-opacity="0"/>
</linearGradient>
<linearGradient id="paint40_linear_4351_6273" x1="9.7527" y1="80.902" x2="40.0467" y2="80.902" gradientUnits="userSpaceOnUse">
<stop stop-color="#010101"/>
<stop offset="0.91" stop-color="#010101" stop-opacity="0.03"/>
<stop offset="1" stop-color="#010101" stop-opacity="0"/>
</linearGradient>
<linearGradient id="paint41_linear_4351_6273" x1="9.75256" y1="69.2729" x2="40.0465" y2="69.2729" gradientUnits="userSpaceOnUse">
<stop stop-color="#010101"/>
<stop offset="0.91" stop-color="#010101" stop-opacity="0.03"/>
<stop offset="1" stop-color="#010101" stop-opacity="0"/>
</linearGradient>
<linearGradient id="paint42_linear_4351_6273" x1="7.31778" y1="63.3044" x2="120.476" y2="63.3044" gradientUnits="userSpaceOnUse">
<stop stop-color="#0F1833"/>
<stop offset="1" stop-color="#2955A3"/>
</linearGradient>
<linearGradient id="paint43_linear_4351_6273" x1="9.75265" y1="63.3044" x2="40.0466" y2="63.3044" gradientUnits="userSpaceOnUse">
<stop stop-color="#010101"/>
<stop offset="0.91" stop-color="#010101" stop-opacity="0.03"/>
<stop offset="1" stop-color="#010101" stop-opacity="0"/>
</linearGradient>
<linearGradient id="paint44_linear_4351_6273" x1="59.6737" y1="32.1628" x2="3.44766" y2="58.1632" gradientUnits="userSpaceOnUse">
<stop stop-color="#010101"/>
<stop offset="0.53" stop-color="#010101" stop-opacity="0"/>
</linearGradient>
<linearGradient id="paint45_linear_4351_6273" x1="53.8674" y1="19.6035" x2="-2.36163" y2="45.601" gradientUnits="userSpaceOnUse">
<stop stop-color="#010101"/>
<stop offset="0.53" stop-color="#010101" stop-opacity="0"/>
</linearGradient>
<linearGradient id="paint46_linear_4351_6273" x1="53.3509" y1="18.4918" x2="-2.87517" y2="44.4893" gradientUnits="userSpaceOnUse">
<stop stop-color="#010101"/>
<stop offset="0.53" stop-color="#010101" stop-opacity="0"/>
</linearGradient>
<linearGradient id="paint47_linear_4351_6273" x1="62.2053" y1="37.639" x2="5.97924" y2="63.6365" gradientUnits="userSpaceOnUse">
<stop stop-color="#010101"/>
<stop offset="0.53" stop-color="#010101" stop-opacity="0"/>
</linearGradient>
<linearGradient id="paint48_linear_4351_6273" x1="54.2723" y1="20.4823" x2="-1.95379" y2="46.4829" gradientUnits="userSpaceOnUse">
<stop stop-color="#010101"/>
<stop offset="0.53" stop-color="#010101" stop-opacity="0"/>
</linearGradient>
<linearGradient id="paint49_linear_4351_6273" x1="62.8185" y1="38.9651" x2="6.59245" y2="64.9656" gradientUnits="userSpaceOnUse">
<stop stop-color="#010101"/>
<stop offset="0.53" stop-color="#010101" stop-opacity="0"/>
</linearGradient>
<linearGradient id="paint50_linear_4351_6273" x1="57.1875" y1="26.7863" x2="0.961418" y2="52.7838" gradientUnits="userSpaceOnUse">
<stop stop-color="#010101"/>
<stop offset="0.53" stop-color="#010101" stop-opacity="0"/>
</linearGradient>
<linearGradient id="paint51_linear_4351_6273" x1="61.4138" y1="35.9263" x2="5.18773" y2="61.9268" gradientUnits="userSpaceOnUse">
<stop stop-color="#010101"/>
<stop offset="0.53" stop-color="#010101" stop-opacity="0"/>
</linearGradient>
<linearGradient id="paint52_linear_4351_6273" x1="56.0728" y1="24.3728" x2="-0.156249" y2="50.3733" gradientUnits="userSpaceOnUse">
<stop stop-color="#010101"/>
<stop offset="0.53" stop-color="#010101" stop-opacity="0"/>
</linearGradient>
<linearGradient id="paint53_linear_4351_6273" x1="54.6892" y1="21.3855" x2="-1.53682" y2="47.383" gradientUnits="userSpaceOnUse">
<stop stop-color="#010101"/>
<stop offset="0.53" stop-color="#010101" stop-opacity="0"/>
</linearGradient>
<linearGradient id="paint54_linear_4351_6273" x1="55.0909" y1="22.2525" x2="-1.13518" y2="48.253" gradientUnits="userSpaceOnUse">
<stop stop-color="#010101"/>
<stop offset="0.53" stop-color="#010101" stop-opacity="0"/>
</linearGradient>
<linearGradient id="paint55_linear_4351_6273" x1="55.5501" y1="23.2462" x2="-0.675907" y2="49.2467" gradientUnits="userSpaceOnUse">
<stop stop-color="#010101"/>
<stop offset="0.53" stop-color="#010101" stop-opacity="0"/>
</linearGradient>
<linearGradient id="paint56_linear_4351_6273" x1="14.0002" y1="48.6729" x2="120.476" y2="48.6729" gradientUnits="userSpaceOnUse">
<stop stop-color="#0F1833"/>
<stop offset="1" stop-color="#2955A3"/>
</linearGradient>
<linearGradient id="paint57_linear_4351_6273" x1="58.7192" y1="30.0967" x2="2.49009" y2="56.0941" gradientUnits="userSpaceOnUse">
<stop stop-color="#010101"/>
<stop offset="0.53" stop-color="#010101" stop-opacity="0"/>
</linearGradient>
<linearGradient id="paint58_linear_4351_6273" x1="60.0302" y1="69.8831" x2="90.3243" y2="69.8831" gradientUnits="userSpaceOnUse">
<stop stop-color="#010101"/>
<stop offset="0.91" stop-color="#010101" stop-opacity="0.03"/>
<stop offset="1" stop-color="#010101" stop-opacity="0"/>
</linearGradient>
<linearGradient id="paint59_linear_4351_6273" x1="60.0302" y1="68.6477" x2="90.3241" y2="68.6477" gradientUnits="userSpaceOnUse">
<stop stop-color="#010101"/>
<stop offset="0.91" stop-color="#010101" stop-opacity="0.03"/>
<stop offset="1" stop-color="#010101" stop-opacity="0"/>
</linearGradient>
<linearGradient id="paint60_linear_4351_6273" x1="60.0302" y1="71.8253" x2="90.3241" y2="71.8253" gradientUnits="userSpaceOnUse">
<stop stop-color="#010101"/>
<stop offset="0.91" stop-color="#010101" stop-opacity="0.03"/>
<stop offset="1" stop-color="#010101" stop-opacity="0"/>
</linearGradient>
<linearGradient id="paint61_linear_4351_6273" x1="60.0302" y1="73.6467" x2="90.3242" y2="73.6467" gradientUnits="userSpaceOnUse">
<stop stop-color="#010101"/>
<stop offset="0.91" stop-color="#010101" stop-opacity="0.03"/>
<stop offset="1" stop-color="#010101" stop-opacity="0"/>
</linearGradient>
<linearGradient id="paint62_linear_4351_6273" x1="60.0301" y1="79.8902" x2="90.324" y2="79.8902" gradientUnits="userSpaceOnUse">
<stop stop-color="#010101"/>
<stop offset="0.91" stop-color="#010101" stop-opacity="0.03"/>
<stop offset="1" stop-color="#010101" stop-opacity="0"/>
</linearGradient>
<linearGradient id="paint63_linear_4351_6273" x1="60.0302" y1="77.966" x2="90.3242" y2="77.966" gradientUnits="userSpaceOnUse">
<stop stop-color="#010101"/>
<stop offset="0.91" stop-color="#010101" stop-opacity="0.03"/>
<stop offset="1" stop-color="#010101" stop-opacity="0"/>
</linearGradient>
<linearGradient id="paint64_linear_4351_6273" x1="60.0303" y1="67.6781" x2="90.3241" y2="67.6781" gradientUnits="userSpaceOnUse">
<stop stop-color="#010101"/>
<stop offset="0.91" stop-color="#010101" stop-opacity="0.03"/>
<stop offset="1" stop-color="#010101" stop-opacity="0"/>
</linearGradient>
<linearGradient id="paint65_linear_4351_6273" x1="60.0302" y1="74.7825" x2="90.3242" y2="74.7825" gradientUnits="userSpaceOnUse">
<stop stop-color="#010101"/>
<stop offset="0.91" stop-color="#010101" stop-opacity="0.03"/>
<stop offset="1" stop-color="#010101" stop-opacity="0"/>
</linearGradient>
<linearGradient id="paint66_linear_4351_6273" x1="7.3179" y1="63.3044" x2="120.476" y2="63.3044" gradientUnits="userSpaceOnUse">
<stop stop-color="#0F1833"/>
<stop offset="0.72" stop-color="#2955A3"/>
</linearGradient>
<linearGradient id="paint67_linear_4351_6273" x1="60.0303" y1="63.3044" x2="90.3243" y2="63.3044" gradientUnits="userSpaceOnUse">
<stop stop-color="#010101"/>
<stop offset="0.91" stop-color="#010101" stop-opacity="0.03"/>
<stop offset="1" stop-color="#010101" stop-opacity="0"/>
</linearGradient>
<linearGradient id="paint68_linear_4351_6273" x1="112.168" y1="36.9624" x2="55.9425" y2="62.9596" gradientUnits="userSpaceOnUse">
<stop stop-color="#010101"/>
<stop offset="0.53" stop-color="#010101" stop-opacity="0"/>
</linearGradient>
<linearGradient id="paint69_linear_4351_6273" x1="114.274" y1="41.5173" x2="58.048" y2="67.5145" gradientUnits="userSpaceOnUse">
<stop stop-color="#010101"/>
<stop offset="0.53" stop-color="#010101" stop-opacity="0"/>
</linearGradient>
<linearGradient id="paint70_linear_4351_6273" x1="113.694" y1="40.2578" x2="57.4681" y2="66.2555" gradientUnits="userSpaceOnUse">
<stop stop-color="#010101"/>
<stop offset="0.53" stop-color="#010101" stop-opacity="0"/>
</linearGradient>
<linearGradient id="paint71_linear_4351_6273" x1="7.31782" y1="48.673" x2="120.476" y2="48.673" gradientUnits="userSpaceOnUse">
<stop stop-color="#0F1833"/>
<stop offset="0.72" stop-color="#2955A3"/>
</linearGradient>
<linearGradient id="paint72_linear_4351_6273" x1="108.997" y1="30.0968" x2="52.7675" y2="56.0943" gradientUnits="userSpaceOnUse">
<stop stop-color="#010101"/>
<stop offset="0.53" stop-color="#010101" stop-opacity="0"/>
</linearGradient>
<linearGradient id="paint73_linear_4351_6273" x1="110.697" y1="63.3044" x2="140.991" y2="63.3044" gradientUnits="userSpaceOnUse">
<stop stop-color="#010101"/>
<stop offset="0.53" stop-color="#010101" stop-opacity="0"/>
</linearGradient>
<linearGradient id="paint74_linear_4351_6273" x1="159.664" y1="30.0968" x2="103.438" y2="56.0943" gradientUnits="userSpaceOnUse">
<stop stop-color="#010101"/>
<stop offset="0.53" stop-color="#010101" stop-opacity="0"/>
</linearGradient>
<linearGradient id="paint75_linear_4351_6273" x1="38.9411" y1="66.476" x2="16.8716" y2="53.8627" gradientUnits="userSpaceOnUse">
<stop stop-color="#010101"/>
<stop offset="0.53" stop-color="#010101" stop-opacity="0"/>
</linearGradient>
<linearGradient id="paint76_linear_4351_6273" x1="41.956" y1="61.1991" x2="19.8865" y2="48.5889" gradientUnits="userSpaceOnUse">
<stop stop-color="#010101"/>
<stop offset="0.53" stop-color="#010101" stop-opacity="0"/>
</linearGradient>
<linearGradient id="paint77_linear_4351_6273" x1="43.4695" y1="58.5531" x2="21.4" y2="45.9429" gradientUnits="userSpaceOnUse">
<stop stop-color="#010101"/>
<stop offset="0.53" stop-color="#010101" stop-opacity="0"/>
</linearGradient>
<linearGradient id="paint78_linear_4351_6273" x1="39.3096" y1="65.8296" x2="17.2431" y2="53.2163" gradientUnits="userSpaceOnUse">
<stop stop-color="#010101"/>
<stop offset="0.53" stop-color="#010101" stop-opacity="0"/>
</linearGradient>
<linearGradient id="paint79_linear_4351_6273" x1="14.0002" y1="56.2968" x2="120.476" y2="56.2968" gradientUnits="userSpaceOnUse">
<stop stop-color="#0F1833"/>
<stop offset="1" stop-color="#2955A3"/>
</linearGradient>
<linearGradient id="paint80_linear_4351_6273" x1="42.0798" y1="60.9817" x2="20.0134" y2="48.3684" gradientUnits="userSpaceOnUse">
<stop stop-color="#010101"/>
<stop offset="0.53" stop-color="#010101" stop-opacity="0"/>
</linearGradient>
<linearGradient id="paint81_linear_4351_6273" x1="93.6593" y1="58.5531" x2="71.5928" y2="45.9428" gradientUnits="userSpaceOnUse">
<stop stop-color="#010101"/>
<stop offset="0.53" stop-color="#010101" stop-opacity="0"/>
</linearGradient>
<linearGradient id="paint82_linear_4351_6273" x1="89.134" y1="66.476" x2="67.0644" y2="53.8627" gradientUnits="userSpaceOnUse">
<stop stop-color="#010101"/>
<stop offset="0.53" stop-color="#010101" stop-opacity="0"/>
</linearGradient>
<linearGradient id="paint83_linear_4351_6273" x1="89.5024" y1="65.8296" x2="67.4329" y2="53.2164" gradientUnits="userSpaceOnUse">
<stop stop-color="#010101"/>
<stop offset="0.53" stop-color="#010101" stop-opacity="0"/>
</linearGradient>
<linearGradient id="paint84_linear_4351_6273" x1="92.1487" y1="61.1991" x2="70.0792" y2="48.5889" gradientUnits="userSpaceOnUse">
<stop stop-color="#010101"/>
<stop offset="0.53" stop-color="#010101" stop-opacity="0"/>
</linearGradient>
<linearGradient id="paint85_linear_4351_6273" x1="14.0001" y1="56.2968" x2="120.476" y2="56.2968" gradientUnits="userSpaceOnUse">
<stop stop-color="#0F1833"/>
<stop offset="1" stop-color="#2955A3"/>
</linearGradient>
<linearGradient id="paint86_linear_4351_6273" x1="92.2727" y1="60.9817" x2="70.2032" y2="48.3684" gradientUnits="userSpaceOnUse">
<stop stop-color="#010101"/>
<stop offset="0.53" stop-color="#010101" stop-opacity="0"/>
</linearGradient>
<linearGradient id="paint87_linear_4351_6273" x1="7.3178" y1="41.8707" x2="120.476" y2="41.8707" gradientUnits="userSpaceOnUse">
<stop stop-color="#0F1833"/>
<stop offset="1" stop-color="#2955A3"/>
</linearGradient>
<linearGradient id="paint88_linear_4351_6273" x1="7.31777" y1="42.8342" x2="120.476" y2="42.8342" gradientUnits="userSpaceOnUse">
<stop stop-color="#0F1833"/>
<stop offset="1" stop-color="#2955A3"/>
</linearGradient>
<linearGradient id="paint89_linear_4351_6273" x1="7.31778" y1="72.5261" x2="120.476" y2="72.5261" gradientUnits="userSpaceOnUse">
<stop stop-color="#0F1833"/>
<stop offset="1" stop-color="#2955A3"/>
</linearGradient>
<linearGradient id="paint90_linear_4351_6273" x1="7.31776" y1="44.6103" x2="120.476" y2="44.6103" gradientUnits="userSpaceOnUse">
<stop stop-color="#0F1833"/>
<stop offset="1" stop-color="#2955A3"/>
</linearGradient>
<linearGradient id="paint91_linear_4351_6273" x1="9.75264" y1="44.6103" x2="40.0466" y2="44.6103" gradientUnits="userSpaceOnUse">
<stop stop-color="#010101"/>
<stop offset="0.91" stop-color="#010101" stop-opacity="0.03"/>
<stop offset="1" stop-color="#010101" stop-opacity="0"/>
</linearGradient>
<linearGradient id="paint92_linear_4351_6273" x1="7.31774" y1="47.8606" x2="120.476" y2="47.8606" gradientUnits="userSpaceOnUse">
<stop stop-color="#0F1833"/>
<stop offset="1" stop-color="#2955A3"/>
</linearGradient>
<linearGradient id="paint93_linear_4351_6273" x1="9.75261" y1="47.8606" x2="40.0466" y2="47.8606" gradientUnits="userSpaceOnUse">
<stop stop-color="#010101"/>
<stop offset="0.91" stop-color="#010101" stop-opacity="0.03"/>
<stop offset="1" stop-color="#010101" stop-opacity="0"/>
</linearGradient>
<linearGradient id="paint94_linear_4351_6273" x1="7.31776" y1="49.6093" x2="120.476" y2="49.6093" gradientUnits="userSpaceOnUse">
<stop stop-color="#0F1833"/>
<stop offset="1" stop-color="#2955A3"/>
</linearGradient>
<linearGradient id="paint95_linear_4351_6273" x1="9.75264" y1="49.6093" x2="40.0466" y2="49.6093" gradientUnits="userSpaceOnUse">
<stop stop-color="#010101"/>
<stop offset="0.91" stop-color="#010101" stop-opacity="0.03"/>
<stop offset="1" stop-color="#010101" stop-opacity="0"/>
</linearGradient>
<linearGradient id="paint96_linear_4351_6273" x1="7.31781" y1="50.9444" x2="120.476" y2="50.9444" gradientUnits="userSpaceOnUse">
<stop stop-color="#0F1833"/>
<stop offset="1" stop-color="#2955A3"/>
</linearGradient>
<linearGradient id="paint97_linear_4351_6273" x1="9.75269" y1="50.9444" x2="40.0467" y2="50.9444" gradientUnits="userSpaceOnUse">
<stop stop-color="#010101"/>
<stop offset="0.91" stop-color="#010101" stop-opacity="0.03"/>
<stop offset="1" stop-color="#010101" stop-opacity="0"/>
</linearGradient>
<linearGradient id="paint98_linear_4351_6273" x1="58.4592" y1="29.5376" x2="2.2328" y2="55.5346" gradientUnits="userSpaceOnUse">
<stop stop-color="#010101"/>
<stop offset="0.53" stop-color="#010101" stop-opacity="0"/>
</linearGradient>
<linearGradient id="paint99_linear_4351_6273" x1="7.31778" y1="54.3032" x2="120.476" y2="54.3032" gradientUnits="userSpaceOnUse">
<stop stop-color="#0F1833"/>
<stop offset="1" stop-color="#2955A3"/>
</linearGradient>
<linearGradient id="paint100_linear_4351_6273" x1="60.8277" y1="34.6577" x2="4.60163" y2="60.6552" gradientUnits="userSpaceOnUse">
<stop stop-color="#010101"/>
<stop offset="0.53" stop-color="#010101" stop-opacity="0"/>
</linearGradient>
<linearGradient id="paint101_linear_4351_6273" x1="14.0001" y1="53.4363" x2="120.476" y2="53.4363" gradientUnits="userSpaceOnUse">
<stop stop-color="#0F1833"/>
<stop offset="1" stop-color="#2955A3"/>
</linearGradient>
<linearGradient id="paint102_linear_4351_6273" x1="14" y1="57.6138" x2="120.476" y2="57.6138" gradientUnits="userSpaceOnUse">
<stop stop-color="#0F1833"/>
<stop offset="1" stop-color="#2955A3"/>
</linearGradient>
<linearGradient id="paint103_linear_4351_6273" x1="14.0001" y1="54.5781" x2="120.476" y2="54.5781" gradientUnits="userSpaceOnUse">
<stop stop-color="#0F1833"/>
<stop offset="1" stop-color="#2955A3"/>
</linearGradient>
<linearGradient id="paint104_linear_4351_6273" x1="14.0002" y1="51.9322" x2="120.476" y2="51.9322" gradientUnits="userSpaceOnUse">
<stop stop-color="#0F1833"/>
<stop offset="1" stop-color="#2955A3"/>
</linearGradient>
<linearGradient id="paint105_linear_4351_6273" x1="14.0003" y1="62.0992" x2="120.476" y2="62.0992" gradientUnits="userSpaceOnUse">
<stop stop-color="#0F1833"/>
<stop offset="1" stop-color="#2955A3"/>
</linearGradient>
<linearGradient id="paint106_linear_4351_6273" x1="14.0002" y1="56.8646" x2="120.476" y2="56.8646" gradientUnits="userSpaceOnUse">
<stop stop-color="#0F1833"/>
<stop offset="1" stop-color="#2955A3"/>
</linearGradient>
<linearGradient id="paint107_linear_4351_6273" x1="14.0002" y1="56.2968" x2="120.476" y2="56.2968" gradientUnits="userSpaceOnUse">
<stop stop-color="#0F1833"/>
<stop offset="1" stop-color="#2955A3"/>
</linearGradient>
<linearGradient id="paint108_linear_4351_6273" x1="44.1129" y1="57.4295" x2="22.0434" y2="44.8162" gradientUnits="userSpaceOnUse">
<stop stop-color="#010101"/>
<stop offset="0.53" stop-color="#010101" stop-opacity="0"/>
</linearGradient>
<linearGradient id="paint109_linear_4351_6273" x1="14.0002" y1="56.2968" x2="120.476" y2="56.2968" gradientUnits="userSpaceOnUse">
<stop stop-color="#0F1833"/>
<stop offset="1" stop-color="#2955A3"/>
</linearGradient>
<linearGradient id="paint110_linear_4351_6273" x1="14.0001" y1="56.2968" x2="120.476" y2="56.2968" gradientUnits="userSpaceOnUse">
<stop stop-color="#0F1833"/>
<stop offset="1" stop-color="#2955A3"/>
</linearGradient>
<linearGradient id="paint111_linear_4351_6273" x1="94.3027" y1="57.4295" x2="72.2332" y2="44.8162" gradientUnits="userSpaceOnUse">
<stop stop-color="#010101"/>
<stop offset="0.53" stop-color="#010101" stop-opacity="0"/>
</linearGradient>
<linearGradient id="paint112_linear_4351_6273" x1="7.31788" y1="72.5261" x2="120.476" y2="72.5261" gradientUnits="userSpaceOnUse">
<stop stop-color="#0F1833"/>
<stop offset="0.72" stop-color="#2955A3"/>
</linearGradient>
<linearGradient id="paint113_linear_4351_6273" x1="7.31793" y1="62.5553" x2="120.476" y2="62.5553" gradientUnits="userSpaceOnUse">
<stop stop-color="#0F1833"/>
<stop offset="0.72" stop-color="#2955A3"/>
</linearGradient>
<linearGradient id="paint114_linear_4351_6273" x1="60.0303" y1="62.5553" x2="90.3242" y2="62.5553" gradientUnits="userSpaceOnUse">
<stop stop-color="#010101"/>
<stop offset="0.91" stop-color="#010101" stop-opacity="0.03"/>
<stop offset="1" stop-color="#010101" stop-opacity="0"/>
</linearGradient>
<linearGradient id="paint115_linear_4351_6273" x1="14.0001" y1="54.3002" x2="120.476" y2="54.3002" gradientUnits="userSpaceOnUse">
<stop stop-color="#0F1833"/>
<stop offset="0.72" stop-color="#2955A3"/>
</linearGradient>
<linearGradient id="paint116_linear_4351_6273" x1="111.105" y1="34.6577" x2="54.8761" y2="60.6552" gradientUnits="userSpaceOnUse">
<stop stop-color="#010101"/>
<stop offset="0.53" stop-color="#010101" stop-opacity="0"/>
</linearGradient>
<linearGradient id="paint117_linear_4351_6273" x1="161.772" y1="34.6577" x2="105.546" y2="60.6552" gradientUnits="userSpaceOnUse">
<stop stop-color="#010101"/>
<stop offset="0.53" stop-color="#010101" stop-opacity="0"/>
</linearGradient>
</defs>
</svg>
