<svg width="260" height="60" viewBox="0 0 260 60" fill="none" xmlns="http://www.w3.org/2000/svg">
<g clip-path="url(#clip0_847_1232)">
<path d="M9.27921 8.93679C12.6461 13.4751 15.9916 17.9812 19.3693 22.5303L21.0608 21.9704V19.6178C19.0148 18.035 18.451 16.7376 19.0632 15.0364C19.5787 13.599 20.9587 12.6676 22.4731 12.7376C23.9713 12.8076 25.2332 13.8574 25.6306 15.3702C26.0816 17.0821 25.405 18.3742 23.3108 19.6555C23.2893 19.9947 23.2517 20.42 23.2356 20.8399C23.2195 21.2221 23.2356 21.6044 23.2356 21.9274L25.9098 23.3271C29.0942 20.7968 32.3644 18.2073 35.5864 15.6447C35.1944 13.2544 35.6454 11.6178 37.7665 10.7026C39.2486 10.062 40.9563 10.5842 41.939 11.8708C42.9002 13.1306 42.9378 14.9341 42.0303 16.2477C41.01 17.7228 39.3668 18.0781 37.0201 17.2598C33.7982 19.8116 30.5172 22.4119 27.3382 24.9314L27.8752 29.2975C29.078 29.8358 30.4581 30.4334 31.8274 31.0633C32.3752 31.3163 32.7188 30.9395 33.1323 30.7403C35.2373 29.7228 37.5142 31.1333 37.5195 33.4482C37.5195 34.9718 36.5207 36.1616 34.9957 36.4523C33.6425 36.7107 32.1926 35.8762 31.6932 34.5249C31.5589 34.1642 31.5106 33.7712 31.3817 33.2275C29.9533 32.5869 28.4337 31.8978 26.9408 31.2302L24.084 33.5236L25.0452 38.6434C27.843 39.6716 28.8901 41.0337 28.7075 43.284C28.5625 45.0821 27.1825 46.5572 25.3352 46.8856C23.6383 47.1925 21.7965 46.2235 21.0554 44.6407C20.1372 42.6811 20.6956 40.9368 22.9188 39.0364C22.618 37.3621 22.3066 35.634 21.9683 33.7659C19.9009 33.5828 18.2201 32.7161 16.9743 30.8695C15.1915 31.5424 13.4355 32.2046 11.6044 32.8937C11.5668 33.3513 11.5453 33.7766 11.5023 34.1965C11.2231 36.813 9.46179 38.7188 6.93793 39.1441C4.67183 39.5263 2.31445 38.245 1.31564 36.0808C0.204073 33.669 1.0203 30.7672 3.21659 29.3083C5.40214 27.8547 8.24819 28.1885 10.0686 30.1158C10.2726 30.3365 10.4606 30.568 10.7559 30.9072C12.5334 30.2396 14.3323 29.5613 16.2386 28.8453C16.0292 27.0041 16.4158 25.3513 17.6777 23.8493C14.2947 19.284 10.9331 14.7511 7.59843 10.2504C3.95227 10.9987 1.59488 10.0889 0.488678 7.55859C-0.569193 5.14136 0.134264 2.48188 2.2339 0.974473C4.22613 -0.457559 6.93256 -0.296052 8.81203 1.37286C10.858 3.18712 11.0513 5.83046 9.28458 8.93679H9.27921ZM22.0005 31.5048C24.1001 31.494 25.6359 29.9058 25.6145 27.7686C25.593 25.7228 24.0303 24.1508 22.0113 24.1454C19.9599 24.1454 18.306 25.7928 18.306 27.8332C18.306 29.9328 19.9009 31.5155 22.0059 31.5048H22.0005ZM121.059 35.2087H124.115C125.688 29.8843 126.998 24.5546 128.582 19.3056L128.829 19.3432C130.285 24.6245 131.74 29.9058 133.195 35.1925H136.288C138.254 28.5384 140.192 21.9651 142.174 15.2356H139.451C137.856 20.7053 136.277 26.105 134.704 31.4994L134.484 31.4509C133.013 26.0404 131.547 20.6299 130.081 15.241H127.256C125.769 20.7161 124.308 26.0889 122.847 31.4617C121.822 28.7322 121.032 26.0404 120.248 23.3486C119.454 20.6245 118.659 17.8951 117.853 15.1279C117.182 15.1279 116.667 15.1171 116.151 15.1279C115.899 15.1387 115.652 15.1979 115.168 15.2679C117.166 22.0297 119.121 28.6353 121.064 35.1979L121.059 35.2087ZM51.4652 35.1817H53.8387V19.5263C54.8858 20.7484 55.7342 21.9974 56.5719 23.2463C59.0528 26.9395 61.5284 30.638 64.0093 34.3311C64.2939 34.7511 64.4979 35.284 65.1316 35.2894C65.8082 35.2948 66.4848 35.2894 67.242 35.2894V15.2356H64.8255C64.7986 15.8224 64.761 16.3284 64.7557 16.8345C64.7557 21.0283 64.7557 25.2221 64.7557 29.4159C64.7557 29.8466 64.7181 30.2773 64.702 30.708C63.6871 29.5828 62.9138 28.4415 62.1459 27.3002C59.665 23.607 57.1573 19.9354 54.7193 16.21C54.1716 15.3702 53.5594 14.9987 52.5982 15.1225C52.2223 15.171 51.8411 15.1764 51.3954 15.2087C51.1108 16.9045 51.1859 34.2127 51.4652 35.1764V35.1817ZM192.892 30.7672C191.808 29.1629 190.728 27.5586 189.644 25.9489C187.426 22.6488 185.213 19.3432 182.974 16.0593C182.727 15.6932 182.34 15.2679 181.954 15.1925C181.266 15.0525 180.525 15.1548 179.741 15.1548V35.1979H182.19C182.298 29.9597 182.153 24.8183 182.4 19.6501C183.758 21.4375 184.988 23.2517 186.207 25.0714C188.301 28.1939 190.385 31.3217 192.5 34.428C192.726 34.7618 193.075 35.1656 193.424 35.2302C194.117 35.354 194.852 35.2679 195.658 35.2679V15.2302H193.215V30.7134L192.887 30.7672H192.892ZM77.7562 17.2114H89.2317V15.3271C87.7765 14.9933 76.054 15.0579 75.125 15.3809C74.8672 17.2383 74.9639 34.2665 75.2377 35.1548C76.9615 35.4455 88.5175 35.3433 89.3928 35.0256V33.1791H77.7347V25.7443C81.4346 25.5721 85.0861 25.8143 88.7377 25.6044V23.5909H77.7508V17.2006L77.7562 17.2114ZM217.154 25.6743V23.5478H206.177V17.206H217.664V15.1279C212.906 15.1279 208.234 15.0848 203.6 15.1602C203.337 16.856 203.401 34.2073 203.643 35.1387C205.103 35.4294 216.88 35.354 217.782 35.0472V33.1737H206.161V25.6743H217.159H217.154ZM230.219 35.564C231.915 35.6178 233.585 35.4671 235.18 34.848C236.942 34.1589 238.128 32.9422 238.553 31.0418C239.229 28.027 237.93 25.5828 234.998 24.5922C233.698 24.1508 232.324 23.9193 230.981 23.6017C229.891 23.3486 228.779 23.1656 227.711 22.8533C226.621 22.5357 225.971 21.7659 225.874 20.5922C225.778 19.3971 226.239 18.4657 227.254 17.8574C227.764 17.5559 228.339 17.3029 228.914 17.1683C231.378 16.5869 233.795 16.8883 236.184 17.6205C236.711 17.782 237.237 17.9381 237.871 18.1266V16.0916C236.023 15.241 234.106 14.9502 232.168 14.8749C229.902 14.7887 227.673 15.0418 225.681 16.2692C223.855 17.3944 223.007 19.0472 223.222 21.1952C223.431 23.3325 224.645 24.673 226.658 25.2813C227.689 25.5882 228.753 25.782 229.805 26.0189C231.19 26.3365 232.613 26.5411 233.951 26.9879C235.454 27.494 235.98 28.4146 235.98 29.9489C235.98 31.4132 235.298 32.4469 233.94 32.9476C233.22 33.2167 232.447 33.3944 231.685 33.4644C229.08 33.7066 226.637 33.0606 224.279 31.9893C223.871 31.8062 223.447 31.6555 222.921 31.4455V33.6151C224.757 34.638 227.974 35.4886 230.213 35.5586L230.219 35.564ZM249.609 35.354C251.902 35.7255 254.168 35.6824 256.37 34.8695C258.153 34.2127 259.34 33.0014 259.801 31.1171C260.526 28.1454 259.232 25.6205 256.338 24.6192C255.001 24.1562 253.583 23.9193 252.203 23.5909C251.113 23.3325 250.007 23.1494 248.933 22.8318C247.832 22.5088 247.22 21.7013 247.134 20.5438C247.048 19.4079 247.488 18.4926 248.449 17.9058C248.992 17.5721 249.604 17.3029 250.221 17.1575C252.772 16.5599 255.274 16.9153 257.739 17.7013C258.169 17.8412 258.604 17.9758 259.119 18.1427V16.14C257.229 15.2033 254.082 14.6811 251.838 14.8856C250.458 15.0095 249.099 15.214 247.821 15.7955C246.822 16.2531 245.952 16.8668 245.308 17.7712C243.858 19.817 243.944 23.9785 247.724 25.1952C249.233 25.6797 250.834 25.8951 252.385 26.2558C253.39 26.4873 254.405 26.7026 255.382 27.0364C256.687 27.4778 257.256 28.5276 257.294 29.8466C257.326 31.1656 256.767 32.2423 255.548 32.786C254.775 33.1306 253.916 33.3567 253.073 33.4482C250.613 33.7174 248.272 33.1467 246.017 32.1885C245.469 31.957 244.916 31.7255 244.245 31.4455V33.7066C246.001 34.5411 247.773 35.0472 249.615 35.3433L249.609 35.354ZM166.698 33.6205C166.703 28.6515 166.698 23.677 166.703 18.708C166.703 18.2504 166.746 17.7928 166.778 17.1737H173.7V15.2248H156.946V17.2221H163.954V18.7834C163.954 23.7524 163.954 28.7268 163.954 33.6959C163.954 34.1965 164.024 34.6918 164.061 35.2087H166.607C166.639 34.6272 166.693 34.1266 166.693 33.6205H166.698ZM94.0861 15.3648V17.1683C96.4864 17.2867 98.7955 17.1198 101.153 17.2652C101.153 20.3715 101.142 23.3109 101.153 26.2504C101.164 29.2167 101.099 32.1831 101.196 35.1764H103.859V17.2167H110.894V15.2786C109.122 14.9933 95.0312 15.0741 94.0807 15.3648H94.0861ZM154.911 53.9543C156.377 53.0606 157.134 51.7955 156.871 50.0512C156.635 48.4684 155.432 47.1656 153.622 46.9825C151.447 46.7672 149.24 46.8749 147.049 46.8533C146.985 46.8533 146.921 46.9556 146.856 47.0149C146.615 48.8453 146.706 58.6111 146.985 59.564H148.95V48.883C150.309 48.883 151.549 48.813 152.779 48.9045C153.875 48.9852 154.519 49.7013 154.551 50.6272C154.583 51.5963 154.073 52.21 152.919 52.4738C152.296 52.6138 151.657 52.6568 151.002 52.7484C151.023 52.926 150.996 53.0714 151.055 53.1683C152.215 55.1441 153.375 57.1144 154.567 59.0741C154.712 59.311 154.992 59.5801 155.233 59.607C155.894 59.6824 156.565 59.634 157.483 59.634C156.377 57.7336 155.405 56.07 154.379 54.3096C154.626 54.1481 154.766 54.0566 154.911 53.9651V53.9543ZM161.72 47.0202C160.431 47.5801 159.588 48.4684 159.492 49.9328C159.395 51.4186 160.152 52.4254 161.414 53.0283C162.305 53.4536 163.272 53.7013 164.206 54.0404C164.851 54.2773 165.511 54.4926 166.129 54.7941C166.709 55.0795 167.036 55.5855 166.988 56.2692C166.934 57.0122 166.478 57.4375 165.823 57.669C164.813 58.0243 163.777 57.9974 162.762 57.7336C161.972 57.529 161.215 57.2167 160.335 56.9153L159.379 58.4765C160.963 59.6932 163.481 60.2854 165.5 59.8493C166.365 59.6609 167.283 59.3756 168.003 58.8803C170.215 57.3513 170.011 54.2665 167.638 53.0122C166.736 52.533 165.704 52.2854 164.733 51.9408C164.126 51.7255 163.497 51.5424 162.907 51.2894C162.359 51.0525 161.999 50.638 162.037 49.9812C162.074 49.2544 162.542 48.8453 163.165 48.7376C163.916 48.6084 164.711 48.5707 165.474 48.6407C166.231 48.7107 166.972 48.9691 167.804 49.1683C168.083 48.6568 168.341 48.1777 168.631 47.6501C167.009 46.5088 163.46 46.2719 161.72 47.031V47.0202ZM175.301 54.8372C175.988 53.3029 176.579 51.7147 177.465 50.0458C178.995 53.3836 180.413 56.4792 181.825 59.564H184.51C182.523 55.2517 180.622 51.1118 178.71 46.9664H176.187C174.323 51.1171 172.454 55.2625 170.516 59.5801H173.206C173.904 57.992 174.592 56.4146 175.295 54.8426L175.301 54.8372ZM150.637 15.2679C149.412 15.0472 149.192 15.0579 148.279 15.3809C148.011 17.0929 148.102 34.2504 148.408 35.214H150.631C150.964 34.0135 150.948 16.2908 150.631 15.2679H150.637ZM192.286 59.7363V48.3015C193.483 48.3015 194.589 48.2854 195.69 48.3015C196.549 48.3177 197.419 48.3123 198.262 48.4415C199.358 48.6084 200.185 49.1952 200.475 50.3473C200.77 51.5263 200.577 52.5761 199.61 53.3944C199.513 53.4751 199.417 53.5613 199.261 53.7013C199.556 53.9112 199.841 54.0889 200.093 54.3042C201.055 55.1171 201.237 56.1777 201.044 57.3621C200.856 58.5088 200.163 59.1979 199.089 59.5424C198.842 59.6232 198.59 59.7201 198.337 59.7201C196.361 59.7363 194.385 59.7309 192.286 59.7309V59.7363ZM193.854 58.4765C195.303 58.4765 196.592 58.5411 197.876 58.455C198.901 58.385 199.476 57.6528 199.53 56.6245C199.583 55.6124 199.041 54.7564 198.074 54.6165C196.683 54.4119 195.277 54.4711 193.854 54.5949V58.4819V58.4765ZM193.854 53.2006C195.185 53.2006 196.463 53.2813 197.72 53.1737C198.525 53.1037 198.987 52.3392 198.998 51.4725C199.014 50.6272 198.558 49.8574 197.774 49.712C196.479 49.4644 195.169 49.5128 193.854 49.6636V53.206V53.2006ZM123.723 48.3607H125.419C126.928 52.0808 128.448 55.8224 130.021 59.704H128.4C127.981 58.7295 127.557 57.7497 127.127 56.7537H122.031C121.618 57.6851 121.193 58.6595 120.732 59.704H119.18C120.635 55.8332 122.214 52.1669 123.723 48.3607ZM126.724 55.5155C125.999 53.7336 125.344 52.1346 124.571 50.2289C123.787 52.1669 123.132 53.7874 122.434 55.5155H126.724ZM242.671 56.3554H236.582C236.625 58.1319 237.704 59.0095 239.514 58.821C240.443 58.7241 241.361 58.5465 242.317 58.4011C242.51 58.9503 242.51 59.3433 241.952 59.5101C240.4 59.9785 238.843 60.2423 237.258 59.6447C236.088 59.2033 235.213 58.4119 235.03 57.1629C234.885 56.1616 234.837 55.0741 235.073 54.0996C235.594 51.9516 237.903 50.8803 240.266 51.5263C242.167 52.0485 243.203 53.9974 242.671 56.35V56.3554ZM236.491 55.2948H241.286C241.447 54.175 241.216 53.276 240.325 52.7107C239.412 52.1346 238.397 52.1939 237.505 52.7645C236.636 53.319 236.346 54.1912 236.496 55.2894L236.491 55.2948ZM209.179 56.6461C209.228 57.6044 208.803 58.1104 207.998 58.4011C207.558 58.5626 207.096 58.708 206.634 58.7672C205.329 58.9449 204.679 58.385 204.647 57.0606C204.62 55.8493 204.642 54.638 204.642 53.4267C204.642 52.8345 204.642 52.2477 204.642 51.5963H203.197C203.149 51.9731 203.079 52.2638 203.079 52.5546C203.068 54.0673 203.047 55.5801 203.079 57.0929C203.127 59.2894 204.432 60.3338 206.575 59.8708C207.402 59.6878 208.197 59.354 209.045 59.0741C209.254 60.0054 209.893 59.8547 210.532 59.6986C210.86 58.4227 210.806 52.5384 210.463 51.5801H209.158C209.158 53.3729 209.099 55.0149 209.179 56.6515V56.6461ZM139.285 54.1266C139.258 52.2638 138.291 51.2894 136.444 51.4348C135.44 51.5155 134.457 51.9031 133.415 52.1669C133.047 51.6393 132.506 51.4994 131.794 51.747C131.568 53.7389 131.654 58.8103 131.933 59.7255H133.168C133.2 59.2087 133.254 58.7457 133.26 58.2827C133.27 56.9852 133.281 55.6932 133.26 54.3957C133.249 53.8089 133.442 53.3729 133.99 53.1575C134.586 52.926 135.193 52.6461 135.816 52.5599C137.051 52.393 137.668 52.9637 137.706 54.2289C137.738 55.3486 137.717 56.4738 137.717 57.599C137.717 58.2773 137.717 58.9556 137.717 59.7093H139.295C139.295 57.7443 139.317 55.9354 139.29 54.1266H139.285ZM226.921 54.6488C226.895 53.8358 227.19 53.3136 227.915 53.0337C228.393 52.8453 228.881 52.6461 229.386 52.5653C230.729 52.35 231.421 52.9476 231.448 54.3311C231.475 55.7578 231.448 57.1844 231.459 58.6111C231.459 58.9772 231.529 59.3486 231.572 59.8062L232.984 59.6878C232.984 57.5398 233.054 55.5155 232.957 53.4967C232.898 52.2854 232.044 51.5424 230.831 51.4402C230.24 51.3917 229.622 51.4617 229.048 51.6017C228.387 51.7632 227.764 52.0593 227.125 52.2961C226.8 51.7147 226.243 51.5245 225.455 51.7255C225.445 54.3527 225.402 57.0014 225.482 59.7147H226.938C226.938 57.922 226.975 56.2854 226.921 54.6488ZM259.007 51.7739C258.647 51.634 258.266 51.5317 257.884 51.4832C256.456 51.2948 255.033 51.2625 253.739 52.0485C253.014 52.49 252.665 53.1575 252.745 54.0189C252.82 54.8264 253.255 55.4025 254.002 55.6824C254.523 55.8762 255.076 55.9893 255.624 56.1131C256.128 56.2315 256.649 56.28 257.143 56.4254C257.916 56.6515 258.217 57.0606 258.174 57.712C258.137 58.3419 257.755 58.8318 257.004 58.8803C256.112 58.9341 255.205 58.848 254.319 58.7188C253.782 58.6434 253.277 58.3796 252.745 58.1965C252.59 59.1387 252.573 59.241 253.239 59.4025C254.324 59.6663 255.43 59.8978 256.536 59.9516C257.192 59.9839 257.9 59.7363 258.523 59.4778C259.356 59.1333 259.715 58.3904 259.748 57.4967C259.774 56.5707 259.329 55.9085 258.502 55.5532C257.954 55.3163 257.353 55.1925 256.773 55.0472C256.273 54.9233 255.752 54.8641 255.253 54.7241C254.775 54.5896 254.378 54.3365 254.335 53.7659C254.292 53.1521 254.641 52.7322 255.167 52.603C255.828 52.4415 256.526 52.3661 257.202 52.393C257.879 52.42 258.545 52.6192 259.254 52.7484C259.522 52.21 259.382 51.9193 259.012 51.7739H259.007ZM212.954 59.3863C214.141 59.8116 215.36 60.1131 216.627 59.957C217.175 59.887 217.728 59.7309 218.238 59.5155C219.124 59.1387 219.516 58.3796 219.522 57.4428C219.522 56.5223 219.044 55.8708 218.217 55.5317C217.664 55.3056 217.068 55.1871 216.482 55.0418C215.983 54.9179 215.462 54.8587 214.968 54.7188C214.479 54.5788 214.136 54.2612 214.125 53.7013C214.109 53.1468 214.42 52.743 214.904 52.6407C215.607 52.4846 216.343 52.4092 217.057 52.4254C217.717 52.4415 218.378 52.6245 219.173 52.7537C219.076 52.3715 219.049 52.1293 218.952 51.9193C218.91 51.8224 218.748 51.7632 218.625 51.7309C217.009 51.2786 215.392 51.171 213.819 51.887C212.96 52.28 212.487 52.9583 212.53 53.9435C212.568 54.848 213.056 55.4778 214.06 55.8062C214.587 55.9785 215.156 56.0431 215.698 56.1669C216.203 56.28 216.719 56.3661 217.202 56.5384C217.685 56.7107 217.964 57.0929 217.97 57.6313C217.97 58.1642 217.717 58.568 217.229 58.7403C216.831 58.8803 216.38 59.0202 215.978 58.9664C214.839 58.8264 213.711 58.5896 212.476 58.3688C212.417 59.1656 212.407 59.2033 212.96 59.3971L212.954 59.3863ZM244.572 59.3163C246.301 59.9785 248.063 60.3177 249.862 59.5855C250.801 59.2033 251.258 58.4765 251.247 57.4536C251.236 56.3284 250.689 55.6447 249.394 55.2948C248.562 55.0687 247.708 54.9449 246.865 54.7511C246.328 54.6272 245.877 54.3473 245.845 53.7336C245.802 53.0606 246.264 52.673 246.833 52.5492C247.451 52.4092 248.111 52.3607 248.745 52.393C249.416 52.4307 250.087 52.6084 250.871 52.7484C250.85 52.4307 250.86 52.1939 250.801 51.9731C250.775 51.8762 250.613 51.7901 250.495 51.7578C248.75 51.2571 247.01 51.1118 245.34 52.0108C244.599 52.4092 244.207 53.0821 244.255 53.9328C244.309 54.7834 244.76 55.4079 245.571 55.6932C246.135 55.8924 246.736 55.9947 247.322 56.1293C247.826 56.2477 248.342 56.3231 248.831 56.4738C249.373 56.6407 249.684 57.0229 249.679 57.6313C249.679 58.2988 249.314 58.7834 248.712 58.821C247.741 58.8803 246.747 58.8049 245.775 58.6918C245.281 58.638 244.809 58.3796 244.325 58.2181C244.008 58.7188 244.057 59.1118 244.572 59.3109V59.3163ZM221.568 59.704H222.953V51.5909H221.568V59.704ZM222.969 48.7268H221.449C221.482 49.319 221.509 49.7928 221.535 50.2881C221.927 50.3204 222.174 50.3634 222.427 50.3581C222.588 50.3581 222.744 50.2881 222.969 50.2396V48.7268ZM181.057 47.5155C181.089 47.6878 181.369 47.817 181.54 47.9677C181.691 47.7955 181.943 47.6232 181.954 47.4455C181.959 47.284 181.691 47.1118 181.46 46.8426C181.272 47.1441 181.036 47.3486 181.062 47.5101L181.057 47.5155Z" fill="#1E1353"/>
</g>
<defs>
<clipPath id="clip0_847_1232">
<rect width="260" height="60" fill="white"/>
</clipPath>
</defs>
</svg>
