<svg width="161" height="161" viewBox="0 0 161 161" fill="none" xmlns="http://www.w3.org/2000/svg">
<path d="M149.578 73.353C149.578 73.7781 149.491 74.0882 149.305 74.2728C149.124 74.454 148.817 74.5446 148.387 74.5446H144.696H142.768C141.728 74.5446 140.974 74.3181 140.509 73.8652C140.045 73.4053 139.818 72.6597 139.818 71.6214V69.2383C139.818 68.2 140.045 67.4475 140.509 66.9945C140.974 66.5485 141.728 66.3221 142.768 66.3221H148.387C148.82 66.3221 149.124 66.4092 149.305 66.5938C149.487 66.7785 149.578 67.0747 149.578 67.5067V73.36V73.353ZM151.146 58.1867C150.598 58.1867 150.199 58.3643 149.955 58.7162C149.704 59.0751 149.578 59.4688 149.578 59.8939V62.2979C149.578 62.7299 149.491 63.0331 149.305 63.2142C149.124 63.3954 148.817 63.4895 148.387 63.4895H142.646C141.588 63.4895 140.687 63.601 139.936 63.8205C139.189 64.0469 138.578 64.3954 138.096 64.8762C137.614 65.3535 137.265 65.9702 137.041 66.7228C136.815 67.4684 136.703 68.3638 136.703 69.409V71.4368C136.703 72.482 136.815 73.3774 137.041 74.1265C137.261 74.8791 137.611 75.4923 138.096 75.9731C138.578 76.4539 139.186 76.8023 139.936 77.0288C140.684 77.2518 141.588 77.3598 142.646 77.3598H144.696H149.106C150.381 77.3598 151.296 77.0845 151.855 76.5306C152.41 75.9766 152.686 75.0672 152.686 73.7886V59.8869C152.686 59.4618 152.56 59.0681 152.316 58.7093C152.064 58.3574 151.68 58.1797 151.146 58.1797V58.1867Z" fill="#224188"/>
<path d="M114.912 63.1445C114.347 63.1445 113.837 63.4929 113.372 64.1828L108.302 72.0151C108.019 72.4402 107.782 72.6562 107.583 72.6562C107.384 72.6562 107.146 72.4402 106.863 72.0151L101.793 64.1828C101.329 63.4929 100.808 63.1445 100.225 63.1445C99.7606 63.1445 99.4149 63.2874 99.1844 63.5766C98.9504 63.8692 98.8352 64.1793 98.8352 64.5103C98.8352 64.8413 98.933 65.1618 99.1355 65.4719L105.446 75.1891C105.694 75.5828 105.694 75.9626 105.446 76.3284L102.837 80.3456C102.638 80.6731 102.537 80.9972 102.537 81.3073C102.537 81.6382 102.652 81.9483 102.886 82.241C103.12 82.5302 103.466 82.673 103.927 82.673C104.51 82.673 105.03 82.3246 105.494 81.6348L116.002 65.4719C116.201 65.1618 116.299 64.8343 116.299 64.5103C116.299 64.1863 116.184 63.8692 115.95 63.5766C115.716 63.2909 115.373 63.1445 114.909 63.1445" fill="#224188"/>
<path d="M94.327 71.618C94.327 72.6563 94.093 73.4019 93.6286 73.8618C93.1642 74.3147 92.4099 74.5412 91.3693 74.5412H89.1937H87.0217C85.9811 74.5412 85.2268 74.3147 84.7624 73.8618C84.2979 73.4019 84.064 72.6563 84.064 71.618V69.2349C84.064 68.1966 84.2979 67.444 84.7624 66.9911C85.2268 66.5451 85.9811 66.3187 87.0217 66.3187H91.3693C92.4099 66.3187 93.1642 66.5451 93.6286 66.9911C94.093 67.444 94.327 68.1966 94.327 69.2349V71.618ZM96.0381 64.8797C95.5562 64.3989 94.9451 64.0505 94.1978 63.824C93.454 63.6045 92.5531 63.493 91.488 63.493H86.896C85.8309 63.493 84.93 63.6045 84.1862 63.824C83.4389 64.0505 82.8278 64.3989 82.3459 64.8797C81.864 65.357 81.5148 65.9737 81.2878 66.7263C81.0643 67.4719 80.9561 68.3673 80.9561 69.4126V71.4403C80.9561 72.4856 81.0643 73.381 81.2878 74.1301C81.5148 74.8826 81.864 75.4958 82.3459 75.9766C82.8278 76.4575 83.4389 76.8059 84.1862 77.0323C84.93 77.2553 85.8309 77.3633 86.896 77.3633H91.488C92.5531 77.3633 93.454 77.2518 94.1978 77.0323C94.9451 76.8059 95.5562 76.4575 96.0381 75.9766C96.52 75.4958 96.8692 74.8826 97.0962 74.1301C97.3197 73.3775 97.4279 72.4821 97.4279 71.4403V69.4126C97.4279 68.3673 97.3197 67.4719 97.0962 66.7263C96.8692 65.9737 96.52 65.357 96.0381 64.8797V64.8797Z" fill="#224188"/>
<path d="M75.3234 70.3742C75.3234 71.5344 75.1418 72.4089 74.7682 72.9942C74.391 73.5795 73.8917 73.9907 73.2596 74.2206C72.9279 74.3356 72.6799 74.252 72.4949 73.9732L70.5324 71.1232C70.1657 70.625 69.8619 70.2487 69.614 69.9839C69.366 69.7191 69.0482 69.5867 68.6676 69.5867H68.6467C68.486 69.5937 68.3184 69.6251 68.1473 69.6878C67.9657 69.754 67.7981 69.848 67.6549 69.97C67.5048 70.0954 67.3825 70.2452 67.2883 70.4194C67.201 70.5971 67.1556 70.7888 67.1556 71.0048C67.1556 71.2974 67.2603 71.6075 67.4768 71.9211L68.6467 73.597L68.8946 73.9523C69.0273 74.1335 69.0622 74.2799 68.9959 74.3879C68.9365 74.4889 68.8178 74.5377 68.6467 74.5481H68.5978H66.1883C64.6972 74.5481 63.6181 74.2206 62.9582 73.5691C62.2947 72.9176 61.9629 71.8549 61.9629 70.3811V67.0155C61.9629 65.5626 62.2947 64.5069 62.9582 63.8414C63.6181 63.1829 64.6972 62.8519 66.1883 62.8519H71.1085C72.5996 62.8519 73.6682 63.1829 74.3317 63.8414C74.9952 64.5034 75.3234 65.5626 75.3234 67.0155V70.3811V70.3742ZM76.6923 61.7579C76.0951 61.1621 75.3234 60.7231 74.3841 60.4444C73.4412 60.1622 72.3168 60.0228 71.0108 60.0228H68.6502H66.2895C64.9661 60.0228 63.8347 60.1622 62.8988 60.4444C61.9629 60.7266 61.1912 61.1621 60.601 61.7614C60.0039 62.3537 59.5639 63.1202 59.2811 64.0644C58.9982 65.0051 58.8585 66.1305 58.8585 67.4301V69.9561C58.8585 71.2765 58.9947 72.4124 59.2811 73.3391C59.5639 74.2729 60.0004 75.0429 60.601 75.6317C61.1947 76.2275 61.9629 76.6665 62.8988 76.9452C63.8347 77.2274 64.9661 77.3668 66.2895 77.3668H68.6502H70.6127C70.8117 77.3668 70.9968 77.4016 71.1609 77.4539C71.3285 77.5096 71.4822 77.6594 71.6323 77.8859L73.0187 79.8963C73.3679 80.4049 73.6717 80.7917 73.9266 81.046C74.1815 81.3073 74.5028 81.4328 74.8834 81.4328C75.051 81.4328 75.2221 81.3979 75.4037 81.3317C75.5853 81.2655 75.7529 81.1714 75.9031 81.046C76.0532 80.9241 76.1685 80.7743 76.2628 80.6035C76.3501 80.4258 76.3955 80.2342 76.3955 80.0182C76.3955 79.722 76.2907 79.4154 76.0742 79.1019L74.9044 77.4156C74.8031 77.2832 74.7542 77.1508 74.7437 77.0219C74.7402 76.8895 74.838 76.778 75.0545 76.6943C76.1266 76.2623 76.9647 75.5167 77.5513 74.4506C78.138 73.3844 78.4348 71.8863 78.4348 69.9526V67.4266C78.4348 66.127 78.2951 65.0016 78.0123 64.0609C77.7294 63.1167 77.2929 62.3467 76.6923 61.7579V61.7579Z" fill="#224188"/>
<path d="M131.081 71.618C131.081 72.6563 130.847 73.4019 130.382 73.8618C129.918 74.3147 129.163 74.5412 128.123 74.5412H125.951H123.775C122.735 74.5412 121.98 74.3147 121.516 73.8618C121.051 73.4019 120.817 72.6563 120.817 71.618V69.2349C120.817 68.1966 121.051 67.444 121.516 66.9911C121.98 66.5451 122.735 66.3187 123.775 66.3187H128.123C129.163 66.3187 129.918 66.5451 130.382 66.9911C130.847 67.444 131.081 68.1966 131.081 69.2349V71.618V71.618ZM132.792 64.8797C132.313 64.3989 131.702 64.0505 130.951 63.824C130.211 63.6045 129.307 63.493 128.242 63.493H123.65C122.588 63.493 121.684 63.6045 120.94 63.824C120.192 64.0505 119.581 64.3989 119.099 64.8797C118.618 65.357 118.268 65.9737 118.041 66.7263C117.821 67.4719 117.71 68.3673 117.71 69.4126V71.4403C117.71 72.4856 117.821 73.381 118.041 74.1301C118.268 74.8826 118.618 75.4958 119.099 75.9766C119.581 76.4575 120.189 76.8059 120.94 77.0323C121.684 77.2553 122.584 77.3633 123.65 77.3633H128.242C129.307 77.3633 130.208 77.2518 130.951 77.0323C131.699 76.8059 132.313 76.4575 132.792 75.9766C133.274 75.4958 133.626 74.8826 133.85 74.1301C134.07 73.3775 134.181 72.4821 134.181 71.4403V69.4126C134.181 68.3673 134.07 67.4719 133.85 66.7263C133.63 65.9737 133.274 65.357 132.792 64.8797V64.8797Z" fill="#224188"/>
<path d="M149.892 44.8842C149.892 45.9225 149.662 46.6716 149.194 47.128C148.729 47.581 147.975 47.8074 146.934 47.8074H144.762H142.601C141.56 47.8074 140.806 47.581 140.341 47.128C139.877 46.6681 139.643 45.9225 139.643 44.8842V42.5011C139.643 41.4628 139.877 40.7103 140.341 40.2573C140.806 39.8114 141.56 39.5849 142.601 39.5849H144.776H146.934C147.975 39.5849 148.729 39.8114 149.194 40.2608C149.658 40.7138 149.892 41.4663 149.892 42.5046V44.8877V44.8842ZM82.0631 46.8458C82.0631 47.2778 81.9757 47.574 81.7907 47.7586C81.6056 47.9433 81.3018 48.0304 80.8723 48.0304H77.1812H75.2536C74.213 48.0304 73.4587 47.8039 72.9943 47.358C72.5298 46.905 72.3028 46.1525 72.3028 45.1142V42.7311C72.3028 41.6928 72.5298 40.9472 72.9943 40.4873C73.4587 40.0344 74.213 39.8079 75.2536 39.8079H77.1812H80.8723C81.3053 39.8079 81.6091 39.895 81.7907 40.0796C81.9723 40.2608 82.0631 40.5709 82.0631 40.996V46.8493V46.8458ZM152.665 39.9925C152.441 39.24 152.089 38.6233 151.607 38.146C151.132 37.6651 150.517 37.3167 149.766 37.0903C149.026 36.8708 148.122 36.7593 147.057 36.7593H144.762H142.479C141.413 36.7593 140.513 36.8708 139.769 37.0903C139.021 37.3167 138.41 37.6651 137.928 38.146C137.447 38.6198 137.097 39.24 136.87 39.9925C136.65 40.7381 136.539 41.6336 136.539 42.6788V44.7066C136.539 45.7518 136.65 46.6472 136.87 47.3998C136.895 47.4799 136.926 47.5496 136.951 47.6228H121.621C121.621 47.6228 121.607 47.6228 121.596 47.6228H119.69H116.749C116.334 47.6158 116.026 47.4172 115.838 47.0096L114.172 43.3164C114.172 43.3164 114.179 43.3164 114.183 43.3164L113.187 41.1109C113.034 40.7765 112.814 40.5152 112.541 40.341C112.262 40.1598 111.937 40.0901 111.564 40.1249C111.197 40.1633 110.89 40.3723 110.638 40.766C110.324 41.2538 110.334 41.8775 110.663 42.644L111.298 44.0446L112.402 46.48C112.608 46.9468 112.66 47.2639 112.552 47.4311C112.496 47.5182 112.384 47.581 112.22 47.6228H85.1744V40.55C85.1744 39.2748 84.8986 38.362 84.3433 37.808C83.7846 37.254 82.8697 36.9788 81.5951 36.9788H77.1847H75.1349C74.0768 36.9788 73.1724 37.0903 72.4251 37.3098C71.6778 37.5362 71.0667 37.8846 70.5848 38.3655C70.1029 38.8463 69.7537 39.4595 69.5337 40.212C69.3067 40.9646 69.1949 41.86 69.1949 42.9018V44.9295C69.1949 45.9748 69.3067 46.8702 69.5337 47.6158C69.7572 48.3684 70.1029 48.9851 70.5848 49.4624C71.0667 49.9432 71.6778 50.2916 72.4251 50.5181C73.1724 50.7376 74.0768 50.8491 75.1349 50.8491H77.1847H80.8758C81.3088 50.8491 81.6126 50.9431 81.7942 51.1243C81.9757 51.309 82.0665 51.6121 82.0665 52.0406V54.4447C82.0665 54.8697 82.1923 55.2634 82.4437 55.6223C82.6881 55.9742 83.0862 56.1519 83.6345 56.1519C84.1827 56.1519 84.5529 55.9742 84.8043 55.6223C85.0487 55.2634 85.1744 54.8697 85.1744 54.4447V50.5599H141.134C141.553 50.6017 142 50.6296 142.482 50.6296H144.78H147.06C148.125 50.6296 149.026 50.5181 149.77 50.2986C150.517 50.0721 151.132 49.7237 151.61 49.2429C152.092 48.7621 152.448 48.1489 152.668 47.3963C152.888 46.6437 153 45.7483 153 44.7066V42.6788C153 41.6336 152.888 40.7381 152.668 39.9925H152.665Z" fill="#224188"/>
<path d="M63.8312 50.5217C64.5785 50.2952 65.1896 49.9468 65.6715 49.466C66.1534 48.9852 66.5026 48.372 66.7295 47.6194C66.953 46.8668 67.0613 45.9714 67.0613 44.9262V42.8984C67.0613 41.8532 66.953 40.9577 66.7295 40.2121C66.5026 39.4596 66.1534 38.8429 65.6715 38.3656C65.1896 37.8848 64.5785 37.5363 63.8312 37.3099C63.0874 37.0904 62.1864 36.9789 61.1214 36.9789H58.8236V39.8045H60.9991C62.0398 39.8045 62.794 40.031 63.2585 40.4769C63.7229 40.9299 63.9569 41.6824 63.9569 42.7207V45.1039C63.9569 46.1421 63.7229 46.8877 63.2585 47.3476C62.794 47.8006 62.0398 48.027 60.9991 48.027H58.8236V50.8527H61.1214C62.1829 50.8527 63.0874 50.7412 63.8312 50.5217" fill="#224188"/>
<path d="M141.818 34.7525C141.962 34.9023 142.133 35.0207 142.328 35.1113C142.524 35.2019 142.73 35.2472 142.943 35.2472C143.156 35.2472 143.376 35.2019 143.571 35.1113C143.767 35.0207 143.945 34.9023 144.099 34.7525C144.252 34.6026 144.371 34.4319 144.458 34.2368C144.542 34.0417 144.584 33.8326 144.584 33.6062C144.584 33.3936 144.542 33.1916 144.458 32.993C144.375 32.7979 144.256 32.6237 144.099 32.4773C143.945 32.3275 143.767 32.2125 143.571 32.1254C143.376 32.0418 143.166 32 142.943 32C142.719 32 142.524 32.0418 142.328 32.1254C142.133 32.209 141.962 32.3275 141.818 32.4773C141.675 32.6271 141.56 32.7979 141.476 32.993C141.392 33.1881 141.347 33.3936 141.347 33.6062C141.347 33.8292 141.389 34.0382 141.476 34.2368C141.56 34.4354 141.675 34.6061 141.818 34.7525Z" fill="#224188"/>
<path d="M145.457 34.7525C145.6 34.9023 145.768 35.0207 145.96 35.1113C146.152 35.2019 146.358 35.2472 146.582 35.2472C146.805 35.2472 147.015 35.2019 147.214 35.1113C147.409 35.0207 147.584 34.9023 147.73 34.7525C147.881 34.6026 147.996 34.4319 148.08 34.2368C148.164 34.0417 148.209 33.8326 148.209 33.6062C148.209 33.3936 148.167 33.1916 148.08 32.993C147.992 32.7979 147.877 32.6237 147.73 32.4773C147.58 32.3275 147.409 32.2125 147.214 32.1254C147.015 32.0418 146.805 32 146.582 32C146.358 32 146.152 32.0418 145.96 32.1254C145.768 32.209 145.6 32.3275 145.457 32.4773C145.314 32.6271 145.199 32.7979 145.115 32.993C145.031 33.1881 144.989 33.3936 144.989 33.6062C144.989 33.8292 145.031 34.0382 145.115 34.2368C145.199 34.4354 145.314 34.6061 145.457 34.7525Z" fill="#224188"/>
<path d="M110.726 54.943C110.921 55.0336 111.127 55.0789 111.34 55.0789C111.553 55.0789 111.773 55.0336 111.969 54.943C112.164 54.8524 112.342 54.7339 112.496 54.5841C112.65 54.4343 112.768 54.2636 112.856 54.065C112.94 53.8699 112.985 53.6608 112.985 53.4378C112.985 53.2149 112.943 53.0198 112.856 52.8246C112.768 52.6295 112.65 52.4553 112.496 52.3055C112.342 52.1557 112.164 52.0407 111.969 51.9571C111.773 51.8735 111.564 51.8317 111.34 51.8317C111.117 51.8317 110.921 51.8735 110.726 51.9571C110.53 52.0407 110.359 52.1592 110.216 52.3055C110.073 52.4553 109.957 52.626 109.874 52.8246C109.79 53.0198 109.744 53.2253 109.744 53.4378C109.744 53.6504 109.786 53.8699 109.874 54.065C109.957 54.2636 110.073 54.4343 110.216 54.5841C110.359 54.7339 110.53 54.8524 110.726 54.943Z" fill="#224188"/>
<path d="M116.124 52.309C115.974 52.1592 115.803 52.0443 115.607 51.9606C115.408 51.877 115.199 51.8352 114.975 51.8352C114.752 51.8352 114.546 51.877 114.354 51.9606C114.162 52.0443 113.994 52.1627 113.851 52.309C113.708 52.4589 113.592 52.6296 113.509 52.8282C113.421 53.0233 113.383 53.2289 113.383 53.4414C113.383 53.6539 113.425 53.8734 113.509 54.0685C113.592 54.2671 113.708 54.4378 113.851 54.5877C113.994 54.7375 114.162 54.8559 114.354 54.9465C114.546 55.0371 114.752 55.0824 114.975 55.0824C115.199 55.0824 115.408 55.0371 115.607 54.9465C115.803 54.8559 115.974 54.7375 116.124 54.5877C116.274 54.4378 116.39 54.2671 116.477 54.0685C116.561 53.8734 116.603 53.6644 116.603 53.4414C116.603 53.2184 116.561 53.0233 116.477 52.8282C116.39 52.6331 116.274 52.4589 116.124 52.309Z" fill="#224188"/>
<path d="M30.5802 37.7384L30.5313 48.3615C29.7735 48.4347 29.0227 48.6228 28.3138 48.9259L23.191 39.6059C25.4504 38.477 27.9646 37.822 30.5802 37.7384" fill="#224188"/>
<path d="M45.4911 66.3918L37.3093 59.7197C37.5258 59.3956 37.7144 59.0612 37.875 58.7197L47.8517 62.2004C47.2686 63.6637 46.4829 65.0748 45.4911 66.3918" fill="#1A80B6"/>
<path d="M45.7948 59.9914L38.3393 57.3888C38.7339 55.7687 38.5593 54.051 37.8505 52.5354L44.6355 48.5112C46.5142 52.0302 46.9332 56.1728 45.7913 59.9914" fill="#224188"/>
<path d="M50.8024 43.2154L37.1241 51.3229C36.7679 50.8352 36.3419 50.3822 35.8495 49.985C34.6902 49.0408 33.3283 48.5112 31.9454 48.3649L32.0223 32.5017C36.9251 32.6689 41.8174 34.3796 45.903 37.7209C47.8691 39.3236 49.5033 41.1876 50.7989 43.2154" fill="#1A80B6"/>
<path d="M20.4811 37.6058L27.0741 49.6017C26.5049 49.9884 25.9811 50.4622 25.5236 51.0232C25.2058 51.4099 24.9369 51.821 24.71 52.2461L12.0234 47.0583C12.7637 45.4103 13.7275 43.8424 14.9253 42.3756C16.5316 40.4175 18.4208 38.8218 20.4811 37.6058" fill="#224188"/>
<path d="M9.47437 47.5392L24.1758 53.5493C23.6275 55.3576 23.8126 57.3191 24.6751 58.9985L11.3147 67.5694C7.68645 61.5384 6.99852 54.1311 9.47437 47.5392Z" fill="#1A80B6"/>
<path d="M15.0651 66.8412L25.4399 60.1865C25.7681 60.5942 26.1383 60.9774 26.5608 61.3189C26.6097 61.3572 26.6586 61.4025 26.711 61.4338L20.125 71.8409C18.138 70.4856 16.4235 68.7853 15.0686 66.8377" fill="#224188"/>
<path d="M20.5824 73.7537L27.9017 62.1899L27.9296 62.2004L28.0029 62.2387C28.0309 62.2492 28.0623 62.2666 28.0902 62.277C28.1182 62.2945 28.1461 62.3049 28.1741 62.3154C28.195 62.3258 28.2229 62.3398 28.2474 62.3502C28.2788 62.3676 28.3137 62.3781 28.3487 62.392L28.415 62.4199C28.4464 62.4303 28.4814 62.4478 28.5128 62.4582H28.5198L28.5791 62.4861C28.621 62.4965 28.6525 62.514 28.6909 62.5244L28.7293 62.5418C28.7747 62.5593 28.8201 62.5767 28.862 62.5871L28.9109 62.6045C28.9493 62.615 28.9842 62.6255 29.0156 62.6359L29.082 62.6568C29.1763 62.6847 29.2706 62.7126 29.3648 62.7335L29.4382 62.7544L29.522 62.7718C29.5569 62.7788 29.5848 62.7892 29.6093 62.7927C29.6407 62.7962 29.6756 62.8031 29.7105 62.8136H29.721L29.7874 62.831L29.8747 62.8484L29.9655 62.8589L30.0423 62.8763L30.1261 62.8868C30.1645 62.8902 30.2029 62.8972 30.2413 62.9042L30.3077 62.9112C30.3461 62.9146 30.381 62.9216 30.4194 62.9286H30.4578C30.5137 62.939 30.5696 62.939 30.6289 62.946H30.6324C30.6778 62.953 30.7162 62.9564 30.7616 62.9564L30.828 62.9634H30.9991C31.1527 62.9739 31.3099 62.9739 31.4635 62.9669H31.5369C31.5823 62.9634 31.6207 62.9564 31.6626 62.9564H31.7394L31.8023 62.946L31.8931 62.939C31.921 62.9321 31.9524 62.9321 31.9804 62.9286H32.0013L34.7879 76.3146C30.0004 77.1368 24.9614 76.3146 20.5859 73.7503" fill="#224188"/>
<path d="M51.8884 73.4333C47.9808 77.9591 42.886 80.8963 37.4454 82.168L33.3842 62.6464C34.4981 62.298 35.5457 61.6848 36.4152 60.8103L51.8884 73.4333V73.4333Z" fill="#1A80B6"/>
<path d="M16.7132 104.135H15.2186C15.0929 104.135 14.9777 104.024 14.9497 103.895L14.3002 101.222H11.0596L10.4101 103.895C10.3822 104.02 10.2704 104.135 10.1412 104.135H8.64664C8.50696 104.135 8.39172 104.038 8.39172 103.895C8.39172 103.881 8.40569 103.853 8.40569 103.825L10.7174 95.0067C11.0561 93.7002 12.0723 93.5713 12.6764 93.5713C13.2806 93.5713 14.2967 93.6967 14.6355 95.0067L16.9472 103.825C16.9472 103.853 16.9611 103.881 16.9611 103.895C16.9611 104.034 16.8494 104.135 16.7062 104.135H16.7132ZM12.9069 95.4423C12.865 95.2715 12.8231 95.2158 12.6799 95.2158C12.5368 95.2158 12.4983 95.2715 12.4529 95.4423L11.4368 99.6197H13.9196L12.9034 95.4423H12.9069Z" fill="#203979"/>
<path d="M22.9046 104.066C22.5799 104.149 21.9443 104.25 21.0853 104.25C19.252 104.25 17.8691 103.125 17.8691 100.832V99.5257C17.8691 97.2332 19.252 96.1078 21.0853 96.1078C21.9443 96.1078 22.5799 96.2053 22.9046 96.289C23.1456 96.3447 23.2015 96.4283 23.2015 96.6548V97.5676C23.2015 97.707 23.0897 97.7802 22.9465 97.7802H22.9046C22.3424 97.7105 22.0037 97.6826 21.0853 97.6826C20.4218 97.6826 19.7304 98.0624 19.7304 99.5257V100.832C19.7304 102.296 20.4218 102.675 21.0853 102.675C22.0002 102.675 22.3389 102.647 22.9046 102.578H22.9465C23.0862 102.578 23.2015 102.647 23.2015 102.79V103.703C23.2015 103.93 23.1456 104.013 22.9046 104.069V104.066Z" fill="#203979"/>
<path d="M29.5011 104.066C29.1763 104.149 28.5408 104.25 27.6817 104.25C25.8484 104.25 24.4656 103.125 24.4656 100.832V99.5257C24.4656 97.2332 25.8484 96.1078 27.6817 96.1078C28.5408 96.1078 29.1763 96.2053 29.5011 96.289C29.742 96.3447 29.7979 96.4283 29.7979 96.6548V97.5676C29.7979 97.707 29.6861 97.7802 29.543 97.7802H29.5011C28.9389 97.7105 28.6001 97.6826 27.6817 97.6826C27.0182 97.6826 26.3268 98.0624 26.3268 99.5257V100.832C26.3268 102.296 27.0182 102.675 27.6817 102.675C28.5966 102.675 28.9354 102.647 29.5011 102.578H29.543C29.6827 102.578 29.7979 102.647 29.7979 102.79V103.703C29.7979 103.93 29.742 104.013 29.5011 104.069V104.066Z" fill="#203979"/>
<path d="M34.4808 104.25C32.2668 104.25 31.111 102.759 31.111 100.749V99.6093C31.111 97.599 32.2668 96.1078 34.4808 96.1078C36.6947 96.1078 37.8506 97.599 37.8506 99.6093V100.749C37.8506 102.759 36.6947 104.25 34.4808 104.25ZM35.9893 99.6093C35.9893 98.4561 35.469 97.7105 34.4808 97.7105C33.4925 97.7105 32.9722 98.4561 32.9722 99.6093V100.749C32.9722 101.902 33.4925 102.647 34.4808 102.647C35.469 102.647 35.9893 101.902 35.9893 100.749V99.6093Z" fill="#203979"/>
<path d="M45.676 104.135H44.3805C44.2268 104.135 44.0976 104.01 44.0976 103.853V103.529C43.3643 104.006 42.7881 104.233 41.8837 104.233C41.1783 104.233 40.5567 104.052 40.1481 103.64C39.6278 103.121 39.4427 102.247 39.4427 101.08V96.4945C39.4427 96.3412 39.5685 96.1984 39.7256 96.1984H41.0211C41.1748 96.1984 41.304 96.3377 41.304 96.4945V101.08C41.304 101.783 41.3599 102.191 41.6288 102.431C41.8278 102.602 42.0653 102.686 42.5018 102.686C43.0221 102.686 43.6995 102.334 44.0941 102.121V96.4945C44.0941 96.3412 44.2198 96.1984 44.377 96.1984H45.6725C45.8262 96.1984 45.9554 96.3377 45.9554 96.4945V103.853C45.9554 104.006 45.8297 104.135 45.6725 104.135H45.676Z" fill="#203979"/>
<path d="M54.0255 104.135H52.73C52.5764 104.135 52.4472 103.996 52.4472 103.839V99.254C52.4472 98.031 52.3354 97.6791 51.2494 97.6791C50.771 97.6791 50.2472 97.8777 49.657 98.1843V103.839C49.657 103.992 49.5313 104.135 49.3742 104.135H48.0786C47.925 104.135 47.7958 103.996 47.7958 103.839V96.4806C47.7958 96.3273 47.9215 96.1984 48.0786 96.1984H49.3043C49.458 96.1984 49.5872 96.3238 49.5872 96.4806V96.7768C50.4043 96.2576 50.9421 96.1008 51.871 96.1008C53.8998 96.1008 54.3084 97.4666 54.3084 99.2505V103.836C54.3084 103.989 54.1827 104.132 54.0255 104.132V104.135Z" fill="#203979"/>
<path d="M60.3146 104.149C59.9759 104.205 59.6651 104.247 59.3543 104.247C57.7619 104.247 57.1124 103.895 57.1124 102.01V97.592L55.789 97.3934C55.6353 97.3656 55.5061 97.268 55.5061 97.1112V96.4771C55.5061 96.3238 55.6318 96.1949 55.789 96.1949H57.1124V95.0416C57.1124 94.8883 57.2381 94.7873 57.3953 94.7594L58.7048 94.533H58.7607C58.8864 94.533 58.9877 94.6026 58.9877 94.7455V96.1949H60.2553C60.4089 96.1949 60.5381 96.3203 60.5381 96.4771V97.3063C60.5381 97.4596 60.4124 97.5885 60.2553 97.5885H58.9877V102.006C58.9877 102.71 59.0296 102.794 59.5359 102.794H60.2832C60.4648 102.794 60.58 102.863 60.58 103.006V103.891C60.58 104.031 60.4962 104.118 60.3111 104.146L60.3146 104.149Z" fill="#203979"/>
<path d="M63.5134 95.1461H62.1445C61.9908 95.1461 61.8477 95.0207 61.8477 94.8639V93.6271C61.8477 93.4738 61.9873 93.3448 62.1445 93.3448H63.5134C63.667 93.3448 63.7962 93.4703 63.7962 93.6271V94.8639C63.7962 95.0172 63.6705 95.1461 63.5134 95.1461ZM63.4714 104.135H62.1759C62.0223 104.135 61.8931 103.996 61.8931 103.839V96.4806C61.8931 96.3273 62.0188 96.1983 62.1759 96.1983H63.4714C63.6251 96.1983 63.7543 96.3238 63.7543 96.4806V103.839C63.7543 103.992 63.6286 104.135 63.4714 104.135Z" fill="#203979"/>
<path d="M71.8628 104.135H70.5673C70.4136 104.135 70.2844 103.996 70.2844 103.839V99.254C70.2844 98.031 70.1727 97.6791 69.0867 97.6791C68.6083 97.6791 68.0845 97.8777 67.4943 98.1843V103.839C67.4943 103.992 67.3686 104.135 67.2114 104.135H65.9159C65.7623 104.135 65.6331 103.996 65.6331 103.839V96.4806C65.6331 96.3273 65.7588 96.1984 65.9159 96.1984H67.1416C67.2953 96.1984 67.4245 96.3238 67.4245 96.4806V96.7768C68.2416 96.2576 68.7794 96.1008 69.7082 96.1008C71.7371 96.1008 72.1457 97.4666 72.1457 99.2505V103.836C72.1457 103.989 72.02 104.132 71.8628 104.132V104.135Z" fill="#203979"/>
<path d="M80.6731 97.4839L80.2086 97.6686C80.4356 97.9926 80.5613 98.3027 80.5613 98.794V98.8915C80.5613 100.651 79.3496 101.452 77.2194 101.452C76.4722 101.452 75.9658 101.327 75.683 101.212C75.5153 101.323 75.442 101.452 75.442 101.578C75.442 101.86 75.5957 101.971 75.9204 102.041L77.5826 102.435C79.4997 102.884 80.7394 103.18 80.7394 104.686V104.783C80.7394 106.219 79.6813 106.992 77.2858 106.992C74.8903 106.992 73.7903 106.135 73.7903 104.658V104.532C73.7903 103.954 74.0592 103.393 74.5096 102.985C74.115 102.689 73.8741 102.198 73.8741 101.693V101.679C73.8741 101.243 74.0557 100.808 74.4363 100.54C74.0138 100.104 73.8566 99.5953 73.8566 98.895V98.7974C73.8566 97.3899 74.7715 96.2087 77.2125 96.2087H80.5124C80.7254 96.2087 80.8931 96.376 80.8931 96.5885V97.1808C80.8931 97.3933 80.8372 97.4212 80.6661 97.4909L80.6731 97.4839ZM78.8817 104.686C78.8817 104.376 78.7001 104.194 77.2194 103.842L75.9658 103.546C75.7528 103.842 75.6131 104.024 75.6131 104.532V104.658C75.6131 105.236 75.9658 105.585 77.2893 105.585C78.6128 105.585 78.8817 105.288 78.8817 104.783V104.686V104.686ZM78.728 98.8183C78.728 98.1424 78.4312 97.6233 77.2194 97.6233C76.0077 97.6233 75.6969 98.1564 75.6969 98.8183V98.9298C75.6969 99.449 75.9099 100.041 77.2194 100.041C78.3893 100.041 78.728 99.6336 78.728 98.9298V98.8183Z" fill="#203979"/>
<path d="M88.5162 104.25C87.4581 104.25 86.6968 104.153 86.0194 103.996C85.8797 103.968 85.7505 103.87 85.7505 103.714V102.7C85.7505 102.546 85.8762 102.431 86.0194 102.431H86.0473C86.613 102.501 88.0203 102.571 88.5441 102.571C89.7977 102.571 90.1784 102.121 90.1784 101.306C90.1784 100.759 89.9095 100.477 88.9806 99.9264L87.1194 98.815C85.8099 98.0415 85.4572 97.2262 85.4572 96.2402C85.4572 94.6932 86.3581 93.5679 88.9806 93.5679C89.913 93.5679 91.2085 93.7072 91.6869 93.8222C91.8266 93.8501 91.9418 93.9476 91.9418 94.0905V95.1322C91.9418 95.2716 91.8441 95.3866 91.7009 95.3866H91.673C90.7406 95.303 89.8117 95.2472 88.8968 95.2472C87.8527 95.2472 87.4162 95.613 87.4162 96.2472C87.4162 96.7105 87.6571 96.9928 88.572 97.498L90.2657 98.4422C91.8161 99.2992 92.2247 100.202 92.2247 101.313C92.2247 102.735 91.3377 104.254 88.5162 104.254V104.25Z" fill="#203979"/>
<path d="M95.4374 95.1461H94.0685C93.9149 95.1461 93.7717 95.0207 93.7717 94.8639V93.6271C93.7717 93.4738 93.9114 93.3448 94.0685 93.3448H95.4374C95.5911 93.3448 95.7203 93.4703 95.7203 93.6271V94.8639C95.7203 95.0172 95.5946 95.1461 95.4374 95.1461ZM95.3955 104.135H94.1C93.9463 104.135 93.8171 103.996 93.8171 103.839V96.4806C93.8171 96.3273 93.9428 96.1983 94.1 96.1983H95.3955C95.5492 96.1983 95.6784 96.3238 95.6784 96.4806V103.839C95.6784 103.992 95.5527 104.135 95.3955 104.135Z" fill="#203979"/>
<path d="M107.394 104.135H106.099C105.945 104.135 105.816 103.996 105.816 103.839V99.0553C105.816 97.9717 105.589 97.6895 104.8 97.6895C104.531 97.6895 103.996 97.7732 103.49 98.0414C103.532 98.3515 103.546 98.7034 103.546 99.0553V103.839C103.546 103.992 103.42 104.135 103.263 104.135H101.968C101.814 104.135 101.685 103.996 101.685 103.839V99.0553C101.685 97.9717 101.503 97.6895 100.71 97.6895C100.414 97.6895 99.991 97.8428 99.4148 98.1529V103.836C99.4148 103.989 99.2891 104.132 99.132 104.132H97.8364C97.6828 104.132 97.5536 103.992 97.5536 103.836V96.4771C97.5536 96.3238 97.6793 96.1948 97.8364 96.1948H99.0621C99.2158 96.1948 99.345 96.3203 99.345 96.4771V96.7732C99.9386 96.3934 100.529 96.0973 101.36 96.0973C102.191 96.0973 102.683 96.3377 103.008 96.7314C103.727 96.3377 104.363 96.0973 105.334 96.0973C107.251 96.0973 107.673 97.4038 107.673 99.0518V103.836C107.673 103.989 107.548 104.132 107.391 104.132L107.394 104.135Z" fill="#203979"/>
<path d="M112.726 104.25C112.388 104.25 111.895 104.222 111.371 104.153V106.644C111.371 106.797 111.246 106.926 111.089 106.926H109.793C109.639 106.926 109.51 106.801 109.51 106.644V96.8534C109.51 96.6409 109.566 96.5572 109.891 96.4736C110.764 96.2472 111.822 96.1078 112.726 96.1078C114.996 96.1078 116.096 97.4422 116.096 99.6372V100.721C116.096 102.916 114.996 104.25 112.726 104.25ZM114.235 99.6372C114.235 98.484 113.938 97.6269 112.726 97.6269C112.22 97.6269 111.64 97.6687 111.371 97.7244V102.634C111.766 102.689 112.388 102.731 112.726 102.731C113.938 102.731 114.235 101.874 114.235 100.721V99.6372V99.6372Z" fill="#203979"/>
<path d="M119.312 104.135H118.003C117.849 104.135 117.72 103.996 117.72 103.839V93.7107C117.72 93.5574 117.846 93.4285 118.003 93.4285H119.312C119.466 93.4285 119.581 93.5539 119.581 93.7107V103.839C119.581 103.992 119.47 104.135 119.312 104.135Z" fill="#203979"/>
<path d="M123.147 95.1461H121.778C121.624 95.1461 121.481 95.0207 121.481 94.8639V93.6271C121.481 93.4738 121.621 93.3448 121.778 93.3448H123.147C123.3 93.3448 123.43 93.4703 123.43 93.6271V94.8639C123.43 95.0172 123.304 95.1461 123.147 95.1461ZM123.105 104.135H121.809C121.656 104.135 121.526 103.996 121.526 103.839V96.4806C121.526 96.3273 121.652 96.1983 121.809 96.1983H123.105C123.258 96.1983 123.388 96.3238 123.388 96.4806V103.839C123.388 103.992 123.262 104.135 123.105 104.135Z" fill="#203979"/>
<path d="M129.422 94.6689H128.786C128.109 94.6689 127.955 94.8222 127.955 95.512V96.2019H132.369C132.523 96.2019 132.652 96.3273 132.652 96.4841V103.843C132.652 103.996 132.526 104.139 132.369 104.139H131.073C130.92 104.139 130.791 103.999 130.791 103.843V97.5955H127.955V103.843C127.955 103.996 127.829 104.139 127.672 104.139H126.391C126.237 104.139 126.094 103.999 126.094 103.843V97.5955L124.84 97.3969C124.687 97.3691 124.557 97.2855 124.557 97.1287V96.4806C124.557 96.3273 124.683 96.1984 124.84 96.1984H126.094V95.5086C126.094 93.6933 127.068 93.2578 128.531 93.2578C128.87 93.2578 129.111 93.3136 129.376 93.3693C129.488 93.3972 129.631 93.4669 129.631 93.5958V94.425C129.631 94.5922 129.52 94.6654 129.418 94.6654L129.422 94.6689ZM132.411 95.1462H131.042C130.888 95.1462 130.745 95.0208 130.745 94.864V93.6271C130.745 93.4738 130.885 93.3449 131.042 93.3449H132.411C132.565 93.3449 132.694 93.4703 132.694 93.6271V94.864C132.694 95.0173 132.568 95.1462 132.411 95.1462Z" fill="#203979"/>
<path d="M140.746 100.818H136.151V100.86C136.151 101.676 136.49 102.648 137.841 102.648C138.871 102.648 139.842 102.564 140.436 102.508H140.477C140.617 102.508 140.732 102.578 140.732 102.721V103.651C140.732 103.877 140.69 103.975 140.436 104.017C139.521 104.184 138.969 104.257 137.701 104.257C136.29 104.257 134.29 103.498 134.29 100.728V99.6861C134.29 97.4911 135.515 96.1149 137.673 96.1149C139.831 96.1149 141.029 97.5921 141.029 99.6861V100.474C141.029 100.7 140.945 100.825 140.746 100.825V100.818ZM139.154 99.4387C139.154 98.3412 138.546 97.7071 137.673 97.7071C136.8 97.7071 136.165 98.3273 136.165 99.4387V99.4945H139.154V99.4387Z" fill="#203979"/>
<path d="M148.544 103.884C147.671 104.111 146.613 104.25 145.709 104.25C143.439 104.25 142.339 102.912 142.339 100.721V99.6372C142.339 97.4422 143.439 96.1078 145.709 96.1078C146.047 96.1078 146.54 96.1357 147.063 96.2054V93.7142C147.063 93.5609 147.189 93.432 147.346 93.432H148.642C148.796 93.432 148.925 93.5574 148.925 93.7142V103.505C148.925 103.717 148.869 103.801 148.544 103.884ZM147.063 97.7244C146.669 97.6687 146.047 97.6269 145.709 97.6269C144.497 97.6269 144.2 98.484 144.2 99.6372V100.721C144.2 101.874 144.497 102.731 145.709 102.731C146.215 102.731 146.795 102.689 147.063 102.634V97.7244V97.7244Z" fill="#203979"/>
<path d="M152.392 100.846C152.392 101 152.267 101.128 152.109 101.128H151.195C151.041 101.128 150.898 101.003 150.898 100.846L150.685 93.7003C150.685 93.5609 150.824 93.432 150.982 93.432H152.319C152.473 93.432 152.602 93.5574 152.602 93.7003L152.389 100.846H152.392ZM152.281 104.181H151.013C150.859 104.181 150.744 104.055 150.744 103.898V102.31C150.744 102.156 150.856 102.041 151.013 102.041H152.281C152.434 102.041 152.549 102.153 152.549 102.31V103.898C152.549 104.052 152.438 104.181 152.281 104.181Z" fill="#203979"/>
<path d="M10.4556 121.078C10.4556 121.152 10.4277 121.225 10.3683 121.284C10.309 121.343 10.2356 121.371 10.1623 121.371H9.21248C9.13914 121.371 9.06581 121.343 9.00645 121.284C8.93311 121.225 8.90518 121.152 8.90518 121.078L8.68518 113.664C8.68518 113.591 8.71312 113.518 8.78645 113.459C8.84581 113.413 8.91915 113.386 8.99248 113.386H10.3823C10.4556 113.386 10.529 113.413 10.5883 113.459C10.6477 113.518 10.6756 113.591 10.6756 113.664L10.4556 121.078V121.078ZM10.6163 124.246C10.6163 124.319 10.5883 124.392 10.5429 124.451C10.4836 124.51 10.4102 124.538 10.3369 124.538H9.02041C8.94708 124.538 8.87375 124.51 8.83185 124.451C8.77248 124.392 8.74454 124.319 8.74454 124.246V122.598C8.74454 122.409 8.83185 122.319 9.02391 122.319H10.3404C10.529 122.319 10.6198 122.406 10.6198 122.598V124.246H10.6163ZM14.7124 120.145C14.873 120.145 14.9603 120.246 14.9603 120.437C14.9464 120.657 14.9324 120.859 14.9149 121.065C14.901 121.284 14.901 121.458 14.901 121.605C14.901 122.145 14.9289 122.639 15.0022 123.078C15.0756 123.531 15.2083 123.911 15.4248 124.218C15.6448 124.538 15.9381 124.786 16.3327 124.963C16.7273 125.141 17.2406 125.225 17.8832 125.225C18.0438 125.225 18.2359 125.225 18.4384 125.211C18.627 125.197 18.819 125.183 18.9797 125.137C18.9936 124.657 18.9936 124.246 19.0076 123.897V113.696C19.0076 113.609 19.0355 113.535 19.0949 113.476C19.1543 113.417 19.2276 113.389 19.3009 113.389H20.6174C20.7047 113.389 20.7781 113.417 20.8374 113.476C20.8828 113.535 20.9108 113.609 20.9108 113.696V122.625H22.1993V124.493H20.9108C20.8968 124.813 20.8968 125.165 20.8828 125.528C20.8688 125.89 20.8549 126.2 20.8374 126.475C20.8235 126.65 20.7187 126.754 20.5162 126.796C20.1355 126.883 19.713 126.956 19.259 127.001C18.7911 127.047 18.3371 127.075 17.8832 127.075C16.2594 127.075 15.0616 126.695 14.2864 125.949C13.5112 125.204 13.1166 124.037 13.1166 122.462C13.1166 122.361 13.1166 122.214 13.1305 122.054C13.1445 121.894 13.1585 121.702 13.1759 121.514L13.2213 120.946C13.2353 120.758 13.2667 120.594 13.2947 120.434C13.3086 120.333 13.34 120.26 13.382 120.214C13.4239 120.169 13.4832 120.141 13.588 120.141H14.7159L14.7124 120.145ZM22.098 124.493C21.9968 124.493 21.878 124.479 21.7768 124.448C21.6755 124.416 21.6161 124.374 21.6161 124.315V122.796C21.6161 122.751 21.6755 122.709 21.7768 122.664C21.878 122.636 21.9968 122.618 22.098 122.618H25.3456V124.486H22.098V124.493ZM25.2444 124.493C25.1431 124.493 25.0244 124.479 24.9231 124.448C24.8218 124.416 24.7625 124.374 24.7625 124.315V122.796C24.7625 122.751 24.8218 122.709 24.9231 122.664C25.0244 122.636 25.1431 122.618 25.2444 122.618H28.4919V124.486H25.2444V124.493ZM28.3907 124.493C28.2894 124.493 28.1707 124.479 28.0694 124.448C27.9681 124.416 27.9088 124.374 27.9088 124.315V122.796C27.9088 122.751 27.9681 122.709 28.0694 122.664C28.1707 122.636 28.2894 122.618 28.3907 122.618H31.6382V124.486H28.3907V124.493ZM31.537 124.493C31.4357 124.493 31.317 124.479 31.2157 124.448C31.1144 124.416 31.0551 124.374 31.0551 124.315V122.796C31.0551 122.751 31.1144 122.709 31.2157 122.664C31.317 122.636 31.4357 122.618 31.537 122.618H34.7846V124.486H31.537V124.493ZM34.6833 124.493C34.582 124.493 34.4633 124.479 34.362 124.448C34.2608 124.416 34.2014 124.374 34.2014 124.329V122.782C34.2014 122.737 34.2608 122.695 34.362 122.664C34.4633 122.632 34.582 122.618 34.6833 122.618H36.1604V118.138C36.1604 117.992 36.2058 117.877 36.2931 117.803C36.3804 117.73 36.4991 117.671 36.6458 117.629C36.9671 117.528 37.3198 117.455 37.7144 117.424C38.109 117.392 38.4896 117.378 38.8563 117.378C39.4115 117.378 39.9108 117.438 40.3613 117.553C40.8118 117.668 41.1959 117.845 41.5172 118.093C41.8384 118.34 42.0864 118.661 42.2645 119.054C42.4251 119.448 42.5124 119.929 42.5124 120.469V120.862C42.5124 121.023 42.4984 121.155 42.4845 121.27C42.4565 121.531 42.4111 121.782 42.3378 122.016C42.2645 122.249 42.1772 122.483 42.0445 122.702C42.2051 122.657 42.3657 122.643 42.5264 122.629C42.687 122.615 42.8616 122.615 43.0397 122.615H43.6403V124.482H42.8511C42.6626 124.482 42.5299 124.496 42.4705 124.51V124.949C42.4251 127.109 41.4019 128.19 39.3975 128.19C38.7969 128.19 38.2871 128.116 37.875 127.97C37.4629 127.824 37.1277 127.604 36.8798 127.329C36.6318 127.054 36.4398 126.702 36.3385 126.294C36.2198 125.887 36.1639 125.42 36.1639 124.88V124.486H34.6868L34.6833 124.493ZM39.8026 124.333C39.5826 124.378 39.3067 124.42 38.982 124.434C38.6467 124.462 38.3255 124.479 37.9867 124.493V124.772C37.9867 125.385 38.088 125.824 38.294 126.113C38.4826 126.392 38.8493 126.535 39.3766 126.535C39.9039 126.535 40.2251 126.402 40.3997 126.127C40.5743 125.866 40.6791 125.441 40.6931 124.873C40.707 124.754 40.707 124.611 40.721 124.451C40.721 124.291 40.735 124.145 40.7664 124.012C40.5045 124.145 40.1797 124.259 39.8026 124.333V124.333ZM38.8213 122.639C39.5232 122.639 40.0051 122.465 40.2705 122.127C40.5359 121.789 40.6651 121.34 40.6651 120.768V120.563C40.6651 119.964 40.5045 119.556 40.1832 119.336C39.862 119.117 39.422 119.016 38.8667 119.016C38.6782 119.016 38.5315 119.016 38.3988 119.03L38.0042 119.075V122.636H38.8248L38.8213 122.639ZM43.5321 124.493C43.4308 124.493 43.3121 124.479 43.2108 124.448C43.1095 124.416 43.0502 124.374 43.0502 124.315V122.796C43.0502 122.751 43.1095 122.709 43.2108 122.664C43.3121 122.636 43.4308 122.618 43.5321 122.618H46.7797V124.486H43.5321V124.493ZM46.6784 124.493C46.5771 124.493 46.4584 124.479 46.3571 124.448C46.2558 124.416 46.1965 124.374 46.1965 124.315V122.796C46.1965 122.751 46.2558 122.709 46.3571 122.664C46.4584 122.636 46.5771 122.618 46.6784 122.618H49.926V124.486H46.6784V124.493ZM49.8247 124.493C49.7234 124.493 49.6047 124.479 49.5034 124.448C49.4022 124.416 49.3428 124.374 49.3428 124.315V122.796C49.3428 122.751 49.4022 122.709 49.5034 122.664C49.6047 122.636 49.7234 122.618 49.8247 122.618H53.0723V124.486H49.8247V124.493ZM52.971 124.493C52.8697 124.493 52.751 124.479 52.6497 124.448C52.5485 124.416 52.4891 124.374 52.4891 124.315V122.796C52.4891 122.751 52.5485 122.709 52.6497 122.664C52.751 122.636 52.8697 122.618 52.971 122.618H56.2186V124.486H52.971V124.493ZM56.1173 124.493C56.0161 124.493 55.8973 124.479 55.7961 124.448C55.6948 124.416 55.6354 124.374 55.6354 124.315V122.796C55.6354 122.751 55.6948 122.709 55.7961 122.664C55.8973 122.636 56.0161 122.618 56.1173 122.618H59.3649V124.486H56.1173V124.493ZM59.2636 124.493C59.1624 124.493 59.0436 124.479 58.9424 124.448C58.8411 124.416 58.7817 124.374 58.7817 124.315V122.796C58.7817 122.751 58.8411 122.709 58.9424 122.664C59.0436 122.636 59.1624 122.618 59.2636 122.618H62.5112V124.486H59.2636V124.493ZM61.9246 122.8C61.9246 122.754 61.9839 122.713 62.0852 122.667C62.1865 122.639 62.3052 122.622 62.4065 122.622H62.8744C63.063 122.622 63.241 122.594 63.4296 122.535C63.6042 122.49 63.6915 122.347 63.6915 122.127V119.166C63.6915 119.079 63.7195 119.005 63.7788 118.946C63.8382 118.887 63.9115 118.859 63.9848 118.859H65.228C65.3013 118.859 65.3747 118.887 65.434 118.946C65.4794 119.005 65.5074 119.079 65.5074 119.166V122.42C65.5353 122.479 65.5947 122.521 65.668 122.552C65.7413 122.598 65.8286 122.625 65.9159 122.639C66.0032 122.653 66.0905 122.667 66.1953 122.667C66.2826 122.681 66.3559 122.681 66.4293 122.681H66.6493C66.7366 122.681 66.8239 122.681 66.9286 122.667C67.0159 122.653 67.1032 122.639 67.1766 122.594C67.2499 122.566 67.3232 122.521 67.3651 122.448C67.4105 122.389 67.4385 122.301 67.4385 122.2V118.64C67.4385 118.566 67.4664 118.493 67.5258 118.434C67.5851 118.389 67.6585 118.361 67.7318 118.361H68.961C69.0343 118.361 69.1076 118.389 69.167 118.434C69.2264 118.493 69.2543 118.566 69.2543 118.64V122.42C69.3137 122.538 69.4429 122.608 69.6489 122.639C69.8549 122.671 70.0575 122.685 70.2495 122.685H70.5848C70.8187 122.685 70.9794 122.671 71.0527 122.625C71.126 122.58 71.1714 122.451 71.1714 122.218V119.169C71.1575 118.803 71.1575 118.441 71.1435 118.089C71.1435 118.016 71.1714 117.957 71.2168 117.901C71.2622 117.845 71.3356 117.814 71.4229 117.814H72.666C72.7673 117.814 72.8546 117.842 72.9 117.887C72.9454 117.946 72.9733 118.019 72.9733 118.093C72.9873 118.413 72.9873 118.72 73.0012 118.998C73.0012 119.277 73.0013 119.552 73.0152 119.8V123.009C73.0013 123.315 72.9873 123.608 72.9559 123.883C72.9419 123.97 72.9105 124.043 72.8686 124.117C72.8267 124.19 72.7498 124.263 72.6346 124.305C72.4286 124.364 72.1806 124.406 71.8873 124.423C71.594 124.451 71.2727 124.469 70.9375 124.469H70.7489C70.4137 124.469 70.033 124.441 69.6384 124.381C69.2438 124.336 68.8911 124.207 68.6153 124.002C68.3953 124.19 68.1194 124.308 67.8121 124.381C67.4908 124.455 67.1556 124.5 66.8169 124.5H66.6283C66.2616 124.5 65.9264 124.472 65.6191 124.399C65.3118 124.326 65.0185 124.193 64.7566 124.005C64.5086 124.193 64.2014 124.326 63.8487 124.399C63.482 124.472 63.1468 124.5 62.8115 124.5H62.4169C62.3157 124.5 62.1969 124.486 62.0957 124.455C61.9944 124.423 61.935 124.381 61.935 124.322V122.803L61.9246 122.8ZM75.0022 113.33C74.8415 113.33 74.7682 113.271 74.7682 113.156V112.734C74.7682 112.633 74.8415 112.588 75.0022 112.588H75.2815C75.2082 112.469 75.1488 112.34 75.1069 112.194C75.065 112.048 75.0476 111.901 75.0476 111.755C75.0476 110.936 75.5295 110.529 76.5107 110.529C76.5841 110.529 76.6993 110.529 76.832 110.542C76.9647 110.556 77.0799 110.57 77.1987 110.616C77.2999 110.63 77.3593 110.689 77.3593 110.762V111.156C77.3593 111.257 77.2999 111.302 77.1707 111.302H76.6574C76.4095 111.302 76.2174 111.347 76.1022 111.434C75.9869 111.522 75.9276 111.668 75.9276 111.887C75.9276 112.048 75.9555 112.194 76.0149 112.309C76.0742 112.441 76.1476 112.528 76.2349 112.57H77.258C77.4187 112.57 77.492 112.616 77.492 112.717V113.156C77.492 113.274 77.4187 113.33 77.258 113.33H75.0057H75.0022ZM75.2641 114.689C75.2641 114.615 75.292 114.542 75.3514 114.483C75.3968 114.424 75.4701 114.396 75.5574 114.396H76.8739C76.9612 114.396 77.0345 114.424 77.0939 114.483C77.1393 114.542 77.1672 114.615 77.1672 114.689V124.19C77.1672 124.263 77.1393 124.336 77.0939 124.395C77.0345 124.469 76.9612 124.496 76.8739 124.496H75.5574C75.4701 124.496 75.3968 124.469 75.3514 124.395C75.292 124.336 75.2641 124.263 75.2641 124.19V114.689ZM82.7964 120.991C82.7964 119.838 83.1316 118.95 83.8056 118.305C84.4621 117.678 85.4433 117.357 86.7319 117.357C87.1125 117.357 87.5071 117.371 87.9017 117.417C88.2963 117.462 88.6036 117.504 88.8236 117.577C88.9249 117.605 88.9982 117.636 89.0296 117.678C89.0611 117.72 89.075 117.779 89.075 117.852V121.852C89.075 122.173 89.1484 122.378 89.295 122.479C89.4417 122.58 89.6757 122.625 89.9969 122.625H90.3915V124.493H89.7176C89.2042 124.493 88.7957 124.434 88.4744 124.305C88.1531 124.176 87.9052 123.97 87.7446 123.678C87.556 123.866 87.2906 124.012 86.9693 124.117C86.6341 124.218 86.2954 124.277 85.9601 124.277H85.7716C85.363 124.277 84.9824 124.218 84.6157 124.103C84.2491 124.002 83.9418 123.824 83.6799 123.577C83.4005 123.329 83.198 123.023 83.0373 122.643C82.8767 122.263 82.8034 121.81 82.8034 121.284V120.991H82.7964ZM83.8789 114.497C83.8789 114.396 83.9068 114.323 83.9802 114.25C84.0535 114.19 84.1268 114.163 84.2281 114.163H85.2373C85.3386 114.163 85.4259 114.19 85.4992 114.25C85.5725 114.323 85.6005 114.396 85.6005 114.497V115.636C85.6005 115.723 85.5551 115.797 85.4817 115.856C85.4084 115.929 85.3211 115.957 85.2338 115.957H84.2246C84.1233 115.957 84.05 115.929 83.9767 115.856C83.9033 115.797 83.8754 115.723 83.8754 115.636V114.497H83.8789ZM84.6402 120.932C84.6402 121.486 84.7414 121.88 84.9614 122.113C85.1814 122.347 85.5027 122.465 85.9567 122.465H86.1767C86.5119 122.465 86.7633 122.406 86.9519 122.305C87.1405 122.204 87.2312 122.026 87.2312 121.81V119.082C87.1719 119.068 87.0706 119.068 86.91 119.054H86.5293C85.9287 119.054 85.4748 119.187 85.1395 119.462C84.8043 119.737 84.6437 120.162 84.6437 120.73V120.936L84.6402 120.932ZM86.5852 114.497C86.5852 114.396 86.6306 114.323 86.7039 114.25C86.7773 114.19 86.8506 114.163 86.9379 114.163H87.9611C88.0623 114.163 88.1357 114.19 88.209 114.25C88.2684 114.323 88.2963 114.396 88.2963 114.497V115.636C88.2963 115.723 88.2684 115.797 88.209 115.856C88.1357 115.929 88.0623 115.957 87.9611 115.957H86.9379C86.8506 115.957 86.7773 115.929 86.7039 115.856C86.6306 115.797 86.5852 115.723 86.5852 115.636V114.497ZM89.8049 122.8C89.8049 122.754 89.8642 122.713 89.9655 122.667C90.0668 122.639 90.1855 122.622 90.2868 122.622H90.9607C91.048 122.622 91.1353 122.622 91.2401 122.608C91.3448 122.594 91.4286 122.58 91.5194 122.535C91.5928 122.507 91.6661 122.462 91.7255 122.389C91.7848 122.329 91.8128 122.242 91.8128 122.127V118.493C91.8128 118.42 91.8407 118.347 91.9001 118.288C91.9455 118.242 92.0188 118.215 92.1061 118.215H93.3772C93.4505 118.215 93.5239 118.242 93.5832 118.288C93.6286 118.347 93.6566 118.42 93.6566 118.493V122.375C93.6845 122.42 93.7439 122.462 93.8172 122.493C93.8905 122.538 93.9778 122.566 94.0791 122.58C94.1804 122.594 94.2677 122.608 94.3724 122.608C94.4597 122.622 94.5331 122.622 94.6064 122.622H94.9591V124.489H94.7845C94.4178 124.489 94.0372 124.462 93.6566 124.388C93.2759 124.329 92.9547 124.2 92.7067 123.995C92.574 124.096 92.4134 124.169 92.2528 124.228C92.0921 124.301 91.9175 124.347 91.7394 124.388C91.5509 124.434 91.3728 124.448 91.1982 124.462C91.0096 124.476 90.8455 124.489 90.6848 124.489H90.2903C90.189 124.489 90.0703 124.475 89.969 124.444C89.8677 124.413 89.8084 124.371 89.8084 124.312V122.793L89.8049 122.8ZM91.7499 126.099C91.7499 125.998 91.7779 125.925 91.8512 125.866C91.9245 125.792 91.9979 125.765 92.0852 125.765H93.2131C93.3143 125.765 93.4016 125.792 93.475 125.866C93.5483 125.925 93.5762 125.998 93.5762 126.099V127.266C93.5762 127.339 93.5483 127.413 93.475 127.486C93.4016 127.545 93.3143 127.573 93.2131 127.573H92.0852C91.9979 127.573 91.9245 127.545 91.8512 127.486C91.7779 127.413 91.7499 127.339 91.7499 127.266V126.099ZM94.8508 124.493C94.7496 124.493 94.6308 124.479 94.5296 124.448C94.4283 124.416 94.3689 124.374 94.3689 124.315V122.796C94.3689 122.751 94.4283 122.709 94.5296 122.664C94.6308 122.636 94.7496 122.618 94.8508 122.618H98.0984V124.486H94.8508V124.493ZM97.9972 124.493C97.8959 124.493 97.7771 124.479 97.6759 124.448C97.5746 124.42 97.5152 124.374 97.5152 124.315V122.796C97.5152 122.751 97.5746 122.709 97.6759 122.664C97.7771 122.636 97.8959 122.618 97.9972 122.618H101.245V124.486H97.9972V124.493ZM101.143 124.493C101.042 124.493 100.923 124.479 100.822 124.448C100.721 124.42 100.662 124.374 100.662 124.315V122.796C100.662 122.751 100.721 122.709 100.822 122.664C100.923 122.636 101.042 122.618 101.143 122.618H104.391V124.486H101.143V124.493ZM104.29 124.493C104.189 124.493 104.07 124.479 103.969 124.448C103.867 124.42 103.808 124.374 103.808 124.315V122.796C103.808 122.751 103.867 122.709 103.969 122.664C104.07 122.636 104.189 122.618 104.29 122.618H107.537V124.486H104.29V124.493ZM106.951 122.8C106.951 122.754 107.01 122.713 107.111 122.667C107.213 122.639 107.331 122.622 107.433 122.622H107.901C108.089 122.622 108.267 122.594 108.456 122.535C108.63 122.49 108.718 122.347 108.718 122.127V119.166C108.718 119.079 108.746 119.005 108.805 118.946C108.864 118.887 108.938 118.859 109.011 118.859H110.254C110.327 118.859 110.401 118.887 110.46 118.946C110.506 119.005 110.534 119.079 110.534 119.166V122.42C110.561 122.479 110.621 122.521 110.694 122.552C110.767 122.598 110.855 122.625 110.942 122.639C111.029 122.653 111.117 122.667 111.221 122.667C111.309 122.681 111.382 122.681 111.455 122.681H111.675C111.763 122.681 111.85 122.681 111.955 122.667C112.042 122.653 112.129 122.639 112.203 122.594C112.276 122.566 112.349 122.521 112.391 122.448C112.437 122.389 112.465 122.301 112.465 122.2V118.64C112.465 118.566 112.493 118.493 112.552 118.434C112.611 118.389 112.685 118.361 112.758 118.361H113.987C114.06 118.361 114.134 118.389 114.193 118.434C114.253 118.493 114.28 118.566 114.28 118.64V122.42C114.34 122.538 114.469 122.608 114.675 122.639C114.881 122.671 115.084 122.685 115.276 122.685H115.611C115.845 122.685 116.006 122.671 116.079 122.625C116.152 122.58 116.198 122.451 116.198 122.218V119.169C116.184 118.803 116.184 118.441 116.17 118.089C116.17 118.016 116.198 117.957 116.243 117.901C116.288 117.842 116.362 117.814 116.449 117.814H117.692C117.793 117.814 117.881 117.842 117.926 117.887C117.972 117.946 117.999 118.019 117.999 118.093C118.013 118.413 118.013 118.72 118.027 118.998C118.027 119.277 118.027 119.552 118.041 119.8V123.009C118.027 123.315 118.013 123.608 117.982 123.883C117.968 123.97 117.937 124.043 117.895 124.117C117.853 124.19 117.776 124.263 117.661 124.305C117.455 124.364 117.207 124.406 116.913 124.423C116.62 124.451 116.299 124.469 115.964 124.469H115.775C115.44 124.469 115.059 124.441 114.665 124.381C114.27 124.336 113.917 124.207 113.641 124.002C113.421 124.19 113.146 124.308 112.838 124.381C112.517 124.455 112.182 124.5 111.843 124.5H111.654C111.288 124.5 110.953 124.472 110.645 124.399C110.338 124.326 110.045 124.193 109.783 124.005C109.535 124.193 109.227 124.326 108.875 124.399C108.508 124.472 108.173 124.5 107.838 124.5H107.443C107.342 124.5 107.223 124.486 107.122 124.455C107.021 124.427 106.961 124.381 106.961 124.322V122.803L106.951 122.8ZM120.203 113.678C120.203 113.605 120.231 113.532 120.29 113.473C120.35 113.413 120.423 113.386 120.51 113.386H121.813C121.914 113.386 121.987 113.413 122.033 113.473C122.078 113.532 122.106 113.605 122.106 113.678V121.88C122.106 122.214 122.179 122.42 122.312 122.493C122.445 122.58 122.647 122.625 122.927 122.625H123.409V124.493H122.385C122.05 124.493 121.757 124.465 121.495 124.406C121.216 124.361 120.999 124.259 120.807 124.099C120.618 123.953 120.472 123.747 120.367 123.472C120.266 123.211 120.206 122.859 120.206 122.437V113.682L120.203 113.678ZM123.304 124.493C123.203 124.493 123.084 124.479 122.983 124.448C122.881 124.42 122.822 124.374 122.822 124.315V122.796C122.822 122.751 122.881 122.709 122.983 122.664C123.084 122.636 123.203 122.618 123.304 122.618H126.551V124.486H123.304V124.493ZM126.45 124.493C126.349 124.493 126.23 124.479 126.129 124.448C126.028 124.42 125.968 124.374 125.968 124.315V122.796C125.968 122.751 126.028 122.709 126.129 122.664C126.23 122.636 126.349 122.618 126.45 122.618H129.698V124.486H126.45V124.493ZM129.596 124.493C129.478 124.493 129.362 124.479 129.261 124.434C129.16 124.388 129.115 124.361 129.115 124.315V122.796C129.115 122.751 129.174 122.709 129.275 122.664C129.376 122.636 129.495 122.618 129.596 122.618H135.812L135.418 121.713L135.124 121.099C134.845 120.472 134.436 119.991 133.895 119.626C133.354 119.274 132.624 119.1 131.702 119.1H131.335C131.161 119.113 131.014 119.113 130.913 119.127C130.707 119.141 130.606 119.068 130.606 118.894V117.814C130.606 117.668 130.707 117.58 130.899 117.535C131.147 117.49 131.381 117.448 131.615 117.434C131.835 117.42 132.083 117.406 132.331 117.406C132.872 117.406 133.368 117.465 133.822 117.566C134.276 117.685 134.716 117.873 135.11 118.134C135.505 118.413 135.886 118.762 136.221 119.201C136.556 119.653 136.877 120.207 137.171 120.862L137.359 121.27C137.387 121.343 137.433 121.444 137.478 121.549C137.523 121.667 137.579 121.782 137.625 121.883C137.67 122.002 137.712 122.103 137.757 122.204C137.803 122.305 137.831 122.364 137.859 122.409C137.904 122.483 137.96 122.542 138.005 122.57C138.051 122.598 138.124 122.615 138.194 122.615H138.34V124.482H129.593L129.596 124.493ZM138.239 124.493C138.138 124.493 138.019 124.479 137.918 124.448C137.817 124.42 137.757 124.374 137.757 124.315V122.796C137.757 122.751 137.817 122.709 137.918 122.664C138.019 122.636 138.138 122.618 138.239 122.618H141.487V124.486H138.239V124.493ZM141.386 124.493C141.284 124.493 141.166 124.479 141.064 124.448C140.963 124.42 140.904 124.374 140.904 124.315V122.796C140.904 122.751 140.963 122.709 141.064 122.664C141.166 122.636 141.284 122.618 141.386 122.618H144.633V124.486H141.386V124.493ZM144.046 122.8C144.046 122.754 144.106 122.713 144.207 122.667C144.308 122.639 144.427 122.622 144.528 122.622H144.968C145.042 122.622 145.115 122.622 145.202 122.608C145.29 122.594 145.377 122.58 145.464 122.549C145.538 122.521 145.611 122.476 145.684 122.416C145.744 122.371 145.785 122.298 145.803 122.211C145.831 122.11 145.848 122.005 145.848 121.876V120.65C145.848 119.584 146.142 118.782 146.739 118.228C147.339 117.688 148.129 117.41 149.138 117.41C150.147 117.41 150.922 117.671 151.491 118.211C152.061 118.751 152.34 119.552 152.34 120.619V121.479C152.34 122.573 152.061 123.378 151.505 123.901C150.936 124.427 150.144 124.688 149.106 124.688C148.611 124.688 148.125 124.629 147.675 124.514C147.207 124.381 146.854 124.179 146.62 123.901C146.431 124.12 146.166 124.28 145.859 124.354C145.538 124.441 145.171 124.486 144.762 124.486H144.528C144.427 124.486 144.308 124.472 144.207 124.441C144.106 124.413 144.046 124.367 144.046 124.308V122.789V122.8ZM147.689 121.385C147.689 121.619 147.703 121.824 147.734 122.026C147.807 122.392 147.968 122.639 148.202 122.754C148.436 122.887 148.743 122.96 149.11 122.96C149.606 122.96 149.958 122.841 150.178 122.594C150.398 122.347 150.5 121.922 150.5 121.308V120.768C150.5 120.2 150.398 119.775 150.178 119.5C149.958 119.239 149.609 119.106 149.11 119.106C148.611 119.106 148.247 119.239 148.027 119.514C147.807 119.775 147.692 120.2 147.692 120.768V121.382L147.689 121.385Z" fill="#203979"/>
</svg>
