<svg width="161" height="161" viewBox="0 0 161 161" fill="none" xmlns="http://www.w3.org/2000/svg">
<path d="M10.7333 122.23L9.67426 122.032C9.25852 121.953 8.96532 121.848 8.79465 121.726C8.64148 121.616 8.56709 121.467 8.56709 121.27C8.56709 121.152 8.58897 121.042 8.63273 120.95L8.83403 120.718C8.93469 120.648 9.07035 120.591 9.24977 120.551C9.61299 120.468 10.2344 120.463 10.6939 120.56C10.9215 120.608 11.1271 120.665 11.3022 120.735C11.4729 120.801 11.6173 120.871 11.7311 120.946L11.9761 121.138L12.0505 121.222L12.1424 121.16C12.2299 121.099 12.3218 121.007 12.4225 120.867C12.5275 120.722 12.58 120.56 12.58 120.389C12.58 120.253 12.5406 120.13 12.4575 120.025C12.3875 119.933 12.2956 119.846 12.1774 119.767L11.9324 119.631C11.8186 119.569 11.6742 119.512 11.486 119.456C11.3022 119.399 11.079 119.355 10.8252 119.315C10.567 119.276 10.2607 119.258 9.91932 119.258C9.44232 119.258 9.02658 119.315 8.68962 119.42C8.34828 119.53 8.05945 119.679 7.83189 119.863C7.59996 120.052 7.43366 120.279 7.32863 120.538C7.22361 120.792 7.17109 121.064 7.17109 121.344C7.17109 121.66 7.23236 121.936 7.35927 122.168C7.4818 122.396 7.64372 122.589 7.8494 122.747C8.04632 122.9 8.27826 123.023 8.53645 123.115C8.7859 123.207 9.05284 123.273 9.32416 123.321L10.3657 123.509C10.5495 123.54 10.7114 123.579 10.8558 123.619C10.9915 123.658 11.1053 123.711 11.1972 123.777L11.3941 123.991C11.4378 124.075 11.4597 124.175 11.4597 124.298C11.4597 124.552 11.3635 124.741 11.1622 124.877C10.9477 125.021 10.5757 125.096 10.0594 125.096C9.7574 125.096 9.47733 125.069 9.22789 125.021C8.97407 124.973 8.74651 124.912 8.54958 124.842C8.34828 124.771 8.18199 124.697 8.0507 124.631C7.91942 124.561 7.81876 124.504 7.75312 124.456L7.63496 124.373L7.01355 125.481L7.1142 125.547C7.19297 125.6 7.31551 125.67 7.48618 125.762C7.65247 125.854 7.8669 125.942 8.11634 126.029C8.37016 126.117 8.65899 126.191 8.97407 126.248C9.29791 126.31 9.65675 126.34 10.0375 126.34C10.4926 126.34 10.904 126.292 11.2584 126.196C11.6173 126.099 11.9192 125.955 12.1599 125.766C12.405 125.582 12.5932 125.354 12.7201 125.091C12.847 124.833 12.9126 124.539 12.9126 124.215C12.9126 123.636 12.7201 123.185 12.3481 122.874C11.9849 122.571 11.4466 122.357 10.7377 122.225" fill="#9E9B9A"/>
<path d="M19.6694 122.804C19.6694 123.132 19.6125 123.435 19.5031 123.711C19.3937 123.987 19.2405 124.223 19.0523 124.425C18.8642 124.622 18.6366 124.78 18.3784 124.89C17.862 125.118 17.1881 125.118 16.6673 124.89C16.4091 124.776 16.1816 124.622 15.9847 124.421C15.7921 124.223 15.6433 123.982 15.5339 123.711C15.4289 123.435 15.372 123.132 15.372 122.804C15.372 122.475 15.4289 122.168 15.5339 121.888C15.6389 121.612 15.7921 121.371 15.9847 121.173C16.1772 120.976 16.4048 120.818 16.663 120.713C16.9212 120.604 17.21 120.547 17.5207 120.547C17.8314 120.547 18.1158 120.604 18.3784 120.713C18.6366 120.823 18.8642 120.976 19.0523 121.173C19.2405 121.371 19.3937 121.612 19.5031 121.888C19.6125 122.164 19.6694 122.471 19.6694 122.804M20.072 120.275C19.7525 119.959 19.3674 119.71 18.9342 119.53C18.0677 119.171 16.9693 119.171 16.1028 119.53C15.6696 119.71 15.2888 119.959 14.965 120.275C14.6412 120.59 14.3874 120.972 14.2036 121.401C14.0198 121.831 13.9279 122.304 13.9279 122.804C13.9279 123.303 14.0198 123.776 14.2036 124.206C14.3874 124.635 14.6412 125.012 14.965 125.332C15.2845 125.648 15.6696 125.898 16.1028 126.077C16.536 126.257 17.0131 126.349 17.5163 126.349C18.0196 126.349 18.5009 126.257 18.9298 126.077C19.3631 125.898 19.7438 125.648 20.0676 125.332C20.3914 125.017 20.6453 124.635 20.8291 124.206C21.0129 123.776 21.1048 123.303 21.1048 122.804C21.1048 122.304 21.0129 121.831 20.8291 121.401C20.6453 120.972 20.3914 120.595 20.0676 120.275" fill="#9E9B9A"/>
<path d="M27.4371 124.565L27.3233 124.644C27.2008 124.723 26.9995 124.815 26.7238 124.912C26.4525 125.008 26.1199 125.056 25.7392 125.056C25.4197 125.056 25.1221 125.008 24.8464 124.912C24.5751 124.815 24.3388 124.675 24.1375 124.491C23.9362 124.307 23.7786 124.074 23.6605 123.798C23.5467 123.522 23.4898 123.198 23.4898 122.83C23.4898 122.462 23.5467 122.142 23.6561 121.861C23.7655 121.576 23.9187 121.335 24.1068 121.138C24.295 120.941 24.5182 120.792 24.7764 120.687C25.214 120.512 25.7698 120.49 26.2074 120.599C26.3868 120.643 26.5531 120.7 26.6975 120.766C26.8376 120.831 26.9645 120.902 27.0651 120.98L27.3058 121.191L27.3715 121.265L27.459 121.222L27.6165 121.108L27.7784 120.937L27.9185 120.704L27.9841 120.415C27.9841 120.314 27.9447 120.2 27.866 120.06C27.7872 119.929 27.6603 119.797 27.4765 119.675C27.2971 119.556 27.052 119.46 26.7544 119.381C26.4568 119.302 26.0674 119.263 25.6079 119.263C25.1221 119.263 24.6582 119.346 24.2294 119.504C23.7961 119.666 23.4154 119.898 23.096 120.2C22.7721 120.507 22.5139 120.884 22.3257 121.331C22.1419 121.774 22.05 122.282 22.05 122.839C22.05 123.395 22.1463 123.912 22.3389 124.346C22.5314 124.784 22.7984 125.157 23.1266 125.451C23.4548 125.744 23.8399 125.972 24.2688 126.121C24.6976 126.274 25.1571 126.353 25.6341 126.353C25.9623 126.353 26.2599 126.331 26.5181 126.288C26.7763 126.244 27.0039 126.187 27.1964 126.121C27.3846 126.055 27.5465 125.985 27.6822 125.911C27.8091 125.836 27.9097 125.775 27.9841 125.722L28.076 125.657L27.4415 124.574L27.4371 124.565Z" fill="#9E9B9A"/>
<path d="M30.0802 119.482C29.9665 119.447 29.8439 119.429 29.7126 119.429C29.5026 119.429 29.3275 119.482 29.1963 119.582C29.0562 119.692 28.9862 119.859 28.9862 120.078V126.178H30.3691V119.587L30.2859 119.556L30.0802 119.486V119.482Z" fill="#9E9B9A"/>
<path d="M35.7298 123.229H33.7168C33.7912 123.04 33.87 122.847 33.9487 122.65C34.0538 122.392 34.1632 122.142 34.2682 121.892C34.3732 121.642 34.4783 121.41 34.5789 121.186C34.6358 121.064 34.6883 120.945 34.7365 120.836L34.8502 121.086C34.9465 121.305 35.0515 121.55 35.1609 121.818C35.2703 122.085 35.3798 122.361 35.4979 122.637C35.5811 122.847 35.6598 123.045 35.7298 123.229M38.0405 125.302C37.9136 124.977 37.7648 124.605 37.5985 124.184C37.4322 123.763 37.2527 123.316 37.0558 122.847C36.8589 122.378 36.6663 121.927 36.4825 121.493C36.2987 121.059 36.1237 120.665 35.9618 120.323C35.7999 119.973 35.6686 119.705 35.5636 119.53L35.5373 119.499L35.441 119.438L35.2791 119.359L35.0515 119.284L34.7802 119.254C34.5352 119.254 34.3251 119.311 34.1588 119.425C33.9925 119.539 33.8525 119.727 33.7256 120.003C33.498 120.507 33.2704 121.029 33.0385 121.559C32.8066 122.089 32.5878 122.611 32.369 123.123C32.1545 123.636 31.9488 124.14 31.7563 124.631C31.5594 125.122 31.3843 125.578 31.2268 125.998L31.1611 126.174H32.5746L32.6053 126.086C32.6709 125.893 32.7628 125.648 32.8722 125.354C32.9729 125.082 33.0866 124.793 33.2136 124.478H36.2025C36.2462 124.583 36.29 124.701 36.3381 124.833C36.4038 124.995 36.4607 125.157 36.5219 125.319L36.6882 125.766C36.7407 125.906 36.7801 126.016 36.8108 126.095L36.8458 126.174H38.3643L38.303 126.003C38.2505 125.863 38.163 125.63 38.0361 125.306" fill="#9E9B9A"/>
<path d="M40.5568 119.582L40.4737 119.552L40.268 119.482C40.1542 119.447 40.0317 119.429 39.9004 119.429C39.6903 119.429 39.5153 119.482 39.384 119.582C39.244 119.692 39.174 119.859 39.174 120.078V126.178H43.8915V124.885H40.5568V119.582V119.582Z" fill="#9E9B9A"/>
<path d="M52.2586 122.791C52.2586 123.492 52.0442 124.044 51.6241 124.421C51.1952 124.806 50.565 124.999 49.7467 124.999C49.4579 124.999 49.2303 124.99 49.0684 124.977L48.8846 124.955V120.626L49.0552 120.608C49.2172 120.595 49.4535 120.586 49.7467 120.586C50.1887 120.586 50.5782 120.643 50.8976 120.753C51.2127 120.862 51.4709 121.016 51.6722 121.204C51.8735 121.393 52.0223 121.625 52.1186 121.892C52.2148 122.164 52.2673 122.466 52.2673 122.791M52.6393 120.257C52.2936 119.959 51.8735 119.727 51.3834 119.569C50.8976 119.412 50.3418 119.333 49.7336 119.333C49.3178 119.333 48.9677 119.337 48.7008 119.35C48.4207 119.363 48.1975 119.394 48.0268 119.447C47.8387 119.504 47.6986 119.591 47.6199 119.71C47.5411 119.824 47.5017 119.981 47.5017 120.17V126.152L47.6067 126.169C47.6067 126.169 47.6636 126.183 48.1494 126.222C48.4732 126.253 48.9809 126.266 49.6548 126.266C50.3287 126.266 50.8801 126.187 51.3834 126.029C51.8866 125.871 52.3155 125.639 52.6568 125.337C53.0025 125.034 53.2651 124.666 53.4445 124.232C53.6196 123.803 53.7071 123.316 53.7071 122.786C53.7071 122.256 53.6108 121.778 53.4314 121.349C53.2476 120.919 52.9807 120.551 52.6393 120.253" fill="#9E9B9A"/>
<path d="M59.8688 120.718L59.9038 120.652L60 120.437C60.0438 120.323 60.0613 120.2 60.0613 120.065C60.0613 119.653 59.8162 119.425 59.3655 119.425H55.7377C55.2081 119.425 54.9193 119.701 54.9193 120.196V126.169H60.0044V124.877H56.3197V123.369H59.7112L59.7506 123.321C59.7856 123.277 59.8206 123.207 59.86 123.089C59.8994 122.975 59.9213 122.852 59.9213 122.716C59.9213 122.304 59.6762 122.076 59.2342 122.076H56.3197V120.709H59.8644L59.8688 120.718Z" fill="#9E9B9A"/>
<path d="M67.1114 119.534C66.9801 119.464 66.8225 119.429 66.6387 119.429C66.398 119.429 66.2142 119.486 66.0873 119.6C65.9692 119.705 65.8685 119.876 65.7722 120.117C65.641 120.45 65.4922 120.831 65.3303 121.248C65.1683 121.669 65.002 122.089 64.8314 122.519C64.6607 122.948 64.4944 123.365 64.3281 123.768C64.2056 124.057 64.0962 124.32 63.9912 124.557C63.8511 124.237 63.7023 123.895 63.5492 123.535C63.3566 123.071 63.1641 122.606 62.9803 122.142C62.7965 121.677 62.6214 121.226 62.4507 120.796C62.2801 120.354 62.1444 119.981 62.0306 119.653L62.0131 119.6L61.965 119.574L61.7768 119.495C61.6674 119.451 61.5361 119.429 61.3698 119.429C61.1554 119.429 60.9847 119.486 60.8666 119.6C60.7484 119.714 60.6915 119.867 60.6915 120.051C60.6915 120.192 60.7178 120.341 60.7703 120.494C60.8184 120.639 60.8797 120.796 60.9497 120.959C60.9847 121.055 61.046 121.2 61.1291 121.401C61.2123 121.603 61.3129 121.839 61.4267 122.116C61.5449 122.392 61.6718 122.698 61.8162 123.031C61.9606 123.365 62.1094 123.706 62.2669 124.057C62.4245 124.408 62.5864 124.758 62.7483 125.109C62.9102 125.459 63.0722 125.792 63.2341 126.112L63.2691 126.187H64.6782L64.7132 126.112C64.8576 125.801 65.0152 125.451 65.1902 125.061C65.3653 124.67 65.5403 124.263 65.7241 123.838C65.9079 123.413 66.0873 122.992 66.2624 122.576C66.4374 122.155 66.6037 121.765 66.7525 121.401C66.9057 121.037 67.037 120.718 67.1464 120.441C67.2558 120.161 67.3389 119.959 67.3871 119.828L67.4221 119.727L67.3302 119.67L67.1114 119.547V119.534Z" fill="#9E9B9A"/>
<path d="M73.1898 120.718L73.2248 120.656L73.3211 120.441C73.3649 120.327 73.3867 120.205 73.3867 120.069C73.3867 119.657 73.1417 119.429 72.6909 119.429H69.0631C68.5336 119.429 68.2448 119.705 68.2448 120.2V126.174H73.3298V124.881H69.6451V123.373H73.0366L73.076 123.325C73.111 123.281 73.146 123.211 73.1854 123.093C73.2248 122.979 73.2423 122.856 73.2423 122.72C73.2423 122.308 72.9973 122.08 72.5553 122.08H69.6407V120.713H73.1854L73.1898 120.718Z" fill="#9E9B9A"/>
<path d="M76.0344 119.582L75.9512 119.552L75.7455 119.482C75.6317 119.447 75.5092 119.429 75.3779 119.429C75.1679 119.429 74.9928 119.482 74.8615 119.582C74.7215 119.692 74.6515 119.859 74.6515 120.078V126.178H79.369V124.885H76.0344V119.582Z" fill="#9E9B9A"/>
<path d="M85.3468 122.804C85.3468 123.132 85.2899 123.435 85.1805 123.711C85.0711 123.987 84.9223 124.223 84.7297 124.425C84.5416 124.622 84.314 124.78 84.0558 124.89C83.5394 125.118 82.8655 125.118 82.3447 124.89C82.0865 124.776 81.859 124.622 81.6664 124.421C81.4739 124.223 81.3251 123.982 81.2157 123.711C81.1106 123.435 81.0538 123.132 81.0538 122.804C81.0538 122.475 81.1106 122.168 81.2157 121.888C81.3207 121.612 81.4739 121.371 81.6664 121.173C81.859 120.976 82.0865 120.818 82.3447 120.713C82.6073 120.604 82.8917 120.547 83.2024 120.547C83.5132 120.547 83.7976 120.604 84.0602 120.713C84.3184 120.823 84.5459 120.976 84.7341 121.173C84.9223 121.371 85.0754 121.612 85.1848 121.888C85.2942 122.164 85.3511 122.471 85.3511 122.804M85.7537 120.275C85.4343 119.959 85.0492 119.71 84.6159 119.53C83.7495 119.171 82.6511 119.171 81.7846 119.53C81.3513 119.71 80.9662 119.959 80.6468 120.275C80.3229 120.59 80.0647 120.972 79.8853 121.401C79.7015 121.831 79.6096 122.304 79.6096 122.804C79.6096 123.303 79.7015 123.776 79.8853 124.206C80.0647 124.635 80.3229 125.012 80.6468 125.332C80.9662 125.648 81.3513 125.898 81.7846 126.077C82.2178 126.257 82.6948 126.349 83.1981 126.349C83.7013 126.349 84.1783 126.257 84.6159 126.077C85.0492 125.898 85.4299 125.648 85.7537 125.332C86.0776 125.017 86.3314 124.635 86.5152 124.206C86.699 123.776 86.7865 123.303 86.7865 122.804C86.7865 122.304 86.6946 121.831 86.5152 121.401C86.3314 120.972 86.0776 120.595 85.7537 120.275Z" fill="#9E9B9A"/>
<path d="M92.0468 121.647C92.0468 121.8 92.0205 121.945 91.9724 122.076C91.9199 122.203 91.8367 122.317 91.7229 122.418C91.6004 122.519 91.4341 122.598 91.2197 122.659C91.0009 122.72 90.7208 122.747 90.3838 122.747C90.0731 122.747 89.8193 122.734 89.6267 122.707L89.4167 122.677L89.3686 122.668V120.582L89.5961 120.564C89.7755 120.551 90.0162 120.547 90.3138 120.547C90.677 120.547 90.979 120.582 91.2109 120.647C91.4341 120.713 91.6135 120.796 91.7361 120.897C91.8542 120.994 91.9374 121.108 91.9767 121.23C92.0249 121.366 92.0468 121.506 92.0468 121.647M92.6726 119.959C92.1605 119.543 91.3772 119.333 90.3444 119.333C89.8543 119.333 89.4692 119.346 89.1979 119.368C88.9178 119.394 88.7384 119.412 88.6334 119.434C88.4671 119.469 88.3227 119.539 88.2045 119.644C88.0732 119.758 88.0076 119.938 88.0076 120.179V126.183H89.3642V123.891C89.4473 123.904 89.548 123.917 89.6661 123.926C89.7799 123.934 89.9024 123.943 90.0425 123.956C90.7252 124.004 91.351 123.943 91.8236 123.798C92.2043 123.68 92.5194 123.518 92.7601 123.312C93.0051 123.102 93.1802 122.852 93.294 122.563C93.4034 122.282 93.4603 121.975 93.4603 121.651C93.4603 120.95 93.1977 120.385 92.6769 119.964" fill="#9E9B9A"/>
<path d="M101.985 125.275C101.968 124.942 101.95 124.574 101.924 124.167C101.898 123.759 101.876 123.334 101.849 122.887L101.718 120.498C101.696 120.165 101.683 119.907 101.67 119.732V119.683L101.631 119.648C101.596 119.618 101.539 119.574 101.351 119.504C101.21 119.451 101.04 119.425 100.843 119.425C100.607 119.425 100.414 119.482 100.256 119.591C100.108 119.697 99.9808 119.854 99.8845 120.056C99.8101 120.214 99.7007 120.437 99.5607 120.722L99.1056 121.638C98.9436 121.962 98.7861 122.282 98.6242 122.602C98.5148 122.817 98.4185 123.01 98.3353 123.176C98.2391 122.988 98.1297 122.769 98.0028 122.523C97.8233 122.173 97.6439 121.813 97.4645 121.449L96.6199 119.74L96.5936 119.705C96.5324 119.644 96.4317 119.578 96.2917 119.517C96.1473 119.451 95.9722 119.42 95.7578 119.42C95.5521 119.42 95.3727 119.477 95.2108 119.583C95.0401 119.701 94.9438 119.898 94.9263 120.161C94.9132 120.328 94.9001 120.564 94.8782 120.867C94.8607 121.173 94.8388 121.515 94.8169 121.901C94.795 122.282 94.7732 122.681 94.7513 123.093C94.7294 123.505 94.7075 123.904 94.6856 124.285C94.6638 124.666 94.6462 125.012 94.6287 125.319C94.6112 125.63 94.6025 125.867 94.5981 126.034L94.5894 126.165H95.9635V126.042C95.9766 125.893 95.9854 125.692 95.9985 125.438L96.0422 124.596C96.0554 124.285 96.0773 123.969 96.0948 123.636C96.1123 123.303 96.1298 122.983 96.1473 122.677C96.1648 122.37 96.1823 122.089 96.1954 121.835L96.2042 121.699C96.2786 121.84 96.353 121.989 96.4317 122.151C96.598 122.484 96.7643 122.821 96.9306 123.163C97.0969 123.505 97.2544 123.825 97.3989 124.123C97.5433 124.421 97.6527 124.653 97.7271 124.824L97.7621 124.903H98.8517L98.8868 124.828C98.9436 124.714 99.018 124.561 99.1099 124.368C99.2018 124.175 99.3025 123.969 99.4119 123.746C99.5213 123.522 99.6351 123.286 99.7576 123.04L100.103 122.339C100.213 122.116 100.313 121.91 100.41 121.721L100.423 121.695L100.475 122.593C100.493 122.918 100.515 123.259 100.532 123.623C100.55 123.987 100.572 124.333 100.589 124.662C100.607 124.99 100.624 125.275 100.637 125.525C100.65 125.775 100.659 125.95 100.668 126.051L100.677 126.174H102.042L102.033 126.034C102.02 125.858 102.007 125.604 101.989 125.275" fill="#9E9B9A"/>
<path d="M108.435 120.718L108.47 120.656L108.567 120.441C108.61 120.327 108.632 120.205 108.632 120.069C108.632 119.657 108.387 119.429 107.937 119.429H104.309C103.779 119.429 103.49 119.705 103.49 120.2V126.174H108.575V124.881H104.891V123.373H108.282L108.322 123.325C108.357 123.281 108.392 123.211 108.431 123.093C108.47 122.979 108.492 122.856 108.492 122.72C108.492 122.308 108.247 122.08 107.805 122.08H104.891V120.713H108.435V120.718Z" fill="#9E9B9A"/>
<path d="M115.429 119.482C115.319 119.447 115.192 119.429 115.052 119.429C114.838 119.429 114.667 119.482 114.545 119.587C114.413 119.697 114.348 119.863 114.348 120.078V123.812C114.269 123.693 114.186 123.566 114.098 123.43C113.91 123.145 113.713 122.852 113.507 122.545L112.877 121.634C112.667 121.327 112.47 121.046 112.282 120.779C112.094 120.516 111.932 120.293 111.788 120.095C111.643 119.902 111.538 119.767 111.477 119.688L111.451 119.666C111.398 119.626 111.319 119.583 111.197 119.521C111.066 119.455 110.899 119.425 110.707 119.425C110.497 119.425 110.313 119.477 110.16 119.583C109.985 119.701 109.897 119.894 109.897 120.161V126.174H111.271V121.568C111.367 121.704 111.473 121.848 111.578 122.002C111.774 122.282 111.98 122.571 112.186 122.878L113.411 124.697C113.604 124.982 113.774 125.245 113.932 125.49L114.378 126.178H115.713V119.609L115.652 119.569L115.429 119.482Z" fill="#9E9B9A"/>
<path d="M122.242 119.429H116.772L116.737 119.49L116.641 119.705C116.597 119.819 116.575 119.942 116.575 120.078C116.575 120.49 116.82 120.718 117.262 120.718H119.026V126.178H120.409V120.718H122.724L122.763 120.669C122.798 120.625 122.833 120.555 122.877 120.437C122.916 120.327 122.938 120.2 122.938 120.069C122.938 119.657 122.693 119.429 122.251 119.429" fill="#9E9B9A"/>
<path d="M130.526 121.664L130.364 121.892C130.281 121.958 130.176 122.015 130.041 122.059C129.901 122.102 129.726 122.124 129.52 122.124H127.892V120.604C127.958 120.595 128.058 120.586 128.207 120.573C128.435 120.555 128.737 120.547 129.095 120.547C129.384 120.547 129.634 120.573 129.835 120.617C130.027 120.661 130.181 120.722 130.294 120.792L130.518 121.038L130.583 121.357L130.531 121.669L130.526 121.664ZM130.574 123.601L130.745 123.847C130.78 123.947 130.798 124.053 130.798 124.171C130.798 124.32 130.771 124.447 130.723 124.552C130.675 124.653 130.588 124.741 130.469 124.811C130.343 124.89 130.172 124.947 129.962 124.982C129.743 125.021 129.467 125.043 129.143 125.043C128.741 125.043 128.421 125.034 128.194 125.017C128.049 125.004 127.953 124.995 127.892 124.986V123.351H129.673C129.896 123.351 130.084 123.378 130.233 123.422C130.378 123.465 130.491 123.527 130.574 123.597M131.292 122.663L131.375 122.602C131.485 122.519 131.585 122.414 131.673 122.287C131.756 122.164 131.83 122.019 131.887 121.853C131.944 121.686 131.975 121.489 131.975 121.274C131.975 121.02 131.931 120.775 131.844 120.542C131.752 120.306 131.59 120.091 131.362 119.911C131.139 119.732 130.828 119.591 130.443 119.486C130.062 119.381 129.572 119.328 128.995 119.328C128.456 119.328 128.054 119.337 127.769 119.359C127.476 119.381 127.275 119.403 127.144 119.429C126.986 119.455 126.85 119.526 126.732 119.635C126.605 119.753 126.54 119.933 126.54 120.17V126.174H126.667C126.702 126.174 126.785 126.178 126.916 126.191C127.052 126.204 127.227 126.213 127.437 126.226C127.647 126.235 127.883 126.244 128.154 126.253C128.426 126.266 128.715 126.266 129.021 126.266C129.656 126.266 130.185 126.213 130.596 126.117C131.012 126.016 131.34 125.871 131.581 125.687C131.822 125.499 131.992 125.275 132.08 125.017C132.167 124.767 132.211 124.504 132.211 124.224C132.211 123.798 132.102 123.439 131.887 123.159C131.725 122.948 131.529 122.782 131.292 122.663" fill="#9E9B9A"/>
<path d="M137.305 123.229H135.292C135.366 123.04 135.445 122.848 135.524 122.65C135.629 122.392 135.738 122.142 135.843 121.892C135.953 121.642 136.053 121.41 136.154 121.187C136.211 121.064 136.263 120.946 136.312 120.84L136.421 121.09C136.517 121.309 136.622 121.555 136.732 121.822C136.841 122.089 136.955 122.365 137.069 122.642C137.156 122.852 137.235 123.049 137.305 123.233M139.616 125.306C139.489 124.982 139.34 124.609 139.178 124.189C139.012 123.768 138.828 123.321 138.635 122.852C138.438 122.383 138.25 121.932 138.062 121.498C137.878 121.064 137.703 120.669 137.541 120.328C137.379 119.981 137.248 119.71 137.147 119.534L137.117 119.499L137.021 119.442L136.859 119.363L136.631 119.289L136.36 119.258C136.115 119.258 135.905 119.315 135.738 119.429C135.572 119.543 135.432 119.727 135.305 120.008C135.082 120.512 134.85 121.033 134.622 121.563C134.39 122.094 134.172 122.615 133.957 123.128C133.743 123.641 133.537 124.145 133.34 124.636C133.143 125.126 132.968 125.582 132.811 126.003L132.745 126.178H134.159L134.189 126.091C134.255 125.898 134.347 125.652 134.456 125.359C134.557 125.087 134.675 124.798 134.797 124.482H137.786C137.83 124.587 137.874 124.706 137.922 124.833C137.983 124.999 138.045 125.157 138.106 125.319C138.163 125.481 138.22 125.63 138.268 125.766C138.32 125.906 138.364 126.016 138.395 126.091L138.43 126.169H139.948L139.883 125.998C139.83 125.858 139.742 125.626 139.616 125.302" fill="#9E9B9A"/>
<path d="M146.276 119.482C146.167 119.447 146.04 119.429 145.9 119.429C145.685 119.429 145.515 119.482 145.392 119.587C145.261 119.696 145.195 119.863 145.195 120.078V123.812C145.121 123.693 145.038 123.566 144.946 123.43C144.762 123.145 144.561 122.852 144.355 122.545L143.725 121.633C143.515 121.327 143.318 121.046 143.13 120.783C142.941 120.52 142.775 120.292 142.635 120.1C142.491 119.907 142.386 119.771 142.324 119.692L142.298 119.67C142.246 119.635 142.167 119.587 142.044 119.525C141.913 119.46 141.751 119.429 141.55 119.429C141.349 119.429 141.156 119.482 141.003 119.587C140.832 119.705 140.745 119.898 140.745 120.165V126.178H142.119V121.572C142.215 121.708 142.32 121.853 142.425 122.006C142.622 122.286 142.823 122.576 143.033 122.882L144.259 124.701C144.451 124.986 144.626 125.249 144.784 125.494L145.23 126.182H146.565V119.618L146.504 119.578L146.28 119.49L146.276 119.482Z" fill="#9E9B9A"/>
<path d="M153.838 125.968C153.383 125.359 152.875 124.767 152.324 124.197C151.808 123.663 151.247 123.128 150.657 122.602C150.757 122.51 150.875 122.405 151.007 122.282C151.19 122.116 151.392 121.936 151.606 121.748L152.258 121.169C152.481 120.972 152.678 120.792 152.862 120.63C153.046 120.463 153.204 120.328 153.335 120.209C153.47 120.091 153.554 120.012 153.589 119.981L153.667 119.903L153.597 119.815C153.549 119.749 153.462 119.679 153.322 119.583C153.173 119.482 152.985 119.434 152.757 119.434C152.551 119.434 152.372 119.482 152.219 119.578C152.083 119.666 151.939 119.771 151.777 119.898C151.659 119.999 151.484 120.148 151.265 120.345C151.042 120.542 150.805 120.753 150.556 120.981C150.307 121.208 150.061 121.436 149.825 121.66C149.685 121.791 149.558 121.91 149.449 122.015V119.587L149.366 119.556L149.16 119.486C149.051 119.451 148.924 119.434 148.792 119.434C148.578 119.434 148.407 119.486 148.276 119.587C148.136 119.697 148.066 119.863 148.066 120.082V126.183H149.449V123.343C149.65 123.509 149.86 123.689 150.075 123.882C150.359 124.14 150.639 124.408 150.906 124.675C151.164 124.938 151.418 125.201 151.654 125.464C151.886 125.718 152.083 125.942 152.245 126.134L152.285 126.183H153.991L153.838 125.977V125.968Z" fill="#9E9B9A"/>
<path d="M146.674 105.331C147.217 105.331 147.659 104.888 147.659 104.345C147.659 103.801 147.221 103.359 146.674 103.359C146.127 103.359 145.69 103.801 145.69 104.345C145.69 104.888 146.127 105.331 146.674 105.331Z" fill="#9E9B9A"/>
<path d="M74.3933 103.92V113.636H76.1919V103.048C76.0694 103.012 75.7149 102.929 75.3954 102.929C74.6821 102.929 74.3933 103.218 74.3933 103.924" fill="#9E9B9A"/>
<path d="M70.586 103.92V110.555C70.586 111.545 70.144 112.005 69.1988 112.005H68.2535V105.449C68.131 105.414 67.7765 105.331 67.4571 105.331C66.7437 105.331 66.4505 105.62 66.4505 106.326V112.005H64.6257C63.9649 112.005 63.7111 112.259 63.7111 112.904C63.7111 113.197 63.7898 113.517 63.8205 113.636H69.2644C70.1922 113.636 70.9536 113.351 71.5225 112.798C72.0914 112.246 72.3802 111.528 72.3802 110.669V103.052C72.2577 103.017 71.9032 102.934 71.5838 102.934C70.8705 102.934 70.5773 103.223 70.5773 103.928" fill="#9E9B9A"/>
<path d="M11.9323 111.497L11.9104 111.514C11.7266 111.677 11.3459 112.005 10.44 112.005C9.93241 112.005 9.52981 111.834 9.24973 111.497C8.97403 111.164 8.82962 110.616 8.82962 109.875C8.82962 109.485 8.87338 109.161 8.96091 108.902C9.04405 108.64 9.17096 108.438 9.33726 108.289C9.49917 108.144 9.68735 108.043 9.90616 107.987C10.1162 107.934 10.3438 107.903 10.5801 107.903C10.7376 107.903 10.9258 107.912 11.1621 107.925C11.3941 107.938 11.6391 107.973 11.8886 108.026L11.9367 108.035V111.488L11.9323 111.497ZM27.6384 107.925C28.0804 107.925 28.5048 108.1 28.8681 108.263C29.2225 108.425 29.4807 108.377 29.6602 108.118C29.8264 107.873 30.0409 107.298 30.1021 107.132C29.5726 106.794 28.4305 106.33 27.6427 106.33C25.5597 106.33 24.2643 107.548 24.2643 109.507V112.01H21.4811C20.7065 112.01 20.0807 111.379 20.0807 110.607V106.698L19.8357 106.641C19.63 106.602 19.4462 106.58 19.2886 106.58C18.571 106.58 18.2821 106.869 18.2821 107.575V110.559C18.2821 111.549 17.8314 112.01 16.8643 112.01H15.1444C14.2123 112.01 13.7616 111.536 13.7572 110.563V106.808C13.4246 106.729 13.0833 106.654 12.755 106.593C12.4006 106.527 12.0198 106.466 11.6216 106.413C11.219 106.361 10.8164 106.33 10.4225 106.33C9.79238 106.33 9.25848 106.422 8.82962 106.606C8.40513 106.79 8.05066 107.04 7.77934 107.355C7.50802 107.671 7.31109 108.043 7.19294 108.469C7.06603 108.894 7.00476 109.358 7.00476 109.849C7.00476 110.66 7.10541 111.326 7.31109 111.817C7.5124 112.308 7.77497 112.693 8.09443 112.956C8.41389 113.219 8.77273 113.403 9.16221 113.5C9.55606 113.596 9.94117 113.644 10.3088 113.644C10.6764 113.644 11.0658 113.596 11.4597 113.5C11.8448 113.403 12.208 113.224 12.5275 112.956L12.6894 112.803L12.7375 112.75L12.7857 112.798C13.2189 113.351 13.9847 113.631 15.0657 113.631H16.9562C17.862 113.631 18.606 113.381 19.1617 112.89L19.2011 112.855L19.2405 112.89C19.7963 113.381 20.5183 113.631 21.398 113.631H30.0059C30.0365 113.517 30.1109 113.202 30.1109 112.912C30.1109 112.264 29.8527 112.001 29.2138 112.001H26.0936V109.341C26.0936 108.53 26.7588 107.921 27.6384 107.921" fill="#9E9B9A"/>
<path d="M41.2876 113.145C40.6355 113.145 39.7734 112.943 39.7734 111.203C39.7734 109.464 40.6399 109.262 41.2876 109.262C41.9352 109.262 42.7842 109.464 42.7842 111.203C42.7842 112.943 41.9309 113.145 41.2876 113.145ZM58.0439 106.326C56.9367 106.326 55.8514 106.646 54.7268 107.307L55.0506 108.276C55.0944 108.394 55.1863 108.495 55.3132 108.548C55.4795 108.622 55.6764 108.613 55.8514 108.534C56.7092 108.149 57.3831 107.982 58.0439 107.982C59.0242 107.982 59.685 108.394 60.0044 109.209C60.2364 109.77 60.3239 110.419 60.3239 111.519V112.005H52.3418C51.5672 112.005 50.9414 111.374 50.9414 110.603V106.694C50.8189 106.659 50.4644 106.571 50.1449 106.571C49.4316 106.571 49.1384 106.86 49.1384 107.566V110.555C49.1384 111.545 48.6877 112.005 47.7205 112.005H46.4121C45.3705 112.005 44.7885 111.541 44.6266 110.59C44.4734 109.586 44.1671 108.885 43.6901 108.438C43.1474 107.925 42.3597 107.68 41.2832 107.68C39.3358 107.68 38.2068 108.662 37.9223 110.594C37.8042 111.536 37.2571 111.975 36.2025 111.975H34.2551C33.8262 111.975 33.6468 111.799 33.6468 111.379V103.048C33.5243 103.013 33.1698 102.925 32.846 102.925C32.1239 102.925 31.8307 103.214 31.8307 103.92V111.427C31.8307 112.79 32.6884 113.636 34.0669 113.636H36.2988C37.0515 113.636 37.6729 113.43 38.1411 113.026L38.2024 112.974L38.2374 113.044C38.7625 114.122 39.8741 114.74 41.2832 114.74C42.6923 114.74 43.8826 114.065 44.3815 112.886L44.4165 112.803L44.4822 112.869C44.9242 113.303 45.4887 113.552 46.1714 113.618H46.2283V113.631H47.8124C48.7183 113.636 49.4622 113.39 50.018 112.899L50.0574 112.864L50.0968 112.899C50.6526 113.39 51.379 113.64 52.2542 113.64H61.361C61.8118 113.64 62.1838 113.272 62.1838 112.816V111.523C62.1838 110.042 61.9956 109.038 61.5492 108.162C60.9015 106.948 59.72 106.33 58.0395 106.33" fill="#9E9B9A"/>
<path d="M152.193 107.566V110.55C152.193 111.528 151.733 112.001 150.792 112.001H148.884C147.939 112.001 147.484 111.541 147.484 110.598V106.689C147.361 106.654 147.007 106.567 146.692 106.567C145.978 106.567 145.685 106.856 145.685 107.561V110.546C145.685 111.536 145.235 111.996 144.267 111.996H142.74C141.537 111.996 140.955 111.379 140.955 110.103V103.052C140.832 103.017 140.478 102.929 140.163 102.929C139.449 102.929 139.156 103.218 139.156 103.924V110.577C139.156 111.51 138.692 111.966 137.738 111.966H132.903C131.957 111.966 131.502 111.514 131.502 110.577V106.685C131.38 106.65 131.025 106.562 130.701 106.562C129.979 106.562 129.686 106.851 129.686 107.557V110.734C129.686 112.465 130.898 113.627 132.697 113.627H137.821C138.889 113.627 139.716 113.307 140.268 112.685L140.316 112.628L140.364 112.685C140.885 113.311 141.65 113.627 142.648 113.627H144.351C145.256 113.627 146 113.377 146.556 112.886L146.596 112.851L146.635 112.886C147.191 113.377 147.917 113.627 148.792 113.627H150.862C151.803 113.627 152.573 113.342 153.142 112.785C153.711 112.233 154 111.514 154 110.655V106.685C153.877 106.65 153.523 106.562 153.204 106.562C152.49 106.562 152.197 106.851 152.197 107.557" fill="#9E9B9A"/>
<path d="M124.947 103.92V113.636H126.745V103.048C126.623 103.012 126.273 102.929 125.953 102.929C125.24 102.929 124.947 103.218 124.947 103.924" fill="#9E9B9A"/>
<path d="M100.296 113.145C100.02 113.145 99.6131 113.11 99.2937 112.82C98.9523 112.509 98.7816 111.966 98.7816 111.203C98.7816 109.463 99.6481 109.257 100.296 109.257C100.571 109.257 100.97 109.292 101.285 109.582C101.622 109.893 101.792 110.436 101.792 111.199C101.792 112.939 100.939 113.14 100.296 113.14M84.1434 111.488L84.1215 111.506C83.9377 111.668 83.557 111.996 82.6467 111.996C82.1391 111.996 81.7409 111.825 81.4564 111.488C81.1763 111.155 81.0363 110.612 81.0363 109.871C81.0363 109.481 81.0801 109.152 81.1632 108.898C81.2507 108.635 81.3777 108.429 81.5396 108.284C81.7015 108.14 81.8897 108.039 82.1085 107.982C82.3185 107.93 82.5461 107.903 82.7824 107.903C82.9356 107.903 83.1281 107.912 83.3644 107.921C83.5964 107.934 83.8414 107.969 84.0909 108.022L84.139 108.035V111.488H84.1434ZM121.139 103.915V110.55C121.139 111.541 120.697 112.001 119.752 112.001H118.05C117.105 112.001 116.65 111.541 116.65 110.598V106.689C116.527 106.654 116.173 106.567 115.857 106.567C115.14 106.567 114.851 106.856 114.851 107.561V110.546C114.851 111.536 114.4 111.996 113.433 111.996H111.617C110.672 111.996 110.217 111.536 110.217 110.594V106.685C110.094 106.65 109.74 106.562 109.42 106.562C108.707 106.562 108.414 106.851 108.414 107.557V110.541C108.414 111.532 107.963 111.992 106.996 111.992H105.425C104.383 111.992 103.801 111.527 103.639 110.577C103.486 109.573 103.18 108.867 102.703 108.425C102.16 107.912 101.372 107.667 100.296 107.667C98.3484 107.667 97.2194 108.648 96.9349 110.581C96.8167 111.532 96.2522 111.992 95.2151 111.992H93.8803C92.9395 111.992 92.4756 111.532 92.4756 110.59V106.681C92.3531 106.645 91.9986 106.558 91.6791 106.558C90.9658 106.558 90.6726 106.847 90.6726 107.553V110.537C90.6726 111.527 90.2219 111.988 89.2547 111.988H87.3467C86.419 111.988 85.9639 111.514 85.9639 110.55V106.786C85.6269 106.707 85.2899 106.632 84.9573 106.571C84.6029 106.505 84.2221 106.444 83.8239 106.387C83.4213 106.334 83.0187 106.308 82.6249 106.308C81.9947 106.308 81.4608 106.4 81.0319 106.584C80.6074 106.768 80.253 107.018 79.9816 107.333C79.7103 107.645 79.5134 108.022 79.3952 108.447C79.2771 108.876 79.2158 109.341 79.2158 109.831C79.2158 110.647 79.3165 111.308 79.5222 111.799C79.7235 112.29 79.986 112.676 80.3055 112.939C80.6249 113.202 80.9838 113.386 81.3689 113.482C81.7627 113.578 82.1522 113.627 82.5198 113.627C82.8874 113.627 83.2725 113.578 83.6664 113.482C84.0559 113.386 84.4147 113.206 84.7298 112.939L84.8873 112.785L84.9355 112.733L84.988 112.776C85.4212 113.329 86.1871 113.609 87.268 113.609H89.3379C90.2438 113.609 90.9877 113.359 91.5435 112.869L91.5829 112.833L91.6222 112.869C92.178 113.359 92.9001 113.609 93.7797 113.609H95.3026C96.0553 113.609 96.6767 113.403 97.145 113L97.2062 112.947L97.2412 113.022C97.7664 114.1 98.8779 114.718 100.287 114.718C101.696 114.718 102.886 114.043 103.385 112.86L103.42 112.776L103.486 112.842C103.928 113.276 104.488 113.609 105.18 113.609H107.066C107.972 113.609 108.716 113.359 109.271 112.869L109.311 112.833L109.35 112.869C109.906 113.359 110.632 113.609 111.508 113.609H113.499C114.405 113.609 115.148 113.359 115.704 112.869L115.744 112.833L115.783 112.869C116.339 113.359 117.065 113.609 117.94 113.609H119.8C120.732 113.609 121.494 113.324 122.067 112.772C122.636 112.22 122.925 111.501 122.925 110.642V103.026C122.802 102.99 122.448 102.907 122.128 102.907C121.415 102.907 121.122 103.196 121.122 103.902" fill="#9E9B9A"/>
<path d="M136.635 108.916C136.635 108.618 136.509 108.486 136.215 108.486H134.867V107.873C134.867 107.509 135.178 107.277 135.52 107.277C135.716 107.277 135.909 107.36 136.049 107.421C136.202 107.491 136.338 107.483 136.43 107.347C136.517 107.215 136.635 106.887 136.635 106.887C136.399 106.729 135.878 106.518 135.52 106.518C134.509 106.518 134.01 107.132 134.01 107.943V109.253H136.583C136.583 109.253 136.635 109.073 136.635 108.911" fill="#9E9B9A"/>
<path d="M149.978 114.709C149.436 114.709 148.994 115.152 148.994 115.695C148.994 116.239 149.431 116.681 149.978 116.681C150.525 116.681 150.963 116.239 150.963 115.695C150.963 115.152 150.521 114.709 149.978 114.709Z" fill="#9E9B9A"/>
<path d="M11.6741 105.331C12.2124 105.331 12.6675 104.875 12.6675 104.336C12.6675 103.797 12.2124 103.359 11.6741 103.359C11.1359 103.359 10.6982 103.797 10.6982 104.336C10.6982 104.875 11.1446 105.331 11.6741 105.331Z" fill="#9E9B9A"/>
<path d="M9.08348 105.331C9.6305 105.331 10.09 104.875 10.09 104.336C10.09 103.797 9.63487 103.359 9.08348 103.359C8.53208 103.359 8.09009 103.806 8.09009 104.336C8.09009 104.866 8.54521 105.331 9.08348 105.331Z" fill="#9E9B9A"/>
<path d="M20.4527 114.709C19.9144 114.709 19.4768 115.147 19.4768 115.687C19.4768 116.226 19.8838 116.681 20.4133 116.681C20.9428 116.681 21.4417 116.226 21.4417 115.687C21.4417 115.147 20.9866 114.709 20.4483 114.709" fill="#9E9B9A"/>
<path d="M17.8796 114.709C17.3325 114.709 16.8993 115.139 16.8993 115.687C16.8993 116.234 17.2975 116.681 17.8358 116.681C18.3741 116.681 18.8642 116.226 18.8642 115.687C18.8642 115.147 18.4091 114.709 17.8752 114.709" fill="#9E9B9A"/>
<path d="M48.7447 105.331C49.2829 105.331 49.7381 104.875 49.7381 104.336C49.7381 103.797 49.2829 103.359 48.7447 103.359C48.2064 103.359 47.7688 103.788 47.7688 104.336C47.7688 104.884 48.2064 105.331 48.7447 105.331Z" fill="#9E9B9A"/>
<path d="M51.3178 105.331C51.8561 105.331 52.3068 104.875 52.3068 104.336C52.3068 103.797 51.8561 103.359 51.3178 103.359C50.7795 103.359 50.3419 103.806 50.3419 104.336C50.3419 104.866 50.7883 105.331 51.3178 105.331Z" fill="#9E9B9A"/>
<path d="M58.4466 114.709C57.9083 114.709 57.4707 115.147 57.4707 115.687C57.4707 116.226 57.9171 116.681 58.4466 116.681C58.9761 116.681 59.44 116.226 59.44 115.687C59.44 115.147 58.9849 114.709 58.4466 114.709Z" fill="#9E9B9A"/>
<path d="M92.8606 114.709C92.3224 114.709 91.8848 115.147 91.8848 115.687C91.8848 116.226 92.3311 116.681 92.8606 116.681C93.3902 116.681 93.854 116.226 93.854 115.687C93.854 115.147 93.3989 114.709 92.8606 114.709Z" fill="#9E9B9A"/>
<path d="M90.2874 114.709C89.7404 114.709 89.3115 115.139 89.3115 115.687C89.3115 116.234 89.7491 116.681 90.2874 116.681C90.8257 116.681 91.2808 116.226 91.2808 115.687C91.2808 115.147 90.8257 114.709 90.2874 114.709Z" fill="#9E9B9A"/>
<path d="M109.315 105.331C109.853 105.331 110.308 104.875 110.308 104.336C110.308 103.797 109.853 103.359 109.315 103.359C108.777 103.359 108.322 103.806 108.322 104.336C108.322 104.866 108.777 105.331 109.315 105.331Z" fill="#9E9B9A"/>
<path d="M114.453 105.331C114.991 105.331 115.446 104.875 115.446 104.336C115.446 103.797 114.991 103.359 114.453 103.359C113.914 103.359 113.477 103.788 113.477 104.336C113.477 104.884 113.914 105.331 114.453 105.331Z" fill="#9E9B9A"/>
<path d="M117.026 105.331C117.564 105.331 118.019 104.875 118.019 104.336C118.019 103.797 117.564 103.359 117.026 103.359C116.488 103.359 116.05 103.806 116.05 104.336C116.05 104.866 116.496 105.331 117.026 105.331Z" fill="#9E9B9A"/>
<path d="M83.8852 105.331C84.4235 105.331 84.8786 104.875 84.8786 104.336C84.8786 103.797 84.4235 103.359 83.8852 103.359C83.3469 103.359 82.9093 103.797 82.9093 104.336C82.9093 104.875 83.3557 105.331 83.8852 105.331Z" fill="#9E9B9A"/>
<path d="M81.2989 105.331C81.846 105.331 82.3055 104.875 82.3055 104.336C82.3055 103.797 81.8547 103.359 81.2989 103.359C80.7432 103.359 80.3055 103.806 80.3055 104.336C80.3055 104.866 80.7607 105.331 81.2989 105.331Z" fill="#9E9B9A"/>
<path d="M92.1823 33.4281C88.7951 33.4281 86.0557 36.1759 86.0557 39.5635V45.4009C86.0557 46.181 85.4299 46.8077 84.6509 46.8077H78.8175C75.4347 46.8077 72.6909 49.5555 72.6909 52.9431V58.7849C72.6909 59.5606 72.0607 60.1917 71.2861 60.1873H65.4527C62.0699 60.1873 59.326 62.9351 59.326 66.3227V73.5713C59.326 84.6545 68.3016 93.6429 79.3689 93.6429C90.4362 93.6429 99.4117 84.6545 99.4117 73.5713V60.1873H92.1779C88.7908 60.1873 86.0513 62.9351 86.0513 66.3227V73.5713C86.0513 77.2657 83.058 80.2589 79.3689 80.2589C75.6798 80.2589 72.6865 77.2657 72.6865 73.5713V61.5941C72.6865 60.8184 73.3166 60.1873 74.0912 60.1873H79.9247C83.3074 60.1873 86.0513 57.4439 86.0513 54.0563V48.2145C86.0513 47.4388 86.6814 46.8077 87.4516 46.8077H93.2851C96.6678 46.8077 99.4117 44.0599 99.4117 40.6723V33.4281H92.1779H92.1823Z" fill="url(#paint0_linear_4351_6519)"/>
<defs>
<linearGradient id="paint0_linear_4351_6519" x1="59.9387" y1="94.6026" x2="104.709" y2="44.0316" gradientUnits="userSpaceOnUse">
<stop offset="0.05" stop-color="#006EAB"/>
<stop offset="0.5" stop-color="#00B2BB"/>
<stop offset="1" stop-color="#95C23D"/>
</linearGradient>
</defs>
</svg>
