<svg width="184" height="58" viewBox="0 0 184 58" fill="none" xmlns="http://www.w3.org/2000/svg">
<path d="M11.1381 0H0V33.4681H11.1381C20.7978 33.4681 27.8065 26.4324 27.8065 16.7361C27.8065 7.03974 20.7938 0 11.1381 0ZM11.2317 26.8165H6.97605V6.64752H11.2317C16.7417 6.64752 20.7449 10.8892 20.7449 16.732C20.7449 21.7419 17.4788 26.8165 11.2317 26.8165ZM40.4106 9.79336C33.7481 9.79336 28.7228 15.0014 28.7228 21.9037C28.7228 28.8059 34.2002 34.0139 41.1966 34.0139C46.7106 34.0139 50.2903 30.8519 50.4369 30.7144L50.8971 30.302L47.7858 25.6682L47.293 24.9444L46.6699 25.563C46.6699 25.563 44.6418 27.5484 41.1925 27.5484C38.6065 27.5484 36.8228 25.9957 36.0898 24.5845H52.0618L52.0984 23.9092C52.1473 23.0641 52.1473 22.219 52.1473 21.8106C52.1473 14.9569 47.1016 9.79336 40.4106 9.79336ZM35.9513 19.1743C36.3789 17.8642 37.6373 16.2104 40.4106 16.2104C43.1839 16.2104 44.6133 17.8116 45.0369 19.1743H35.9513ZM64.9754 9.79336C58.3089 9.79336 53.2835 15.0014 53.2835 21.9037C53.2835 28.8059 58.7609 34.0139 65.7573 34.0139C71.2714 34.0139 74.8511 30.8519 74.9977 30.7144L75.4578 30.302L71.8537 24.9363L71.2307 25.5671C71.2307 25.5671 69.2352 27.5484 65.7533 27.5484C63.1673 27.5484 61.3836 25.9957 60.6505 24.5845H76.6225L76.6592 23.9092C76.704 23.0641 76.704 22.219 76.704 21.8106C76.704 14.9569 71.6583 9.79336 64.9673 9.79336M60.508 19.1743C60.9356 17.8642 62.194 16.2104 64.9673 16.2104C67.7406 16.2104 69.17 17.8116 69.5936 19.1743H60.508ZM90.929 9.79336C88.1434 9.79336 86.2131 10.966 85.0606 11.9971V10.3392H78.504V43.9933H85.476V32.2105C86.6203 33.1042 88.4081 34.018 90.933 34.018C97.3064 34.018 102.299 28.6967 102.299 21.9077C102.299 15.1187 97.3064 9.79741 90.933 9.79741M89.9638 27.4635C87.2068 27.4635 85.814 25.5145 85.476 24.9686V18.8508C85.8181 18.3009 87.2108 16.356 89.9638 16.356C93.1158 16.356 95.2376 18.588 95.2376 21.9117C95.2376 25.2355 93.1199 27.4675 89.9638 27.4675M108.424 0H128.994V6.64752H115.396V13.0443H128.069V19.6919H115.396V33.4681H108.424V0ZM183.996 34.4183L183.503 34.7579C183.41 34.8226 181.206 36.3026 177.838 36.3026C173.428 36.3026 170.146 33.2457 169.706 28.8989V17.4437C168.297 16.5703 166.676 16.1902 164.982 16.1295C161.622 16.0082 155.143 16.0406 154.479 11.524C154.149 9.25558 156.035 7.30661 158.14 6.82543C159.244 6.57069 160.421 6.6556 161.475 7.064C163.707 7.92931 165.108 10.0036 166.757 11.617C167.547 12.3893 168.533 13.2708 169.706 13.3031V6.17847H176.625V12.6319H183.214V19.0045H176.625V27.0308C176.625 28.8585 177.325 29.748 178.763 29.748C179.744 29.748 180.632 29.1132 180.644 29.1092L181.361 28.5916L184 34.4223L183.996 34.4183ZM163.923 22.5142C162.803 21.5155 161.325 21.002 159.863 20.6502C158.535 20.3307 157.199 20.0922 155.888 19.704C155.346 19.5422 154.809 19.3482 154.292 19.1258C150.533 17.5003 148.187 15.6281 147.54 11.6412C145.719 10.4686 143.532 9.79336 141.13 9.79336C134.463 9.79336 129.438 15.0014 129.438 21.9037C129.438 28.8059 134.919 34.0139 141.912 34.0139C144.139 34.0139 146.041 33.4964 147.536 32.8737V25.4175L147.389 25.5671C147.389 25.5671 145.393 27.5484 141.912 27.5484C139.326 27.5484 137.542 25.9957 136.809 24.5845H147.536C147.531 22.4131 150.675 22.2352 152.08 23.048C154.153 24.2448 154.548 26.9499 156.328 28.4501C158.295 30.112 161.251 30.1281 163.377 28.7493C165.788 27.1845 166.09 24.447 163.919 22.5102M136.666 19.1702C137.094 17.8601 138.352 16.2064 141.126 16.2064C143.899 16.2064 145.328 17.8076 145.752 19.1702H136.666ZM134.178 42.4649V51.1018H134.207L133.526 51.777H135.009L132.219 54.5468H130.737L131.417 53.8716H130.993V43.9852L132.525 42.4649H134.178ZM138.641 53.8716L139.741 52.7758V51.0977H135.689L132.899 53.8675H138.641V53.8716ZM130.476 42.1454V43.6658L132.007 42.1454H130.476ZM146.004 46.8682H147.584L149.344 45.1174H146V46.8682H146.004ZM152.915 44.3815H150.256L147.751 46.8682H151.592V49.3914H146.008V51.2231H152.255V53.9444H144.811L142.832 51.9833V42.3961H152.17L152.915 41.6562V44.3774V44.3815ZM168.236 49.1366H166.452L163.581 42.3961H160.51L156.629 51.5102V53.8837H158.946L160.738 49.4035H160.722L162.017 46.1606L162.025 46.1808L162.033 46.1606L163.21 49.1366H164.994L166.061 51.8377H164.277L165.084 53.8837H167.609V51.866L167.596 51.8337H169.38L168.232 49.1326L168.236 49.1366ZM180.278 47.123C180.355 46.941 180.396 46.7388 180.396 46.5124V46.4801C180.396 46.1728 180.327 45.9221 180.2 45.7077H179.146C179.068 45.5784 178.979 45.4571 178.857 45.36C178.531 45.1012 178.083 44.9759 177.5 44.9759H176.006V45.7077H177.061V47.127H176.006V48.0085H177.517C178.087 48.0085 178.531 47.8751 178.857 47.6082C179.019 47.4748 179.142 47.313 179.223 47.1311H180.278V47.123ZM182.159 48.15C181.911 48.6595 181.573 49.0881 181.133 49.4359C180.693 49.7836 180.172 50.0424 179.565 50.2163C178.958 50.3901 178.299 50.4791 177.586 50.4791H176.01V51.7811L174.039 53.7381H172.825V47.123H173.88V45.7037H172.825V44.2602L174.768 42.3314H177.749C178.47 42.3314 179.129 42.4204 179.72 42.5983C180.31 42.7762 180.815 43.039 181.231 43.3827C181.646 43.7264 181.968 44.147 182.192 44.6443C182.338 44.9678 182.432 45.3236 182.481 45.7037H183.536C183.564 45.9099 183.585 46.1202 183.585 46.3385V46.3709C183.585 46.6337 183.56 46.8804 183.524 47.123H182.469C182.412 47.495 182.31 47.8387 182.163 48.15M110.66 55.1615C109.951 55.1615 109.328 54.9957 108.791 54.6681C108.257 54.3406 107.846 53.8675 107.569 53.2529V54.8905H106.429V44.0135H107.87V48.3037C108.172 47.7457 108.575 47.3332 109.084 47.0664C109.593 46.7995 110.159 46.662 110.778 46.662C111.548 46.662 112.22 46.848 112.79 47.2119C113.36 47.5799 113.804 48.0692 114.125 48.6878C114.447 49.3024 114.606 49.9898 114.606 50.7419V51.0088C114.606 51.7528 114.439 52.4402 114.109 53.071C113.779 53.7018 113.319 54.2072 112.729 54.5832C112.138 54.9593 111.45 55.1493 110.66 55.1493V55.1615ZM110.493 53.912C111.034 53.912 111.503 53.7826 111.902 53.5238C112.301 53.2651 112.611 52.9092 112.83 52.4604C113.05 52.0116 113.16 51.4859 113.16 50.8875C113.16 49.9939 112.916 49.2741 112.423 48.7323C111.934 48.1905 111.287 47.9195 110.489 47.9195C110.008 47.9195 109.564 48.0247 109.153 48.239C108.742 48.4533 108.416 48.7606 108.172 49.1609C107.927 49.5653 107.805 50.0464 107.805 50.6125V51.2999C107.805 51.8458 107.931 52.3148 108.18 52.699C108.428 53.0871 108.758 53.3864 109.169 53.5926C109.581 53.7988 110.02 53.9039 110.489 53.9039L110.493 53.912ZM118.385 54.7167L115.518 46.937H116.988L119.314 53.5238H119.627L121.594 46.937H123.003L120.332 55.7437C120.092 56.5282 119.705 57.0983 119.175 57.4582C118.646 57.814 117.97 57.9959 117.151 57.9959H116.084V56.7142H117.241C117.742 56.7142 118.133 56.6131 118.418 56.4149C118.703 56.2168 118.919 55.8691 119.069 55.3717L119.265 54.7167H118.381H118.385Z" fill="#F7F8FA"/>
</svg>
