<svg width="184" height="64" viewBox="0 0 184 64" fill="none" xmlns="http://www.w3.org/2000/svg">
<path d="M74.6996 49.1906C75.5031 49.8753 76.323 50.5734 77.1861 51.3087C77.001 51.5461 76.8553 51.7684 76.6751 51.9595C75.0511 53.6793 73.0723 54.8323 70.7261 55.209C65.1118 56.1112 60.0733 52.9434 58.9963 47.326C58.3882 44.154 58.9237 41.1456 60.932 38.501C62.5576 36.3609 64.7488 35.1105 67.4132 34.696C69.1759 34.422 70.9314 34.5345 72.6296 35.1051C74.3633 35.6875 75.7526 36.7657 76.9082 38.1479C77.161 38.4504 77.1642 38.5194 76.9224 38.7368C76.1838 39.3994 75.4322 40.0486 74.6406 40.7424C74.5031 40.5869 74.3863 40.4604 74.276 40.3279C73.5767 39.4882 72.801 38.7174 71.7786 38.2868C69.0241 37.1268 65.6347 37.7319 63.8863 40.5761C62.1531 43.3956 62.0876 46.3157 63.8093 49.1793C64.6724 50.6149 65.9847 51.5542 67.6774 51.819C69.9576 52.1759 72.0603 51.8206 73.7219 50.0529C73.9687 49.7902 74.2334 49.5432 74.4933 49.2929C74.5293 49.2579 74.5871 49.2444 74.6996 49.1895V49.1906Z" fill="#77787B"/>
<path d="M157.186 42.488C157.34 42.368 157.481 42.2641 157.615 42.1521C159.043 40.9561 160.685 40.5519 162.537 40.7693C164.808 41.0363 166.281 42.3088 167.193 44.2789C168.076 46.1881 168.229 48.2029 167.684 50.2139C167.019 52.67 164.846 54.8931 161.848 55.2704C160.471 55.4437 159.135 55.377 157.837 54.8597C157.624 54.7746 157.397 54.7219 157.101 54.6304C157.073 54.9114 157.031 55.1331 157.03 55.3554C157.025 56.9326 157.027 58.5103 157.027 60.0874C157.027 60.2306 157.023 60.3743 157.02 60.5175C157.014 60.7333 156.907 60.848 156.682 60.848C155.791 60.8474 154.9 60.8474 154.009 60.848C153.777 60.848 153.686 60.7226 153.688 60.5083C153.689 60.3829 153.685 60.2575 153.685 60.1321C153.685 54.0017 153.685 47.8718 153.685 41.7414C153.685 41.2559 153.936 41.0126 154.438 41.0115C155.129 41.011 155.82 41.0062 156.511 41.0142C156.945 41.0196 156.958 41.0519 156.995 41.4723C157.022 41.7974 156.914 42.1495 157.186 42.488ZM156.992 49.2186C157.003 49.2186 157.015 49.2197 157.027 49.2202C157.027 49.7757 157.061 50.3344 157.017 50.8867C156.974 51.4427 157.224 51.7469 157.709 51.9627C158.557 52.3406 159.444 52.4369 160.363 52.4412C162.079 52.4498 163.266 51.6397 164.022 50.1789C164.692 48.8822 164.654 47.5203 164.285 46.1472C163.732 44.0926 161.9 43.3627 160.001 43.7013C158.525 43.9651 157.316 45.4329 157.117 46.8071C157.003 47.6006 157.029 48.4139 156.992 49.2186Z" fill="#77787B"/>
<path d="M182.004 50.905C182.619 51.5859 183.194 52.2222 183.77 52.8595C183.498 53.3165 183.137 53.5883 182.77 53.8456C181.604 54.6622 180.301 55.0998 178.882 55.2704C177.66 55.4174 176.448 55.4168 175.261 55.103C172.526 54.3801 170.872 52.5747 170.206 49.9141C169.7 47.8869 169.842 45.8797 170.911 44.0243C172.062 42.0257 173.798 40.8678 176.134 40.5696C177.183 40.4361 178.208 40.498 179.21 40.7634C181.219 41.2952 182.535 42.6081 183.302 44.4802C183.799 45.6918 183.997 46.9622 184 48.2648C184.001 48.873 183.975 48.9043 183.361 48.9048C180.341 48.9064 177.321 48.9053 174.301 48.9059C174.138 48.9059 173.973 48.8994 173.81 48.9102C173.449 48.9339 173.372 49.0254 173.424 49.3914C173.498 49.9141 173.668 50.4044 174.011 50.8184C175.002 52.0122 176.276 52.5489 177.843 52.4628C178.593 52.4213 179.338 52.3707 180.024 52.0623C180.549 51.826 181.04 51.516 181.542 51.2312C181.682 51.1521 181.806 51.0466 182.004 50.905ZM180.458 46.4853C180.484 46.3501 180.512 46.2807 180.508 46.2129C180.435 44.9253 179.318 43.6787 178.031 43.4139C177.361 43.2761 176.694 43.2632 176.039 43.4327C174.69 43.7821 173.769 44.5852 173.43 45.9556C173.391 46.1138 173.425 46.2893 173.425 46.4858L180.458 46.4853Z" fill="#77787B"/>
<path d="M147.479 45.9271C147.579 45.1223 147.356 44.4667 146.71 43.9731C146.096 43.5038 145.37 43.353 144.617 43.3137C143.633 43.2631 142.711 43.5199 141.827 43.9225C141.384 44.1244 140.953 44.3532 140.46 44.5975C139.87 43.9311 139.349 43.2088 138.766 42.4977C138.923 42.3723 139.026 42.2754 139.143 42.1979C140.541 41.2656 142.089 40.7731 143.762 40.5739C145.054 40.4205 146.307 40.5061 147.514 40.9518C149.045 41.5175 150.133 42.5446 150.585 44.1341C150.692 44.5092 150.76 44.9086 150.762 45.2967C150.777 48.2906 150.772 51.2839 150.77 54.2778C150.77 54.8312 150.747 54.8532 150.185 54.8575C149.476 54.8629 148.767 54.8656 148.058 54.8554C147.632 54.8489 147.611 54.8123 147.574 54.3876C147.554 54.1632 147.52 53.9398 147.485 53.6545C147.328 53.7347 147.225 53.7638 147.153 53.8273C146.036 54.8215 144.689 55.3108 143.222 55.3285C141.523 55.3495 139.993 54.8414 138.94 53.3999C138.23 52.4278 138.102 51.3211 138.235 50.1692C138.46 48.226 139.628 47.0337 141.422 46.3792C142.701 45.912 144.03 45.8049 145.39 45.9168C146.056 45.9717 146.73 45.9271 147.479 45.9271ZM144.056 52.7098L144.065 52.656C144.102 52.656 144.138 52.656 144.174 52.656C146.234 52.6474 147.549 51.3577 147.545 49.3499C147.545 49.2245 147.548 49.0986 147.539 48.9742C147.507 48.5894 147.44 48.4876 147.038 48.4909C145.933 48.4989 144.832 48.2976 143.725 48.4677C142.809 48.6082 142.065 48.9748 141.652 49.836C141.128 50.9271 141.624 52.1226 142.781 52.4897C143.188 52.6189 143.63 52.6399 144.056 52.7098Z" fill="#77787B"/>
<path d="M94.9806 41.053C95.199 41.0358 95.3551 41.0132 95.5117 41.0126C96.4392 41.0094 97.3672 41.0342 98.2935 41.0008C98.7341 40.9852 98.9426 41.1515 99.1036 41.5374C100.216 44.2046 101.345 46.8642 102.473 49.5249C102.609 49.8451 102.765 50.1568 102.912 50.4728C102.956 50.4712 103.001 50.4701 103.045 50.4685C103.131 50.2822 103.228 50.0997 103.3 49.9081C104.343 47.1193 105.383 44.3289 106.424 41.5391C106.618 41.0175 106.619 41.0137 107.15 41.0115C108.059 41.0078 108.969 41.0094 109.878 41.0115C110.002 41.0115 110.125 41.0293 110.298 41.0428C110.246 41.2064 110.212 41.3404 110.159 41.4664C108.249 45.9787 106.337 50.49 104.424 55.0013C103.941 56.1408 103.471 57.2862 102.963 58.4155C102.682 59.0399 102.283 59.5981 101.783 60.082C101.065 60.7775 100.222 61.1575 99.2035 61.1909C98.1358 61.2264 97.0948 61.1634 96.1395 60.6321C95.9239 60.5121 95.7268 60.3587 95.4784 60.1918C95.9839 59.4135 96.4605 58.6793 96.9698 57.8945C97.1559 58.0011 97.2979 58.1055 97.4572 58.1685C97.7389 58.2799 98.0239 58.4064 98.3192 58.4543C99.0731 58.5775 99.6102 58.2336 100.011 57.6221C100.539 56.8163 100.866 55.9217 101.178 55.0249C101.243 54.8387 101.156 54.5674 101.066 54.3672C100.469 53.0409 99.8509 51.7237 99.2428 50.4023C97.8918 47.466 96.5418 44.5292 95.193 41.5918C95.1203 41.4341 95.0658 41.2688 94.9806 41.0514V41.053Z" fill="#77787B"/>
<path d="M122.055 42.0278C121.474 42.8083 120.918 43.5549 120.345 44.3241C120.212 44.2659 120.095 44.2261 119.99 44.1664C118.754 43.4628 117.418 43.1969 116.008 43.3207C115.637 43.353 115.246 43.4526 114.919 43.6227C114.004 44.1002 113.975 45.1606 114.897 45.6154C115.603 45.9637 116.381 46.1919 117.148 46.397C118.307 46.7065 119.467 46.988 120.516 47.5952C121.441 48.1307 122.067 48.8671 122.289 49.9237C122.785 52.2878 121.598 53.8607 119.654 54.7138C118.208 55.3484 116.687 55.462 115.122 55.2892C113.955 55.1601 112.834 54.9081 111.788 54.3715C111.129 54.0334 110.75 53.7331 110.351 53.2303C110.952 52.4918 111.652 51.8244 112.316 51.0837C112.472 51.1941 112.602 51.2834 112.729 51.3771C114.218 52.4811 115.888 52.7513 117.685 52.4062C117.879 52.3691 118.069 52.2932 118.248 52.2082C119.152 51.777 119.254 50.7505 118.432 50.1724C118.126 49.9571 117.772 49.7881 117.416 49.667C116.799 49.4571 116.158 49.3187 115.538 49.1185C114.764 48.8682 113.98 48.6303 113.24 48.3019C112.769 48.0931 112.343 47.7599 111.943 47.4288C110.453 46.1935 110.464 43.6593 111.819 42.3104C112.611 41.5213 113.564 41.0169 114.644 40.7688C116.971 40.2343 119.22 40.4598 121.356 41.553C121.517 41.6354 121.668 41.7366 121.82 41.834C121.879 41.8717 121.93 41.9234 122.055 42.0278Z" fill="#77787B"/>
<path d="M86.7643 36.4077C87.1044 36.4077 87.3358 36.4077 87.5673 36.4077C88.2218 36.4077 88.8768 36.4039 89.5314 36.4088C90.0871 36.4131 90.1258 36.4475 90.1291 36.9858C90.1351 37.9897 90.134 38.9936 90.1302 39.998C90.1258 41.1741 90.1749 40.9976 91.1843 41.0099C91.7116 41.0164 92.2389 41.0175 92.7662 41.0099C92.9906 41.0073 93.1505 41.0788 93.2417 41.2898C93.5687 42.0477 93.9 42.8035 94.227 43.5619C94.239 43.5894 94.2194 43.6303 94.2057 43.7266H90.217C90.1842 44.006 90.1356 44.2299 90.1345 44.4544C90.128 46.1397 90.1171 47.825 90.1395 49.5098C90.1466 50.061 90.1919 50.6246 90.3218 51.1591C90.5625 52.1511 91.1772 52.5252 92.2051 52.4649C92.9742 52.4197 93.6582 52.1807 94.281 51.7458C94.3667 51.6861 94.4623 51.6398 94.6026 51.559C95.0294 52.2695 95.3144 53.0156 95.6861 53.7525C95.0289 54.3187 94.3253 54.7181 93.5496 54.9819C92.3377 55.3942 91.1035 55.433 89.8496 55.1649C88.5657 54.8909 87.7207 54.1287 87.2403 52.9515C86.9537 52.2491 86.7807 51.5154 86.7774 50.7548C86.7676 48.675 86.7698 46.5956 86.7616 44.5157C86.7605 44.2724 86.7245 44.0286 86.7004 43.732C86.0836 43.732 85.5224 43.7336 84.9613 43.732C84.3635 43.7293 84.3499 43.7175 84.3455 43.1307C84.3411 42.593 84.3379 42.0547 84.3477 41.517C84.3559 41.0595 84.3946 41.0229 84.8455 41.0132C85.2637 41.0046 85.6818 41.0132 86.1005 41.0099C86.7135 41.004 86.7599 40.9642 86.7627 40.3748C86.7676 39.281 86.7643 38.1872 86.7643 37.094C86.7643 36.9008 86.7643 36.7075 86.7643 36.4077Z" fill="#77787B"/>
<path d="M137.121 42.446C136.365 43.1641 135.663 43.8316 134.928 44.5302C134.939 44.5367 134.866 44.5146 134.819 44.4678C133.95 43.5936 132.893 43.261 131.662 43.2901C130.248 43.3229 129.127 43.8875 128.296 44.9786C126.918 46.7867 127.145 49.7892 128.736 51.3276C129.721 52.2798 130.921 52.5564 132.25 52.3815C133.231 52.2523 134.09 51.8502 134.81 51.1725C134.86 51.1252 134.926 51.0945 135.036 51.0229C135.679 51.7065 136.317 52.3842 136.996 53.1055C136.845 53.2605 136.722 53.408 136.578 53.5318C135.455 54.5001 134.171 55.1041 132.676 55.2828C131.035 55.4782 129.448 55.3086 127.938 54.6471C125.771 53.6976 124.561 51.9929 124.121 49.7396C123.882 48.5172 123.852 47.2754 124.174 46.0606C124.937 43.1792 126.854 41.3657 129.725 40.6267C132.196 39.9904 134.558 40.3231 136.604 41.9874C136.771 42.1225 136.925 42.2722 137.12 42.446H137.121Z" fill="#77787B"/>
<path d="M79.0302 47.9025C79.0302 45.8581 79.0302 43.8132 79.0302 41.7689C79.0302 41.6252 79.034 41.482 79.0329 41.3383C79.0308 41.1122 79.1508 41.0142 79.3714 41.0142C80.2808 41.0142 81.1902 41.0142 82.1002 41.0142C82.3208 41.0142 82.4403 41.1127 82.4381 41.3388C82.4365 41.4642 82.4409 41.5896 82.4409 41.7156C82.4409 45.8587 82.4409 50.0018 82.4409 54.1449C82.4409 54.1626 82.4409 54.1809 82.4409 54.1987C82.4376 54.8521 82.4354 54.857 81.7727 54.8597C81.045 54.8624 80.3174 54.8651 79.5897 54.8581C79.0641 54.8532 79.0335 54.8231 79.0324 54.3058C79.0291 52.1716 79.0308 50.0368 79.0302 47.9025Z" fill="#77787B"/>
<path d="M78.9206 35.2865C79.1368 35.2574 79.2602 35.2272 79.383 35.2267C80.2739 35.2224 81.1653 35.2192 82.0562 35.2267C82.5147 35.2305 82.5502 35.2671 82.5535 35.7225C82.5595 36.5293 82.5611 37.3362 82.5518 38.1431C82.5475 38.5403 82.5076 38.5839 82.1151 38.5882C81.1877 38.5979 80.2602 38.5909 79.3328 38.5909C79.115 38.5909 78.9217 38.5548 78.9212 38.2814C78.919 37.2985 78.9206 36.3151 78.9206 35.2865Z" fill="#77787B"/>
<path d="M13.4362 55.0201V63L0 58.4936V9.10273L8.86615 15.7041V56.3303L13.4362 55.0201Z" fill="#88CD31"/>
<path d="M13.4362 19.1071L13.4362 55.0201L8.86615 56.3303V15.7041L13.4362 19.1071Z" fill="#56C325"/>
<path d="M21.7538 3.78513V52.635L13.4362 55.0201L13.4362 19.1071L8.86615 15.7041V10.8155L21.7538 3.78513Z" fill="#B3B8BB"/>
<path d="M46.1586 11.7166V57.0515L39.2123 55.0486V18.206L30.529 22.9799V0L46.1586 11.7166Z" fill="#FF9900"/>
<path d="M39.2123 18.206V55.0486L30.529 52.5451V22.9799L39.2123 18.206Z" fill="#737DB6"/>
<path d="M39.2123 55.0486L39.2121 58.4037L24.1305 63V26.4976L30.529 22.9799V52.5451L39.2123 55.0486Z" fill="#838FCD"/>
</svg>
