<svg width="218" height="51" viewBox="0 0 218 51" fill="none" xmlns="http://www.w3.org/2000/svg">
<g clip-path="url(#clip0_3378_4982)">
<path d="M29.6289 26.247C28.8098 26.9354 28.0769 27.6208 27.276 28.2158C24.5424 30.2478 21.3977 31.1289 18.0461 31.3127C14.841 31.4874 11.6887 31.141 8.79644 29.6483C3.33522 26.8255 0.436877 22.3714 0.195096 16.173C-0.0965517 8.68822 4.9612 2.48832 12.1859 0.808807C17.9539 -0.533298 23.3864 0.307212 28.086 4.21905C28.3172 4.41186 28.5212 4.63629 28.7433 4.83964C28.9655 5.04299 29.1952 5.23881 29.4853 5.49337C32.84 1.88731 37.0969 0.133989 42.0806 0.268048C47.0325 0.402108 51.2002 2.31359 54.5187 6.17572C55.6974 1.95509 58.5383 0.0677118 62.7528 0.278593C66.0682 0.444285 68.2246 2.51393 70.1392 5.12132C69.2809 5.76752 68.4709 6.37606 67.7939 6.88519C66.8797 6.05672 66.0728 5.27195 65.2084 4.55646C63.7018 3.30774 61.9791 3.0818 60.1779 3.75963C57.6603 4.70709 56.9924 8.0134 58.9765 10.0032C60.1401 11.1691 61.4804 12.1708 62.8012 13.1664C65.0467 14.8595 67.3497 16.4772 69.2129 18.9205C69.4305 17.5256 69.6239 16.3357 69.8022 15.1412C70.3523 11.4462 70.8978 7.7513 71.4433 4.05486C71.5566 3.28666 71.6383 2.51092 71.7833 1.74873C71.8332 1.49116 72.0357 1.2622 72.1687 1.02119C72.3621 1.19442 72.625 1.32998 72.7368 1.54388C74.2268 4.41186 75.6941 7.29188 77.172 10.1674C79.6004 14.8941 82.0318 19.6194 84.4647 24.3431C84.5539 24.5148 84.6657 24.6745 84.8531 24.9772C85.2732 24.2075 85.6525 23.5508 85.997 22.876C89.6101 15.8024 93.2142 8.72437 96.8363 1.65534C96.9648 1.4053 97.2579 1.2381 97.474 1.03324C97.5919 1.28329 97.7763 1.52279 97.8171 1.78488C98.2523 4.58508 98.6648 7.38979 99.0879 10.193C99.1121 10.3527 99.1801 10.5063 99.2859 10.8543C102.122 4.04583 107.138 0.426209 114.325 0.299681C121.425 0.174658 126.686 3.41921 129.981 9.82547V0.0963313C130.172 0.0511425 130.267 0.00595382 130.361 0.00746012C134.462 0.0812684 138.571 0.0466237 142.663 0.278593C145.177 0.42169 147.251 1.67643 148.709 3.80181C148.846 4.00214 148.994 4.19344 149.331 4.36064V0.00444753C150.125 0.00444753 150.775 -0.0076028 151.423 0.00595382C154.87 0.0797621 158.324 0.0436111 161.76 0.27558C164.783 0.480436 167.294 1.78639 168.656 4.66943C169.067 5.54007 169.251 6.51614 169.564 7.52385C173.228 2.291 178.378 -0.0753859 184.718 0.533156C191.046 1.14019 195.622 4.41939 198.284 10.315V0.0707243H217.875V3.17519H201.638V12.6769H214.419C214.419 13.6575 214.467 14.5296 214.376 15.3852C214.358 15.5539 213.805 15.7828 213.497 15.7859C210.073 15.813 206.647 15.8024 203.221 15.8024C202.723 15.8024 202.222 15.8024 201.603 15.8024V30.8126H198.324V21.1618C198.263 21.1407 198.203 21.1196 198.142 21.0985C196.696 24.7543 194.242 27.5063 190.753 29.2822C187.267 31.0566 183.565 31.5221 179.747 30.7298C175.846 29.9194 172.577 28.0049 170.173 24.7784C167.796 21.5866 166.862 17.985 167.306 13.8608C164.786 16.1911 161.8 16.5902 158.49 16.646C162.324 21.4164 166.035 26.0347 169.745 30.6514C169.724 30.7298 169.703 30.8066 169.68 30.8849C168.996 30.8849 168.302 30.8096 167.63 30.9015C166.321 31.0792 165.484 30.5882 164.668 29.5353C161.519 25.4653 158.232 21.5022 155.065 17.4458C154.379 16.5676 153.64 16.5029 152.624 16.7002V30.8217H149.368V12.2566C149.306 12.2385 149.244 12.2205 149.182 12.2024C149.041 12.3831 148.89 12.5549 148.763 12.7447C147.421 14.7525 145.505 15.9109 143.142 16.1308C140.266 16.3989 137.372 16.4622 134.485 16.6068C134.111 16.6249 133.738 16.6098 133.242 16.6098V30.8292H129.989V21.7945C129.932 21.7538 129.874 21.7131 129.815 21.6724C127.181 27.3692 122.704 30.6183 116.554 31.2389C110.426 31.8565 105.291 29.7401 101.282 24.8582C101.55 26.7291 101.817 28.5984 102.094 30.537H98.9761C98.0059 23.6894 97.0328 16.8252 96.0294 9.74864C95.8224 10.0891 95.6939 10.2758 95.5912 10.4747C92.247 16.9803 88.8984 23.483 85.5754 29.9992C85.3034 30.534 84.9891 30.7027 84.3574 30.4918C80.8259 23.6291 77.2627 16.7092 73.7009 9.78931L73.5015 9.79986C72.5298 16.7032 71.5567 23.6065 70.5805 30.543H67.6217C67.605 30.186 67.5899 29.8742 67.5748 29.5729C61.9564 32.8491 57.3354 31.5447 53.4443 26.6191C50.0729 29.829 46.1017 31.4061 41.4701 31.3278C36.843 31.2494 32.9065 29.594 29.6274 26.2455L29.6289 26.247ZM127.567 15.8295C127.873 9.26814 121.997 3.20381 114.671 3.22339C107.417 3.24297 101.853 8.77709 101.84 15.8069C101.826 23.117 108.055 28.5185 115.051 28.3739C121.897 28.2323 127.813 22.7856 127.567 15.828V15.8295ZM54.564 15.7844C54.564 8.70478 48.8398 3.2264 41.4474 3.22942C34.4297 3.23243 28.8234 8.81926 28.8098 15.8536C28.7962 22.8986 34.8226 28.5035 41.9914 28.3739C48.657 28.2534 54.7242 23.0356 54.564 15.7844ZM183.016 3.37854C182.413 3.41168 181.804 3.40264 181.209 3.4885C180.565 3.58038 179.921 3.71896 179.297 3.90423C172.607 5.88501 168.674 12.9751 171.197 19.9508C173.449 26.1778 180.095 29.3907 186.667 27.66C193.695 25.8102 197.561 18.4836 195.162 11.6481C193.609 7.21958 188.784 3.20833 183.018 3.37703L183.016 3.37854ZM27.6523 7.98779C27.3123 7.73323 26.9542 7.52686 26.6716 7.24519C21.8677 2.41602 14.0461 1.85719 8.6 5.96484C1.83618 11.0666 1.74249 20.5593 8.43528 25.7349C11.0254 27.7383 14.0204 28.4402 17.2784 28.3995C21.1711 28.3513 24.4019 26.9128 27.137 24.2151C27.5193 23.837 27.5964 23.5448 27.3259 23.0492C26.3029 21.1814 25.706 19.1825 25.567 17.0451C25.363 13.912 25.981 10.9687 27.6523 7.98779V7.98779ZM152.694 3.15561V13.4556C154.926 13.4556 157.09 13.4812 159.252 13.4421C160.077 13.427 160.91 13.3231 161.72 13.1589C163.179 12.8637 164.523 12.3244 165.333 10.9537C167.21 7.78143 165.405 3.90725 161.688 3.47193C159.077 3.16615 156.42 3.24448 153.785 3.1541C153.439 3.14205 153.091 3.1526 152.695 3.1526L152.694 3.15561ZM133.285 3.02456V13.427C134.871 13.7207 141.393 13.5083 142.808 13.1318C145.664 12.3711 147.24 9.37358 146.268 6.56886C145.582 4.58659 143.973 3.66775 142.093 3.47042C139.205 3.16766 136.287 3.16013 133.283 3.02456H133.285ZM57.7253 13.3758C58.1514 17.2771 57.5787 20.7491 55.4752 24.075C56.3879 25.0812 57.21 26.2109 58.2481 27.0845C60.4801 28.9629 63.7094 28.746 65.8128 26.72C67.6005 24.9983 67.7682 22.3247 65.9685 20.2731C64.7052 18.8331 63.185 17.6055 61.7086 16.3673C60.5058 15.3581 59.1971 14.4724 57.7268 13.3758H57.7253Z" fill="black"/>
<path d="M0 35.937C0.202491 35.7864 0.383827 35.5846 0.610496 35.5002C0.809965 35.4264 1.05779 35.4806 1.28446 35.4806C73.0344 35.4806 144.786 35.4806 216.536 35.4806C216.838 35.4806 217.158 35.4234 217.436 35.5077C217.652 35.5725 217.814 35.8135 218 35.9777C217.953 36.053 217.905 36.1283 217.858 36.2036H0.17378C0.116357 36.1148 0.058934 36.0274 0 35.9385V35.937Z" fill="black"/>
<path d="M5.86914 44.0379C4.93828 46.335 4.00743 48.6336 3.07657 50.9307C2.97835 50.9307 2.88012 50.9292 2.7819 50.9276C1.86616 47.7373 0.948901 44.547 0.034668 41.3612C0.929256 41.0373 1.10304 41.1277 1.33273 41.9351C1.89336 43.9083 2.45852 45.8786 3.0811 48.0597C4.0452 45.6692 4.93375 43.467 5.82229 41.2633L6.11092 41.2362C6.98435 43.4082 7.85627 45.5803 8.7297 47.7509C8.79619 47.7539 8.86419 47.7569 8.93068 47.7584C9.5714 45.5743 10.2106 43.3917 10.8468 41.2196H11.9514C10.9934 44.5304 10.0625 47.7479 9.13015 50.9638C9.041 50.9758 8.95335 50.9864 8.86419 50.9984C7.93636 48.6803 7.00853 46.3636 6.08221 44.0454C6.01118 44.0424 5.94016 44.0394 5.86914 44.0349V44.0379Z" fill="black"/>
<path d="M71.7605 47.9754C72.7201 45.6105 73.6041 43.4279 74.4896 41.2437C74.5742 41.2272 74.6603 41.2106 74.745 41.194C75.635 43.3977 76.5236 45.6029 77.4136 47.8066C77.4726 47.7931 77.5315 47.7795 77.5904 47.766C78.216 45.6165 78.8432 43.4685 79.4884 41.2543C79.8193 41.2392 80.1276 41.2242 80.6187 41.2016C79.6486 44.5365 78.7177 47.7434 77.7854 50.9488H77.4922C76.5644 48.617 75.6365 46.2868 74.6331 43.7668C73.6177 46.2778 72.6838 48.5839 71.7514 50.89C71.6577 50.9021 71.5656 50.9141 71.4719 50.9262C70.4775 47.7615 69.6147 44.5576 68.708 41.3748C69.6207 41.0494 69.7885 41.1398 70.0212 41.9803C70.5244 43.7894 71.0306 45.5969 71.5384 47.406C71.5716 47.522 71.626 47.6334 71.7605 47.9754V47.9754Z" fill="black"/>
<path d="M189.163 42.8841C188.871 43.1612 188.645 43.3751 188.497 43.5152C187.502 43.0272 186.694 42.4759 185.801 42.2198C182.732 41.3386 179.734 43.7833 180.365 46.7552C180.773 48.6743 182.93 50.167 185.051 49.9591C186.641 49.8025 187.821 49.1201 188.344 47.5385C188.373 47.4497 188.365 47.3487 188.386 47.1333H185.387C185.351 46.7914 185.326 46.5579 185.292 46.2416H189.663C189.639 47.7343 189.189 48.968 188.065 49.9305C186.29 51.4504 182.251 51.357 180.503 49.3822C179.164 47.8699 178.727 46.1648 179.419 44.2955C180.107 42.4397 181.517 41.3582 183.515 41.0585C185.352 40.7828 187.01 41.1639 188.489 42.2891C188.681 42.4352 188.852 42.6069 189.165 42.8841H189.163Z" fill="black"/>
<path d="M143.063 50.9849C140.048 50.8976 137.76 48.6773 137.898 45.8605C138.043 42.8781 140.292 40.944 143.155 40.9606C146.217 40.9786 148.408 43.2426 148.349 46.1407C148.293 48.8836 145.911 51.0663 143.062 50.9849H143.063ZM143.152 49.9185C145.467 49.9124 147.222 48.2179 147.219 45.987C147.216 43.7683 145.363 41.9878 143.078 42.0074C140.783 42.027 139.071 43.7382 139.075 46.0051C139.08 48.2465 140.827 49.923 143.154 49.9185H143.152Z" fill="black"/>
<path d="M21.7284 50.9744C18.747 50.8991 16.5301 48.7149 16.5921 45.9178C16.6525 43.1161 18.8391 40.9289 21.8569 40.959C24.8942 40.9892 27.1292 43.2998 27.0446 46.1603C26.963 48.9213 24.6162 51.0482 21.7284 50.9759V50.9744ZM25.8508 45.9675C25.8417 43.7351 24.0948 42.0225 21.804 42.0014C19.501 41.9818 17.7798 43.7382 17.7285 46.0307C17.6861 47.9588 19.5947 50.0525 21.9294 49.9365C24.2036 49.8236 25.8598 48.245 25.8523 45.966L25.8508 45.9675Z" fill="black"/>
<path d="M168.425 50.9759C165.405 50.884 163.247 48.6818 163.349 45.7957C163.445 43.0573 165.815 40.837 168.564 40.9424C171.903 41.0705 173.922 43.5348 173.766 46.3515C173.623 48.9409 171.247 51.0602 168.425 50.9743V50.9759ZM168.483 49.9154C170.647 50.0977 172.675 48.2193 172.612 45.9961C172.548 43.7713 170.851 42.0225 168.576 41.9923C166.326 41.9622 164.48 43.7291 164.473 45.9222C164.465 48.1711 166.214 49.9109 168.485 49.9154H168.483Z" fill="black"/>
<path d="M55.6396 41.1985C57.6495 41.1744 59.6275 40.953 61.4711 41.8025C63.3464 42.6671 64.312 44.901 63.8738 47.0926C63.4386 49.2707 62.0106 50.5541 59.7454 50.6791C58.4005 50.7529 57.0495 50.6926 55.6396 50.6926V41.1985V41.1985ZM56.6808 49.6684C57.6494 49.6684 58.4972 49.6608 59.3464 49.6684C62.3128 49.697 63.5277 46.6919 62.476 44.4054C61.663 42.637 58.8931 41.6639 56.6808 42.3855V49.6669V49.6684Z" fill="black"/>
<path d="M93.6414 41.1624C96.0426 41.3206 98.6282 40.6518 100.585 42.7078C102.077 44.2729 102.161 46.1934 101.439 48.1139C100.803 49.8055 99.4442 50.6294 97.6323 50.6897C96.4763 50.7288 95.3218 50.756 94.1658 50.7861C93.7714 50.7966 93.4692 50.7032 93.4722 50.2137C93.4843 47.3548 93.4873 44.4973 93.5009 41.6384C93.5009 41.5224 93.5674 41.4064 93.6414 41.1609V41.1624ZM94.6252 42.3569V49.6684C95.5908 49.6684 96.4657 49.6744 97.3407 49.6684C100.26 49.6443 101.487 46.6106 100.313 44.2503C99.3792 42.3734 97.1775 42.0722 94.6267 42.3584L94.6252 42.3569Z" fill="black"/>
<path d="M202.579 50.765C200.503 48.489 198.428 46.2115 196.352 43.9354C196.29 43.9595 196.228 43.9852 196.166 44.0093V50.7077H195.123V41.313C195.196 41.2693 195.267 41.2256 195.339 41.1819C197.417 43.4821 199.493 45.7822 201.737 48.266V41.3838C202.673 41.0358 202.884 41.1533 202.886 41.9502C202.893 44.6088 202.896 47.2659 202.89 49.9245C202.89 50.1805 202.819 50.4351 202.781 50.6912L202.577 50.762L202.579 50.765Z" fill="black"/>
<path d="M126.565 41.0886C127.786 41.197 128.96 41.1503 130.049 41.432C131.748 41.8703 132.224 43.7291 131.099 45.0742C130.989 45.2053 130.879 45.3363 130.731 45.514C130.901 45.6285 131.034 45.7249 131.172 45.8108C132.132 46.4118 132.635 47.2553 132.458 48.3971C132.284 49.5238 131.578 50.3387 130.51 50.5511C129.253 50.7996 127.938 50.7695 126.562 50.8659V41.0886H126.565ZM127.636 46.1045V49.7738C128.484 49.7121 129.26 49.7166 130.013 49.584C130.759 49.453 131.276 48.8008 131.313 48.1184C131.355 47.3412 130.932 46.7552 130.271 46.5413C129.461 46.2807 128.577 46.2491 127.636 46.103V46.1045ZM127.619 45.2806C128.426 45.1058 129.162 45.0109 129.848 44.776C130.41 44.5832 130.654 44.0273 130.484 43.4836C130.36 43.0829 130.052 42.5662 129.706 42.4457C129.076 42.2243 128.355 42.259 127.619 42.1821V45.2806V45.2806Z" fill="black"/>
<path d="M35.992 46.4736C37.1662 47.9452 38.2179 49.2632 39.3331 50.658C38.5383 50.8704 38.0321 50.8147 37.5953 50.2303C36.7567 49.1066 35.8681 48.0205 34.9781 46.936C34.7862 46.7025 34.5036 46.5459 34.2618 46.3531C34.1908 46.4013 34.1197 46.448 34.0472 46.4962V50.6776C33.6604 50.7108 33.3627 50.7364 33 50.768V41.2031C34.5716 41.1533 36.1295 41.0118 37.6286 41.4877C38.842 41.8734 39.2802 42.7877 39.1503 44.2473C39.0657 45.1887 38.224 46.0337 37.1692 46.2386C36.8352 46.3034 36.5013 46.3711 35.992 46.4721V46.4736ZM34.085 42.1686V45.3936C35.1156 45.3197 36.0676 45.3107 36.9984 45.1646C37.6905 45.0561 38.0774 44.5229 38.0895 43.8195C38.1001 43.1597 37.7993 42.5813 37.1284 42.4638C36.1356 42.2906 35.1186 42.262 34.0865 42.1701L34.085 42.1686Z" fill="black"/>
<path d="M208.33 50.6399C209.885 47.3412 211.42 44.0846 212.956 40.828C213.061 40.8189 213.167 40.8099 213.273 40.8008C214.79 44.0529 216.306 47.305 217.837 50.5872C217.187 50.9081 216.762 50.8523 216.487 50.2769C216.131 49.5328 215.818 48.7646 215.408 48.0521C215.268 47.8081 214.902 47.5671 214.624 47.5505C213.622 47.4903 212.611 47.4888 211.609 47.5475C211.333 47.5641 210.972 47.8081 210.826 48.0521C210.432 48.7179 210.1 49.4259 209.805 50.1429C209.516 50.8448 209.054 50.9065 208.33 50.6429V50.6399ZM214.653 46.3982C214.137 45.3031 213.673 44.3165 213.117 43.1371C212.554 44.3406 212.094 45.3227 211.591 46.3982H214.653Z" fill="black"/>
<path d="M113.303 41.182V42.1882H108.886V45.0938H113.305V46.1241H108.862V49.6488H113.277C113.305 50.0284 113.327 50.3312 113.355 50.7153H107.742C107.715 50.3945 107.668 50.1052 107.668 49.8145C107.662 47.183 107.652 44.55 107.68 41.9186C107.683 41.6715 107.937 41.2181 108.084 41.2136C109.787 41.1639 111.491 41.182 113.303 41.182V41.182Z" fill="black"/>
<path d="M46.2905 49.7633H50.0743V50.7198H45.3037V41.2452H46.2905V49.7633V49.7633Z" fill="black"/>
<path d="M155.081 49.7467H158.74V50.768C157.239 50.768 155.79 50.7921 154.342 50.7318C154.193 50.7258 153.946 50.2107 153.943 49.929C153.912 47.549 153.925 45.1676 153.925 42.7862C153.925 42.5361 153.922 42.2846 153.925 42.0345C153.933 41.1714 154.075 41.0735 155.081 41.322V49.7482V49.7467Z" fill="black"/>
<path d="M86.2612 41.2407H87.1951V50.7198H86.2612V41.2407Z" fill="black"/>
</g>
<defs>
<clipPath id="clip0_3378_4982">
<rect width="218" height="51" fill="white"/>
</clipPath>
</defs>
</svg>
