<svg width="219" height="69" viewBox="0 0 219 69" fill="none" xmlns="http://www.w3.org/2000/svg">
<g clip-path="url(#clip0_3378_4604)">
<path d="M13.2567 0H0V39.8155H13.2567C24.7539 39.8155 33.0957 31.4454 33.0957 19.9101C33.0957 8.37486 24.7491 0 13.2567 0ZM13.3682 31.9024H8.30302V7.90825H13.3682C19.9263 7.90825 24.6909 12.9543 24.6909 19.9053C24.6909 25.8654 20.8036 31.9024 13.3682 31.9024M48.0974 11.6507C40.1676 11.6507 34.1863 17.8465 34.1863 26.0578C34.1863 34.2691 40.7056 40.4649 49.0329 40.4649C55.5958 40.4649 59.8564 36.7032 60.0309 36.5396L60.5786 36.0489L56.8754 30.5363L56.2889 29.6752L55.5473 30.4112C55.5473 30.4112 53.1335 32.7731 49.028 32.7731C45.9502 32.7731 43.8271 30.9259 42.9547 29.2471H61.9648L62.0085 28.4437C62.0666 27.4384 62.0666 26.433 62.0666 25.9472C62.0666 17.7936 56.0611 11.6507 48.0974 11.6507M42.7899 22.8108C43.2988 21.2522 44.7966 19.2848 48.0974 19.2848C51.3983 19.2848 53.0996 21.1897 53.6037 22.8108H42.7899ZM77.3349 11.6507C69.4002 11.6507 63.419 17.8465 63.419 26.0578C63.419 34.2691 69.9383 40.4649 78.2655 40.4649C84.8284 40.4649 89.089 36.7032 89.2635 36.5396L89.8112 36.0489L85.5216 29.6656L84.78 30.416C84.78 30.416 82.4049 32.7731 78.2607 32.7731C75.1828 32.7731 73.0598 30.9259 72.1873 29.2471H91.1975L91.2411 28.4437C91.2944 27.4384 91.2944 26.433 91.2944 25.9472C91.2944 17.7936 85.2889 11.6507 77.3252 11.6507M72.0177 22.8108C72.5266 21.2522 74.0243 19.2848 77.3252 19.2848C80.626 19.2848 82.3274 21.1897 82.8315 22.8108H72.0177V22.8108ZM108.225 11.6507C104.91 11.6507 102.612 13.0457 101.241 14.2724V12.3001H93.4368V52.3369H101.735V38.3194C103.097 39.3825 105.225 40.4697 108.23 40.4697C115.816 40.4697 121.758 34.1392 121.758 26.0626C121.758 17.986 115.816 11.6555 108.23 11.6555M107.076 32.6721C103.795 32.6721 102.137 30.3535 101.735 29.7041V22.426C102.142 21.7718 103.8 19.458 107.076 19.458C110.828 19.458 113.353 22.1133 113.353 26.0674C113.353 30.0215 110.833 32.6769 107.076 32.6769M129.048 0H153.531V7.90825H137.346V15.5183H152.43V23.4265H137.346V39.8155H129.048V0ZM218.995 40.9459L218.409 41.35C218.297 41.4269 215.675 43.1875 211.666 43.1875C206.417 43.1875 202.51 39.5509 201.987 34.3797V20.752C200.31 19.7129 198.381 19.2607 196.364 19.1886C192.365 19.0443 184.654 19.0828 183.864 13.7096C183.471 11.0109 185.715 8.69235 188.221 8.11991C189.535 7.81686 190.936 7.91787 192.191 8.40372C194.847 9.43314 196.514 11.9009 198.478 13.8202C199.418 14.739 200.591 15.7876 201.987 15.8261V7.35025H210.222V15.0276H218.065V22.6088H210.222V32.1573C210.222 34.3316 211.056 35.3899 212.767 35.3899C213.935 35.3899 214.991 34.6347 215.006 34.6299L215.859 34.0142L219 40.9507L218.995 40.9459ZM195.104 26.7842C193.771 25.596 192.012 24.9851 190.271 24.5666C188.691 24.1866 187.101 23.9027 185.541 23.441C184.896 23.2485 184.256 23.0176 183.641 22.7531C179.167 20.8193 176.375 18.5921 175.604 13.8491C173.438 12.4541 170.835 11.6507 167.975 11.6507C160.04 11.6507 154.059 17.8465 154.059 26.0578C154.059 34.2691 160.583 40.4649 168.906 40.4649C171.557 40.4649 173.821 39.8491 175.599 39.1083V30.238L175.425 30.416C175.425 30.416 173.05 32.7731 168.906 32.7731C165.828 32.7731 163.705 30.9259 162.832 29.2471H175.599C175.595 26.6639 179.336 26.4522 181.009 27.4191C183.476 28.843 183.946 32.0611 186.064 33.8458C188.405 35.8229 191.924 35.8421 194.454 34.2018C197.324 32.3401 197.683 29.0835 195.099 26.7793M162.663 22.806C163.172 21.2474 164.669 19.28 167.97 19.28C171.271 19.28 172.972 21.1849 173.476 22.806H162.663Z" fill="#181D20"/>
<path d="M159.711 50.5234V60.7983H159.745L158.935 61.6016H160.699L157.379 64.8968H155.615L156.424 64.0934H155.92V52.3321L157.743 50.5234H159.711V50.5234ZM165.023 64.0934L166.332 62.7898V60.7935H161.509L158.189 64.0886H165.023V64.0934ZM155.305 50.1433V51.952L157.127 50.1433H155.305ZM173.787 55.7619H175.667L177.761 53.679H173.782V55.7619H173.787ZM182.012 52.8035H178.847L175.866 55.7619H180.437V58.7635H173.791V60.9426H181.227V64.18H172.366L170.011 61.847V50.4416H181.125L182.012 49.5613V52.7987V52.8035ZM200.247 58.4605H198.124L194.706 50.4416H191.052L186.433 61.2842V64.1079H189.191L191.323 58.778H191.304L192.845 54.92L192.855 54.9441L192.865 54.92L194.265 58.4605H196.388L197.658 61.6738H195.535L196.495 64.1079H199.5V61.7075L199.486 61.669H201.609L200.242 58.4557L200.247 58.4605ZM214.579 56.0649C214.672 55.8484 214.72 55.6079 214.72 55.3385V55.3001C214.72 54.9345 214.638 54.6362 214.487 54.3813H213.232C213.14 54.2273 213.033 54.083 212.888 53.9676C212.5 53.6597 211.967 53.5106 211.274 53.5106H209.495V54.3813H210.75V56.0697H209.495V57.1184H211.293C211.972 57.1184 212.5 56.9596 212.888 56.6421C213.082 56.4834 213.227 56.291 213.324 56.0745H214.579V56.0649ZM216.819 57.2867C216.523 57.8928 216.121 58.4027 215.597 58.8164C215.074 59.2301 214.453 59.538 213.731 59.7448C213.009 59.9517 212.224 60.0575 211.376 60.0575H209.5V61.6065L207.154 63.9347H205.709V56.0649H206.965V54.3765H205.709V52.6592L208.021 50.3646H211.569C212.427 50.3646 213.213 50.4704 213.915 50.6821C214.618 50.8938 215.219 51.2064 215.714 51.6153C216.208 52.0242 216.591 52.5245 216.858 53.1161C217.032 53.501 217.144 53.9243 217.202 54.3765H218.457C218.491 54.6218 218.515 54.8719 218.515 55.1317V55.1702C218.515 55.4829 218.486 55.7763 218.443 56.0649H217.187C217.119 56.5075 216.998 56.9163 216.824 57.2867" fill="#181D20"/>
<path d="M131.709 65.6279C130.866 65.6279 130.124 65.4307 129.485 65.0411C128.85 64.6514 128.36 64.0886 128.031 63.3574V65.3056H126.673V52.3657H128.389V57.4695C128.748 56.8057 129.228 56.315 129.834 55.9976C130.44 55.6801 131.113 55.5165 131.85 55.5165C132.766 55.5165 133.566 55.7378 134.244 56.1707C134.923 56.6085 135.451 57.1905 135.834 57.9265C136.217 58.6577 136.406 59.4755 136.406 60.3702V60.6877C136.406 61.5728 136.208 62.3905 135.815 63.141C135.422 63.8914 134.875 64.4927 134.172 64.94C133.469 65.3874 132.65 65.6135 131.709 65.6135V65.6279ZM131.511 64.1415C132.155 64.1415 132.713 63.9876 133.188 63.6797C133.663 63.3719 134.031 62.9485 134.293 62.4146C134.555 61.8806 134.686 61.2553 134.686 60.5434C134.686 59.4803 134.395 58.624 133.808 57.9794C133.227 57.3348 132.456 57.0125 131.506 57.0125C130.934 57.0125 130.406 57.1376 129.916 57.3926C129.426 57.6475 129.039 58.0131 128.748 58.4893C128.457 58.9704 128.312 59.5428 128.312 60.2163V61.034C128.312 61.6834 128.462 62.2414 128.758 62.6984C129.053 63.1602 129.446 63.5162 129.935 63.7615C130.425 64.0068 130.948 64.1319 131.506 64.1319L131.511 64.1415Z" fill="#181D20"/>
<path d="M140.909 65.0988L137.497 55.8436H139.247L142.015 63.6797H142.388L144.729 55.8436H146.406L143.226 66.3206C142.94 67.2538 142.48 67.9321 141.85 68.3602C141.22 68.7835 140.415 69 139.441 69H138.171V67.4751H139.547C140.144 67.4751 140.609 67.3549 140.948 67.1191C141.287 66.8834 141.544 66.4697 141.724 65.8781L141.956 65.0988H140.905H140.909Z" fill="#181D20"/>
</g>
<defs>
<clipPath id="clip0_3378_4604">
<rect width="219" height="69" fill="white"/>
</clipPath>
</defs>
</svg>
