<svg width="222" height="60" viewBox="0 0 222 60" fill="none" xmlns="http://www.w3.org/2000/svg">
<g clip-path="url(#clip0_3378_4638)">
<path d="M46.643 54.7186C45.67 53.9912 43.6975 53.5632 42.7378 54.5834C42.3858 54.9599 42.3393 55.5393 42.5153 56.0188C42.6913 56.4983 43.0566 56.891 43.4484 57.2289C43.8868 57.6054 44.3882 57.9402 44.9594 58.0721C45.5306 58.2041 46.1848 58.1043 46.6065 57.7084C47.0847 57.2579 47.171 56.5563 47.2042 55.9094C47.2142 55.7227 47.2208 55.5328 47.1644 55.3558C47.0814 55.0919 46.8722 54.8859 46.6463 54.7186H46.643Z" fill="#00B300"/>
<path d="M30.8335 55.7001C30.5313 55.6165 30.1793 55.6744 29.8472 55.7645C28.4093 56.1507 26.4268 57.5411 26.5563 58.9249C26.6028 59.4335 27.0843 59.8068 27.6555 59.9355C28.2267 60.0643 28.8709 59.9902 29.4886 59.8583C30.1826 59.7135 30.8866 59.4882 31.4677 59.0923C32.0489 58.6932 32.4905 58.0946 32.4806 57.5185C32.4706 56.862 31.9127 56.3857 31.3648 55.9866C31.2054 55.8707 31.0427 55.7549 30.8368 55.7001H30.8335Z" fill="#00B300"/>
<path d="M39.1186 48.4334C38.9957 48.3271 38.8695 48.2209 38.7168 48.163C38.4943 48.0761 38.2386 48.1019 38.0061 48.1566C36.99 48.3915 35.6417 49.4278 35.8244 50.5929C35.8908 51.0209 36.266 51.3621 36.6878 51.5037C37.1095 51.6485 37.5711 51.6228 38.0128 51.5519C38.5042 51.4715 39.0024 51.3299 39.3975 51.0338C39.7927 50.7377 40.075 50.2646 40.0285 49.7818C39.9787 49.2347 39.5436 48.8035 39.1186 48.4366V48.4334Z" fill="#00B300"/>
<path d="M221.821 16.9416C221.389 16.3141 220.29 15.6704 219.5 16.0952C219.207 16.2529 219.061 16.5908 219.065 16.9159C219.071 17.2377 219.207 17.5467 219.373 17.8267C219.559 18.1389 219.788 18.4382 220.107 18.6281C220.423 18.8179 220.838 18.8855 221.173 18.7311C221.555 18.554 221.754 18.1485 221.907 17.7688C221.95 17.6593 221.997 17.5467 222 17.4276C222.003 17.2538 221.92 17.0897 221.821 16.9449V16.9416Z" fill="#00B300"/>
<path d="M203.822 17.3889C203.733 17.8941 204.018 18.4123 204.437 18.7309C204.855 19.0463 205.383 19.1879 205.908 19.2716C206.492 19.3617 207.106 19.3842 207.668 19.1944C208.229 19.0045 208.727 18.5764 208.866 18.0164C209.022 17.3824 208.704 16.7355 208.368 16.1691C208.272 16.005 208.172 15.8408 208.023 15.7185C207.804 15.5383 207.512 15.4739 207.226 15.4482C205.991 15.342 204.068 16.0114 203.822 17.3889Z" fill="#00B300"/>
<path d="M212.357 11.9563C212.579 12.1237 212.865 12.2009 213.144 12.246C213.456 12.2943 213.785 12.3071 214.083 12.2041C214.382 12.1044 214.651 11.8727 214.724 11.5766C214.807 11.2386 214.638 10.8911 214.459 10.5885C214.409 10.5016 214.352 10.4115 214.273 10.3471C214.156 10.2506 213.997 10.2152 213.848 10.2023C213.187 10.1444 212.161 10.5048 212.028 11.2386C211.978 11.509 212.134 11.7858 212.357 11.9563V11.9563Z" fill="#00B300"/>
<path d="M43.8577 44.7287L43.6685 44.7683C43.6685 44.7683 43.7382 44.7551 43.8577 44.7287Z" fill="#00B300"/>
<path d="M205.602 10.8264C194.189 12.7446 189.072 11.3027 189.221 5.52898V4.39612L176.668 8.05862V14.6531H170.997V18.0774L205.602 10.8232V10.8264Z" fill="#00B300"/>
<path d="M197.081 26.3067V15.4383L170.997 21.8815V26.3099H176.668V37.2298C176.668 42.9939 178.179 47.0233 181.205 49.3212C184.329 51.5194 189.623 52.1792 197.081 51.3005V40.3098C194.106 40.4579 192.054 40.3227 190.918 39.9075C189.782 39.4924 189.218 38.5043 189.218 36.9402V26.3164H197.081V26.3067Z" fill="#00B300"/>
<path d="M166.168 19.0911C163.079 15.4544 158.57 13.6296 152.632 13.6296C148.448 13.6296 144.868 14.7045 141.896 16.8544C139.136 18.8498 137.659 21.6015 137.459 25.1095L166.168 19.0911V19.0911Z" fill="#00B300"/>
<path d="M159.337 28.5567L167.078 22.8473L156.72 25.4059C157.969 25.9723 158.972 27.2114 159.337 28.5567V28.5567Z" fill="#00B300"/>
<path d="M164.77 31.3985C163.485 30.5456 162.2 29.8858 160.914 29.4192C159.629 28.9557 158.231 28.576 156.717 28.2831C154.499 27.7939 152.848 27.3433 151.766 26.9281C151.606 26.867 151.46 26.8026 151.324 26.735L138.161 29.9856C138.263 30.2431 138.37 30.4941 138.496 30.7355C139.2 32.129 140.196 33.2394 141.481 34.0697C142.766 34.9 144.025 35.5727 145.26 36.0844C146.496 36.5961 147.867 37.0016 149.381 37.2945C151.649 37.832 153.3 38.3083 154.333 38.7235C155.365 39.1386 155.883 39.6632 155.883 40.3005C155.883 41.62 154.748 42.2798 152.48 42.2798C149.504 42.2798 147.538 40.9377 146.582 38.2504L135.62 43.5993C138.443 49.4149 144.088 52.3178 152.556 52.3178C156.943 52.3178 160.772 51.3169 164.049 49.3119C167.274 47.3583 168.888 44.2558 168.888 40.0044C168.888 38.0991 168.522 36.403 167.792 34.9129C167.061 33.4228 166.052 32.2513 164.767 31.3952L164.77 31.3985Z" fill="#00B300"/>
<path d="M104.082 32.1932C104.229 30.1978 104.949 28.5275 106.244 27.1854C107.656 25.721 109.572 24.9873 111.989 24.9873C114.407 24.9873 116.323 25.721 117.734 27.1854C118.279 27.7486 118.72 28.373 119.062 29.052L132.478 26.2392V14.6563H119.926V18.0259C117.356 15.094 113.776 13.6296 109.19 13.6296C104.099 13.6296 99.8651 15.4866 96.4879 19.1974C93.1107 22.8116 91.4204 27.4042 91.4204 32.9752C91.4204 33.606 91.4437 34.224 91.4902 34.8322L104.079 32.1932H104.082Z" fill="#00B300"/>
<path d="M119.796 34.6297C119.524 36.2453 118.84 37.6228 117.738 38.7653C116.326 40.2297 114.41 40.9634 111.993 40.9634C109.575 40.9634 107.656 40.2297 106.248 38.7653C106.045 38.5561 105.863 38.3373 105.687 38.1152L92.958 41.2595C93.7948 43.3 94.9704 45.157 96.4913 46.8273C99.8685 50.4898 104.103 52.3243 109.193 52.3243C113.779 52.3243 117.359 50.8599 119.929 47.928V51.2976H132.482V31.4982L119.796 34.6297V34.6297Z" fill="#00B300"/>
<path d="M57.8579 49.8201C61.0425 51.4872 64.805 52.3208 69.1518 52.3208C76.3081 52.3208 81.7276 50.0486 85.407 45.5075L82.7172 43.6827L57.8579 49.8201V49.8201Z" fill="#00B300"/>
<path d="M43.8574 44.7287L63.6625 40.577C62.4504 39.84 61.5538 38.7973 60.9826 37.4455H78.6026L87.4292 35.595C87.5421 34.7582 87.5986 33.8635 87.5986 32.9012C87.5986 27.3334 85.7589 22.7408 82.0795 19.1266C78.4 15.4641 73.7377 13.6296 68.0924 13.6296C62.4471 13.6296 57.4327 15.4866 53.6504 19.1974C49.8713 22.9114 47.9785 27.5265 47.9785 33.046C47.9785 34.5394 48.1213 35.9619 48.3969 37.3168C48.4036 37.349 48.4069 37.3747 48.4102 37.4069C49.3965 43.1195 44.8437 44.4938 43.8574 44.7255V44.7287ZM68.2418 23.8898C72.0209 23.8898 74.3919 25.5987 75.3483 29.0199H60.8299C61.8892 25.602 64.3565 23.8898 68.2385 23.8898H68.2418Z" fill="#00B300"/>
<path d="M24.6936 48.7454V33.7092H43.2932V21.032H24.6936V12.6771H43.6718V0H11.1582V39.2126C11.1582 45.6879 7.01717 51.5164 0.740922 53.7403C0.276015 53.9044 -0.00292969 53.9784 -0.00292969 53.9784L24.6903 48.7454H24.6936Z" fill="#00B300"/>
</g>
<defs>
<clipPath id="clip0_3378_4638">
<rect width="222" height="60" fill="white"/>
</clipPath>
</defs>
</svg>
