<svg width="202" height="81" viewBox="0 0 202 81" fill="none" xmlns="http://www.w3.org/2000/svg">
<g clip-path="url(#clip0_3378_4613)">
<path d="M111.138 17.7446H110.76V79.8132H111.138V17.7446Z" fill="#48484A"/>
<path d="M202 79.4554C199.999 79.5684 197.979 79.7944 195.978 79.7191C194.751 79.6814 193.826 78.8714 193.505 77.534C193.429 77.2326 193.259 76.9312 193.259 76.6298C193.24 73.1637 193.259 69.7165 193.259 65.9679C194.713 65.9114 195.997 65.8549 197.28 65.8361C198.602 65.8172 199.905 65.8361 201.377 65.8361C201.434 66.6649 201.453 67.3242 201.509 68.2472C199.772 68.3603 198.206 68.4544 196.506 68.5675V71.1482C197.828 71.2423 199.055 71.3177 200.471 71.4119C200.546 72.0712 200.622 72.7305 200.716 73.6347C199.282 73.71 197.998 73.7854 196.544 73.8607V76.9312C197.413 77.0065 198.224 77.0442 199.036 77.1196C200.018 77.2326 201 77.4021 201.981 77.534V79.4365L202 79.4554Z" fill="#FF0007"/>
<path d="M97.3941 51.6516C97.9416 52.9702 98.5457 54.1758 98.9044 55.4379C99.7162 58.3388 98.9422 61.0326 97.5074 63.5756C95.6951 66.7779 92.9766 69.2079 90.3336 71.6379C84.9532 76.5921 78.61 79.8321 71.3796 80.6798C56.3334 82.4505 42.8919 76.9877 34.9441 62.6149C30.6964 54.9293 28.9029 46.5656 29.7525 37.7874C30.3188 31.8726 32.3766 26.4474 36.7753 22.2091C39.2483 19.8356 42.1745 18.404 45.516 18.1026C47.1018 17.9519 48.782 18.3098 50.33 18.743C52.5011 19.3458 54.5966 20.2312 56.711 21.0035C57.8814 21.4367 59.0708 21.8323 60.2224 22.3221C64.5644 24.1493 68.8687 23.8856 73.1919 22.2091C76.1747 21.06 79.1575 19.9109 82.1781 18.8749C88.3325 16.784 93.3541 18.9691 97.564 23.4712C100.603 26.7112 102.284 30.7235 103.039 35.0372C103.454 37.4295 103.511 39.8972 103.586 42.3272C103.7 45.8498 102.152 48.5435 99.2254 50.446C98.5835 50.8793 97.9227 51.2749 97.3753 51.6516H97.3941ZM58.7121 56.1349C60.902 60.4298 63.7149 63.6509 67.3018 66.1186C72.8332 69.9049 78.931 71.506 85.5196 69.9802C91.0698 68.6805 94.8455 65.1014 96.6956 59.6198C97.5641 57.0391 96.7334 54.854 94.9399 52.763C83.2353 56.5116 71.1719 56.3986 58.6932 56.1537L58.7121 56.1349Z" fill="#FF0007"/>
<path d="M64.527 7.30881C62.7902 7.30881 61.1855 7.28997 59.5619 7.32765C57.0888 7.38416 54.8423 8.28834 52.7657 9.55044C49.8961 11.3023 47.121 13.186 44.2892 15.0132C41.1365 17.0288 37.9272 18.969 34.378 20.2123C28.7711 22.1337 23.2208 21.6816 17.6705 19.9109C11.7993 18.046 6.6266 14.9002 1.75594 11.1704C1.45389 10.9444 1.15183 10.6995 0.868652 10.4546C5.05968 11.9051 12.7244 14.2221 18.7088 14.1656C30.9799 14.0337 38.6445 1.1302 64.527 7.30881V7.30881Z" fill="#006C33"/>
<path d="M0.132484 9.83301C0.132484 9.83301 0.189119 9.87068 0.207998 9.90836C0.170241 9.88952 0.132484 9.88952 0.0947266 9.88952L0.132484 9.83301V9.83301Z" fill="#999999"/>
<path d="M64.5271 7.30887C38.6446 1.13026 30.98 14.0338 18.7089 14.1656C12.7245 14.2221 5.05978 11.9051 0.868755 10.4547C0.642213 10.2663 0.43455 10.0779 0.208008 9.9084C2.86988 10.0591 5.5695 10.4924 8.19362 10.2098C11.9504 9.81422 15.6884 8.96654 19.3886 8.10003C24.6934 6.87561 29.8095 4.99189 34.9067 3.01398C41.5519 0.433286 48.3482 -0.150668 55.2577 1.88375C58.7314 2.90096 61.8274 4.6905 64.5271 7.30887Z" fill="#009838"/>
<path d="M148.423 44.3428H142.061C141.947 43.7588 141.74 43.2314 141.74 42.7228C141.74 34.9054 141.721 27.1067 141.74 19.2893C141.74 17.2926 142.08 16.9535 144.081 16.9723C145.516 16.9912 147.026 16.5956 148.555 17.5374V27.3516C150.367 27.8602 157.239 27.9544 160.354 27.54C160.392 26.7677 160.448 25.9388 160.467 25.11C160.467 23.1321 160.448 21.173 160.467 19.1951C160.505 17.4244 160.92 17.0288 162.733 16.9723C163.828 16.9347 164.923 16.9535 166.018 16.9723C166.848 16.9912 167.301 17.4998 167.377 18.3098C167.415 18.7054 167.396 19.1009 167.396 19.4965V42.2142C167.396 42.8358 167.32 43.4386 167.264 44.1544C165.206 44.7761 163.186 44.2863 160.958 44.5123C159.901 41.0086 160.845 37.4295 160.354 34.0012C158.787 33.4549 151.481 33.3607 148.857 33.8693C148.328 37.2223 149.008 40.6884 148.423 44.3428V44.3428Z" fill="#006B34"/>
<path d="M191.9 17.0853C194.09 26.2214 196.223 35.1314 198.356 44.0414C196.487 44.5688 193.033 44.6065 190.673 44.1732C190.258 42.2707 189.823 40.2928 189.37 38.2395H181.498C181.045 40.2739 180.629 42.2518 180.139 44.4181C177.647 44.4181 175.192 44.5688 172.568 44.3051C174.777 35.0937 176.948 26.1272 179.119 17.0853H191.9V17.0853ZM182.574 32.9086H188.256C187.407 29.4237 186.746 26.033 185.387 22.2467C184.367 26.1272 183.499 29.4049 182.574 32.9086V32.9086Z" fill="#006B34"/>
<path d="M137.096 17.0854C137.284 19.2516 137.662 21.0788 136.699 23.0191C134.585 23.0191 132.489 23.0568 130.394 23.0191C128.997 23.0002 127.789 23.377 126.788 24.3754C125.976 25.1854 125.448 26.1084 125.504 27.2951C125.542 27.9921 125.504 28.7079 125.504 29.5933C128.884 30.083 132.225 29.4991 135.567 29.9512C136.208 31.7784 135.906 33.5491 135.793 35.6023C132.433 35.8849 129.11 35.5835 125.58 35.7907V44.1921C123.22 44.6254 121.087 44.3805 118.802 44.3805C118.727 43.7777 118.576 43.2691 118.576 42.7605C118.576 37.6368 118.538 32.513 118.576 27.3893C118.576 26.0707 118.802 24.7144 119.123 23.4335C120.011 19.7414 122.389 17.4433 126.108 17.123C129.658 16.8216 133.244 17.0477 137.077 17.0477L137.096 17.0854Z" fill="#006B34"/>
<path d="M63.8472 17.4433C63.8472 10.1156 69.5485 1.95907 78.5535 0.357907C79.3275 0.226047 80.0827 0.0188372 80.8567 0C82.046 0 82.8578 0.734651 82.9711 1.7707C83.1221 2.95744 82.4425 3.82395 81.1776 4.08767C80.347 4.25721 79.4786 4.33256 78.6668 4.53977C72.3425 6.10326 67.9816 11.6037 67.7928 18.1591C67.7739 18.7807 67.8117 19.4212 67.6606 20.0051C67.3963 20.9658 66.4146 21.6063 65.5651 21.5121C64.6212 21.3991 63.9793 20.7209 63.8849 19.5907C63.8283 18.8937 63.8849 18.1779 63.8849 17.4621L63.8472 17.4433Z" fill="#006C33"/>
<path d="M165.904 55.551C165.64 55.0612 165.357 54.7598 165.262 54.383C165.093 53.7803 164.923 53.1586 164.942 52.5558C164.942 50.7098 166.188 49.6549 168.377 49.5419C171.058 49.3912 172.738 50.333 172.852 52.2168C172.889 52.9326 172.568 53.7426 172.191 54.383C171.851 54.967 171.228 55.4003 170.624 56.0219C171.039 56.474 171.417 56.8884 171.945 57.4724C172.436 56.5493 172.833 55.8335 173.305 54.9858C173.947 54.9293 174.626 54.854 175.268 54.7975C177.043 56.5493 175.136 57.8679 174.909 59.4503C175.268 59.6575 175.665 59.9024 176.042 60.1472C176.778 60.5993 176.929 61.3717 176.533 61.9744C176.25 62.4077 175.495 62.8033 175.004 62.7468C174.116 62.6526 173.248 62.2005 172.229 61.8426C171.492 62.0686 170.624 62.4642 169.718 62.5961C168.736 62.7279 167.679 62.8033 166.735 62.5584C163.96 61.8803 163.054 59.2054 164.696 56.8884C165.017 56.4363 165.414 56.0784 165.885 55.551H165.904ZM169.831 59.5256C169.038 58.9228 168.453 58.4707 167.849 57.9998C167.603 58.3577 167.415 58.5272 167.377 58.7156C167.32 58.9228 167.339 59.2242 167.452 59.3749C168 60.1472 168.717 60.1472 169.831 59.5068V59.5256ZM168.642 53.931C169.454 53.6107 170.02 53.1775 169.51 52.3486C169.378 52.1414 168.547 52.0472 168.34 52.2544C167.622 52.8949 168.038 53.46 168.642 53.931V53.931Z" fill="#FF0007"/>
<path d="M119.274 65.8549C121.257 65.8549 123.126 65.7607 124.957 65.8925C127.128 66.0432 128.393 68.2849 127.732 70.6583C127.562 71.2611 127.241 71.8074 126.958 72.4856C128.185 73.5028 128.11 74.9344 128.053 76.3472C127.977 78.3816 126.901 79.5872 124.938 79.7756C123.711 79.8886 122.446 79.8132 121.219 79.8132C120.615 79.8132 120.011 79.7567 119.274 79.719V65.8549V65.8549ZM124.636 73.9737C123.881 73.9172 123.182 73.8795 122.446 73.823V76.9123H124.636V73.9737ZM122.446 68.6616V71.4683C123.22 71.3742 123.843 71.2988 124.409 71.2423C124.806 68.7935 124.655 68.6239 122.446 68.6616V68.6616Z" fill="#FF0007"/>
<path d="M161.091 65.8549C162.903 65.8549 164.753 65.7984 166.603 65.8737C168.208 65.9491 169.171 66.8909 169.492 68.4544C169.529 68.6051 169.567 68.7746 169.548 68.9253C168.963 72.4102 169.831 75.8951 169.454 79.6626C168.529 79.7191 167.641 79.7567 166.49 79.8321C166.377 77.9295 166.282 76.1777 166.169 74.2939H164.017V79.6249H161.147C160.675 77.8353 160.619 68.3414 161.091 65.8549V65.8549ZM164.187 68.6428V71.5249C164.885 71.4495 165.414 71.4119 165.961 71.3553C166.339 70.3758 166.584 69.4905 165.754 68.6428H164.187Z" fill="#FF0007"/>
<path d="M140.23 55.6074C140.23 54.4207 140.192 53.2528 140.23 52.066C140.324 49.7679 141.306 48.7884 143.533 48.713C144.383 48.6753 145.251 48.6753 146.101 48.713C148.026 48.7695 149.291 49.7679 149.367 51.6516C149.48 54.3265 149.499 57.0014 149.348 59.6574C149.235 61.5411 148.121 62.4077 146.271 62.4642C145.27 62.5018 144.251 62.5018 143.231 62.4642C141.362 62.4077 140.362 61.4846 140.249 59.6009C140.173 58.2635 140.249 56.926 140.249 55.5886L140.23 55.6074ZM143.798 51.6328C143.288 53.8932 143.59 56.1725 143.571 58.4142C143.571 59.9023 144.005 60.0718 145.912 59.3749C145.912 57.1898 145.95 54.9293 145.893 52.6688C145.874 51.5574 145.176 51.1995 143.798 51.6328V51.6328Z" fill="#FF0007"/>
<path d="M181.536 79.6814H178.402C178.119 78.6642 177.855 77.7035 177.553 76.6298H174.947C174.702 77.647 174.457 78.6077 174.211 79.6626H170.983C171.851 74.9721 172.682 70.47 173.513 65.9302H178.893C179.856 70.3947 180.743 74.9344 181.555 79.6814H181.536ZM176.193 69.4716C175.457 70.8091 175.004 72.1842 175.382 73.6723H176.835C176.609 72.1842 176.401 70.8279 176.193 69.4716V69.4716Z" fill="#FF0007"/>
<path d="M129.865 55.6639C129.865 54.4018 129.846 53.1397 129.865 51.8777C129.922 49.8244 130.866 48.8072 132.829 48.7318C133.924 48.6753 135.019 48.6753 136.114 48.7318C137.587 48.826 138.682 49.749 138.738 51.2183C138.833 54.1381 138.851 57.0579 138.738 59.9588C138.682 61.5035 137.681 62.37 136.152 62.4453C134.906 62.5207 133.66 62.5207 132.414 62.4453C130.885 62.3511 129.96 61.4469 129.884 59.9023C129.809 58.4895 129.884 57.0579 129.884 55.6451H129.865V55.6639ZM133.169 51.6704C133.131 54.4207 132.942 57.039 133.339 59.9588C134.188 59.7704 134.793 59.6386 135.491 59.469C135.491 57.1521 135.548 55.0423 135.491 52.9325C135.453 51.5574 135.189 51.4444 133.188 51.6516L133.169 51.6704Z" fill="#FF0007"/>
<path d="M150.972 62.483V48.7507C153.143 48.7507 155.219 48.6377 157.296 48.7884C158.957 48.9014 159.656 49.7302 159.712 51.4068C159.788 54.0063 159.826 56.6058 159.788 59.2054C159.75 61.2586 158.599 62.4077 156.579 62.4642C154.804 62.5207 153.011 62.4642 150.972 62.4642V62.483ZM156.465 51.4068C155.484 51.4633 154.766 51.4821 154.087 51.5198C153.671 54.7033 153.766 58.2447 154.332 60.053C155.012 59.9588 155.71 59.8835 156.465 59.7893V51.4068V51.4068Z" fill="#FF0007"/>
<path d="M191.617 65.8361C191.522 66.9098 191.466 67.5879 191.39 68.5109C190.182 68.5109 189.106 68.4733 188.03 68.5109C186.52 68.5675 186.217 68.85 186.18 70.3005C186.123 71.9582 186.123 73.6158 186.18 75.2547C186.236 76.6109 186.406 76.6863 188.2 76.8747C188.955 75.4242 188.256 73.8042 188.691 72.1654C189.653 71.6944 190.673 71.8828 191.919 72.1088C192.145 74.5577 191.994 76.9689 192.032 79.6249C189.71 79.8133 187.558 80.0205 185.443 79.5495C183.688 79.1728 182.989 78.1933 182.933 76.3284C182.876 73.8984 182.857 71.4496 182.933 69.0007C182.989 66.9286 184.141 65.8549 186.18 65.8172C187.879 65.7795 189.578 65.8172 191.617 65.8172V65.8361Z" fill="#FF0007"/>
<path d="M139.267 65.9679H142.344C142.986 69.0572 143.628 72.1653 144.288 75.2735C144.42 75.2735 144.553 75.2735 144.685 75.2735C145.289 72.203 145.874 69.1514 146.497 65.9867H149.518C148.555 70.6018 147.63 75.1039 146.686 79.6814H142.268C141.268 75.1039 140.305 70.6207 139.285 65.9679H139.267Z" fill="#FF0007"/>
<path d="M132.829 77.0819H137.436C138.04 77.9861 137.851 78.7772 137.662 79.7944C135.888 79.7944 134.189 79.8698 132.49 79.7756C130.809 79.6814 129.62 78.6454 129.545 76.9689C129.412 73.3709 129.507 69.773 129.507 66.0244C132.244 65.7042 134.793 65.9302 137.53 65.8549V68.3791H133.15C132.395 69.3398 132.678 70.1686 132.773 71.2423C134.075 71.3177 135.359 71.3742 136.775 71.4496V73.7477H133.056C132.433 74.8591 132.622 75.8386 132.848 77.1196L132.829 77.0819Z" fill="#FF0007"/>
<path d="M150.99 65.9491H158.844C158.881 66.6837 158.938 67.3995 158.995 68.3791H154.03V71.1858C155.464 71.2612 156.748 71.3365 158.24 71.4119C158.296 72.1088 158.334 72.7681 158.41 73.6347C156.918 73.7288 155.559 73.8042 154.086 73.8984V77.0442H159.165C159.24 77.9295 159.297 78.6642 159.353 79.38C158.013 79.7567 154.218 79.9451 153.293 79.6626C152.104 79.3047 151.047 78.6265 151.028 77.2891C150.953 73.5405 151.009 69.7919 151.009 65.9302L150.99 65.9491Z" fill="#FF0007"/>
<path d="M122.673 62.4265H119.388C118.802 60.9572 119.161 59.4691 119.104 57.9998C119.048 56.5117 119.104 55.0047 119.104 53.5165V48.9768C120.69 48.487 122.238 48.7696 123.749 48.7319C125.202 48.6754 126.675 48.7319 128.279 48.7319C128.336 49.6549 128.374 50.4084 128.43 51.2184C126.656 52.0472 124.825 51.2561 122.899 51.84C122.861 52.6124 122.824 53.4224 122.786 54.5149C124.183 54.6468 125.467 54.741 126.901 54.8728V57.51C125.618 57.5665 124.334 57.6419 122.918 57.7172C122.842 59.3372 122.767 60.863 122.691 62.4265H122.673Z" fill="#FF0007"/>
<path d="M0.151296 9.83304C0.151296 9.83304 -0.0186104 9.70118 0.0191466 9.72002C0.0191466 9.68235 0.0380251 9.79537 0.0757822 9.88956L0.132418 9.83304H0.151296Z" fill="#999999"/>
</g>
<defs>
<clipPath id="clip0_3378_4613">
<rect width="202" height="81" fill="white"/>
</clipPath>
</defs>
</svg>
