<svg width="233" height="82" viewBox="0 0 233 82" fill="none" xmlns="http://www.w3.org/2000/svg">
<g clip-path="url(#clip0_3378_4893)">
<path d="M161.192 34.6023L160.989 36.3988C160.268 36.0876 159.527 35.9309 158.769 35.9309C158.31 35.9309 157.909 36.049 157.568 36.2852C157.225 36.5214 157.054 36.9075 157.054 37.4457C157.054 37.85 157.182 38.1248 157.441 38.2656C157.696 38.4064 158.28 38.6653 159.19 39.0446C160.1 39.4239 160.769 39.8327 161.194 40.2778C161.619 40.7229 161.833 41.3566 161.833 42.1855C161.833 42.9418 161.651 43.5663 161.287 44.0614C160.923 44.5565 160.434 44.9154 159.82 45.1402C159.204 45.3628 158.512 45.474 157.741 45.474C157.204 45.474 156.786 45.4468 156.483 45.3946C156.181 45.3423 155.669 45.2265 154.946 45.0539L155.148 43.0826C155.971 43.5323 156.795 43.7548 157.616 43.7548C158.1 43.7548 158.544 43.6345 158.949 43.3892C159.354 43.1462 159.556 42.7987 159.556 42.349C159.556 41.8994 159.399 41.5746 159.088 41.3906C158.776 41.2044 158.189 40.9364 157.336 40.5798C156.481 40.2233 155.84 39.8304 155.414 39.3989C154.991 38.9674 154.777 38.3451 154.777 37.5298C154.777 36.7644 154.955 36.1308 155.307 35.6311C155.66 35.1338 156.126 34.7727 156.704 34.5456C157.282 34.3207 157.909 34.2094 158.587 34.2094C159.54 34.2094 160.409 34.3389 161.196 34.5978" fill="#03A5BA"/>
<path d="M169.717 41.0749L168.139 36.5827H168.107L166.528 41.0749H169.717V41.0749ZM162.686 45.2878L166.935 34.4025H169.403L173.684 45.2878H171.266L170.327 42.7942H165.905L164.95 45.2878H162.684H162.686Z" fill="#03A5BA"/>
<path d="M175.017 41.3566V34.4002H177.202V40.6843C177.202 42.7328 177.958 43.7548 179.468 43.7548C180.978 43.7548 181.733 42.7306 181.733 40.6843V34.4002H183.919V41.3566C183.919 44.1 182.436 45.4718 179.47 45.4718C176.504 45.4718 175.019 44.1 175.019 41.3566" fill="#03A5BA"/>
<path d="M188.555 36.1172V43.5686H189.776C190.395 43.5686 190.982 43.421 191.535 43.1212C192.087 42.8237 192.531 42.3922 192.865 41.8244C193.202 41.2589 193.37 40.598 193.37 39.8417C193.37 39.2649 193.27 38.7448 193.072 38.277C192.874 37.8114 192.606 37.4185 192.269 37.096C191.933 36.7758 191.551 36.5328 191.121 36.3647C190.691 36.1989 190.243 36.1149 189.779 36.1149H188.557L188.555 36.1172ZM186.369 45.2878V34.4025H189.351C193.55 34.4025 195.647 36.2148 195.647 39.844C195.647 40.891 195.483 41.7699 195.154 42.4785C194.824 43.1893 194.369 43.7503 193.791 44.1591C193.211 44.5702 192.547 44.8609 191.803 45.0312C191.057 45.2038 190.24 45.2878 189.351 45.2878H186.369Z" fill="#03A5BA"/>
<path d="M199.643 34.4002H197.458V45.2855H199.643V34.4002Z" fill="#03A5BA"/>
<path d="M155.132 61.626V50.7407H158.628L161.221 58.9916H161.253L163.846 50.7407H167.347V61.626H165.252V52.6439H165.222L162.286 61.626H160.193L157.257 52.6439L157.225 52.6734V61.626H155.132Z" fill="#03A5BA"/>
<path d="M175.781 57.4154L174.202 52.9232H174.171L172.592 57.4154H175.781V57.4154ZM168.75 61.6283L172.999 50.743H175.469L179.748 61.6283H177.33L176.391 59.1347H171.969L171.014 61.6283H168.748H168.75Z" fill="#03A5BA"/>
<path d="M183.155 52.4577V55.3896H183.872C184.563 55.3896 185.123 55.2897 185.548 55.0899C185.973 54.89 186.187 54.4835 186.187 53.8748C186.187 53.2662 185.978 52.9073 185.562 52.7279C185.143 52.5485 184.581 52.4577 183.872 52.4577H183.155ZM180.969 61.6283V50.743H183.669C184.413 50.743 185.036 50.7657 185.543 50.8134C186.048 50.8588 186.528 50.9769 186.979 51.1609C187.429 51.3471 187.791 51.6423 188.061 52.0511C188.332 52.4599 188.468 53.005 188.468 53.6909C188.468 54.1178 188.378 54.5107 188.196 54.8718C188.014 55.2329 187.752 55.5327 187.411 55.7712C187.07 56.0096 186.672 56.1595 186.219 56.2209V56.2504C186.669 56.2867 187.054 56.6614 187.374 57.3723L189.126 61.6283H186.688L185.375 58.2308C185.268 57.9537 185.157 57.7357 185.038 57.5744C184.922 57.4109 184.772 57.2951 184.588 57.2201C184.406 57.1475 184.163 57.1089 183.858 57.1089H183.155V61.6283H180.969V61.6283Z" fill="#03A5BA"/>
<path d="M192.701 50.7407H190.516V61.626H192.701V50.7407Z" fill="#03A5BA"/>
<path d="M197.028 61.626V52.4577H193.905V50.7407H202.341V52.4577H199.214V61.626H197.028Z" fill="#03A5BA"/>
<path d="M205.728 50.7407H203.542V61.626H205.728V50.7407Z" fill="#03A5BA"/>
<path d="M208.073 61.626V50.7407H211.572L214.162 58.9916H214.194L216.787 50.7407H220.288V61.626H218.195V52.6439H218.166L215.229 61.626H213.134L210.198 52.6439L210.166 52.6734V61.626H208.073Z" fill="#03A5BA"/>
<path d="M222.821 61.626V50.7407H229.254V52.4577H225.005V55.1375H228.897V56.8568H225.005V59.9091H229.288V61.626H222.821Z" fill="#03A5BA"/>
<path d="M162.973 75.9839L163.066 77.8098C162.09 78.0392 161.262 78.1528 160.58 78.1528C159.388 78.1528 158.342 77.9529 157.441 77.5509C156.543 77.149 155.842 76.5426 155.346 75.725C154.848 74.9074 154.6 73.9036 154.6 72.7135C154.6 71.7937 154.737 70.9716 155.012 70.2426C155.285 69.5135 155.683 68.9026 156.204 68.4053C156.725 67.9079 157.35 67.5332 158.085 67.2788C158.819 67.0244 159.652 66.895 160.58 66.895C161.458 66.895 162.281 67.0471 163.048 67.3492L162.891 69.1911C162.211 68.805 161.424 68.6119 160.534 68.6119C159.979 68.6119 159.479 68.7096 159.029 68.9072C158.578 69.1047 158.196 69.3818 157.873 69.7407C157.552 70.0995 157.305 70.5196 157.136 70.9988C156.966 71.4803 156.881 72.0004 156.881 72.5568C156.881 73.2904 157.029 73.9513 157.325 74.5463C157.621 75.139 158.048 75.6023 158.606 75.9362C159.163 76.27 159.82 76.4381 160.578 76.4381C161.001 76.4381 161.442 76.3949 161.899 76.3086C162.354 76.2223 162.713 76.1133 162.971 75.9839" fill="#03A5BA"/>
<path d="M166.428 72.4909C166.428 73.1859 166.533 73.8332 166.744 74.4305C166.953 75.03 167.288 75.5138 167.745 75.8817C168.202 76.2496 168.782 76.4358 169.487 76.4358C170.192 76.4358 170.775 76.2519 171.234 75.8817C171.694 75.5115 172.028 75.0277 172.237 74.4305C172.447 73.8332 172.549 73.1859 172.549 72.4909C172.549 71.796 172.442 71.1851 172.224 70.5946C172.008 70.0018 171.666 69.5249 171.205 69.1592C170.743 68.7936 170.172 68.6119 169.487 68.6119C168.803 68.6119 168.232 68.7936 167.77 69.1592C167.311 69.5249 166.972 70.0018 166.753 70.5946C166.537 71.1873 166.428 71.8187 166.428 72.4909ZM164.149 72.4909C164.149 71.3736 164.354 70.3947 164.765 69.5499C165.177 68.7073 165.782 68.0532 166.585 67.5899C167.386 67.1243 168.355 66.8927 169.49 66.8927C170.625 66.8927 171.559 67.1289 172.369 67.599C173.177 68.0691 173.791 68.73 174.207 69.5771C174.623 70.4242 174.833 71.394 174.833 72.4887C174.833 73.5833 174.626 74.569 174.209 75.4252C173.795 76.2837 173.184 76.9514 172.378 77.4306C171.571 77.912 170.606 78.1505 169.49 78.1505C168.373 78.1505 167.383 77.912 166.58 77.4396C165.775 76.9673 165.17 76.3041 164.763 75.4502C164.356 74.5962 164.151 73.6083 164.151 72.4864" fill="#03A5BA"/>
<path d="M176.72 77.9665V67.0812H179.409L183.562 75.2208H183.592V67.0812H185.687V77.9665H183.016L178.845 69.8247H178.815V77.9665H176.72Z" fill="#03A5BA"/>
<path d="M196.761 67.3469L196.62 69.1888C195.783 68.8027 194.846 68.6097 193.809 68.6097C192.986 68.6097 192.274 68.78 191.675 69.1206C191.08 69.4613 190.627 69.9337 190.318 70.5333C190.01 71.1328 189.856 71.8073 189.856 72.5545C189.856 73.3017 190.004 73.949 190.299 74.5417C190.595 75.1345 191.023 75.5978 191.58 75.9316C192.137 76.2655 192.797 76.4358 193.554 76.4358C194.086 76.4358 194.566 76.3836 194.992 76.2791V73.4471H192.681V71.7301H197.087V77.5941C195.706 77.9665 194.528 78.155 193.557 78.155C192.365 78.155 191.316 77.9552 190.418 77.5532C189.517 77.1512 188.819 76.5426 188.32 75.725C187.825 74.9097 187.577 73.9036 187.577 72.7135C187.577 71.796 187.713 70.9716 187.988 70.2426C188.264 69.5158 188.662 68.9026 189.18 68.4053C189.699 67.9079 190.327 67.5354 191.061 67.2788C191.796 67.0244 192.628 66.8972 193.557 66.8972C194.685 66.8972 195.754 67.0494 196.759 67.3515" fill="#03A5BA"/>
<path d="M201.384 68.7981V71.7301H202.1C202.792 71.7301 203.351 71.6302 203.776 71.4303C204.202 71.2305 204.416 70.824 204.416 70.2153C204.416 69.6066 204.206 69.2478 203.79 69.0684C203.372 68.889 202.81 68.7981 202.1 68.7981H201.384ZM199.198 77.9688V67.0835H201.898C202.641 67.0835 203.265 67.1062 203.772 67.1539C204.277 67.1993 204.757 67.3174 205.207 67.5013C205.658 67.6876 206.019 67.9828 206.29 68.3916C206.561 68.8004 206.697 69.3455 206.697 70.0313C206.697 70.4583 206.606 70.8512 206.424 71.2123C206.242 71.5734 205.981 71.8732 205.639 72.1117C205.298 72.3501 204.9 72.5 204.447 72.5613V72.5909C204.898 72.6272 205.282 73.0019 205.603 73.7128L207.354 77.9688H204.916L203.604 74.5713C203.497 74.2942 203.385 74.0762 203.267 73.9149C203.151 73.7514 203.001 73.6356 202.817 73.5606C202.635 73.4879 202.391 73.4493 202.086 73.4493H201.384V77.9688H199.198V77.9688Z" fill="#03A5BA"/>
<path d="M208.931 77.9665V67.0812H215.365V68.7982H211.117V71.478H215.006V73.195H211.117V76.2496H215.4V77.9665H208.931Z" fill="#03A5BA"/>
<path d="M223.674 67.2833L223.474 69.0798C222.751 68.7686 222.009 68.6119 221.254 68.6119C220.795 68.6119 220.394 68.7277 220.053 68.9639C219.712 69.2001 219.539 69.5862 219.539 70.1245C219.539 70.531 219.666 70.8035 219.926 70.9443C220.18 71.0851 220.765 71.344 221.675 71.7233C222.585 72.1026 223.253 72.5114 223.679 72.9565C224.104 73.4016 224.318 74.0353 224.318 74.8642C224.318 75.6205 224.136 76.245 223.772 76.7401C223.408 77.2352 222.919 77.5941 222.305 77.8189C221.691 78.0438 220.997 78.1528 220.226 78.1528C219.689 78.1528 219.271 78.1255 218.968 78.0733C218.666 78.021 218.154 77.9052 217.431 77.7326L217.633 75.7613C218.456 76.211 219.28 76.4335 220.101 76.4335C220.583 76.4335 221.029 76.3132 221.434 76.0679C221.839 75.8249 222.041 75.4774 222.041 75.0277C222.041 74.5781 221.884 74.2533 221.573 74.0693C221.261 73.8831 220.674 73.6129 219.821 73.2586C218.966 72.9043 218.324 72.5091 217.899 72.0776C217.476 71.6461 217.262 71.0238 217.262 70.2085C217.262 69.4431 217.44 68.8095 217.792 68.3099C218.145 67.8125 218.611 67.4491 219.189 67.2243C219.767 66.9994 220.394 66.8882 221.072 66.8882C222.025 66.8882 222.894 67.0176 223.681 67.2765" fill="#03A5BA"/>
<path d="M232.359 67.2833L232.156 69.0798C231.435 68.7686 230.694 68.6119 229.936 68.6119C229.477 68.6119 229.076 68.7277 228.735 68.9639C228.394 69.2001 228.221 69.5862 228.221 70.1245C228.221 70.531 228.349 70.8035 228.608 70.9443C228.863 71.0851 229.447 71.344 230.357 71.7233C231.267 72.1026 231.936 72.5114 232.361 72.9565C232.786 73.4016 233 74.0353 233 74.8642C233 75.6205 232.818 76.245 232.454 76.7401C232.09 77.2352 231.601 77.5941 230.987 77.8189C230.371 78.0415 229.679 78.1528 228.908 78.1528C228.371 78.1528 227.953 78.1255 227.65 78.0733C227.348 78.021 226.836 77.9052 226.113 77.7326L226.315 75.7613C227.138 76.211 227.962 76.4335 228.783 76.4335C229.265 76.4335 229.709 76.3132 230.116 76.0679C230.521 75.8249 230.723 75.4774 230.723 75.0277C230.723 74.5781 230.566 74.2533 230.255 74.0693C229.943 73.8831 229.356 73.6129 228.503 73.2586C227.648 72.9043 227.007 72.5091 226.581 72.0776C226.158 71.6461 225.944 71.0238 225.944 70.2085C225.944 69.4431 226.122 68.8095 226.474 68.3099C226.827 67.8125 227.293 67.4491 227.871 67.2243C228.449 66.9994 229.076 66.8882 229.754 66.8882C230.707 66.8882 231.576 67.0176 232.363 67.2765" fill="#03A5BA"/>
<path d="M102.303 43.6254C102.324 43.6663 102.335 43.6981 102.335 43.7185V45.2787C102.335 45.3105 102.324 45.3446 102.303 45.3809C102.283 45.4173 102.24 45.4354 102.178 45.4354C101.669 45.4354 101.143 45.2742 100.602 44.9517V44.9653C100.602 46.3189 100.286 47.3136 99.6558 47.9518C99.0235 48.5923 98.2115 48.9693 97.2107 49.0851L96.335 47.1342C96.8445 47.0615 97.2448 46.9616 97.5359 46.8367C97.8294 46.7118 98.0454 46.5074 98.1933 46.2212C98.3389 45.9351 98.4116 45.5376 98.4116 45.0289V37.6978H100.6V42.8918C100.932 43.3415 101.457 43.5641 102.176 43.5641C102.237 43.5641 102.281 43.5845 102.301 43.6254" fill="#0F3F67"/>
<path d="M105.303 39.5238V43.5641H106.304C106.918 43.5641 107.391 43.3846 107.719 43.0258C108.046 42.667 108.21 42.1764 108.21 41.5519C108.21 40.1279 107.573 39.4148 106.304 39.4148C105.981 39.4148 105.649 39.4511 105.303 39.5238M108.451 38.0589C109.091 38.4019 109.589 38.8788 109.943 39.4852C110.296 40.0938 110.473 40.7706 110.473 41.5201C110.473 42.1128 110.38 42.642 110.194 43.1121C110.517 43.4142 110.985 43.5641 111.599 43.5641C111.661 43.5641 111.702 43.5822 111.722 43.6186C111.743 43.6549 111.754 43.689 111.754 43.7185V45.2787C111.754 45.3105 111.743 45.3446 111.722 45.3809C111.702 45.4173 111.659 45.4354 111.599 45.4354C111.245 45.4354 110.862 45.3491 110.448 45.1788C110.037 45.0085 109.671 44.7496 109.348 44.4066C108.629 45.0925 107.739 45.4377 106.677 45.4377H102.178C102.117 45.4377 102.073 45.4195 102.053 45.3832C102.033 45.3469 102.023 45.3128 102.023 45.281V43.7208C102.023 43.6912 102.035 43.6549 102.053 43.6208C102.073 43.5845 102.114 43.5663 102.178 43.5663H103.115V37.8568C104.469 37.6501 105.506 37.5457 106.222 37.5457C107.066 37.5457 107.808 37.716 108.449 38.0612" fill="#0F3F67"/>
<path d="M115.739 34.407H117.989V36.3715H115.739V34.407V34.407ZM112.614 34.407H114.863V36.3715H112.614V34.407ZM111.597 45.4332C111.533 45.4332 111.492 45.415 111.472 45.3787C111.451 45.3423 111.442 45.3083 111.442 45.2787V43.7185C111.442 43.6867 111.454 43.6526 111.472 43.6163C111.492 43.58 111.533 43.5618 111.597 43.5618H114.251V37.6978H116.424V45.4332H111.597V45.4332Z" fill="#0F3F67"/>
<path d="M128.593 43.6186C128.613 43.6549 128.625 43.6867 128.625 43.7185V45.2787C128.625 45.3083 128.613 45.3446 128.593 45.3787C128.572 45.415 128.531 45.4332 128.468 45.4332H126.439C126.377 45.4332 126.334 45.415 126.314 45.3787C126.293 45.3423 126.282 45.3083 126.282 45.2787V43.7185C126.282 43.6867 126.293 43.6526 126.314 43.6186C126.334 43.5822 126.375 43.5618 126.439 43.5618H128.468C128.529 43.5618 128.572 43.58 128.593 43.6186ZM123.766 33.1761L123.377 34.3616C123.2 34.3003 123.054 34.2685 122.94 34.2685C122.784 34.2685 122.656 34.3207 122.558 34.4229C122.458 34.5274 122.41 34.6727 122.41 34.859C122.41 35.0452 122.451 35.1974 122.536 35.3109H124.333V36.635H120.145L120.425 35.3109H121.191C121.087 35.102 121.034 34.8953 121.034 34.6864C121.034 34.1776 121.194 33.7711 121.51 33.4691C121.828 33.167 122.256 33.0171 122.799 33.0171C123.102 33.0171 123.425 33.0694 123.768 33.1738M125.424 37.8523V44.8245C125.424 45.792 125.256 46.5664 124.924 47.1478C124.59 47.7292 124.135 48.163 123.557 48.4492C122.979 48.7353 122.263 48.9443 121.407 49.0805L120.532 47.1297C121.178 47.0456 121.689 46.9298 122.072 46.7799C122.451 46.6278 122.74 46.4052 122.938 46.11C123.136 45.8124 123.234 45.4105 123.234 44.9017V39.5215C122.87 39.4488 122.536 39.4125 122.233 39.4125C120.962 39.4125 120.327 40.1256 120.327 41.5496C120.327 42.1742 120.491 42.6647 120.818 43.0235C121.146 43.3824 121.617 43.5618 122.231 43.5618H122.918L122.074 45.4332H121.856C121.137 45.4332 120.488 45.2719 119.911 44.9494C119.333 44.6269 118.878 44.1704 118.553 43.5777C118.225 42.9849 118.062 42.2991 118.062 41.5178C118.062 40.7366 118.239 40.0916 118.592 39.4829C118.946 38.8743 119.444 38.3973 120.084 38.0567C120.723 37.7137 121.464 37.5411 122.308 37.5411C123.027 37.5411 124.064 37.6456 125.417 37.8523" fill="#0F3F67"/>
<path d="M131.593 39.5238V43.5641H132.594C133.208 43.5641 133.681 43.3846 134.009 43.0258C134.336 42.667 134.5 42.1764 134.5 41.5519C134.5 40.1279 133.863 39.4148 132.594 39.4148C132.271 39.4148 131.939 39.4511 131.593 39.5238M134.741 38.0589C135.38 38.4019 135.878 38.8788 136.233 39.4852C136.586 40.0938 136.763 40.7706 136.763 41.5201C136.763 42.1128 136.67 42.642 136.483 43.1121C136.806 43.4142 137.275 43.5641 137.889 43.5641C137.95 43.5641 137.994 43.5822 138.012 43.6186C138.032 43.6549 138.044 43.689 138.044 43.7185V45.2787C138.044 45.3105 138.032 45.3446 138.012 45.3809C137.991 45.4173 137.948 45.4354 137.889 45.4354C137.534 45.4354 137.152 45.3491 136.738 45.1788C136.326 45.0085 135.96 44.7496 135.637 44.4066C134.918 45.0925 134.029 45.4377 132.967 45.4377H128.468C128.406 45.4377 128.363 45.4195 128.343 45.3832C128.322 45.3469 128.313 45.3128 128.313 45.281V43.7208C128.313 43.6912 128.324 43.6549 128.343 43.6208C128.363 43.5845 128.404 43.5663 128.468 43.5663H129.405V37.8568C130.758 37.6501 131.795 37.5457 132.512 37.5457C133.356 37.5457 134.097 37.716 134.739 38.0612" fill="#0F3F67"/>
<path d="M137.889 45.4354C137.825 45.4354 137.784 45.4173 137.764 45.3809C137.743 45.3446 137.734 45.3105 137.734 45.281V43.7208C137.734 43.689 137.746 43.6549 137.764 43.6186C137.784 43.5822 137.825 43.5641 137.889 43.5641H139.452V33.4895H141.622V45.4354H137.889V45.4354Z" fill="#0F3F67"/>
<path d="M146.462 33.4872H144.276V45.4332H146.462V33.4872Z" fill="#0F3F67"/>
<path d="M85.4645 63.2135H87.7141V65.1803H85.4645V63.2135ZM82.3393 63.2135H84.5888V65.1803H82.3393V63.2135ZM91.7287 59.9704V54.1065H91.2123C89.6816 54.1065 88.9173 54.8082 88.9173 56.2118V61.8418H83.2946C81.9708 61.8418 81.0041 61.4989 80.3899 60.813C79.7735 60.1249 79.4688 59.2618 79.4688 58.2239V54.1065H81.6546V57.881C81.6546 59.2732 82.4211 59.9704 83.9496 59.9704H86.7314V55.8688C86.7314 54.8287 87.0385 53.9634 87.6526 53.273C88.2668 52.5803 89.2358 52.2351 90.5595 52.2351H93.9168V59.9704H91.731H91.7287Z" fill="#0F3F67"/>
<path d="M102.553 61.0923C102.033 61.3512 101.332 61.542 100.454 61.6624C99.5738 61.7828 98.648 61.8418 97.6813 61.8418H95.6183L94.7744 59.9704H97.4152C98.6867 59.9704 99.6807 59.8819 100.399 59.7047L98.1794 53.9498H100.522L102.926 60.2043L102.551 61.0946L102.553 61.0923Z" fill="#0F3F67"/>
<path d="M112.534 60.0317C112.555 60.0726 112.566 60.1044 112.566 60.1249V61.6851C112.566 61.7169 112.555 61.751 112.534 61.7873C112.514 61.8236 112.471 61.8418 112.409 61.8418H111.424C111.331 63.016 110.949 63.8699 110.276 64.399C109.605 64.9282 108.658 65.2939 107.442 65.4914L106.566 63.5406C107.21 63.4565 107.724 63.3407 108.103 63.1886C108.483 63.0387 108.772 62.8138 108.97 62.5186C109.168 62.2233 109.268 61.8191 109.268 61.3104V55.9302C108.902 55.8575 108.57 55.8189 108.267 55.8189C106.996 55.8189 106.361 56.532 106.361 57.956C106.361 58.5805 106.525 59.0711 106.852 59.4299C107.18 59.7887 107.651 59.9681 108.267 59.9681H108.954L108.11 61.8395H107.892C107.173 61.8395 106.525 61.6783 105.947 61.3558C105.369 61.0356 104.915 60.5768 104.589 59.984C104.262 59.3913 104.096 58.7054 104.096 57.9242C104.096 57.1429 104.273 56.4957 104.628 55.887C104.981 55.2783 105.479 54.8014 106.12 54.4608C106.759 54.1178 107.503 53.9475 108.345 53.9475C109.063 53.9475 110.101 54.052 111.454 54.2586V59.9659H112.405C112.466 59.9659 112.509 59.9863 112.53 60.0272" fill="#0F3F67"/>
<path d="M114.941 56.3503C115.221 56.9022 115.592 57.479 116.049 58.09C116.508 58.6986 116.965 59.2096 117.423 59.6252C117.975 59.355 118.451 59.012 118.851 58.5964C119.254 58.1808 119.454 57.7379 119.454 57.2701C119.454 56.8022 119.24 56.4298 118.812 56.155C118.385 55.8802 117.864 55.7417 117.25 55.7417C116.636 55.7417 115.844 55.9438 114.939 56.3503M119.483 54.0974C120.141 54.404 120.662 54.806 121.053 55.3056C121.444 55.803 121.637 56.3299 121.637 56.8795C121.637 57.3882 121.492 57.906 121.201 58.4306C120.909 58.9552 120.514 59.4276 120.016 59.8432C120.516 59.925 121.198 59.9681 122.063 59.9681C122.199 59.9681 122.265 60.0249 122.265 60.1385V61.6669C122.265 61.7805 122.199 61.8373 122.063 61.8373C120.395 61.8373 118.921 61.6442 117.641 61.2604C116.121 61.6465 114.381 61.8373 112.423 61.8373C112.309 61.8373 112.252 61.7805 112.252 61.6669V60.1385C112.252 60.0249 112.309 59.9681 112.423 59.9681C113.59 59.9681 114.479 59.9159 115.093 59.8114C114.5 59.1256 113.781 58.0854 112.939 56.691L113.424 54.6629C114.224 54.3199 114.93 54.0633 115.532 53.8907C116.135 53.7204 116.752 53.6341 117.377 53.6341C118.128 53.6341 118.83 53.7862 119.486 54.0928" fill="#0F3F67"/>
<path d="M135.749 59.3141C135.987 59.5753 136.251 59.7501 136.538 59.8364C136.824 59.925 137.275 59.9681 137.889 59.9681C137.95 59.9681 137.994 59.9863 138.014 60.0227C138.035 60.059 138.046 60.0931 138.046 60.1226V61.6828C138.046 61.7146 138.035 61.7487 138.014 61.7828C137.994 61.8191 137.953 61.8395 137.889 61.8395C137.222 61.8282 136.688 61.7351 136.288 61.5579C135.885 61.3808 135.503 61.0651 135.139 60.6086C134.848 60.9924 134.475 61.2945 134.022 61.5125C133.57 61.7305 133.071 61.8395 132.53 61.8395C131.82 61.8395 131.256 61.751 130.835 61.5738C130.415 61.3967 130.055 61.1378 129.764 60.7926C129.18 61.4898 128.422 61.8395 127.485 61.8395H122.11C122.049 61.8395 122.008 61.8214 121.985 61.7828C121.965 61.7464 121.956 61.7146 121.956 61.6828V60.1226C121.956 60.0931 121.967 60.059 121.985 60.0227C122.008 59.9863 122.047 59.9681 122.11 59.9681H123.673V54.1042H125.861V59.9681H126.828C127.244 59.9681 127.601 59.8046 127.899 59.4753C128.195 59.1483 128.345 58.7145 128.345 58.174V54.1042H130.531V58.5328C130.531 59.0007 130.706 59.3572 131.054 59.6025C131.404 59.8478 131.791 59.9681 132.216 59.9681C132.642 59.9681 132.976 59.8205 133.249 59.523C133.519 59.2278 133.656 58.7781 133.656 58.174V53.4478H135.842V58.5169C135.842 58.7145 135.812 58.9802 135.749 59.3118" fill="#0F3F67"/>
<path d="M137.889 61.8395C137.825 61.8395 137.784 61.8214 137.764 61.785C137.743 61.7487 137.734 61.7146 137.734 61.6851V60.1249C137.734 60.0931 137.746 60.059 137.764 60.0227C137.784 59.9863 137.825 59.9681 137.889 59.9681H139.452V49.8936H141.622V61.8395H137.889Z" fill="#0F3F67"/>
<path d="M146.462 49.8936H144.276V61.8395H146.462V49.8936Z" fill="#0F3F67"/>
<path d="M107.239 79.6176H109.488V81.5844H107.239V79.6176ZM104.114 79.6176H106.363V81.5844H104.114V79.6176ZM113.503 76.3745V70.5106H112.987C111.456 70.5106 110.692 71.2123 110.692 72.6159V78.2459H105.069C103.745 78.2459 102.779 77.903 102.164 77.2171C101.548 76.5289 101.243 75.6659 101.243 74.628V70.5106H103.429V74.2851C103.429 75.6773 104.196 76.3745 105.724 76.3745H108.506V72.2729C108.506 71.2328 108.813 70.3675 109.427 69.6771C110.041 68.9844 111.01 68.6392 112.334 68.6392H115.691V76.3745H113.505H113.503Z" fill="#0F3F67"/>
<path d="M121.892 76.4358C121.912 76.4767 121.924 76.5085 121.924 76.5289V78.0892C121.924 78.121 121.912 78.1551 121.892 78.1914C121.871 78.2277 121.828 78.2459 121.767 78.2459C121.257 78.2459 120.732 78.0846 120.19 77.7622V77.778C120.19 79.1316 119.874 80.1264 119.244 80.7645C118.612 81.405 117.8 81.782 116.799 81.8978L115.923 79.9469C116.433 79.872 116.833 79.7743 117.124 79.6494C117.418 79.5245 117.634 79.3201 117.782 79.034C117.927 78.7478 118 78.3504 118 77.8416V70.5106H120.188V75.7045C120.52 76.1519 121.046 76.3745 121.764 76.3745C121.826 76.3745 121.869 76.395 121.89 76.4358" fill="#0F3F67"/>
<path d="M128.258 71.0783C128.993 71.5621 129.521 72.2207 129.844 73.0519L130.688 75.2049C130.824 75.5683 131.065 75.8544 131.415 76.0634C131.763 76.2723 132.111 76.3745 132.453 76.3745C132.514 76.3745 132.557 76.3927 132.578 76.429C132.598 76.4653 132.61 76.4994 132.61 76.5312V78.0892C132.61 78.121 132.598 78.155 132.578 78.1914C132.557 78.2277 132.516 78.2459 132.453 78.2459C131.006 78.2459 129.941 77.8711 129.266 77.124C128.588 77.4873 127.828 77.7667 126.987 77.9597C126.143 78.1505 125.324 78.2481 124.535 78.2481H121.769C121.708 78.2481 121.664 78.23 121.644 78.1936C121.623 78.1573 121.614 78.1232 121.614 78.0914V76.5335C121.614 76.5017 121.626 76.4676 121.644 76.4313C121.664 76.3949 121.705 76.3768 121.769 76.3768H124.535C125.326 76.3768 126.036 76.3382 126.666 76.2609C127.296 76.1837 127.924 76.0248 128.549 75.784L127.831 74.0534C127.621 73.5447 127.305 73.1518 126.88 72.877C126.452 72.6022 125.943 72.4637 125.349 72.4637C124.692 72.4637 124.094 72.5931 123.552 72.852L122.754 71.0738C123.661 70.5968 124.633 70.3561 125.677 70.3561C126.721 70.3561 127.528 70.5968 128.261 71.0806" fill="#0F3F67"/>
<path d="M134.154 79.6199H136.404V81.5867H134.154V79.6199ZM136.372 75.7977C136.684 76.1837 137.188 76.3745 137.887 76.3745C137.948 76.3745 137.991 76.3927 138.012 76.429C138.032 76.4654 138.041 76.4994 138.041 76.5289V78.0892C138.041 78.121 138.032 78.155 138.012 78.1891C137.991 78.2255 137.95 78.2459 137.887 78.2459C137.543 78.2459 137.168 78.1619 136.763 77.9961C136.358 77.8303 135.992 77.5782 135.671 77.2466C135.107 77.912 134.359 78.2459 133.422 78.2459H132.453C132.391 78.2459 132.348 78.2277 132.328 78.1891C132.307 78.1528 132.296 78.121 132.296 78.0892V76.5289C132.296 76.4994 132.307 76.4631 132.328 76.429C132.348 76.3927 132.389 76.3745 132.453 76.3745H132.764C133.181 76.3745 133.538 76.211 133.836 75.8817C134.131 75.5547 134.282 75.1209 134.282 74.5804V70.5106H136.467V74.9233C136.467 75.2253 136.436 75.516 136.374 75.7977" fill="#0F3F67"/>
<path d="M137.889 78.2459C137.825 78.2459 137.784 78.2277 137.764 78.1914C137.743 78.1551 137.734 78.121 137.734 78.0915V76.5312C137.734 76.4994 137.746 76.4654 137.764 76.429C137.784 76.3927 137.825 76.3745 137.889 76.3745H139.452V66.3H141.622V78.2459H137.889Z" fill="#0F3F67"/>
<path d="M146.462 66.2977H144.276V78.2436H146.462V66.2977Z" fill="#0F3F67"/>
<path d="M86.3492 7.30837C86.0012 7.34017 85.6509 7.37423 85.2916 7.41057C85.2074 7.41738 85.1232 7.42647 85.0391 7.43555C84.9981 7.44009 84.9549 7.44236 84.9117 7.44918C83.5902 7.58544 82.1959 7.7535 80.7333 7.96244C80.1601 8.04193 79.5756 8.12823 78.9796 8.22362C78.4087 8.30992 77.831 8.40531 77.2419 8.50751C76.5003 8.63242 75.7429 8.77095 74.9696 8.91857C74.683 8.97308 74.3964 9.02759 74.1075 9.08663C73.7549 9.15477 73.4001 9.22744 73.0407 9.30239C72.7678 9.35689 72.4948 9.41594 72.2196 9.47499C71.5805 9.61126 70.9345 9.75433 70.2794 9.9065C69.2945 10.1313 68.296 10.3743 67.2815 10.6378C66.6037 10.8081 65.9168 10.9898 65.2253 11.1829C64.8796 11.276 64.5293 11.3736 64.179 11.4736C63.8287 11.5712 63.4784 11.6734 63.1236 11.7779C62.7779 11.8778 62.4299 11.98 62.0796 12.0867C62.0455 12.0981 62.0091 12.1072 61.9727 12.1185C61.6861 12.2048 61.3995 12.2934 61.1106 12.382C60.824 12.4706 60.5374 12.5614 60.2508 12.6522C59.8937 12.7635 59.5343 12.8794 59.1727 12.9997C46.5829 17.1013 32.0325 23.901 16.9135 35.1179L17.009 35.2042L16.9294 35.2632L58.2674 71.7983C57.5555 75.482 57.1483 79.1362 56.9277 81.9432L0.0566406 31.4251C45.1113 -1.79643 86.3788 -0.204398 92.1607 0.195314C91.2577 1.29452 90.2956 2.44824 89.3312 3.63602C88.3668 4.82607 87.4024 6.05246 86.4971 7.29474C86.447 7.29929 86.3993 7.30383 86.3492 7.30837V7.30837Z" fill="#0D3E66"/>
<path d="M60.251 12.6522C59.8939 12.7658 59.5345 12.8816 59.1729 12.9997C59.5345 12.8794 59.8939 12.7635 60.251 12.6522Z" fill="#0D3E66"/>
<path d="M59.1728 12.9997C46.5398 17.1331 32.2237 23.9259 17.2912 34.9952L17.0091 35.2042L16.9136 35.1179C32.0326 23.901 46.583 17.1013 59.1728 12.9997V12.9997Z" fill="#0D3E66"/>
<path d="M84.9118 7.44918C83.5698 7.58999 82.1755 7.76032 80.7334 7.96245C82.1959 7.75351 83.5903 7.58545 84.9118 7.44918Z" fill="#0D3E66"/>
<path d="M86.4768 7.322L86.4972 7.29475L98.9187 7.04947C75.7886 35.4994 68.6055 68.78 67.6524 80.3148L58.2676 71.7983C58.2835 71.712 58.3017 71.6257 58.3199 71.5394C60.549 60.6154 67.7389 33.9801 85.6102 8.54158C85.8968 8.13505 86.1856 7.72853 86.4768 7.322V7.322Z" fill="#D9D9D9"/>
<path d="M45.5069 18.6797L45.4955 18.6479L44.9564 18.8932L44.9701 18.9205C44.2422 19.2498 43.5098 19.5904 42.7774 19.9379L42.766 19.9152C42.5886 19.997 42.4134 20.081 42.2383 20.1673L42.2497 20.1923C41.681 20.4648 41.1101 20.7419 40.5392 21.028L40.5256 21.0031C40.2776 21.128 40.0274 21.2529 39.7772 21.3801L39.7886 21.4028C39.2586 21.6685 38.7286 21.941 38.1941 22.2181L38.1827 22.1954C37.9462 22.318 37.7119 22.4407 37.4754 22.5656L37.4867 22.586C36.752 22.9721 36.0151 23.3673 35.2713 23.7715L35.2645 23.7556C35.244 23.767 35.2213 23.7783 35.2008 23.7897L35.2076 23.8056C34.4525 24.2189 33.6905 24.6482 32.9285 25.0842L32.9194 25.0706C32.6806 25.2046 32.4417 25.3431 32.2029 25.4816L32.212 25.4975C31.6661 25.8132 31.1179 26.1334 30.5675 26.4582L30.5607 26.4469C30.3036 26.6013 30.0466 26.7557 29.7873 26.9102L29.7941 26.9215C29.2005 27.2803 28.6023 27.6483 28.0063 28.0184L27.9995 28.0094C27.813 28.1229 27.6242 28.241 27.44 28.3591L27.4445 28.3659C26.6666 28.8519 25.8864 29.3493 25.1063 29.8603L25.1017 29.8558C24.9175 29.9784 24.7309 30.0988 24.5467 30.2214V30.2282C23.9439 30.6279 23.3366 31.0322 22.7316 31.4455L22.7271 31.4387C22.4655 31.6159 22.2016 31.7953 21.9423 31.977V31.9815C21.3828 32.3676 20.8187 32.7605 20.2523 33.1602L20.2478 33.1557C20.0044 33.3283 19.7633 33.5009 19.5199 33.6757C18.8466 34.1595 18.1711 34.6478 17.4955 35.1451L58.1057 71.6529L17.0088 35.2042L17.2908 34.9952C32.2234 23.9259 46.5395 17.1331 59.1725 12.9997C59.5341 12.8816 59.8935 12.7658 60.2506 12.6522C60.5372 12.5614 60.8238 12.4706 61.1104 12.382C61.3993 12.2934 61.6859 12.2048 61.9725 12.1185C62.0089 12.1072 62.0452 12.0981 62.0794 12.0867C62.4296 11.9823 62.7777 11.8778 63.1234 11.7779C63.476 11.6757 63.8285 11.5735 64.1788 11.4736C64.5291 11.3759 64.8771 11.2782 65.2251 11.1829C65.9166 10.9944 66.6035 10.8127 67.2813 10.6378C68.298 10.3766 69.2989 10.1336 70.2792 9.9065C70.9343 9.75661 71.5802 9.61353 72.2194 9.47499C72.4946 9.41595 72.7676 9.35917 73.0405 9.30239C73.3999 9.22744 73.7547 9.15477 74.1073 9.08664C74.3962 9.02759 74.685 8.97308 74.9693 8.91858C75.7427 8.77096 76.5001 8.63242 77.2416 8.50751C77.8285 8.40758 78.4085 8.3122 78.9794 8.22362C79.5731 8.13051 80.1576 8.04421 80.7331 7.96245C82.1752 7.76032 83.5695 7.58999 84.9115 7.44918C84.9547 7.44237 84.9979 7.4401 85.0389 7.43555C85.123 7.42874 85.2072 7.41966 85.2913 7.41057C85.6485 7.37424 86.001 7.34017 86.349 7.30837C86.3991 7.30383 86.4468 7.29929 86.4969 7.29475C85.744 7.36742 84.3406 7.82164 83.5536 7.91475C83.1396 7.96699 82.7188 8.01922 82.2889 8.07373C82.2866 8.07373 82.2844 8.07373 82.2798 8.07373V8.06919C82.1979 8.07827 82.1138 8.0919 82.0319 8.10098C82.0205 8.10553 82.0091 8.1078 81.9955 8.11007C80.9924 8.24179 79.9552 8.39395 78.8839 8.56429V8.5552C78.777 8.5711 78.6746 8.58927 78.57 8.60517V8.61652C78.1355 8.68692 77.6966 8.7596 77.253 8.83682V8.82546C77.1143 8.84817 76.9778 8.87088 76.8413 8.89587L76.8459 8.90722C76.3705 8.99125 75.8951 9.07755 75.4129 9.17294L75.4083 9.15704C75.3265 9.17294 75.2446 9.18657 75.1604 9.20246V9.21836C74.5872 9.32737 74.0004 9.4432 73.409 9.56811L73.4044 9.54994C73.3271 9.56584 73.252 9.58173 73.1747 9.59763L73.1793 9.6158C72.6789 9.718 72.1739 9.82701 71.6644 9.94284L71.6598 9.92013C71.4938 9.95647 71.3278 9.9928 71.1617 10.0314L71.1663 10.0541C70.7159 10.154 70.261 10.2585 69.7993 10.3675L69.7947 10.3448C69.6332 10.3834 69.474 10.422 69.3125 10.4584L69.3193 10.4856C68.1002 10.7786 66.856 11.0966 65.5868 11.444L65.5777 11.4168C65.4025 11.4645 65.2296 11.5099 65.0522 11.5599L65.0613 11.5894C64.595 11.7188 64.1219 11.8551 63.6465 11.9914L63.6374 11.9596L63.0301 12.1367L63.0392 12.1685C62.5366 12.3161 62.0293 12.4706 61.5175 12.6273L61.5085 12.5932C61.3561 12.6409 61.2059 12.6886 61.0535 12.7363L61.0626 12.7658C60.4053 12.9725 59.7434 13.1837 59.0769 13.4017L59.0678 13.3699C58.92 13.4176 58.7676 13.4676 58.6197 13.5175L58.6334 13.5516C58.108 13.7265 57.5803 13.9059 57.048 14.0899L57.0366 14.0558C56.8137 14.1307 56.5908 14.2102 56.3679 14.2874L56.3793 14.3215C55.8971 14.4941 55.4081 14.669 54.919 14.8461L54.9054 14.8121C54.6893 14.8915 54.4755 14.971 54.2594 15.0505L54.2708 15.0846C53.6043 15.3299 52.9333 15.5842 52.2555 15.8477L52.2419 15.8159C52.2168 15.825 52.1941 15.834 52.1691 15.8454L52.1804 15.8749C51.4844 16.1475 50.7793 16.4291 50.0742 16.7175L50.0605 16.6857C49.8422 16.7766 49.6216 16.8674 49.4009 16.9582L49.4168 16.99C48.9096 17.199 48.4024 17.4125 47.8906 17.6328L47.877 17.5987C47.6336 17.7032 47.3925 17.8076 47.1491 17.9144L47.1627 17.9462C46.6146 18.1846 46.0619 18.4276 45.5069 18.6775V18.6797Z" fill="#00A4B9"/>
<path d="M85.2915 7.41057C85.2074 7.41965 85.1232 7.42874 85.0391 7.43555C85.1232 7.42647 85.2074 7.41738 85.2915 7.41057Z" fill="#0D3E66"/>
<path d="M58.5381 70.4629C61.8499 54.4176 69.9587 30.1033 86.4766 7.322C86.1855 7.72852 85.8966 8.13505 85.61 8.54157C67.907 33.7143 60.9036 59.1074 58.5381 70.4629Z" fill="#03A5BA"/>
<path d="M86.3492 7.30837C86.0012 7.34017 85.6486 7.37423 85.2915 7.41057C85.6509 7.37423 86.0012 7.34017 86.3492 7.30837Z" fill="#0D3E66"/>
<path d="M78.9795 8.22362C78.4086 8.31219 77.8285 8.40758 77.2417 8.5075C77.8308 8.4053 78.4086 8.30992 78.9795 8.22362Z" fill="#0D3E66"/>
<path d="M80.7332 7.96245C80.1577 8.04421 79.5732 8.13051 78.9795 8.22362C79.5754 8.12824 80.16 8.04194 80.7332 7.96245Z" fill="#0D3E66"/>
<path d="M83.5536 7.91475C84.3406 7.82164 85.744 7.36742 86.4969 7.29475L86.4765 7.322C69.9585 30.1033 61.8497 54.4176 58.5379 70.4629C58.5152 70.5628 58.4947 70.6627 58.4742 70.7604C58.4401 70.9352 58.4037 71.1101 58.3696 71.2827C58.3514 71.369 58.3355 71.4531 58.3196 71.5394C58.3014 71.6257 58.2832 71.712 58.2673 71.7983L58.1058 71.6529L17.4956 35.1451C18.1712 34.6478 18.8467 34.1595 19.52 33.678C19.7634 33.5009 20.0045 33.3283 20.2478 33.1557L20.2524 33.1602C20.8188 32.7605 21.3828 32.3676 21.9447 31.9815V31.977C22.2017 31.7953 22.4655 31.6159 22.7271 31.4387L22.7317 31.4455C23.3367 31.0322 23.944 30.6279 24.549 30.2282V30.2214C24.731 30.0988 24.9175 29.9784 25.1018 29.8558L25.1063 29.8603C25.8865 29.3493 26.6667 28.8519 27.4446 28.3659L27.44 28.3591C27.6243 28.241 27.8131 28.1229 27.9996 28.0094L28.0064 28.0184C28.6023 27.6483 29.2005 27.2803 29.7942 26.9215L29.7874 26.9102C30.0467 26.7557 30.3037 26.6013 30.5607 26.4469L30.5676 26.4582C31.118 26.1334 31.6662 25.8132 32.2121 25.4975L32.203 25.4816C32.4418 25.3431 32.6806 25.2046 32.9195 25.0706L32.9286 25.0842C33.6905 24.6481 34.4525 24.2189 35.2077 23.8056L35.2008 23.7897C35.2213 23.7783 35.2441 23.767 35.2645 23.7556L35.2714 23.7715C36.0151 23.3673 36.7521 22.9721 37.4868 22.586L37.4754 22.5656C37.712 22.4406 37.9463 22.318 38.1828 22.1954L38.1942 22.2181C38.7287 21.941 39.2587 21.6685 39.7887 21.4028L39.7773 21.38C40.0275 21.2529 40.2777 21.128 40.5256 21.003L40.5393 21.028C41.1102 20.7419 41.6811 20.4648 42.2497 20.1923L42.2384 20.1673C42.4135 20.081 42.5887 19.997 42.7661 19.9152L42.7774 19.9379C43.5099 19.5904 44.2423 19.2498 44.9701 18.9205L44.9565 18.8932L45.4956 18.6479L45.5069 18.6797C46.0619 18.4299 46.6146 18.1869 47.1628 17.9484L47.1492 17.9166C47.3925 17.8099 47.6336 17.7054 47.877 17.601L47.8907 17.635C48.4024 17.4147 48.9097 17.2012 49.4169 16.9923L49.401 16.9605C49.6216 16.8697 49.8423 16.7788 50.0606 16.688L50.0743 16.7198C50.7794 16.4313 51.4845 16.1497 52.1805 15.8772L52.1691 15.8477C52.1942 15.8363 52.2169 15.8272 52.2419 15.8181L52.2556 15.8499C52.9334 15.5865 53.6044 15.3321 54.2708 15.0869L54.2595 15.0528C54.4755 14.9733 54.6894 14.8938 54.9054 14.8143L54.9191 14.8484C55.4081 14.6712 55.8972 14.4964 56.3794 14.3238L56.368 14.2897C56.5909 14.2125 56.8138 14.133 57.0367 14.0581L57.0481 14.0921C57.5803 13.9082 58.108 13.7287 58.6335 13.5539L58.6198 13.5198C58.7677 13.4698 58.9201 13.4199 59.0679 13.3722L59.077 13.404C59.7435 13.186 60.4053 12.9747 61.0627 12.7681L61.0536 12.7386C61.206 12.6909 61.3561 12.6432 61.5085 12.5955L61.5176 12.6295C62.0294 12.4728 62.5366 12.3184 63.0393 12.1708L63.0302 12.139L63.6375 11.9618L63.6466 11.9936C64.122 11.8574 64.5951 11.7211 65.0614 11.5916L65.0523 11.5621C65.2297 11.5122 65.4026 11.4667 65.5777 11.419L65.5868 11.4463C66.856 11.0988 68.1002 10.7809 69.3194 10.4879L69.3126 10.4606C69.4741 10.4243 69.6333 10.3857 69.7948 10.3471L69.7993 10.3698C70.2611 10.2608 70.716 10.1563 71.1663 10.0564L71.1618 10.0337C71.3278 9.99507 71.4939 9.95874 71.6599 9.9224L71.6645 9.94511C72.174 9.82928 72.6789 9.72027 73.1793 9.61807L73.1748 9.5999C73.2521 9.58401 73.3272 9.56811 73.4045 9.55221L73.4091 9.57038C74.0004 9.44547 74.5873 9.32964 75.1628 9.22063V9.20473C75.2446 9.18884 75.3265 9.17521 75.4084 9.15931L75.413 9.17521C75.8952 9.07982 76.3705 8.99352 76.8459 8.90949L76.8414 8.89814C76.9779 8.87315 77.1143 8.85044 77.2508 8.82773V8.83909C77.6966 8.76187 78.1356 8.6892 78.5701 8.61879V8.60744C78.6747 8.59154 78.777 8.57337 78.884 8.55747V8.56656C79.9553 8.39623 80.9925 8.24406 81.9956 8.11234C82.0092 8.11007 82.0206 8.1078 82.0319 8.10553C82.1138 8.09417 82.198 8.08054 82.2799 8.07146V8.076C82.2799 8.076 82.2867 8.076 82.289 8.076C82.7189 8.0215 83.1397 7.96926 83.5536 7.9193V7.91475ZM52.3215 46.06L65.0773 39.7645L50.8112 44.4702L50.8021 44.4725L50.7703 44.4839L49.931 35.1656L48.9506 44.502L34.6572 40.1256L47.4767 46.1145L37.3139 51.1313L49.8923 46.9821L62.6594 50.8906L52.3215 46.06V46.06ZM56.2406 32.7151L60.394 28.4068L55.1807 29.1835L50.9659 33.3941L56.2406 32.7151V32.7151ZM60.2689 39.4193L56.1792 35.1429L50.934 34.2367L54.9941 38.6426L60.2689 39.4193V39.4193ZM54.6484 28.5681L55.399 23.1583L51.2457 27.403L50.4018 32.8445L54.6484 28.5681V28.5681ZM49.4306 32.8445L48.5526 27.403L44.24 23.1583L45.0179 28.5681L49.4306 32.8445V32.8445ZM44.6608 38.6426L48.8778 34.2367L43.428 35.1429L39.1791 39.4193L44.6608 38.6426V38.6426ZM43.3643 32.7151L48.846 33.3941L44.4674 29.1835L39.0471 28.4068L43.3643 32.7151V32.7151Z" fill="#03A5BA"/>
<path d="M85.6101 8.54157C67.7388 33.9801 60.5489 60.6154 58.3198 71.5394C58.3357 71.4531 58.3517 71.369 58.3699 71.2827C58.404 71.1124 58.4404 70.9375 58.4745 70.7604C58.495 70.6627 58.5154 70.5628 58.5382 70.4629C60.9037 59.1074 67.9071 33.7143 85.6101 8.54157V8.54157Z" fill="#03A5BA"/>
<path d="M58.4743 70.7604C58.4401 70.9375 58.4037 71.1124 58.3696 71.2827C58.4037 71.1101 58.4401 70.9352 58.4743 70.7604Z" fill="#03A5BA"/>
<path d="M65.0773 39.7645L52.3215 46.06L62.6594 50.8906L49.8923 46.9821L37.3139 51.1313L47.4767 46.1145L34.6572 40.1256L48.9506 44.502L49.931 35.1656L50.7703 44.4839L50.8021 44.4725L50.8112 44.468V44.4702L65.0773 39.7645Z" fill="white"/>
<path d="M60.3939 28.4068L56.2405 32.7151L50.9658 33.3941L55.1806 29.1835L60.3939 28.4068Z" fill="white"/>
<path d="M56.1792 35.1429L60.2689 39.4193L54.9942 38.6426L50.9341 34.2367L56.1792 35.1429Z" fill="white"/>
<path d="M55.3991 23.1583L54.6485 28.568L50.4019 32.8445L51.2457 27.403L55.3991 23.1583Z" fill="white"/>
<path d="M48.5528 27.403L49.4308 32.8445L45.0181 28.568L44.2402 23.1583L48.5528 27.403Z" fill="white"/>
<path d="M48.878 34.2367L44.6609 38.6426L39.1792 39.4193L43.4281 35.1429L48.878 34.2367Z" fill="white"/>
<path d="M48.8462 33.3941L43.3645 32.7151L39.0474 28.4068L44.4677 29.1835L48.8462 33.3941Z" fill="white"/>
</g>
<defs>
<clipPath id="clip0_3378_4893">
<rect width="233" height="82" fill="white"/>
</clipPath>
</defs>
</svg>
